<svg xmlns="http://www.w3.org/2000/svg" viewBox="0 0 153.17 232.99"><defs><style>.cls-1{opacity:0.5;}.cls-2,.cls-3{fill:#69ffff;}.cls-3,.cls-4{opacity:0.3;}.cls-4{fill:none;stroke:#69ffff;stroke-linecap:round;stroke-linejoin:round;stroke-width:5px;}</style></defs><title>资源 87</title><g id="图层_2" data-name="图层 2"><g id="图层_3" data-name="图层 3"><g class="cls-1"><path class="cls-2" d="M110.67,61.43a5.48,5.48,0,0,0-1.46-.61l-57.16-6.1a5.92,5.92,0,0,1-1.45-.61A8.18,8.18,0,0,1,49.14,53L7.09,1.8A8.5,8.5,0,0,0,5.63.71C2.81-.91.35.3.34,3.75L0,113.39a11.77,11.77,0,0,0,3.81,8l44.95,53.87a8.18,8.18,0,0,0,1.46,1.08,5.83,5.83,0,0,0,1.46.61l57.15,6.1a5.43,5.43,0,0,1,1.46.6A9.33,9.33,0,0,1,112,185l33.92,46a8.69,8.69,0,0,0,1.67,1.27c2.81,1.62,5.28.43,5.29-3l.34-109.49a11.79,11.79,0,0,0-3.62-7.86l-37.23-49.2a8.13,8.13,0,0,0-1.65-1.26"/></g><path class="cls-3" d="M112.32,62.69a8.13,8.13,0,0,0-1.65-1.26c-.17-.1-.34-.17-.5-.25V183.64l.12.06A9.33,9.33,0,0,1,112,185l33.92,46a8.69,8.69,0,0,0,1.67,1.27c2.81,1.62,5.28.43,5.29-3l.34-109.49a11.79,11.79,0,0,0-3.62-7.86Z"/><path class="cls-3" d="M50.17,53.83a7.53,7.53,0,0,1-1-.8L7.09,1.8A8.5,8.5,0,0,0,5.63.71C2.81-.91.35.3.34,3.75L0,113.39a11.77,11.77,0,0,0,3.81,8l44.95,53.87a7.73,7.73,0,0,0,1.41,1Z"/><polyline class="cls-4" points="16.16 50 50.16 90.12 110.17 96.82 136.16 134"/><line class="cls-4" x1="16.17" y1="105" x2="43.16" y2="136.86"/><polyline class="cls-4" points="86.58 120.17 110.17 123.82 136.16 161"/></g></g></svg>