<svg xmlns="http://www.w3.org/2000/svg" xmlns:xlink="http://www.w3.org/1999/xlink" viewBox="0 0 41.24 55.54"><defs><style>.cls-1{fill:url(#未命名的渐变_188);}.cls-2{fill:url(#未命名的渐变_188-2);}.cls-3{fill:url(#未命名的渐变_183);}</style><linearGradient id="未命名的渐变_188" x1="-805.02" y1="24.95" x2="-790.99" y2="24.95" gradientTransform="translate(817.97)" gradientUnits="userSpaceOnUse"><stop offset="0" stop-color="#d02565"/><stop offset="1" stop-color="#b82542"/></linearGradient><linearGradient id="未命名的渐变_188-2" x1="-812.68" y1="24.08" x2="-776.73" y2="24.08" xlink:href="#未命名的渐变_188"/><linearGradient id="未命名的渐变_183" x1="-817.97" y1="29.63" x2="-783.13" y2="29.63" gradientTransform="translate(817.97)" gradientUnits="userSpaceOnUse"><stop offset="0" stop-color="#ff4a74"/><stop offset="1" stop-color="#e62c47"/></linearGradient></defs><title>资源 89</title><g id="图层_2" data-name="图层 2"><g id="图层_3" data-name="图层 3"><path class="cls-1" d="M26,28.68h-.44a2.79,2.79,0,0,1-.4-.07h0l-.41-.12h0a3.56,3.56,0,0,1-.41-.17h0l-.41-.22a5.13,5.13,0,0,1-.52-.34l0,0a5.93,5.93,0,0,1-.51-.4l0,0-.49-.46h0c-.16-.17-.32-.34-.47-.52l0,0c-.15-.18-.29-.36-.43-.56l-.06-.07c-.1-.14-.19-.28-.28-.43a2.2,2.2,0,0,1-.18-.28c-.11-.18-.21-.36-.31-.54l0,0c-.12-.23-.23-.46-.33-.7a8.09,8.09,0,0,1-.37-1h0a9.78,9.78,0,0,1-.24-1h0a7.48,7.48,0,0,1-.12-.92h0a6,6,0,0,1,0-.85h0a5.31,5.31,0,0,1,.13-.75v0a3.8,3.8,0,0,1,.24-.62l0-.07a2.84,2.84,0,0,1,.27-.38c.05-.06.08-.11.13-.16a2.13,2.13,0,0,1,.47-.37l-6.4,3.72a2.13,2.13,0,0,0-.47.37,1,1,0,0,0-.13.16,1.41,1.41,0,0,0-.18.23s-.06.1-.09.15l0,.07,0,.07-.11.26c0,.08,0,.16-.08.24a.43.43,0,0,1,0,.05v0s0,.1,0,.15,0,.15,0,.22l0,.22s0,.1,0,.16h0v0c0,.07,0,.14,0,.21v.42a1.09,1.09,0,0,0,0,.18h0v0a1.49,1.49,0,0,0,0,.21,1.64,1.64,0,0,0,0,.22l0,.22a2.23,2.23,0,0,1,0,.23h0a1.55,1.55,0,0,0,0,.21c0,.08,0,.16.05.24a2.17,2.17,0,0,0,.07.24,2,2,0,0,0,.07.23v.06a1.21,1.21,0,0,0,.05.18c0,.07,0,.15.08.22l.08.23.09.21.07.16,0,.06.1.21.11.24c0,.06.07.12.1.19l0,0,0,0c.06.12.13.23.2.35s.06.1.08.14a2.9,2.9,0,0,0,.19.29,1.08,1.08,0,0,0,.11.18l.17.25.06.08,0,0c.06.08.12.17.19.25l.17.21,0,0,0,0,.1.12.18.2.18.19h0l.17.17.2.18.12.11,0,0,.05,0,.2.16.2.15.05,0,0,0,.1.08.19.12.19.12,0,0,.14.08.18.09.09,0h0l0,0,.18.07.18.07h0l.18.06.18,0h.09l.1,0,.2,0h.63l.26,0h0a2.63,2.63,0,0,0,.3-.09h0a1.39,1.39,0,0,0,.35-.16L27,28.38a1.39,1.39,0,0,1-.35.16A2.34,2.34,0,0,1,26,28.68Z"/><path class="cls-2" d="M41.24,32.91s0,0,0,0c0-.26,0-.52,0-.78s0-.57,0-.87c0-.08,0-.16,0-.24s0-.12,0-.18,0-.3,0-.46-.06-.59-.1-.89,0-.35-.07-.53a1.11,1.11,0,0,1,0-.17,1.46,1.46,0,0,1,0-.22c0-.3-.11-.61-.17-.92s-.12-.62-.18-.92v0h0c-.07-.32-.14-.64-.22-1s-.16-.64-.25-1L40,24.54l0-.17c-.06-.2-.11-.4-.17-.6s-.2-.63-.31-.95c0-.16-.11-.32-.17-.49l-.06-.16c0-.09-.05-.17-.08-.25-.11-.3-.22-.6-.34-.9s-.23-.58-.35-.87l0-.12a1.17,1.17,0,0,0-.05-.11c-.09-.21-.17-.42-.27-.63s-.26-.59-.41-.89-.18-.4-.28-.59l-.07-.15a.89.89,0,0,1-.08-.17c-.19-.38-.39-.76-.59-1.14l-.49-.89-.31-.54c-.12-.21-.26-.41-.39-.62-.28-.45-.56-.9-.85-1.35-.08-.11-.15-.24-.22-.35l-.69-1-.22-.32-.09-.11c-.23-.32-.47-.64-.72-.95l-.55-.68-.06-.08,0-.05c-.21-.26-.43-.52-.65-.77l-.67-.75-.11-.1-.11-.12L30,7.19c-.24-.25-.48-.49-.73-.73L29,6.25l-.17-.16-.36-.33c-.25-.23-.51-.46-.77-.67l-.34-.28-.18-.15L27,4.46l-.75-.58-.55-.39-.1-.07-.09-.06c-.24-.17-.49-.33-.73-.48L24,2.44l-.16-.09-.54-.3L23.15,2l-.28-.15-.22-.11-.31-.14a2.1,2.1,0,0,0-.26-.13L22,1.36l-.49-.21-.17-.07h0L20.58.81h0L20.32.73,19.89.58l-.12,0L19.48.47l-.3-.08L19,.35,18.69.28,18.46.23l-.21,0-.35,0a1.13,1.13,0,0,0-.18,0l-.22,0-.39,0H16l-.51,0h-.29a8.48,8.48,0,0,0-.88.13h0A9,9,0,0,0,13.2.47l-.1,0L13,.53a4.62,4.62,0,0,0-.47.19l-.22.09c-.22.1-.44.22-.66.34L5.28,4.87c.22-.12.44-.24.66-.34l.22-.1c.16-.06.31-.13.47-.18l.17-.06a9,9,0,0,1,1-.28h0a8.48,8.48,0,0,1,.88-.13l.28,0,.52,0h.77l.37,0,.39,0,.4.06.35.05.44.09.31.07.48.12.29.08c.18.06.37.11.55.18l.21.07c.26.08.51.18.77.28l.16.07.62.27.26.12.53.26.28.15.73.4c.56.32,1.13.69,1.69,1.07l.1.07c.52.37,1,.76,1.55,1.17l.18.14q.73.62,1.47,1.29l.17.16c.49.46,1,.95,1.45,1.45l.11.12c.5.53,1,1.09,1.48,1.67l.06.07c.46.57.91,1.15,1.35,1.75l.23.32c.31.43.61.88.91,1.32s.57.9.85,1.35.48.77.7,1.16c.41.73.8,1.47,1.16,2.2l.07.15c.34.7.66,1.41,1,2.11a1.17,1.17,0,0,1,.05.11c.3.71.57,1.42.82,2.13l.06.17c.24.69.46,1.37.65,2l.05.17c.2.71.38,1.42.53,2.12v0c.15.69.27,1.38.37,2.06l0,.17c.09.64.16,1.26.21,1.88a1.09,1.09,0,0,1,0,.18c.05.64.08,1.27.07,1.89a.43.43,0,0,1,0,.05c0,.63,0,1.25-.09,1.85,0,0,0,.08,0,.12-.05.57-.13,1.13-.23,1.66l0,.17A14.81,14.81,0,0,1,34.11,42a.69.69,0,0,1,0,.1,12.32,12.32,0,0,1-.45,1.25l-.15.37c-.14.3-.29.58-.45.86s-.18.34-.28.5A10.44,10.44,0,0,1,32,46.15l-.18.19a9.45,9.45,0,0,1-.76.79l-.27.24a9.15,9.15,0,0,1-1.07.78l6.4-3.72a9.15,9.15,0,0,0,1.07-.78l.27-.24c.27-.25.52-.51.77-.79l.17-.19a9.63,9.63,0,0,0,.69-1,.83.83,0,0,0,.07-.13c.1-.16.19-.34.28-.5s.23-.39.33-.6l.12-.26.15-.37.18-.42c.1-.27.19-.55.27-.83a.69.69,0,0,0,0-.1s0,0,0-.05c.09-.3.17-.61.25-.93s.07-.39.11-.58,0-.11,0-.17a.69.69,0,0,1,0-.13c.05-.29.1-.58.13-.88s0-.43.07-.65c0,0,0-.08,0-.12a.28.28,0,0,0,0-.09c0-.29,0-.57.06-.86s0-.57,0-.87Z"/><path class="cls-3" d="M29.78,19.18c6.77,12,6.74,24.82-.08,29L17.34,55.54,5.06,33.92c-6.78-12-6.74-24.81.08-29,3.24-2,7.69-1.58,12.34,1.11S26.56,13.48,29.78,19.18ZM19.11,32.39c2,.19,3.09-1.57,2.68-4.2a10,10,0,0,0-4.36-6.66,3.15,3.15,0,0,0-3.17-.31c-1.51.86-1.74,3.44-.56,6.16a9.54,9.54,0,0,0,3.7,4.41,4.39,4.39,0,0,0,1.71.6"/></g></g></svg>