<svg xmlns="http://www.w3.org/2000/svg" xmlns:xlink="http://www.w3.org/1999/xlink" viewBox="0 0 120.38 132.79"><defs><style>.cls-1{isolation:isolate;}.cls-2{opacity:0.35;mix-blend-mode:screen;fill:url(#未命名的渐变_4);}.cls-3{fill:url(#未命名的渐变_32);}.cls-4{fill:url(#未命名的渐变_4-2);}.cls-5{fill:url(#未命名的渐变_4-3);}.cls-6{fill:url(#未命名的渐变_4-4);}.cls-7{fill:url(#未命名的渐变_4-5);}</style><linearGradient id="未命名的渐变_4" x1="7.87" y1="64.89" x2="120.38" y2="64.89" gradientUnits="userSpaceOnUse"><stop offset="0" stop-color="#0867eb"/><stop offset="1" stop-color="#04b5fb"/></linearGradient><linearGradient id="未命名的渐变_32" x1="-1230.74" y1="67.9" x2="-1118.22" y2="67.9" gradientTransform="matrix(-1, 0, 0, 1, -1118.22, 0)" gradientUnits="userSpaceOnUse"><stop offset="0" stop-color="#b8fbff"/><stop offset="1" stop-color="#d8f9f9"/></linearGradient><linearGradient id="未命名的渐变_4-2" x1="86.98" y1="92.48" x2="112.51" y2="92.48" xlink:href="#未命名的渐变_4"/><linearGradient id="未命名的渐变_4-3" x1="9.08" y1="46.71" x2="80.8" y2="46.71" xlink:href="#未命名的渐变_4"/><linearGradient id="未命名的渐变_4-4" x1="9.08" y1="74.97" x2="80.8" y2="74.97" xlink:href="#未命名的渐变_4"/><linearGradient id="未命名的渐变_4-5" x1="35.21" y1="68.49" x2="80.8" y2="68.49" xlink:href="#未命名的渐变_4"/></defs><title>资源 91</title><g class="cls-1"><g id="图层_2" data-name="图层 2"><g id="图层_3" data-name="图层 3"><g id="tw"><path class="cls-2" d="M7.87,2.27V62.11a7,7,0,0,0,3.2,5.52l106.1,61.71c1.77,1,3.21.21,3.21-1.82V67.68a7.07,7.07,0,0,0-3.21-5.53L11.07.44C9.3-.58,7.87.24,7.87,2.27Z"/><path class="cls-3" d="M76.13,45.86,3.21,3.45C1.43,2.43,0,3.24,0,5.27V65.11a7,7,0,0,0,3.21,5.53l106.1,61.71c1.77,1,3.2.21,3.2-1.82V70.69a7,7,0,0,0-3.2-5.53L86.38,51.82"/><path class="cls-4" d="M87,52.17v67.29l22.33,12.89c1.77,1,3.2.21,3.2-1.82V70.69a7,7,0,0,0-3.2-5.53Z"/><path class="cls-5" d="M11.09,29.63l67.7,39.54c1.11.64,2,0,2-1.53h0a4.81,4.81,0,0,0-2-3.84L11.09,24.26c-1.11-.64-2,0-2,1.52h0A4.83,4.83,0,0,0,11.09,29.63Z"/><path class="cls-6" d="M11.09,57.88l67.7,39.54c1.11.65,2,0,2-1.52h0a4.81,4.81,0,0,0-2-3.84L11.09,52.52c-1.11-.64-2,0-2,1.52h0A4.81,4.81,0,0,0,11.09,57.88Z"/><path class="cls-7" d="M37.22,59,78.79,83.4c1.11.64,2,0,2-1.52h0a4.83,4.83,0,0,0-2-3.85L37.22,53.58c-1.11-.64-2,0-2,1.52h0A4.83,4.83,0,0,0,37.22,59Z"/></g></g></g></g></svg>