<svg xmlns="http://www.w3.org/2000/svg" xmlns:xlink="http://www.w3.org/1999/xlink" viewBox="0 0 151.42 394.55"><defs><style>.cls-1{fill:url(#未命名的渐变_130);}.cls-2{fill:#373f49;}.cls-3{fill:#ffe5cf;}.cls-4{fill:url(#未命名的渐变_44);}.cls-5{fill:#efd0bb;}.cls-6{fill:url(#未命名的渐变_131);}.cls-7{fill:url(#未命名的渐变_98);}.cls-8{fill:url(#未命名的渐变_188);}.cls-9{fill:url(#未命名的渐变_44-2);}.cls-10{fill:url(#未命名的渐变_132);}.cls-11{fill:url(#未命名的渐变_183);}.cls-12{fill:url(#未命名的渐变_44-3);}.cls-13{fill:url(#未命名的渐变_44-4);}.cls-14{fill:url(#未命名的渐变_130-2);}.cls-15{fill:url(#未命名的渐变_130-3);}.cls-16{fill:#d6b49d;}.cls-17{fill:url(#未命名的渐变_130-4);}</style><linearGradient id="未命名的渐变_130" x1="38.67" y1="223.24" x2="64.99" y2="223.24" gradientTransform="matrix(-1, 0, 0, 1, 105.86, 0)" gradientUnits="userSpaceOnUse"><stop offset="0" stop-color="#6736d9"/><stop offset="1" stop-color="#a06ffd"/></linearGradient><linearGradient id="未命名的渐变_44" x1="81.65" y1="152.56" x2="74.78" y2="153.59" gradientTransform="matrix(-1, 0, 0, 1, 105.86, 0)" gradientUnits="userSpaceOnUse"><stop offset="0" stop-color="#f3f8ff"/><stop offset="1" stop-color="#e6e8f7"/></linearGradient><linearGradient id="未命名的渐变_131" x1="46.44" y1="202.36" x2="25.63" y2="233.78" gradientTransform="matrix(-1, 0, 0, 1, 105.86, 0)" gradientUnits="userSpaceOnUse"><stop offset="0" stop-color="#00edda"/><stop offset="1" stop-color="#00c8e3"/></linearGradient><linearGradient id="未命名的渐变_98" x1="-0.43" y1="237.42" x2="66.49" y2="184.47" gradientTransform="matrix(-1, 0, 0, 1, 105.86, 0)" gradientUnits="userSpaceOnUse"><stop offset="0" stop-color="#00e2f2"/><stop offset="1" stop-color="#00f2d0"/></linearGradient><linearGradient id="未命名的渐变_188" x1="-6.6" y1="27.56" x2="14.92" y2="27.56" gradientTransform="matrix(-1, 0, 0, 1, 105.86, 0)" gradientUnits="userSpaceOnUse"><stop offset="0" stop-color="#d02565"/><stop offset="1" stop-color="#b82542"/></linearGradient><linearGradient id="未命名的渐变_44-2" x1="28.43" y1="150.49" x2="103.78" y2="184.22" xlink:href="#未命名的渐变_44"/><linearGradient id="未命名的渐变_132" x1="52.59" y1="109.92" x2="67.73" y2="94.42" gradientTransform="matrix(-1, 0, 0, 1, 105.86, 0)" gradientUnits="userSpaceOnUse"><stop offset="0" stop-color="#e6e8f7"/><stop offset="1" stop-color="#f3f8ff"/></linearGradient><linearGradient id="未命名的渐变_183" x1="-45.56" y1="17.28" x2="7.14" y2="17.28" gradientTransform="matrix(-1, 0, 0, 1, 105.86, 0)" gradientUnits="userSpaceOnUse"><stop offset="0" stop-color="#ff4a74"/><stop offset="1" stop-color="#e62c47"/></linearGradient><linearGradient id="未命名的渐变_44-3" x1="16.74" y1="130.36" x2="48.76" y2="130.36" xlink:href="#未命名的渐变_44"/><linearGradient id="未命名的渐变_44-4" x1="47.87" y1="99.85" x2="56.21" y2="107.1" xlink:href="#未命名的渐变_44"/><linearGradient id="未命名的渐变_130-2" x1="94.97" y1="384.81" x2="136.88" y2="384.81" gradientTransform="matrix(1, 0, 0, 1, 0, 0)" xlink:href="#未命名的渐变_130"/><linearGradient id="未命名的渐变_130-3" x1="12.36" y1="390.92" x2="51.45" y2="390.92" gradientTransform="matrix(1, 0, 0, 1, 0, 0)" xlink:href="#未命名的渐变_130"/><linearGradient id="未命名的渐变_130-4" x1="47.45" y1="170.81" x2="65.15" y2="170.81" xlink:href="#未命名的渐变_130"/></defs><title>资源 55</title><g id="图层_2" data-name="图层 2"><g id="图层_3" data-name="图层 3"><polygon class="cls-1" points="51.59 206.43 40.87 212.76 50.13 240.06 67.19 233.23 51.59 206.43"/><path class="cls-2" d="M81.81,215.2c12.67,10.23,28.83-13.89,23.88-28.76-3.9-11.69,13.37-26.32-2-32.65-18.28-7.55-4.88-19-20.47-23.39-18.36-5.17-14.41-2.34-15.84-6.1-3.32-8.72-11.25-11.43-16.84-20.49,0-.62.21-1,.51-1.19,1.67-.84-.06-3.37-3.14-4.1l0,0,0,0c-2.3-.54-6.08-.8-9,2.15s-1.81,8-2.93,11.69c-1.44,4.84-5.7,10.33-5.36,15.11.49,6.83,6.34,9.26,2.93,13.16S62.23,199.39,81.81,215.2Z"/><path class="cls-3" d="M39.68,132.77C27.22,141.12,3.83,163.05.9,166s1.46,15.11,10.24,10.24,27.78-18.52,27.78-18.52Z"/><path class="cls-3" d="M21.62,102.37l-21.47,65S8.94,175,14.31,173s15.1-51.17,15.1-51.17a39.66,39.66,0,0,1,4.88-4.39c3.41-2.44.48-6.82-3.41-2,1.95-9.75,1.95-8.28,2.43-10.23s-2-2.44-2.92,0c1-3.9-1.95-3.9-2.93-1.47.49-3.41-1.95-3.41-2.92-1C25,99.45,22.59,99.45,21.62,102.37Z"/><path class="cls-4" d="M24.78,144a119.42,119.42,0,0,0-2,28.27L44,158.42l-6.88-23.88Z"/><ellipse class="cls-3" cx="46.72" cy="112.12" rx="13.89" ry="11.21" transform="matrix(0.5, -0.87, 0.87, 0.5, -73.74, 96.52)"/><path class="cls-2" d="M43.3,103.59a9.8,9.8,0,0,0-6,2.48l2.8-6.27Z"/><path class="cls-2" d="M58.41,116.75c-4.38-2.44-8.28-7.31-8.28-9.26s8.77,4.39,8.77,4.39Z"/><path class="cls-5" d="M43.79,195.7l60.68,185.45s-6.58,3.66-9.5,7.56h41.91L86.44,194Z"/><polygon class="cls-6" points="86.44 194 102.61 247.66 63.77 258.09 43.79 195.71 86.44 194"/><path class="cls-3" d="M49.88,394.55H12.36s6.33-6.09,10.72-7.55C26.44,378.09,50,273.34,58,239.13L96.87,248C82.29,294.08,49.88,394.55,49.88,394.55Z"/><path class="cls-7" d="M85.22,178.65s20.71,20.71,20.71,34.36c0,4.78-7.22,36.84-7.22,36.84L57.55,241s3.54-15.17,4-17.23c2.44-10.24-17.79-28-17.79-28Z"/><path class="cls-3" d="M92.77,51.69s.49-1.95,1.46-4.88-1.46-3.41-1.46-3.41C88.39,46.81,88.39,59,88.39,59S64,128.2,57.62,128.09c-4.45,4.75-.18,17.41,6.64,20.83s14.62-4.39,14.62-4.39,29.49-88.95,29.49-90.41-7.31-10.23-9-11.45-6.58,3.65-7.06,5.12.48,6.33,1.94,5.84-.48-3.89,1-4.87"/><path class="cls-8" d="M91.67,55.13a.73.73,0,0,0,.68-.47L112.41,1A.73.73,0,0,0,112,.05a.74.74,0,0,0-1,.41L91,54.13a.74.74,0,0,0,.41.95A.86.86,0,0,0,91.67,55.13Z"/><path class="cls-9" d="M33.31,137.46c-2,20-2.92,29.73-1.46,35.09.78,2.86,10.24,18.52,12.18,22.91,12.68.49,36.56-8.28,41.43-16.57-2.92-15.11-7.31-38.5-7.31-38.5L57.68,127.72l-14.62,2.43Z"/><path class="cls-10" d="M59.38,114.11c-17.11-4-24.2-17-21.57-19.93C41.59,90,55.53,104.33,59.38,114.11Z"/><path class="cls-11" d="M110.5.59c6.69,10.22,26.56,26.22,40.92,28.48-23.63,10.22-52.7,1.31-52.7,1.31Z"/><path class="cls-3" d="M56.71,115c3.41-1,6.44,5.76-2.54,4.95C47.93,119.43,56.71,115,56.71,115Z"/><path class="cls-12" d="M89.12,126S76,112.85,66.21,112.85c-3.41,6.34-4.87,12.67-8.28,15.11S62.31,138.68,68.65,145c5.25,5.25,10.68,1.64,10.68,1.64Z"/><path class="cls-13" d="M59.38,114.11c7.86-14.31-8.66-22.92-18-15.3C46.39,106.88,54.42,113,59.38,114.11Z"/><path class="cls-14" d="M104.71,380.91l-2.43,2.62h33.26l1.34,5.18H95c2.92-3.9,9.5-7.56,9.5-7.56l-.08-.24Z"/><path class="cls-3" d="M39.89,122.11l.85,12.19a8.77,8.77,0,0,0,8,1.46,11.07,11.07,0,0,0,6.75-5.85l-2.11-12.19Z"/><path class="cls-15" d="M12.36,394.55s5.64-5.43,10-7.26a11.45,11.45,0,0,0-1.71,2.39H51.45c-.27.85-.51,1.6-.72,2.24h0c-.09.3-.18.56-.26.81s-.08.25-.11.36h0c-.31,1-.48,1.46-.48,1.46Z"/><path class="cls-3" d="M108.37,54.12c0-1.46-7.31-10.23-9-11.45s-6.58,3.65-7.06,5.12.48,6.33,1.94,5.84,7.07,1.71,8.53.74Z"/><path class="cls-16" d="M96.47,54a.31.31,0,0,0,.13,0,.25.25,0,0,0,.08-.34,9,9,0,0,1-1-3.61A9.39,9.39,0,0,1,99,46.78a.24.24,0,0,0-.25-.42,9.5,9.5,0,0,0-3.5,3.51l0,.06V50a9.48,9.48,0,0,0,1.05,3.9A.25.25,0,0,0,96.47,54Z"/><path class="cls-16" d="M98.91,56.94a.28.28,0,0,0,.12,0,.24.24,0,0,0,.09-.33,9,9,0,0,1-1-3.61,9.28,9.28,0,0,1,3.29-3.26.24.24,0,0,0,.08-.33.24.24,0,0,0-.33-.09,9.58,9.58,0,0,0-3.51,3.51l0,.06v.06a9.47,9.47,0,0,0,1,3.91A.24.24,0,0,0,98.91,56.94Z"/><path class="cls-16" d="M101.83,59.86a.31.31,0,0,0,.13,0,.25.25,0,0,0,.08-.34,9,9,0,0,1-1-3.61,9.39,9.39,0,0,1,3.29-3.25.24.24,0,0,0,.08-.34.24.24,0,0,0-.33-.08,9.5,9.5,0,0,0-3.5,3.51l0,.06v.06a9.48,9.48,0,0,0,1.05,3.9A.25.25,0,0,0,101.83,59.86Z"/><path class="cls-16" d="M28.44,112.85a.25.25,0,0,0,.24-.21,41.25,41.25,0,0,1,1.94-7.26.25.25,0,0,0-.15-.31.24.24,0,0,0-.31.14,42,42,0,0,0-2,7.36.24.24,0,0,0,.2.28Z"/><path class="cls-16" d="M25.52,111.39a.25.25,0,0,0,.24-.21,41.36,41.36,0,0,1,1.93-7.26.23.23,0,0,0-.14-.31.23.23,0,0,0-.31.14,41.63,41.63,0,0,0-2,7.36.25.25,0,0,0,.21.28Z"/><path class="cls-16" d="M22.59,110.41a.24.24,0,0,0,.24-.21A40.74,40.74,0,0,1,24.77,103a.25.25,0,0,0-.46-.18,42.26,42.26,0,0,0-2,7.37.24.24,0,0,0,.21.27Z"/><path class="cls-17" d="M58.41,127.47,55.8,128s-16.88,54-14.93,84.73l3.18,1.4S42.33,186.93,58.41,127.47Z"/></g></g></svg>