<svg xmlns="http://www.w3.org/2000/svg" xmlns:xlink="http://www.w3.org/1999/xlink" viewBox="0 0 65.63 51.12"><defs><style>.cls-1{fill:url(#未命名的渐变_159);}.cls-2{fill:url(#未命名的渐变_159-2);}.cls-3{fill:url(#未命名的渐变_159-3);}.cls-4{fill:url(#未命名的渐变_153);}</style><linearGradient id="未命名的渐变_159" x1="1.34" y1="25.19" x2="21.98" y2="25.19" gradientUnits="userSpaceOnUse"><stop offset="0" stop-color="#009587"/><stop offset="1" stop-color="#0286a7"/></linearGradient><linearGradient id="未命名的渐变_159-2" x1="28.51" y1="40.03" x2="42.18" y2="40.03" xlink:href="#未命名的渐变_159"/><linearGradient id="未命名的渐变_159-3" x1="7.37" y1="22.62" x2="65.63" y2="22.62" xlink:href="#未命名的渐变_159"/><linearGradient id="未命名的渐变_153" y1="26.59" x2="62.11" y2="26.59" gradientUnits="userSpaceOnUse"><stop offset="0" stop-color="#08ffb3"/><stop offset="1" stop-color="#0df"/></linearGradient></defs><title>资源 56</title><g id="图层_2" data-name="图层 2"><g id="图层_3" data-name="图层 3"><path class="cls-1" d="M21.53,28a1.77,1.77,0,0,1-.52,0h0a3,3,0,0,1-.56-.12h0a3.06,3.06,0,0,1-.62-.28L8.12,20.9,8,20.82l-.19-.1-.12-.06h0l0,0-.19-.08-.18-.06,0,0h0l-.12,0-.19-.06-.09,0h-.1l-.2,0H5.81l-.26,0h0l-.06,0-.26.07h0a1.58,1.58,0,0,0-.35.16L1.34,22.63a1.89,1.89,0,0,1,.35-.17L2,22.38H2a2,2,0,0,1,.34,0h.46c.13,0,.26,0,.38.06h0l.41.11h0l.43.18h0a4.92,4.92,0,0,1,.45.24l11.7,6.75.1.05.12.07.13.06.12.05.12,0h0L17,30l.13,0,.12,0,.14,0h.43a1.13,1.13,0,0,0,.18,0h0l.2,0a1.15,1.15,0,0,0,.25-.12L22,27.86a1.28,1.28,0,0,1-.45.17Z"/><path class="cls-2" d="M42.16,45.4c0-.07,0-.14,0-.22l0-.22,0-.23h0a2.07,2.07,0,0,1,0-.22c0-.08,0-.16,0-.24L41.94,44l-.06-.25-.06-.18v-.06a1.55,1.55,0,0,0-.08-.23,2.25,2.25,0,0,0-.08-.24,2,2,0,0,0-.08-.22l-.09-.22c0-.06,0-.12-.07-.17V42.4l-.11-.22a2.56,2.56,0,0,0-.11-.24c-.05-.1-.1-.19-.14-.28l-.17-.29,0,0,0-.06c-.11-.19-.22-.37-.34-.54s-.19-.28-.29-.41h0c-.07-.09-.13-.18-.2-.26l-.18-.22-.18-.21-.17-.2,0,0v0a1.85,1.85,0,0,1-.14-.14L39.06,39l-.21-.19-.2-.18-.1-.08,0,0-.08-.06-.2-.16-.2-.14-.2-.13L37.66,38l0,0-2.54-1.47a4,4,0,0,1-.6-.42h0c-.19-.16-.38-.34-.56-.52v0a6.82,6.82,0,0,1-1-1.29l0,0a6.76,6.76,0,0,1-.36-.71h0a7.51,7.51,0,0,1-.27-.75h0a5.11,5.11,0,0,1-.18-.75h0a4.71,4.71,0,0,1-.06-.74,3.52,3.52,0,0,1,.06-.66h0a2.14,2.14,0,0,1,.17-.54h0a1.93,1.93,0,0,1,.23-.35l.09-.11a1.75,1.75,0,0,1,.33-.28L29.4,31.28a1.3,1.3,0,0,0-.34.28l-.08.1a1.34,1.34,0,0,0-.11.14,2,2,0,0,0-.12.21h0a1,1,0,0,0-.07.15,1,1,0,0,0-.05.16.75.75,0,0,0,0,.16.64.64,0,0,0,0,.07h0a.17.17,0,0,0,0,.07l0,.14c0,.05,0,.1,0,.15s0,.1,0,.14v.15h0v.14a.76.76,0,0,0,0,.15.71.71,0,0,0,0,.14s0,.1,0,.15l0,.16h0a.77.77,0,0,0,0,.15l0,.16a12330855011922.73,12330855011922.73,0,0,0,.08.32.65.65,0,0,1,0,.13h0v0c0,.06,0,.11.05.16l.06.16a.88.88,0,0,0,.05.15l.06.14.05.12h0v0a1,1,0,0,1,.07.15l.08.16.09.18.11.19,0,0,0,0,.23.36.19.28.14.17.12.15.12.14.11.13,0,0h0l.09.1.13.13.13.12.14.12.07.06h0l0,0,.14.1.13.1.13.08.13.08,0,0L34.09,40a6.74,6.74,0,0,1,.91.63l0,0a8.72,8.72,0,0,1,.84.78l0,0a10.35,10.35,0,0,1,1.43,1.94l0,.05a10.56,10.56,0,0,1,.54,1.06h0a11.83,11.83,0,0,1,.42,1.13h0a9.65,9.65,0,0,1,.26,1.13h0a7,7,0,0,1,.09,1.11,5.21,5.21,0,0,1-.09,1v0a3.21,3.21,0,0,1-.26.81h0a2.64,2.64,0,0,1-.35.54l-.12.15a2.48,2.48,0,0,1-.5.42h0l3.52-2a2.19,2.19,0,0,0,.5-.41,1.83,1.83,0,0,0,.13-.16,1.66,1.66,0,0,0,.16-.21,2.29,2.29,0,0,0,.18-.31h0v0c0-.07.07-.15.1-.23s0-.16.08-.24l.06-.23s0-.07,0-.1v0a.36.36,0,0,0,0-.1,1.43,1.43,0,0,0,0-.22,1.8,1.8,0,0,1,0-.22c0-.07,0-.14,0-.21s0-.15,0-.23h0a1.27,1.27,0,0,0,0-.2A1.77,1.77,0,0,0,42.16,45.4Z"/><path class="cls-3" d="M65.63,38c0-.12,0-.24,0-.37s0-.11,0-.17v-.07a.53.53,0,0,1,0-.13c0-.12,0-.25,0-.37l-.06-.38v0h0l-.06-.36-.09-.4,0-.14,0-.08a1.16,1.16,0,0,0,0-.18l-.1-.4-.09-.3,0,0v-.06c0-.13-.09-.26-.13-.39s-.09-.26-.13-.39l0-.07,0-.06-.09-.24-.15-.37-.12-.27,0-.05,0,0c0-.12-.11-.24-.17-.36S64,31.94,64,31.8l0-.06a.2.2,0,0,1,0-.08c-.06-.1-.11-.21-.17-.32s-.14-.26-.22-.39-.07-.13-.11-.2a.2.2,0,0,1,0-.08l-.22-.33-.3-.49a.56.56,0,0,1,0-.08l-.48-.68h0L62,28.64c-.1-.12-.19-.24-.29-.35h0c-.09-.12-.19-.24-.29-.35l-.3-.33L61,27.55l0-.06-.21-.22L60.43,27l-.1-.1-.08-.07-.16-.15-.34-.29-.15-.12-.07-.07-.12-.09-.33-.25-.25-.18,0,0,0,0-.33-.21-.32-.2L58,25.12,16.32,1.05,16.08.91,15.77.75l-.21-.1,0,0-.06,0L15.15.47,14.84.36l-.05,0h0l-.2-.07L14.22.17l-.15,0L14,.12l-.1,0-.33,0-.21,0h-.89A3.32,3.32,0,0,0,12,.08h0l-.09,0a3,3,0,0,0-.43.12h0a5.3,5.3,0,0,0-.59.27L7.37,2.56A5.14,5.14,0,0,1,8,2.29l.47-.13.09,0a5.22,5.22,0,0,1,.57-.07H9.2a3.77,3.77,0,0,1,.58,0h.07c.21,0,.42.06.63.1l.07,0a6.08,6.08,0,0,1,.67.18l0,0c.23.08.48.18.72.29l0,0,.76.39L54.5,27.17c.26.15.51.31.77.49l0,0c.23.16.46.34.69.52l.08.06c.22.18.43.37.65.57l.07.07c.22.2.43.41.64.63l.05.06c.22.23.43.48.64.73h0c.21.25.42.52.62.79h0c.19.24.36.5.53.76s.21.32.31.49l.26.41A2,2,0,0,0,60,33c.13.24.26.47.38.71,0,0,0,0,0,.08.15.29.29.59.42.88l0,0c.13.29.24.59.35.88l0,.06c.12.3.22.6.31.91l0,0c.08.29.16.58.23.88l0,.08c.07.3.13.6.17.9h0c0,.3.08.6.1.9v.07c0,.3,0,.59,0,.88s0,.57,0,.84a.2.2,0,0,0,0,.07c0,.25-.06.49-.11.72,0,0,0,.06,0,.09a5.79,5.79,0,0,1-.17.63l0,.11c-.07.19-.14.37-.22.55,0,0,0,0,0,.06a4.88,4.88,0,0,1-.31.55,4.12,4.12,0,0,1-.52.65l-.15.14a4.34,4.34,0,0,1-.64.49l3.52-2.05a3.08,3.08,0,0,0,.65-.49l.14-.14a4.28,4.28,0,0,0,.53-.65h0a4.3,4.3,0,0,0,.28-.52v0l0-.06c0-.12.1-.23.15-.36l.06-.18a.56.56,0,0,1,0-.12l0-.1a3.69,3.69,0,0,0,.1-.39l0-.14s0-.06,0-.09l0-.14c0-.12,0-.24,0-.37a1.23,1.23,0,0,0,0-.2v-.08s0-.05,0-.08,0-.24,0-.36,0-.25,0-.37V38Z"/><path class="cls-4" d="M54.5,27.17c4.21,2.44,7.62,8.33,7.61,13.17s-3.44,6.8-7.66,4.37L31.57,31.5c-1.69-1-3.06-.2-3.06,1.74a6.67,6.67,0,0,0,3,5.27L34.09,40a10,10,0,0,1,4.56,7.9c0,2.9-2.06,4.08-4.59,2.62l-29.5-17A10,10,0,0,1,0,25.56c0-2.9,2.06-4.07,4.59-2.61l11.7,6.75c1.68,1,3.06.19,3.06-1.75a6.69,6.69,0,0,0-3-5.26l-3.56-2.06A16.75,16.75,0,0,1,5.14,7.46c0-4.85,3.44-6.8,7.66-4.37Z"/></g></g></svg>