<svg xmlns="http://www.w3.org/2000/svg" xmlns:xlink="http://www.w3.org/1999/xlink" viewBox="0 0 76.22 105.01"><defs><style>.cls-1{fill:url(#未命名的渐变_159);}.cls-2{fill:url(#未命名的渐变_159-2);}.cls-3{fill:url(#未命名的渐变_153);}</style><linearGradient id="未命名的渐变_159" x1="715.78" y1="4.78" x2="691.43" y2="90.96" gradientTransform="translate(-662.86)" gradientUnits="userSpaceOnUse"><stop offset="0" stop-color="#009587"/><stop offset="1" stop-color="#0286a7"/></linearGradient><linearGradient id="未命名的渐变_159-2" x1="704.37" y1="1.56" x2="680.03" y2="87.74" xlink:href="#未命名的渐变_159"/><linearGradient id="未命名的渐变_153" x1="672.08" y1="55.18" x2="739.08" y2="55.18" gradientTransform="translate(-662.86)" gradientUnits="userSpaceOnUse"><stop offset="0" stop-color="#08ffb3"/><stop offset="1" stop-color="#0df"/></linearGradient></defs><title>资源 57</title><g id="图层_2" data-name="图层 2"><g id="图层_3" data-name="图层 3"><path class="cls-1" d="M53.56,42.6c0-.11,0-.23,0-.34,0-.41-.08-.82-.15-1.2,0-.05,0-.09,0-.14a7.81,7.81,0,0,0-.25-1c0-.1-.06-.2-.1-.3a8.34,8.34,0,0,0-.33-.8l-.09-.2a6.91,6.91,0,0,0-.54-.86l-.15-.18a5.56,5.56,0,0,0-.52-.56l-.21-.19a5,5,0,0,0-.79-.57l-9.22-5.36a5.46,5.46,0,0,1,.79.57l.21.19a5.56,5.56,0,0,1,.52.56l.15.18a6.91,6.91,0,0,1,.54.86l.09.2a8.34,8.34,0,0,1,.33.8c0,.1.07.2.1.3a10,10,0,0,1,.25,1l0,.14a11.24,11.24,0,0,1,.15,1.2c0,.11,0,.23,0,.34,0,.33,0,.66,0,1,0,.11,0,.23,0,.35,0,.44-.06.9-.11,1.36,0,.08,0,.15,0,.23-.05.38-.12.76-.2,1.14,0,.17-.07.35-.11.52s-.1.44-.16.66-.11.41-.17.62-.1.33-.16.5-.16.49-.25.73-.09.26-.14.4c-.14.37-.28.74-.45,1.11-.24.56-.5,1.1-.77,1.63l-.09.17c-.26.5-.54,1-.83,1.46l-.15.24c-.28.46-.58.9-.9,1.34l-.21.29c-.26.35-.53.69-.8,1l-.29.36-.66.72c-.18.2-.36.4-.55.59-.35.35-.72.7-1.08,1l-.23.18c-.31.27-.63.52-1,.75l-.32.23c-.39.28-.78.54-1.17.77a14.24,14.24,0,0,1-1.36.67l-.39.16a7.92,7.92,0,0,1-.78.26,3.19,3.19,0,0,1-.44.13l-.44.1a6.69,6.69,0,0,1-.74.12,8,8,0,0,1-.84,0h-.22a7.07,7.07,0,0,1-.82-.1l-.16,0c-.22,0-.43-.11-.64-.18l-.18-.06a5.17,5.17,0,0,1-.71-.34l9.22,5.36,0,0c.18.1.36.18.54.26l.12,0,.19.07a2.67,2.67,0,0,0,.26.09c.12,0,.25.06.37.09l.16,0,.07,0c.22,0,.43.06.66.08h.72a3.11,3.11,0,0,0,.43,0l.39,0,.35-.07.45-.1.17,0,.27-.1c.25-.07.51-.16.77-.26l.22-.08.17-.08A13.16,13.16,0,0,0,42.78,62c.39-.23.78-.49,1.17-.77l.33-.23c.31-.23.63-.48.94-.75l.23-.18c.33-.29.65-.59,1-.9l.11-.12c.19-.19.37-.39.56-.59l.51-.55c0-.06.09-.12.14-.17l.29-.36c.15-.18.3-.35.44-.53s.24-.33.36-.49l.22-.29c0-.07.1-.13.14-.2.22-.3.42-.61.62-.93l.14-.22c0-.07.09-.15.14-.23s.19-.3.28-.46.34-.59.5-.9l.06-.11.08-.16.33-.64c.15-.31.29-.63.43-.95l0,0q.21-.48.39-1a.88.88,0,0,0,0-.15l.15-.4c0-.16.12-.32.17-.48a1.82,1.82,0,0,0,.07-.25c.06-.17.11-.33.16-.5s.07-.24.11-.36l.06-.26c.06-.22.11-.44.16-.66s.06-.22.08-.33,0-.12,0-.19c.07-.38.14-.76.19-1.14a1.25,1.25,0,0,0,0-.19.06.06,0,0,0,0,0c.06-.47.09-.92.11-1.36,0-.12,0-.24,0-.35C53.59,43.26,53.58,42.93,53.56,42.6Z"/><path class="cls-2" d="M17.38,89.59c-.29-.23-.57-.47-.84-.71s-.29-.27-.43-.41-.5-.5-.74-.76L15,87.29c-.26-.31-.51-.62-.75-.94-.09-.12-.18-.23-.26-.35-.32-.44-.62-.9-.91-1.37l-.18-.32q-.33-.57-.63-1.17L12,82.6c-.16-.35-.32-.7-.46-1.06q-.13-.3-.24-.6c-.14-.37-.28-.75-.4-1.13-.07-.19-.13-.38-.19-.58-.15-.48-.29-1-.42-1.48,0-.1,0-.19-.07-.29-.15-.6-.28-1.22-.39-1.85l-.09-.56c-.08-.45-.14-.91-.2-1.38,0-.23-.06-.47-.08-.71q-.08-.66-.12-1.32c0-.25,0-.49-.05-.74,0-.48,0-1,0-1.45,0-.21,0-.42,0-.64q0-1.05,0-2.13c0-.06,0-.13,0-.2,0-.65.06-1.32.12-2,0-.25,0-.49.07-.74,0-.5.1-1,.16-1.52,0-.27.07-.55.11-.83.06-.49.14-1,.22-1.47,0-.28.09-.55.13-.83.1-.54.21-1.09.32-1.64,0-.21.08-.42.13-.63.26-1.21.56-2.43.9-3.67,0-.14.07-.29.11-.44.29-1,.61-2,1-3.08.07-.23.15-.45.22-.68.31-.9.63-1.8,1-2.7l.09-.23c.35-.92.73-1.84,1.12-2.75l.33-.75c.31-.71.63-1.41,1-2.11l.31-.67c.44-.89.88-1.77,1.35-2.66.36-.67.72-1.34,1.1-2,.26-.46.53-.91.8-1.37.41-.69.83-1.38,1.25-2.06.1-.14.19-.29.28-.44.54-.85,1.1-1.67,1.67-2.49l.4-.57c.6-.85,1.22-1.69,1.85-2.5a1.09,1.09,0,0,1,.13-.17c.79-1,1.61-2,2.44-3,.1-.13.21-.26.32-.38.51-.59,1-1.17,1.56-1.73l.09-.1c.56-.59,1.12-1.17,1.69-1.74l.35-.33q1.13-1.11,2.28-2.13l.23-.21c.8-.7,1.61-1.37,2.42-2l.47-.36c.8-.62,1.61-1.21,2.42-1.77l.43-.28c.86-.57,1.71-1.12,2.58-1.61.69-.41,1.39-.77,2.08-1.12l.56-.28c.57-.27,1.13-.53,1.69-.77l.42-.18c.6-.25,1.2-.47,1.8-.68l.25-.08c.51-.17,1-.33,1.52-.46l.82-.22.67-.16.86-.16.63-.12.32,0c.69-.1,1.37-.17,2-.2l.34,0c.64,0,1.28,0,1.9,0l.45,0c.48,0,.95.09,1.42.16l.42.07A14.5,14.5,0,0,1,62.44,6c.1,0,.19.06.29.09.43.13.86.28,1.28.45l.46.19c.4.18.8.37,1.19.58.13.08.28.14.41.22L56.85,2.21l-.18-.1A1.67,1.67,0,0,1,56.44,2c-.39-.21-.79-.4-1.2-.58L55,1.3l-.23-.08c-.42-.17-.85-.32-1.28-.45L53.28.69h-.06A15,15,0,0,0,51.58.3a.7.7,0,0,0-.14,0l-.28,0C50.69.16,50.22.1,49.74.07l-.28,0h-.17c-.62,0-1.26,0-1.9,0h-.11l-.23,0c-.67,0-1.35.1-2,.2l-.2,0-.12,0c-.21,0-.42.08-.63.12l-.87.16-.66.16-.65.16-.17.06c-.51.13-1,.29-1.52.46l-.26.08c-.59.21-1.19.44-1.79.68l-.12,0-.3.13c-.56.24-1.12.5-1.69.77l-.57.28c-.69.35-1.38.72-2.08,1.12-.86.5-1.71,1-2.57,1.61l-.43.29C29.57,7,28.76,7.55,28,8.17l-.47.36c-.81.64-1.62,1.31-2.42,2l-.23.21c-.77.68-1.54,1.4-2.29,2.13l-.22.21-.12.12c-.57.57-1.14,1.15-1.69,1.74l-.09.1c-.53.56-1.05,1.14-1.56,1.73l-.14.15-.19.23c-.83,1-1.64,1.95-2.44,3l0,0-.1.14c-.63.82-1.25,1.65-1.85,2.5l-.24.33-.16.24c-.57.82-1.13,1.65-1.67,2.49L12,26l-.2.34c-.43.68-.85,1.37-1.26,2.06-.08.13-.16.24-.23.37l-.58,1c-.35.63-.7,1.26-1,1.89l-.06.12c-.47.88-.92,1.77-1.35,2.66l-.1.21c-.08.15-.14.31-.22.46-.33.7-.65,1.4-1,2.11-.06.14-.14.29-.2.44s-.08.2-.13.31c-.39.91-.77,1.83-1.12,2.75l0,0a1.34,1.34,0,0,0-.07.18c-.34.91-.66,1.81-1,2.7,0,.13-.09.26-.14.38s-.05.2-.08.3c-.35,1-.66,2.06-1,3.08a.84.84,0,0,1,0,.17c0,.1,0,.18-.07.28-.33,1.23-.64,2.45-.9,3.66a.36.36,0,0,1,0,.1c0,.18-.07.35-.1.53-.11.55-.22,1.1-.32,1.65,0,.27-.09.55-.13.82-.08.49-.16,1-.23,1.47l-.06.45c0,.13,0,.25,0,.38-.07.51-.12,1-.17,1.52,0,.25-.05.5-.07.74q-.08,1-.12,2c0,.07,0,.14,0,.2,0,.72,0,1.43,0,2.14,0,.21,0,.42,0,.63,0,.49,0,1,.05,1.45,0,.25,0,.5,0,.74q0,.68.12,1.32c0,.24,0,.48.07.71.06.47.13.93.21,1.39,0,.18,0,.37.09.55.11.63.24,1.25.38,1.85,0,.1.06.19.08.29.13.5.26,1,.41,1.48.06.2.13.39.19.58.13.38.26.76.41,1.13.07.2.15.4.23.6.15.36.31.71.47,1.06l.26.54c.2.4.41.79.64,1.18a2.91,2.91,0,0,0,.17.3c.28.48.59.94.9,1.39L5,81c.24.32.49.64.75.94l.38.42c.24.26.48.52.74.77l.42.4c.28.24.56.48.85.71l.39.32c.43.32.87.62,1.33.9l9.22,5.36a15.32,15.32,0,0,1-1.32-.9Z"/><path class="cls-3" d="M66.34,7.73c13.11,8,13.18,32.64.16,55.72L42.88,105,19.1,90.81C6,82.83,5.92,58.19,19,35.09,25.13,24.13,33.68,15,42.61,9.87S60.1,3.94,66.34,7.73ZM51.79,51.23c2.86-6.6,2.27-12.87-1.41-14.95-2-1.17-4.79-.89-7.66.77-5.21,3-9.64,9.8-10.63,16.2s1.75,10.69,6.54,10.19A10.63,10.63,0,0,0,42.78,62a23.32,23.32,0,0,0,9-10.77"/></g></g></svg>