<svg xmlns="http://www.w3.org/2000/svg" xmlns:xlink="http://www.w3.org/1999/xlink" viewBox="0 0 92.31 149.68"><defs><style>.cls-1{fill:none;}.cls-2{isolation:isolate;}.cls-3{fill:url(#未命名的渐变_3);}.cls-4{fill:url(#未命名的渐变_68);}.cls-5{fill:url(#未命名的渐变_3-2);}.cls-6{fill:url(#未命名的渐变_68-2);}.cls-7{clip-path:url(#clip-path);}.cls-8{fill:#633d23;}.cls-9{fill:#603b22;}.cls-10{fill:#5d3a21;}.cls-11{fill:#5a3820;}.cls-12{fill:#58361f;}.cls-13{fill:#55351e;}.cls-14{fill:#52331d;}.cls-15{fill:#4f311c;}.cls-16{fill:#4d301b;}.cls-17{fill:#4a2e1a;}.cls-18{fill:#472c19;}.cls-19{clip-path:url(#clip-path-2);}.cls-20{clip-path:url(#clip-path-3);}.cls-21{fill:#6a4225;}.cls-22{clip-path:url(#clip-path-4);}.cls-23{fill:#653f24;}.cls-24{fill:#684124;}.cls-25{fill:#6b4225;}.cls-26{fill:#6e4426;}.cls-27{clip-path:url(#clip-path-5);}.cls-28{clip-path:url(#clip-path-6);}.cls-29{fill:#704627;}.cls-30{fill:#734728;}.cls-31{fill:#764929;}.cls-32{fill:#794b2a;}.cls-33{fill:#7b4d2b;}.cls-34{fill:#7e4e2c;}.cls-35{fill:#81502d;}.cls-36{fill:#84522e;}.cls-37{fill:#86532f;}.cls-38{fill:#895530;}.cls-39{fill:#976949;}.cls-40{fill:#9d7253;}.cls-41{fill:#a2785b;}.cls-42{fill:#a57e62;}.cls-43{fill:#a98368;}.cls-44{clip-path:url(#clip-path-7);}.cls-45{clip-path:url(#clip-path-8);}.cls-46{fill:#c5c5c5;}.cls-47{clip-path:url(#clip-path-9);}.cls-48{clip-path:url(#clip-path-10);}.cls-49{fill:url(#未命名的渐变_50);}.cls-50{fill:url(#未命名的渐变_50-2);}.cls-51{fill:url(#未命名的渐变_50-3);}.cls-52{clip-path:url(#clip-path-11);}.cls-53{clip-path:url(#clip-path-12);}.cls-54{fill:url(#未命名的渐变_50-4);}.cls-55{fill:url(#未命名的渐变_50-5);}.cls-56{fill:url(#未命名的渐变_50-6);}.cls-57{fill:url(#未命名的渐变_50-7);}.cls-58{fill:url(#未命名的渐变_8);}.cls-59{fill:url(#未命名的渐变_3-3);}.cls-60,.cls-61{fill:#011f9e;}.cls-61{opacity:0.7;}.cls-62{fill:url(#未命名的渐变_53);}.cls-63{fill:url(#未命名的渐变_53-2);}.cls-64{fill:url(#未命名的渐变_3-4);}</style><linearGradient id="未命名的渐变_3" x1="10.37" y1="125.95" x2="17.65" y2="125.95" gradientUnits="userSpaceOnUse"><stop offset="0" stop-color="#31e0e4"/><stop offset="1" stop-color="#0057c0"/></linearGradient><linearGradient id="未命名的渐变_68" x1="16.89" y1="119.76" x2="45.84" y2="119.76" gradientUnits="userSpaceOnUse"><stop offset="0" stop-color="#148fcf"/><stop offset="1" stop-color="#025bc1"/></linearGradient><linearGradient id="未命名的渐变_3-2" x1="46.24" y1="146.66" x2="53.52" y2="146.66" xlink:href="#未命名的渐变_3"/><linearGradient id="未命名的渐变_68-2" x1="52.76" y1="140.47" x2="81.71" y2="140.47" xlink:href="#未命名的渐变_68"/><clipPath id="clip-path"><path class="cls-1" d="M42.43,90.71l-28.2,16.38a1.45,1.45,0,0,0,.61-1.34L43,89.37A1.47,1.47,0,0,1,42.43,90.71Z"/></clipPath><clipPath id="clip-path-2"><path class="cls-1" d="M55.25,98.11,27.06,114.5a1.48,1.48,0,0,0,.6-1.34L55.85,96.77A1.47,1.47,0,0,1,55.25,98.11Z"/></clipPath><clipPath id="clip-path-3"><path class="cls-1" d="M68.07,105.51,39.88,121.9a1.45,1.45,0,0,0,.61-1.34l28.19-16.38A1.43,1.43,0,0,1,68.07,105.51Z"/></clipPath><clipPath id="clip-path-4"><path class="cls-1" d="M11.41,49,39.6,32.62a1.47,1.47,0,0,1,1.48.14L12.89,49.15A1.45,1.45,0,0,0,11.41,49Z"/></clipPath><clipPath id="clip-path-5"><path class="cls-1" d="M80.9,112.92,52.71,129.3a1.47,1.47,0,0,0,.61-1.33l28.19-16.39A1.47,1.47,0,0,1,80.9,112.92Z"/></clipPath><clipPath id="clip-path-6"><path class="cls-1" d="M12.89,49.15,41.08,32.76a4.61,4.61,0,0,1,2.08,3.6L15,52.74A4.54,4.54,0,0,0,12.89,49.15Z"/></clipPath><clipPath id="clip-path-7"><path class="cls-1" d="M24.24,56.41,52.43,40a1.47,1.47,0,0,1,1.48.14L25.72,56.55A1.47,1.47,0,0,0,24.24,56.41Z"/></clipPath><clipPath id="clip-path-8"><path class="cls-1" d="M25.72,56.55,53.91,40.17A4.57,4.57,0,0,1,56,43.76L27.78,60.14A4.54,4.54,0,0,0,25.72,56.55Z"/></clipPath><clipPath id="clip-path-9"><path class="cls-1" d="M37.06,63.81,65.25,47.43a1.47,1.47,0,0,1,1.48.14L38.54,64A1.45,1.45,0,0,0,37.06,63.81Z"/></clipPath><clipPath id="clip-path-10"><path class="cls-1" d="M38.54,64,66.73,47.57a4.56,4.56,0,0,1,2.07,3.6L40.61,67.55A4.54,4.54,0,0,0,38.54,64Z"/></clipPath><linearGradient id="未命名的渐变_50" x1="39.49" y1="33.07" x2="39.71" y2="32.16" gradientUnits="userSpaceOnUse"><stop offset="0" stop-color="#002083"/><stop offset="1" stop-color="#0f51b9"/></linearGradient><linearGradient id="未命名的渐变_50-2" x1="52.04" y1="41.63" x2="52.82" y2="38.42" xlink:href="#未命名的渐变_50"/><linearGradient id="未命名的渐变_50-3" x1="37.65" y1="115.25" x2="48.58" y2="70.27" xlink:href="#未命名的渐变_50"/><clipPath id="clip-path-11"><path class="cls-1" d="M49.88,71.22,78.07,54.83a1.47,1.47,0,0,1,1.49.15L51.36,71.36A1.47,1.47,0,0,0,49.88,71.22Z"/></clipPath><clipPath id="clip-path-12"><path class="cls-1" d="M51.36,71.36,79.56,55a4.59,4.59,0,0,1,2.07,3.59L53.44,75A4.58,4.58,0,0,0,51.36,71.36Z"/></clipPath><linearGradient id="未命名的渐变_50-4" x1="25.25" y1="57.18" x2="2.99" y2="97.83" xlink:href="#未命名的渐变_50"/><linearGradient id="未命名的渐变_50-5" x1="38.27" y1="64.23" x2="16" y2="104.88" xlink:href="#未命名的渐变_50"/><linearGradient id="未命名的渐变_50-6" x1="51.29" y1="71.28" x2="29.02" y2="111.93" xlink:href="#未命名的渐变_50"/><linearGradient id="未命名的渐变_50-7" x1="64.31" y1="78.33" x2="42.04" y2="118.98" xlink:href="#未命名的渐变_50"/><linearGradient id="未命名的渐变_8" x1="35.31" y1="13.86" x2="66.42" y2="82.45" gradientUnits="userSpaceOnUse"><stop offset="0" stop-color="#28a5e6"/><stop offset="1" stop-color="#011f9e"/></linearGradient><linearGradient id="未命名的渐变_3-3" x1="27.36" y1="38.29" x2="36.05" y2="132.29" xlink:href="#未命名的渐变_3"/><linearGradient id="未命名的渐变_53" x1="34.07" y1="12.23" x2="40.21" y2="33.86" gradientUnits="userSpaceOnUse"><stop offset="0" stop-color="#1769c6"/><stop offset="1" stop-color="#011f9e"/></linearGradient><linearGradient id="未命名的渐变_53-2" x1="32.25" y1="1.64" x2="75.62" y2="38.55" xlink:href="#未命名的渐变_53"/><linearGradient id="未命名的渐变_3-4" x1="38.6" y1="2.6" x2="46.6" y2="67.16" xlink:href="#未命名的渐变_3"/></defs><title>资源 58</title><g id="图层_2" data-name="图层 2"><g id="图层_3" data-name="图层 3"><g class="cls-2"><path class="cls-3" d="M17.65,127.12c0,1.66-1.17,2.31-2.6,1.49L13,127.4a5.68,5.68,0,0,1-2.58-4.47Z"/><path class="cls-4" d="M17.65,127.12a2.47,2.47,0,0,1-.06.56v0a1.66,1.66,0,0,1-.15.46h0a1.1,1.1,0,0,1-.2.31l-.07.09a1.23,1.23,0,0,1-.28.23l28.19-16.38a1.32,1.32,0,0,0,.29-.24l.07-.09.09-.11a1.62,1.62,0,0,0,.1-.18h0s0-.08,0-.13,0-.09.05-.13l0-.14s0,0,0-.06h0a.07.07,0,0,1,0,0s0-.09,0-.13,0-.08,0-.13a.49.49,0,0,1,0-.12v-.13h0Z"/></g><g class="cls-2"><path class="cls-5" d="M53.52,147.83c0,1.66-1.17,2.32-2.6,1.49l-2.1-1.21a5.68,5.68,0,0,1-2.58-4.47Z"/><path class="cls-6" d="M53.52,147.83a2.47,2.47,0,0,1-.06.56v0a1.66,1.66,0,0,1-.15.46h0a1.21,1.21,0,0,1-.2.3l-.07.09a1.23,1.23,0,0,1-.28.23L81,133.12a1,1,0,0,0,.28-.23l.08-.09.09-.12.1-.17v0h0a.61.61,0,0,1,0-.12.74.74,0,0,0,0-.14.57.57,0,0,0,0-.14s0,0,0-.06h0a.11.11,0,0,0,0,0,.59.59,0,0,0,0-.13s0-.08,0-.13v-.12a.53.53,0,0,0,0-.13h0Z"/></g><g class="cls-2"><g class="cls-7"><g class="cls-2"><polyline class="cls-8" points="14.84 105.75 43.03 89.37 43.03 89.38 14.84 105.76 14.84 105.75"/><path class="cls-9" d="M14.84,105.76,43,89.38v.1L14.84,105.86v-.1"/><path class="cls-10" d="M14.84,105.86,43,89.48v.1L14.83,106a.34.34,0,0,0,0-.1"/><path class="cls-11" d="M14.83,106,43,89.58a.31.31,0,0,0,0,.1l-28.2,16.38a.34.34,0,0,0,0-.1"/><path class="cls-12" d="M14.82,106.06,43,89.68s0,.06,0,.1L14.81,106.16s0-.07,0-.1"/><path class="cls-13" d="M14.81,106.16,43,89.78s0,.06,0,.1L14.79,106.26s0-.07,0-.1"/><path class="cls-14" d="M14.79,106.26,43,89.88l0,.1L14.76,106.37l0-.11"/><path class="cls-15" d="M14.76,106.37,43,90l0,.11-28.2,16.39a.76.76,0,0,0,0-.11"/><path class="cls-16" d="M14.72,106.48l28.2-16.39a.61.61,0,0,0-.05.12l-28.2,16.38a.37.37,0,0,0,.05-.11"/><path class="cls-17" d="M14.67,106.59l28.2-16.38c0,.05,0,.1-.08.14L14.6,106.74s.05-.09.07-.15"/><path class="cls-18" d="M14.6,106.74,42.79,90.35a1.12,1.12,0,0,1-.36.36l-28.2,16.38a1,1,0,0,0,.37-.35"/></g></g></g><g class="cls-2"><g class="cls-19"><g class="cls-2"><polyline class="cls-8" points="27.66 113.16 55.85 96.77 55.85 96.78 27.66 113.16 27.66 113.16"/><path class="cls-9" d="M27.66,113.16,55.85,96.78v.1L27.66,113.26v-.1"/><path class="cls-10" d="M27.66,113.26,55.85,96.88V97l-28.2,16.38a.31.31,0,0,0,0-.1"/><path class="cls-11" d="M27.65,113.36,55.85,97a.34.34,0,0,0,0,.1l-28.2,16.38a.31.31,0,0,0,0-.1"/><path class="cls-12" d="M27.64,113.46l28.2-16.38s0,.07,0,.1L27.63,113.56s0-.06,0-.1"/><path class="cls-13" d="M27.63,113.56,55.82,97.18s0,.07,0,.1L27.61,113.67s0-.07,0-.11"/><path class="cls-14" d="M27.61,113.67,55.8,97.28l0,.11L27.58,113.77l0-.1"/><path class="cls-15" d="M27.58,113.77,55.77,97.39l0,.11-28.2,16.38a.36.36,0,0,0,0-.11"/><path class="cls-16" d="M27.54,113.88,55.74,97.5a.61.61,0,0,0-.05.12L27.49,114a.61.61,0,0,0,.05-.12"/><path class="cls-17" d="M27.49,114l28.2-16.38s0,.1-.08.14l-28.2,16.38a.64.64,0,0,0,.08-.14"/><path class="cls-18" d="M27.41,114.14l28.2-16.38a1.09,1.09,0,0,1-.36.35L27.06,114.5a1.1,1.1,0,0,0,.35-.36"/></g></g></g><g class="cls-2"><g class="cls-20"><g class="cls-2"><polyline class="cls-8" points="40.49 120.56 68.68 104.18 68.68 104.19 40.49 120.57 40.49 120.56"/><path class="cls-9" d="M40.49,120.57l28.19-16.39v.11L40.49,120.67v-.1"/><path class="cls-10" d="M40.49,120.67l28.19-16.38a.28.28,0,0,1,0,.09L40.48,120.77s0-.07,0-.1"/><path class="cls-11" d="M40.48,120.77l28.19-16.39a.31.31,0,0,1,0,.1L40.47,120.87s0-.07,0-.1"/><path class="cls-12" d="M40.47,120.87l28.19-16.39s0,.07,0,.1L40.46,121s0-.07,0-.1"/><path class="cls-13" d="M40.46,121l28.19-16.39a.44.44,0,0,0,0,.1L40.44,121.07a.3.3,0,0,1,0-.1"/><path class="cls-14" d="M40.44,121.07l28.19-16.39,0,.11L40.41,121.17l0-.1"/><path class="cls-15" d="M40.41,121.17,68.6,104.79a.36.36,0,0,1,0,.11L40.37,121.28s0-.07,0-.11"/><path class="cls-16" d="M40.37,121.28,68.56,104.9a.61.61,0,0,1,0,.12L40.32,121.4a.61.61,0,0,0,0-.12"/><path class="cls-17" d="M40.32,121.4,68.51,105a.64.64,0,0,1-.08.14L40.24,121.54a.64.64,0,0,0,.08-.14"/><path class="cls-18" d="M40.24,121.54l28.19-16.38a.93.93,0,0,1-.36.35L39.88,121.9a1,1,0,0,0,.36-.36"/></g></g></g><polygon class="cls-21" points="14.96 52.74 43.16 36.36 43.03 89.37 14.84 105.75 14.96 52.74"/><g class="cls-2"><g class="cls-22"><g class="cls-2"><path class="cls-18" d="M11.41,49,39.6,32.62l.17-.08L11.58,48.92l-.17.08"/><path class="cls-17" d="M11.58,48.92,39.77,32.54l.14,0L11.72,48.88l-.14,0"/><path class="cls-16" d="M11.72,48.88,39.91,32.5l.12,0L11.84,48.87h-.12"/><path class="cls-15" d="M11.84,48.87,40,32.48h.11L12,48.86h-.11"/><path class="cls-14" d="M12,48.86,40.14,32.48h.1L12.05,48.87H12"/><path class="cls-13" d="M12.05,48.87,40.24,32.48h.09L12.14,48.87h-.09"/><path class="cls-12" d="M12.14,48.87,40.33,32.49l.09,0L12.23,48.89l-.09,0"/><path class="cls-11" d="M12.23,48.89,40.42,32.51l.09,0L12.32,48.91l-.09,0"/><path class="cls-10" d="M12.32,48.91,40.51,32.53l.09,0L12.4,48.93l-.08,0"/><path class="cls-9" d="M12.4,48.93,40.6,32.55l.08,0L12.49,49l-.09,0"/><path class="cls-8" d="M12.49,49,40.68,32.58l.08,0L12.57,49l-.08,0"/><path class="cls-23" d="M12.57,49,40.76,32.61l.09,0L12.65,49a.2.2,0,0,0-.08,0"/><path class="cls-24" d="M12.65,49l28.2-16.39.08,0L12.74,49.07l-.09,0"/><path class="cls-25" d="M12.74,49.07,40.93,32.68l.09,0L12.82,49.11l-.08,0"/><path class="cls-26" d="M12.82,49.11,41,32.73l.06,0L12.89,49.15l-.07,0"/></g></g></g><g class="cls-2"><g class="cls-27"><g class="cls-2"><polyline class="cls-8" points="53.32 127.97 81.51 111.58 81.51 111.59 53.32 127.97 53.32 127.97"/><path class="cls-9" d="M53.32,128l28.19-16.38v.1l-28.2,16.38a.31.31,0,0,0,0-.1"/><path class="cls-10" d="M53.31,128.07l28.2-16.38a.34.34,0,0,0,0,.1L53.31,128.17v-.1"/><path class="cls-11" d="M53.31,128.17,81.5,111.79s0,.07,0,.1L53.3,128.27a.38.38,0,0,1,0-.1"/><path class="cls-12" d="M53.3,128.27l28.19-16.38s0,.07,0,.1L53.28,128.37s0-.06,0-.1"/><path class="cls-13" d="M53.28,128.37,81.47,112a.36.36,0,0,1,0,.1L53.26,128.47a.3.3,0,0,0,0-.1"/><path class="cls-14" d="M53.26,128.47l28.19-16.38a.43.43,0,0,1,0,.11l-28.2,16.38,0-.11"/><path class="cls-15" d="M53.23,128.58l28.2-16.38s0,.07,0,.11L53.2,128.69l0-.11"/><path class="cls-16" d="M53.2,128.69l28.19-16.38a1.17,1.17,0,0,1,0,.11L53.15,128.81l.05-.12"/><path class="cls-17" d="M53.15,128.81l28.19-16.39a1.09,1.09,0,0,1-.08.15L53.07,129s0-.09.08-.14"/><path class="cls-18" d="M53.07,129l28.19-16.38a1.09,1.09,0,0,1-.36.35L52.71,129.3a1.09,1.09,0,0,0,.36-.35"/></g></g></g><g class="cls-2"><g class="cls-28"><g class="cls-2"><path class="cls-26" d="M12.89,49.15,41.08,32.76l0,0L12.91,49.16h0"/><path class="cls-29" d="M12.91,49.16,41.1,32.78l.09,0L13,49.21l-.09-.05"/><path class="cls-30" d="M13,49.21,41.19,32.83l.09.06L13.09,49.27,13,49.21"/><path class="cls-31" d="M13.09,49.27,41.28,32.89l.09.06L13.18,49.34l-.09-.07"/><path class="cls-32" d="M13.18,49.34,41.37,33l.09.07L13.27,49.41l-.09-.07"/><path class="cls-33" d="M13.27,49.41,41.46,33l.09.08L13.36,49.48l-.09-.07"/><path class="cls-34" d="M13.36,49.48,41.55,33.1l.1.08L13.45,49.56l-.09-.08"/><path class="cls-35" d="M13.45,49.56l28.2-16.38.09.08L13.54,49.65l-.09-.09"/><path class="cls-36" d="M13.54,49.65l28.2-16.39.08.09L13.63,49.73l-.09-.08"/><path class="cls-37" d="M13.63,49.73,41.82,33.35l.09.09L13.72,49.82l-.09-.09"/><path class="cls-38" d="M13.72,49.82,41.91,33.44l.08.09L13.8,49.91l-.08-.09"/><path class="cls-39" d="M13.8,49.91,42,33.53l.08.09L13.88,50l-.08-.1"/><path class="cls-40" d="M13.88,50,42.07,33.62l.08.1L14,50.11l-.08-.1"/><path class="cls-41" d="M14,50.11,42.15,33.72l.09.12L14.05,50.23,14,50.11"/><path class="cls-42" d="M14.05,50.23,42.24,33.84l.14.19L14.18,50.42a1.27,1.27,0,0,0-.13-.19"/><path class="cls-43" d="M14.18,50.42,42.38,34l.15.25L14.34,50.66l-.16-.24"/><path class="cls-42" d="M14.34,50.66,42.53,34.28a1.62,1.62,0,0,1,.1.18L14.44,50.84l-.1-.18"/><path class="cls-41" d="M14.44,50.84,42.63,34.46s0,.08.07.13L14.51,51a.54.54,0,0,1-.07-.13"/><path class="cls-40" d="M14.51,51,42.7,34.59a1.17,1.17,0,0,1,0,.11L14.56,51.08a.54.54,0,0,1-.05-.11"/><path class="cls-39" d="M14.56,51.08,42.75,34.7a.93.93,0,0,1,0,.1L14.6,51.18l0-.1"/><path class="cls-38" d="M14.6,51.18,42.8,34.8a.69.69,0,0,0,0,.1L14.65,51.28l-.05-.1"/><path class="cls-37" d="M14.65,51.28,42.84,34.9a1,1,0,0,1,0,.1L14.69,51.38a.42.42,0,0,1,0-.1"/><path class="cls-36" d="M14.69,51.38,42.88,35a1,1,0,0,1,0,.1L14.73,51.48a.42.42,0,0,1,0-.1"/><path class="cls-35" d="M14.73,51.48,42.92,35.1l0,.1L14.76,51.59l0-.11"/><path class="cls-34" d="M14.76,51.59,43,35.2a.76.76,0,0,1,0,.11L14.8,51.7s0-.08,0-.11"/><path class="cls-33" d="M14.8,51.7,43,35.31l0,.11L14.83,51.81l0-.11"/><path class="cls-32" d="M14.83,51.81,43,35.42l0,.11L14.86,51.92l0-.11"/><path class="cls-31" d="M14.86,51.92,43.05,35.53l0,.11L14.88,52a.36.36,0,0,0,0-.11"/><path class="cls-30" d="M14.88,52l28.2-16.39a.43.43,0,0,0,0,.11L14.91,52.13l0-.1"/><path class="cls-29" d="M14.91,52.13,43.1,35.75a.43.43,0,0,0,0,.11L14.92,52.24s0-.07,0-.11"/><path class="cls-26" d="M14.92,52.24l28.2-16.38s0,.07,0,.1L14.94,52.34s0-.07,0-.1"/><path class="cls-25" d="M14.94,52.34,43.13,36s0,.07,0,.1L15,52.45s0-.07,0-.11"/><path class="cls-24" d="M15,52.45,43.14,36.06a.38.38,0,0,1,0,.1L15,52.55s0-.07,0-.1"/><path class="cls-23" d="M15,52.55,43.15,36.16v.1L15,52.65v-.1"/><path class="cls-8" d="M15,52.65,43.15,36.26a.38.38,0,0,1,0,.1L15,52.74v-.09"/></g></g></g><g class="cls-2"><g class="cls-44"><g class="cls-2"><path class="cls-18" d="M24.24,56.41,52.43,40A.53.53,0,0,1,52.6,40L24.4,56.33l-.16.08"/><path class="cls-17" d="M24.4,56.33,52.6,40l.14,0L24.55,56.29l-.15,0"/><path class="cls-16" d="M24.55,56.29,52.74,39.91l.12,0L24.67,56.27l-.12,0"/><path class="cls-15" d="M24.67,56.27,52.86,39.89H53L24.78,56.27h-.11"/><path class="cls-14" d="M24.78,56.27,53,39.88h.1L24.88,56.27h-.1"/><path class="cls-13" d="M24.88,56.27,53.07,39.89h.09L25,56.28h-.09"/><path class="cls-12" d="M25,56.28,53.16,39.9h.09L25.06,56.3l-.09,0"/><path class="cls-11" d="M25.06,56.3,53.25,39.91l.09,0L25.14,56.31h-.08"/><path class="cls-10" d="M25.14,56.31l28.2-16.38.08,0L25.23,56.34l-.09,0"/><path class="cls-9" d="M25.23,56.34,53.42,40l.09,0L25.31,56.37l-.08,0"/><path class="cls-8" d="M25.31,56.37,53.51,40l.08,0L25.4,56.4l-.09,0"/><path class="cls-23" d="M25.4,56.4,53.59,40l.08,0L25.48,56.43l-.08,0"/><path class="cls-24" d="M25.48,56.43,53.67,40.05l.09,0L25.56,56.47l-.08,0"/><path class="cls-25" d="M25.56,56.47l28.2-16.38.08,0L25.65,56.52l-.09-.05"/><path class="cls-26" d="M25.65,56.52,53.84,40.13l.07,0L25.72,56.55l-.07,0"/></g></g></g><g class="cls-2"><g class="cls-45"><g class="cls-2"><path class="cls-26" d="M25.72,56.55,53.91,40.17h0L25.74,56.57l0,0"/><path class="cls-29" d="M25.74,56.57,53.93,40.18l.09.06L25.82,56.62l-.08,0"/><path class="cls-30" d="M25.82,56.62,54,40.24l.08,0L25.91,56.68l-.09-.06"/><path class="cls-31" d="M25.91,56.68,54.1,40.29l.1.07L26,56.74l-.09-.06"/><path class="cls-32" d="M26,56.74,54.2,40.36l.09.07L26.09,56.81,26,56.74"/><path class="cls-33" d="M26.09,56.81l28.2-16.38.09.07L26.19,56.89l-.1-.08"/><path class="cls-34" d="M26.19,56.89,54.38,40.5l.09.08L26.28,57l-.09-.08"/><path class="cls-35" d="M26.28,57,54.47,40.58l.09.09L26.37,57.05,26.28,57"/><path class="cls-36" d="M26.37,57.05,54.56,40.67l.09.08L26.46,57.14l-.09-.09"/><path class="cls-37" d="M26.46,57.14,54.65,40.75l.08.09L26.54,57.23l-.08-.09"/><path class="cls-38" d="M26.54,57.23,54.73,40.84l.08.09L26.62,57.32l-.08-.09"/><path class="cls-39" d="M26.62,57.32,54.81,40.93a.39.39,0,0,1,.08.1L26.7,57.41l-.08-.09"/><path class="cls-40" d="M26.7,57.41,54.89,41l.08.09L26.78,57.51a.39.39,0,0,0-.08-.1"/><path class="cls-41" d="M26.78,57.51,55,41.12l.1.12L26.87,57.63l-.09-.12"/><path class="cls-42" d="M26.87,57.63l28.2-16.39a1.27,1.27,0,0,0,.13.19L27,57.82a1.27,1.27,0,0,0-.13-.19"/><path class="cls-43" d="M27,57.82,55.2,41.43l.15.24L27.16,58.05a1.88,1.88,0,0,0-.16-.23"/><path class="cls-42" d="M27.16,58.05,55.35,41.67l.1.19L27.26,58.24c0-.06-.07-.12-.1-.19"/><path class="cls-41" d="M27.26,58.24,55.45,41.86l.07.12L27.33,58.37l-.07-.13"/><path class="cls-40" d="M27.33,58.37,55.52,42a1.17,1.17,0,0,0,0,.11L27.38,58.48l-.05-.11"/><path class="cls-39" d="M27.38,58.48,55.57,42.09l0,.1L27.42,58.58a1,1,0,0,0,0-.1"/><path class="cls-38" d="M27.42,58.58l28.2-16.39a.3.3,0,0,0,0,.1L27.47,58.68l0-.1"/><path class="cls-37" d="M27.47,58.68,55.66,42.29a1,1,0,0,0,0,.1L27.51,58.78a.69.69,0,0,1,0-.1"/><path class="cls-36" d="M27.51,58.78,55.7,42.39a.49.49,0,0,0,0,.11L27.55,58.88a.42.42,0,0,1,0-.1"/><path class="cls-35" d="M27.55,58.88,55.74,42.5l0,.1L27.58,59l0-.11"/><path class="cls-34" d="M27.58,59,55.77,42.6a.49.49,0,0,1,0,.11L27.62,59.09l0-.1"/><path class="cls-33" d="M27.62,59.09,55.81,42.71l0,.11L27.65,59.2l0-.11"/><path class="cls-32" d="M27.65,59.2,55.84,42.82l0,.11L27.68,59.31l0-.11"/><path class="cls-31" d="M27.68,59.31,55.87,42.93l0,.11L27.7,59.42a.52.52,0,0,0,0-.11"/><path class="cls-30" d="M27.7,59.42,55.9,43a.43.43,0,0,0,0,.11L27.73,59.53l0-.11"/><path class="cls-29" d="M27.73,59.53,55.92,43.15a.36.36,0,0,0,0,.1L27.74,59.64s0-.07,0-.11"/><path class="cls-26" d="M27.74,59.64l28.2-16.39s0,.07,0,.11L27.76,59.74s0-.07,0-.1"/><path class="cls-25" d="M27.76,59.74,56,43.36a.34.34,0,0,1,0,.1L27.77,59.85s0-.07,0-.11"/><path class="cls-24" d="M27.77,59.85,56,43.46a.38.38,0,0,1,0,.1L27.78,60s0-.07,0-.1"/><path class="cls-23" d="M27.78,60,56,43.56a.41.41,0,0,0,0,.11L27.78,60.05V60"/><path class="cls-8" d="M27.78,60.05,56,43.67v.09L27.78,60.14v-.09"/></g></g></g><polygon class="cls-46" points="19.95 35.88 48.15 19.49 48.14 23.07 19.95 39.46 19.95 35.88"/><polygon class="cls-21" points="40.61 67.55 68.8 51.16 68.68 104.18 40.49 120.56 40.61 67.55"/><g class="cls-2"><g class="cls-47"><g class="cls-2"><path class="cls-18" d="M37.06,63.81,65.25,47.43l.17-.08L37.23,63.73l-.17.08"/><path class="cls-17" d="M37.23,63.73,65.42,47.35l.15,0L37.37,63.69l-.14,0"/><path class="cls-16" d="M37.37,63.69l28.2-16.38.12,0L37.49,63.68h-.12"/><path class="cls-15" d="M37.49,63.68l28.2-16.39h.1L37.6,63.67h-.11"/><path class="cls-14" d="M37.6,63.67,65.79,47.29h.1L37.7,63.67h-.1"/><path class="cls-13" d="M37.7,63.67,65.89,47.29H66L37.79,63.68H37.7"/><path class="cls-12" d="M37.79,63.68,66,47.3h.09L37.88,63.7l-.09,0"/><path class="cls-11" d="M37.88,63.7,66.07,47.31l.09,0L38,63.72l-.09,0"/><path class="cls-10" d="M38,63.72,66.16,47.33l.08,0L38.05,63.74l-.08,0"/><path class="cls-9" d="M38.05,63.74,66.24,47.36l.09,0L38.13,63.77l-.08,0"/><path class="cls-8" d="M38.13,63.77l28.2-16.39.08,0L38.22,63.8l-.09,0"/><path class="cls-23" d="M38.22,63.8,66.41,47.42l.08,0L38.3,63.83l-.08,0"/><path class="cls-24" d="M38.3,63.83,66.49,47.45l.09,0L38.39,63.87l-.09,0"/><path class="cls-25" d="M38.39,63.87,66.58,47.49l.08,0L38.47,63.92l-.08-.05"/><path class="cls-26" d="M38.47,63.92,66.66,47.53l.07,0L38.54,64l-.07,0"/></g></g></g><g class="cls-2"><g class="cls-48"><g class="cls-2"><path class="cls-26" d="M38.54,64,66.73,47.57h0L38.56,64h0"/><path class="cls-29" d="M38.56,64,66.75,47.58l.09.06L38.65,64l-.09,0"/><path class="cls-30" d="M38.65,64,66.84,47.64l.09.06L38.73,64.08,38.65,64"/><path class="cls-31" d="M38.73,64.08,66.93,47.7l.09.06L38.82,64.14l-.09-.06"/><path class="cls-32" d="M38.82,64.14,67,47.76l.09.07L38.92,64.21l-.1-.07"/><path class="cls-33" d="M38.92,64.21,67.11,47.83l.09.08L39,64.29l-.09-.08"/><path class="cls-34" d="M39,64.29,67.2,47.91l.09.08L39.1,64.37,39,64.29"/><path class="cls-35" d="M39.1,64.37,67.29,48l.09.08L39.19,64.45l-.09-.08"/><path class="cls-36" d="M39.19,64.45,67.38,48.07l.09.09L39.28,64.54l-.09-.09"/><path class="cls-37" d="M39.28,64.54,67.47,48.16l.09.09L39.36,64.63l-.08-.09"/><path class="cls-38" d="M39.36,64.63l28.2-16.38.08.09L39.45,64.72l-.09-.09"/><path class="cls-39" d="M39.45,64.72,67.64,48.34l.08.09L39.53,64.81l-.08-.09"/><path class="cls-40" d="M39.53,64.81,67.72,48.43l.08.1L39.61,64.91a.39.39,0,0,1-.08-.1"/><path class="cls-41" d="M39.61,64.91,67.8,48.53l.09.12L39.7,65l-.09-.13"/><path class="cls-42" d="M39.7,65,67.89,48.65a2.14,2.14,0,0,1,.13.19L39.83,65.22,39.7,65"/><path class="cls-43" d="M39.83,65.22,68,48.84a2.13,2.13,0,0,1,.16.25L40,65.47l-.16-.25"/><path class="cls-42" d="M40,65.47,68.18,49.09l.1.18L40.09,65.65a1.62,1.62,0,0,1-.1-.18"/><path class="cls-41" d="M40.09,65.65,68.28,49.27l.06.12L40.15,65.78l-.06-.13"/><path class="cls-40" d="M40.15,65.78,68.34,49.39l.06.11L40.21,65.89l-.06-.11"/><path class="cls-39" d="M40.21,65.89,68.4,49.5a1,1,0,0,0,0,.1L40.25,66a1,1,0,0,0,0-.1"/><path class="cls-38" d="M40.25,66,68.44,49.6l0,.1L40.29,66.09a.3.3,0,0,0,0-.1"/><path class="cls-37" d="M40.29,66.09,68.49,49.7a.3.3,0,0,0,0,.1L40.33,66.19a.3.3,0,0,0,0-.1"/><path class="cls-36" d="M40.33,66.19,68.53,49.8l0,.11L40.37,66.29a.42.42,0,0,0,0-.1"/><path class="cls-35" d="M40.37,66.29,68.56,49.91a.42.42,0,0,1,0,.1L40.41,66.4a.36.36,0,0,0,0-.11"/><path class="cls-34" d="M40.41,66.4,68.6,50s0,.07,0,.11L40.44,66.5l0-.1"/><path class="cls-33" d="M40.44,66.5l28.2-16.38,0,.11L40.48,66.61a.76.76,0,0,0,0-.11"/><path class="cls-32" d="M40.48,66.61,68.67,50.23l0,.11L40.51,66.72l0-.11"/><path class="cls-31" d="M40.51,66.72,68.7,50.34s0,.07,0,.11L40.53,66.83a.36.36,0,0,1,0-.11"/><path class="cls-30" d="M40.53,66.83,68.72,50.45a.43.43,0,0,1,0,.11L40.55,66.94a.52.52,0,0,0,0-.11"/><path class="cls-29" d="M40.55,66.94,68.74,50.56a.36.36,0,0,1,0,.1L40.57,67.05a.43.43,0,0,0,0-.11"/><path class="cls-26" d="M40.57,67.05,68.76,50.66s0,.07,0,.11L40.59,67.15s0-.07,0-.1"/><path class="cls-25" d="M40.59,67.15,68.78,50.77s0,.07,0,.1L40.6,67.25a.31.31,0,0,1,0-.1"/><path class="cls-24" d="M40.6,67.25,68.79,50.87s0,.07,0,.1L40.61,67.35a.31.31,0,0,1,0-.1"/><path class="cls-23" d="M40.61,67.35,68.8,51v.1L40.61,67.45v-.1"/><path class="cls-8" d="M40.61,67.45,68.8,51.07v.1L40.61,67.55v-.1"/></g></g></g><polygon class="cls-49" points="39.6 32.62 39.6 32.62 39.6 32.62 39.6 32.62"/><polygon class="cls-50" points="52.43 40.02 52.43 40.02 52.43 40.02 52.43 40.02"/><path class="cls-51" d="M80.9,112.92h0a1.43,1.43,0,0,1-.31.12h0a1.36,1.36,0,0,1-.35,0h0a1.84,1.84,0,0,1-.38-.08h0a2,2,0,0,1-.42-.2,2.71,2.71,0,0,1-.41-.28h0a4.38,4.38,0,0,1-.39-.36h0a4.36,4.36,0,0,1-.65-.88l0,0q-.14-.24-.24-.48h0a3.52,3.52,0,0,1-.19-.51h0a2.36,2.36,0,0,1-.12-.51h0a2.19,2.19,0,0,1,0-.51l.12-53h0a2.15,2.15,0,0,1,0-.45h0a1.79,1.79,0,0,1,.12-.37h0l.12-.19a1.34,1.34,0,0,1,.32-.31h0L64.61,62.66l0-13.89a2,2,0,0,1,0-.45v0a1.9,1.9,0,0,1,.12-.36h0a1.27,1.27,0,0,1,.13-.19,1,1,0,0,1,.31-.31h0l-5.25,3-2.94,1.71-.87.5-4.41,2.57,0-13.9a3.14,3.14,0,0,1,0-.45h0a1.79,1.79,0,0,1,.12-.37h0a.62.62,0,0,1,.12-.19,1,1,0,0,1,.32-.31L40.45,47l-1.5.87L39,34h0a2,2,0,0,1,0-.44v0a1.9,1.9,0,0,1,.12-.36h0a1.22,1.22,0,0,1,.12-.19,1,1,0,0,1,.32-.31h0l-15.46,9-1.27.73L11.41,49a1.08,1.08,0,0,0-.32.32l0,0a.64.64,0,0,0-.08.14h0s0,.07,0,.11,0,.07,0,.11a.36.36,0,0,0,0,.1.09.09,0,0,0,0,.05h0v0s0,.07,0,.1,0,.07,0,.1a.31.31,0,0,1,0,.1v.1h0l-.12,53v.1a.38.38,0,0,0,0,.1v.1a.31.31,0,0,1,0,.1s0,.07,0,.1h0s0,.06,0,.1a.52.52,0,0,0,0,.11l0,.11a.52.52,0,0,0,0,.11l0,.08h0v0l0,.1s0,.07,0,.11a.42.42,0,0,0,0,.1.3.3,0,0,0,0,.1l0,.08h0a.31.31,0,0,0,.05.1.37.37,0,0,0,.05.11l.06.13.08.13v0l0,0c0,.08.1.17.15.25l.13.18h0l.09.13a.39.39,0,0,1,.08.1l.08.09.09.09v0h0l.06.07.09.09.09.08.09.08.05,0h0l0,0,.09.07.09.06.09.06.08.05h0l.07,0,.09,0,.08,0,.08,0,.09,0h0l.06,0,.09,0,.08,0,.09,0h.43l.14,0a.8.8,0,0,0,.16-.08l9.3-5.4,0,9.07h0V111s0,.07,0,.1,0,.07,0,.1,0,.07,0,.11h0s0,.07,0,.1l0,.11a.43.43,0,0,0,0,.11l0,.11,0,.09h0v0s0,.07,0,.11l0,.11a4395788502140.37,4395788502140.37,0,0,0,.08.2.59.59,0,0,1,0,.08h0v0a1,1,0,0,1,0,.1l.06.11.06.12s0,.09.07.14l0,0v0l.16.24a1.27,1.27,0,0,0,.13.19h0l.09.12.08.1.08.09.08.09,0,0h0l.06.06.09.09.09.09.09.08.05,0h0l0,0,.09.07.09.07.09,0,.09.06h0l.07,0,.08,0,.09,0,.08,0,.08,0h0l.07,0,.08,0,.09,0h.38l.12,0h0l.14,0,.17-.07h0l9.3-5.4,0,9.07v.1a.31.31,0,0,1,0,.1,7142690978660.25,7142690978660.25,0,0,1,0,.2s0,.07,0,.11h0a.36.36,0,0,1,0,.1.52.52,0,0,1,0,.11l0,.11,0,.11s0,.06,0,.08h0v0a.49.49,0,0,0,0,.11l0,.11a1,1,0,0,1,0,.1l0,.1,0,.07h0v0s0,.07.05.1l0,.11a.75.75,0,0,0,.07.12.83.83,0,0,0,.07.13v0s0,0,0,0l.15.24.13.18h0l.1.12.08.1.08.09.08.09h0l.06.07.09.08.09.09.09.08,0,0h0l0,0,.09.07.09.07.09.06.09,0h0l.07,0,.08,0,.09,0a.2.2,0,0,0,.08,0l.08,0h0l.06,0,.08,0,.09,0h.39l.12,0h0l.14,0,.17-.07h0l9.3-5.41,0,9.07v.1a.31.31,0,0,1,0,.1,1785672744652.59,1785672744652.59,0,0,1,0,.2s0,.07,0,.11h0a.36.36,0,0,1,0,.1.43.43,0,0,1,0,.11l0,.11,0,.11s0,.06,0,.09h0v0l0,.11a.42.42,0,0,1,0,.1,1,1,0,0,0,0,.1s0,.07,0,.11l0,.07h0v0a.93.93,0,0,1,.05.1,1.17,1.17,0,0,1,0,.11.75.75,0,0,0,.07.12c0,.05,0,.09.07.13v0l0,0,.15.25a2.14,2.14,0,0,1,.13.19h0l.09.12.08.1.08.09.08.09,0,0h0l.07.06.08.09.09.08.1.08,0,0h0l0,0,.09.07L51,129l.09.06.09.06h0l.06,0,.09.05.08,0,.09,0a.2.2,0,0,0,.08,0h0l.06,0,.09,0,.09,0h.38l.12,0h0l.14,0,.17-.08h0L80.9,112.92Z"/><polygon class="cls-21" points="53.44 74.95 81.63 58.57 81.51 111.58 53.32 127.97 53.44 74.95"/><g class="cls-2"><g class="cls-52"><g class="cls-2"><path class="cls-18" d="M49.88,71.22,78.07,54.83l.17-.08L50.05,71.14a.65.65,0,0,0-.17.08"/><path class="cls-17" d="M50.05,71.14,78.24,54.75l.15,0L50.2,71.1l-.15,0"/><path class="cls-16" d="M50.2,71.1,78.39,54.71h.12L50.32,71.08l-.12,0"/><path class="cls-15" d="M50.32,71.08,78.51,54.7h.11L50.42,71.08h-.1"/><path class="cls-14" d="M50.42,71.08l28.2-16.39h.09L50.52,71.08h-.1"/><path class="cls-13" d="M50.52,71.08,78.71,54.7h.1L50.61,71.09h-.09"/><path class="cls-12" d="M50.61,71.09,78.81,54.7l.09,0L50.71,71.1h-.1"/><path class="cls-11" d="M50.71,71.1,78.9,54.72l.08,0L50.79,71.12l-.08,0"/><path class="cls-10" d="M50.79,71.12,79,54.74l.09,0L50.88,71.15l-.09,0"/><path class="cls-9" d="M50.88,71.15,79.07,54.76l.08,0L51,71.17l-.08,0"/><path class="cls-8" d="M51,71.17,79.15,54.79l.09,0L51,71.2l-.08,0"/><path class="cls-23" d="M51,71.2l28.2-16.38.08,0L51.13,71.24l-.09,0"/><path class="cls-24" d="M51.13,71.24,79.32,54.86l.08,0L51.21,71.28l-.08,0"/><path class="cls-25" d="M51.21,71.28,79.4,54.9l.09,0L51.3,71.32l-.09,0"/><path class="cls-26" d="M51.3,71.32,79.49,54.94l.07,0L51.36,71.36l-.06,0"/></g></g></g><g class="cls-2"><g class="cls-53"><g class="cls-2"><path class="cls-26" d="M51.36,71.36,79.56,55h0L51.38,71.37h0"/><path class="cls-29" d="M51.38,71.37,79.58,55l.08,0L51.47,71.43l-.09-.06"/><path class="cls-30" d="M51.47,71.43,79.66,55l.09.06L51.56,71.48l-.09,0"/><path class="cls-31" d="M51.56,71.48,79.75,55.1l.09.07L51.65,71.55l-.09-.07"/><path class="cls-32" d="M51.65,71.55,79.84,55.17l.09.07L51.74,71.62l-.09-.07"/><path class="cls-33" d="M51.74,71.62,79.93,55.24l.1.07L51.83,71.69l-.09-.07"/><path class="cls-34" d="M51.83,71.69,80,55.31l.09.08L51.93,71.77l-.1-.08"/><path class="cls-35" d="M51.93,71.77,80.12,55.39l.09.09L52,71.86l-.09-.09"/><path class="cls-36" d="M52,71.86,80.21,55.48l.09.08L52.11,72,52,71.86"/><path class="cls-37" d="M52.11,72,80.3,55.56l.08.09L52.19,72,52.11,72"/><path class="cls-38" d="M52.19,72,80.38,55.65l.08.09L52.27,72.13,52.19,72"/><path class="cls-39" d="M52.27,72.13,80.46,55.74a.39.39,0,0,1,.08.1L52.35,72.22l-.08-.09"/><path class="cls-40" d="M52.35,72.22,80.54,55.84l.09.1L52.43,72.32l-.08-.1"/><path class="cls-41" d="M52.43,72.32l28.2-16.38.09.12L52.53,72.44l-.1-.12"/><path class="cls-42" d="M52.53,72.44,80.72,56.06c0,.06.09.12.13.19L52.66,72.63l-.13-.19"/><path class="cls-43" d="M52.66,72.63,80.85,56.25l.15.24L52.81,72.87l-.15-.24"/><path class="cls-42" d="M52.81,72.87,81,56.49l.11.18L52.91,73.06a1.74,1.74,0,0,0-.1-.19"/><path class="cls-41" d="M52.91,73.06l28.2-16.39.06.13L53,73.18a.75.75,0,0,0-.07-.12"/><path class="cls-40" d="M53,73.18,81.17,56.8a.54.54,0,0,1,0,.11L53,73.29,53,73.18"/><path class="cls-39" d="M53,73.29,81.22,56.91l0,.1L53.08,73.39l0-.1"/><path class="cls-38" d="M53.08,73.39,81.27,57l0,.1L53.12,73.49a1,1,0,0,1,0-.1"/><path class="cls-37" d="M53.12,73.49,81.31,57.11a.42.42,0,0,1,0,.1L53.16,73.59a1,1,0,0,1,0-.1"/><path class="cls-36" d="M53.16,73.59,81.35,57.21a.42.42,0,0,1,0,.1L53.2,73.7s0-.07,0-.11"/><path class="cls-35" d="M53.2,73.7,81.39,57.31s0,.07,0,.11L53.24,73.8a.42.42,0,0,1,0-.1"/><path class="cls-34" d="M53.24,73.8,81.43,57.42l0,.11L53.27,73.91l0-.11"/><path class="cls-33" d="M53.27,73.91,81.46,57.53l0,.11L53.3,74l0-.11"/><path class="cls-32" d="M53.3,74,81.49,57.64a.35.35,0,0,1,0,.11L53.33,74.13l0-.11"/><path class="cls-31" d="M53.33,74.13,81.52,57.75l0,.1L53.36,74.24l0-.11"/><path class="cls-30" d="M53.36,74.24,81.55,57.85s0,.08,0,.11L53.38,74.35s0-.08,0-.11"/><path class="cls-29" d="M53.38,74.35,81.57,58s0,.07,0,.11L53.4,74.45s0-.07,0-.1"/><path class="cls-26" d="M53.4,74.45,81.59,58.07a.34.34,0,0,1,0,.1L53.41,74.56s0-.07,0-.11"/><path class="cls-25" d="M53.41,74.56,81.6,58.17s0,.07,0,.1L53.42,74.66a.31.31,0,0,0,0-.1"/><path class="cls-24" d="M53.42,74.66l28.2-16.39v.11L53.43,74.76a.34.34,0,0,0,0-.1"/><path class="cls-23" d="M53.43,74.76,81.62,58.38a.31.31,0,0,1,0,.1L53.44,74.86s0-.07,0-.1"/><path class="cls-8" d="M53.44,74.86,81.63,58.48v.09L53.44,75v-.09"/></g></g></g><polygon class="cls-46" points="48.55 52.39 76.74 36 76.73 39.59 48.54 55.97 48.55 52.39"/><path class="cls-54" d="M13.89,49.15c-1.15-.67-2.08-.13-2.09,1.19l-.12,53a4.57,4.57,0,0,0,2.07,3.59c1.15.67,2.09.14,2.09-1.19l.12-53A4.54,4.54,0,0,0,13.89,49.15Z"/><path class="cls-55" d="M26.72,56.55c-1.15-.66-2.09-.13-2.09,1.19l-.12,53a4.54,4.54,0,0,0,2.07,3.59c1.15.66,2.08.13,2.08-1.19l.12-53A4.54,4.54,0,0,0,26.72,56.55Z"/><path class="cls-56" d="M39.54,64c-1.15-.67-2.08-.13-2.09,1.19l-.12,53a4.57,4.57,0,0,0,2.07,3.59c1.15.67,2.09.13,2.09-1.19l.12-53A4.54,4.54,0,0,0,39.54,64Z"/><path class="cls-57" d="M52.36,71.36c-1.15-.66-2.08-.13-2.08,1.19l-.13,53a4.61,4.61,0,0,0,2.08,3.6c1.15.66,2.08.13,2.09-1.19l.12-53A4.58,4.58,0,0,0,52.36,71.36Z"/><path class="cls-58" d="M92.3,56c0-.16,0-.32,0-.48a1.64,1.64,0,0,0,0-.22v-.09c0-.06,0-.12,0-.17s0-.33,0-.49,0-.34-.07-.5v0h0c0-.16,0-.32-.08-.48s-.07-.34-.11-.52,0-.12,0-.18a.43.43,0,0,1,0-.11l-.06-.23c0-.17-.09-.35-.14-.53s-.07-.25-.11-.38l0-.07a.64.64,0,0,0,0-.07c-.05-.18-.11-.35-.17-.52s-.11-.34-.17-.51l0-.09,0-.08c0-.1-.07-.21-.12-.31s-.12-.33-.19-.49l-.15-.35,0-.06,0-.06c-.08-.16-.15-.33-.22-.48s-.17-.36-.26-.53l0-.08s0-.07,0-.1-.14-.28-.22-.42l-.28-.51-.15-.26-.06-.11L89,46.07c-.13-.22-.27-.43-.4-.64a.61.61,0,0,1-.07-.1c-.2-.31-.41-.6-.62-.9h0c-.14-.2-.29-.39-.44-.58s-.25-.31-.37-.46h0l-.38-.45-.39-.43-.06-.07-.07-.07-.28-.29-.42-.41-.13-.12-.1-.1c-.07-.06-.13-.13-.21-.19l-.44-.39-.19-.16a.39.39,0,0,1-.1-.08l-.15-.12-.44-.33-.32-.23-.06,0-.05,0-.42-.28-.43-.26-.09-.05h0l-44-25.41h0l-.32-.18-.41-.21-.26-.13-.07,0-.07,0-.4-.17a3.39,3.39,0,0,0-.41-.15l-.06,0-.07,0L36,12.82l-.41-.12-.19,0-.09,0-.13,0-.43-.07-.27,0H33.35a5.4,5.4,0,0,0-.58.09h0l-.12,0c-.19.05-.38.09-.57.16l0,0a4.35,4.35,0,0,0-.76.35L3.08,29.53a4.78,4.78,0,0,1,.76-.35A6.13,6.13,0,0,1,4.45,29a.53.53,0,0,0,.12,0,4.52,4.52,0,0,1,.75-.09h.15a4.86,4.86,0,0,1,.76,0h.09a6.15,6.15,0,0,1,.83.12l.08,0c.29.07.58.15.88.25l.06,0a8.18,8.18,0,0,1,.95.38l.07,0c.32.15.65.32,1,.51h0l44,25.41h0c.34.19.67.41,1,.63l.06,0q.46.33.9.69a.39.39,0,0,1,.1.08c.29.23.57.48.85.74l.1.09c.28.26.56.54.83.83l.06.07c.29.3.57.62.85.95h0c.28.34.55.69.81,1h0q.36.48.69,1l.41.64.33.54.14.26q.27.47.51.93a.47.47,0,0,0,.05.1c.19.38.37.77.54,1.16l0,.06c.16.38.32.76.46,1.15l0,.07c.14.4.28.79.4,1.19,0,0,0,0,0,.07.11.38.21.76.3,1.15l0,.1c.09.4.17.79.23,1.18v0c.06.39.11.78.14,1.17v.09c0,.39.05.78.05,1.16L64,142.38c0,.38,0,.74-.05,1.09a.38.38,0,0,0,0,.1c0,.32-.08.63-.14.93,0,0,0,.08,0,.12a7.79,7.79,0,0,1-.22.83,1.21,1.21,0,0,1,0,.14,6.55,6.55,0,0,1-.27.71.2.2,0,0,1,0,.08,5.68,5.68,0,0,1-.4.73l-.06.08c-.12.18-.25.35-.38.51l-.16.17a4.17,4.17,0,0,1-.37.36l-.16.14a4.29,4.29,0,0,1-.58.4l28.19-16.38a4.6,4.6,0,0,0,.58-.4l.16-.14a3.15,3.15,0,0,0,.37-.36l.16-.17c.13-.16.26-.33.38-.51l.07-.09v0a6.31,6.31,0,0,0,.38-.68v0l0-.08c.07-.15.13-.3.19-.47l.09-.24a.88.88,0,0,1,0-.15s0-.08,0-.13.09-.33.13-.51a1.06,1.06,0,0,0,0-.19.5.5,0,0,0,0-.12c0-.06,0-.11,0-.18s0-.31.07-.47l0-.28s0-.06,0-.09,0-.07,0-.11l0-.47c0-.16,0-.32,0-.48v0l.17-69.54C92.31,56.31,92.31,56.16,92.3,56Z"/><path class="cls-59" d="M54.18,55.64c5.51,3.18,10,10.88,9.94,17.21L64,142.38c0,6.32-4.5,8.88-10,5.7l-.43-.25-7.28-4.2L17.65,127.12l-7.28-4.2-.43-.25C4.43,119.49,0,111.78,0,105.46L.17,35.92c0-6.32,4.49-8.87,10-5.69ZM53.32,128l.12-53a4.58,4.58,0,0,0-2.08-3.59c-1.15-.66-2.08-.13-2.08,1.19l-.13,53a4.61,4.61,0,0,0,2.08,3.6c1.15.66,2.08.13,2.09-1.19M14.84,105.75l.12-53a4.54,4.54,0,0,0-2.07-3.59c-1.15-.67-2.08-.13-2.09,1.19l-.12,53a4.57,4.57,0,0,0,2.07,3.59c1.15.67,2.09.14,2.09-1.19m12.82,7.41.12-53a4.54,4.54,0,0,0-2.06-3.59c-1.15-.66-2.09-.13-2.09,1.19l-.12,53a4.54,4.54,0,0,0,2.07,3.59c1.15.66,2.08.13,2.08-1.19m12.83,7.4.12-53A4.57,4.57,0,0,0,38.54,64c-1.15-.66-2.08-.12-2.09,1.2l-.12,53a4.57,4.57,0,0,0,2.07,3.59c1.15.67,2.09.13,2.09-1.19"/><polygon class="cls-60" points="57.12 36.53 57.55 48.39 66.39 43.25 66.43 31.37 57.12 36.53"/><polygon class="cls-61" points="27.84 19.53 28.95 31.88 37.12 26.53 37.15 14.37 27.84 19.53"/><path class="cls-62" d="M37.8,4l0,0c.13.29.25.59.36.89l0,.06c.11.3.21.61.31.92V6c.09.3.17.59.24.89l0,.08c.07.31.13.61.18.91h0c0,.31.08.61.11.91v.08c0,.3,0,.6,0,.89v5.72l-8.85,5.18V14.86c0-.29,0-.59,0-.89V13.9c0-.3-.06-.6-.11-.91h0c-.05-.3-.11-.6-.18-.91l0-.08c-.07-.29-.15-.59-.24-.88v0c-.09-.31-.2-.62-.31-.92l0-.06c-.11-.29-.23-.59-.36-.89l0,0Z"/><path class="cls-63" d="M68.26,32.31V26.58c0-.29,0-.59,0-.89v-.07c0-.3-.06-.6-.11-.91h0c0-.3-.11-.61-.18-.91l0-.09c-.07-.29-.14-.59-.23-.89l0,0c-.09-.31-.19-.61-.31-.92l0-.06c-.11-.29-.23-.59-.36-.89l0,0c-.13-.31-.27-.6-.42-.9l0-.08q-.18-.36-.39-.72c0-.06-.07-.13-.11-.2s-.17-.28-.26-.42-.2-.33-.31-.49-.35-.52-.53-.76v0c-.2-.28-.41-.54-.63-.8h0c-.21-.26-.43-.5-.65-.74l-.05-.06L62.9,15l-.08-.07c-.21-.2-.43-.39-.65-.57l-.08-.07c-.23-.18-.46-.36-.7-.52l0,0c-.25-.17-.51-.34-.77-.49L39.44,1.05c-.26-.14-.51-.28-.76-.39l0,0c-.25-.11-.5-.21-.74-.29h0a6.34,6.34,0,0,0-.68-.19l-.07,0a5,5,0,0,0-.64-.1h-.07c-.2,0-.4,0-.59,0h-.12a3.68,3.68,0,0,0-.58.07L35,.11l-.07,0L25.28,5.74a4.58,4.58,0,0,1,.59-.27,3.47,3.47,0,0,1,.46-.13l.1,0A3.55,3.55,0,0,1,27,5.24h.78a4.84,4.84,0,0,1,.63.1h.07c.22,0,.45.12.68.19l0,0a7.38,7.38,0,0,1,.73.29l.05,0c.25.12.51.25.76.4l21,12.13c.26.15.52.32.77.49l0,0c.24.17.47.34.7.53l.08.06c.22.18.44.37.65.57l.08.07c.21.21.43.42.63.64l.06.05c.22.24.43.49.65.74h0c.22.26.43.52.63.8v0c.18.24.36.49.52.75s.21.33.31.49.18.28.26.42l.11.2q.21.36.39.72l0,.07c.15.3.29.6.42.89l0,.05c.13.29.25.59.36.89l0,.05c.11.31.21.61.3.92l0,.05c.09.3.17.59.24.89l0,.08c.06.3.12.61.17.91h0c0,.3.08.6.1.9v.08c0,.29,0,.59,0,.88v5.81Z"/><path class="cls-64" d="M51.76,18.41l-21-12.13C26.5,3.83,23.05,5.8,23,10.67l0,5.81,1.81,1.05,0,12L29,31.88l0-11.95,1.31.75V16.27c0-1.69,1.2-2.37,2.67-1.52l16.51,9.53a5.83,5.83,0,0,1,2.64,4.58v4.42l1.31.76,0,12,4.15,2.4,0-12,1.81,1,0-5.81A16.9,16.9,0,0,0,51.76,18.41Z"/></g></g></svg>