<svg xmlns="http://www.w3.org/2000/svg" xmlns:xlink="http://www.w3.org/1999/xlink" viewBox="0 0 278.96 343.06"><defs><style>.cls-1{fill:none;}.cls-2{fill:url(#未命名的渐变_3);}.cls-3{fill:url(#未命名的渐变_153);}.cls-4{fill:url(#未命名的渐变_2);}.cls-5{fill:url(#未命名的渐变_3-2);}.cls-6{opacity:0.8;}.cls-7{fill:#1765a5;}.cls-11,.cls-8{opacity:0.9;}.cls-9{fill:url(#未命名的渐变_2-2);}.cls-10{fill:url(#未命名的渐变_153-2);}.cls-11,.cls-14{fill:#fff;}.cls-12,.cls-33{opacity:0.2;}.cls-12{fill:url(#未命名的渐变_3-3);}.cls-13{opacity:0.5;}.cls-15{fill:url(#未命名的渐变_3-4);}.cls-16{fill:url(#未命名的渐变_30);}.cls-17{clip-path:url(#clip-path);}.cls-18{fill:url(#未命名的渐变_2-3);}.cls-19{fill:url(#未命名的渐变_2-4);}.cls-20{fill:url(#未命名的渐变_2-5);}.cls-21{fill:url(#未命名的渐变_2-6);}.cls-22{fill:url(#未命名的渐变_2-7);}.cls-23{clip-path:url(#clip-path-2);}.cls-24{fill:#0df;}.cls-25{opacity:0.4;}.cls-26{fill:url(#未命名的渐变_34);}.cls-27{fill:url(#未命名的渐变_2-8);}.cls-28{fill:url(#未命名的渐变_153-3);}.cls-29{fill:url(#未命名的渐变_183);}.cls-30{fill:url(#未命名的渐变_183-2);}.cls-31{fill:url(#未命名的渐变_183-3);}.cls-32{fill:url(#未命名的渐变_183-4);}.cls-33{fill:url(#未命名的渐变_3-5);}.cls-34{opacity:0.3;fill:url(#未命名的渐变_37);}.cls-35{isolation:isolate;}.cls-36{fill:url(#未命名的渐变_2-9);}.cls-37{fill:url(#未命名的渐变_2-10);}</style><linearGradient id="未命名的渐变_3" x1="225.85" y1="237.2" x2="160.28" y2="237.2" gradientUnits="userSpaceOnUse"><stop offset="0" stop-color="#31e0e4"/><stop offset="1" stop-color="#0057c0"/></linearGradient><linearGradient id="未命名的渐变_153" x1="25.54" y1="90.57" x2="159.5" y2="344.24" gradientUnits="userSpaceOnUse"><stop offset="0" stop-color="#08ffb3"/><stop offset="1" stop-color="#0df"/></linearGradient><linearGradient id="未命名的渐变_2" x1="20.46" y1="109.02" x2="225.97" y2="109.02" gradientUnits="userSpaceOnUse"><stop offset="0" stop-color="#0feef4"/><stop offset="1" stop-color="#69ffff"/></linearGradient><linearGradient id="未命名的渐变_3-2" x1="187.33" y1="42.06" x2="38.49" y2="196.48" xlink:href="#未命名的渐变_3"/><linearGradient id="未命名的渐变_2-2" x1="208.01" y1="319.9" x2="190.52" y2="270.41" xlink:href="#未命名的渐变_2"/><linearGradient id="未命名的渐变_153-2" x1="251.9" y1="238.41" x2="168.18" y2="239.15" xlink:href="#未命名的渐变_153"/><linearGradient id="未命名的渐变_3-3" x1="121.92" y1="208.9" x2="29.06" y2="208.9" xlink:href="#未命名的渐变_3"/><linearGradient id="未命名的渐变_3-4" x1="76.72" y1="214.4" x2="159.04" y2="192.35" xlink:href="#未命名的渐变_3"/><linearGradient id="未命名的渐变_30" y1="158.91" x2="156.75" y2="158.91" gradientUnits="userSpaceOnUse"><stop offset="0" stop-color="#31e0ff"/><stop offset="1" stop-color="#00b7ff"/></linearGradient><clipPath id="clip-path"><path class="cls-1" d="M129.69,216.24,0,140.85a49.15,49.15,0,0,1,7.67-22.32c8.86-13.58,19.39-17,19.39-17l129.69,75.36s-12.27,6.32-18.74,15.92S129.69,216.24,129.69,216.24Z"/></clipPath><linearGradient id="未命名的渐变_2-3" x1="5" y1="131.86" x2="53.36" y2="131.86" xlink:href="#未命名的渐变_2"/><linearGradient id="未命名的渐变_2-4" x1="28.02" y1="144.86" x2="76.35" y2="144.86" xlink:href="#未命名的渐变_2"/><linearGradient id="未命名的渐变_2-5" x1="53.15" y1="158.86" x2="101.21" y2="158.86" xlink:href="#未命名的渐变_2"/><linearGradient id="未命名的渐变_2-6" x1="79" y1="173.86" x2="127.36" y2="173.86" xlink:href="#未命名的渐变_2"/><linearGradient id="未命名的渐变_2-7" x1="103" y1="187.86" x2="151.36" y2="187.86" xlink:href="#未命名的渐变_2"/><clipPath id="clip-path-2"><polygon class="cls-1" points="222.46 207.22 252.96 238.53 197.87 270.34 167.37 239.03 222.46 207.22"/></clipPath><linearGradient id="未命名的渐变_34" x1="118.71" y1="47.09" x2="84.39" y2="107.92" gradientUnits="userSpaceOnUse"><stop offset="0" stop-color="#a0ffff" stop-opacity="0"/><stop offset="0.51" stop-color="#a0ffff"/><stop offset="1" stop-color="#a0ffff" stop-opacity="0"/></linearGradient><linearGradient id="未命名的渐变_2-8" x1="152.83" y1="116.8" x2="155.83" y2="116.8" xlink:href="#未命名的渐变_2"/><linearGradient id="未命名的渐变_153-3" x1="54.16" y1="88.96" x2="152.95" y2="88.96" xlink:href="#未命名的渐变_153"/><linearGradient id="未命名的渐变_183" x1="76.02" y1="77.27" x2="88.57" y2="77.27" gradientUnits="userSpaceOnUse"><stop offset="0" stop-color="#ff4a74"/><stop offset="1" stop-color="#e62c47"/></linearGradient><linearGradient id="未命名的渐变_183-2" x1="91.4" y1="85.79" x2="103.27" y2="85.79" xlink:href="#未命名的渐变_183"/><linearGradient id="未命名的渐变_183-3" x1="105.81" y1="94.47" x2="118.94" y2="94.47" xlink:href="#未命名的渐变_183"/><linearGradient id="未命名的渐变_183-4" x1="121.75" y1="100.96" x2="133.96" y2="100.96" xlink:href="#未命名的渐变_183"/><linearGradient id="未命名的渐变_3-5" x1="122.09" y1="269.1" x2="29.85" y2="269.1" xlink:href="#未命名的渐变_3"/><linearGradient id="未命名的渐变_37" x1="201.72" y1="184.47" x2="257.12" y2="211.13" gradientUnits="userSpaceOnUse"><stop offset="0" stop-color="#a0ffff"/><stop offset="1" stop-color="#a0ffff" stop-opacity="0"/></linearGradient><linearGradient id="未命名的渐变_2-9" x1="177.02" y1="199.59" x2="179.26" y2="199.59" xlink:href="#未命名的渐变_2"/><linearGradient id="未命名的渐变_2-10" x1="177.02" y1="167.13" x2="216.74" y2="167.13" xlink:href="#未命名的渐变_2"/></defs><title>资源 59</title><g id="图层_2" data-name="图层 2"><g id="图层_3" data-name="图层 3"><polygon class="cls-2" points="225.97 131.34 226.47 305.79 161.91 343.06 161.42 168.61 225.97 131.34"/><polygon class="cls-3" points="161.91 343.06 20.95 261.14 20.46 86.7 161.42 168.61 161.91 343.06"/><polygon class="cls-4" points="161.42 168.61 20.46 86.7 85.01 49.43 225.97 131.34 161.42 168.61"/><polygon class="cls-5" points="84.36 56.13 31.76 86.5 161.33 161.8 213.94 131.43 84.36 56.13"/><g class="cls-6"><polygon class="cls-7" points="144.58 142.26 62.91 94.8 65.29 93.42 146.96 140.88 144.58 142.26"/></g><g class="cls-8"><polygon class="cls-9" points="214.62 238.58 214.96 312.67 177.71 334.18 177.37 260.09 214.62 238.58"/></g><polygon class="cls-10" points="222.46 207.22 252.96 238.53 197.87 270.34 167.37 239.03 222.46 207.22"/><polygon class="cls-11" points="122.8 258.21 122.54 167.78 30.41 114.24 30.66 204.67 122.8 258.21"/><polygon class="cls-12" points="30.66 204.67 122.8 258.21 122.54 167.78 108.45 159.59 30.66 204.5 30.66 204.67"/><polygon class="cls-11" points="30.7 216.3 30.8 250.64 122.93 304.18 122.83 269.84 30.7 216.3"/><g class="cls-13"><polygon class="cls-14" points="149.96 322.18 136.47 314.33 136.41 218.35 149.91 226.19 149.96 322.18"/></g><polygon class="cls-15" points="156.75 176.94 156.75 200.79 129.69 216.24 129.69 192.17 156.75 176.94"/><path class="cls-16" d="M129.69,216.24,0,140.85a49.15,49.15,0,0,1,7.67-22.32c8.86-13.58,19.39-17,19.39-17l129.69,75.36s-12.27,6.32-18.74,15.92S129.69,216.24,129.69,216.24Z"/><g class="cls-17"><path class="cls-18" d="M53.36,109.5l-12.49-7.26s-14,4.47-25.71,22.48A65.17,65.17,0,0,0,5,154.3l12.36,7.18A67.75,67.75,0,0,1,27.7,132.31C38.17,116.26,50.34,110.69,53.36,109.5Z"/><path class="cls-19" d="M76.35,122.48l-12.51-7.25s-14,4.48-25.68,22.5A65.05,65.05,0,0,0,28,167.32l12.36,7.17A67.83,67.83,0,0,1,50.7,145.31C61.15,129.25,73.32,123.67,76.35,122.48Z"/><path class="cls-20" d="M101.21,136.34l-12.55-7.18s-13.92,4.56-25.55,22.65a65.24,65.24,0,0,0-10,29.66l12.41,7.09A67.93,67.93,0,0,1,75.7,159.32C86.06,143.2,98.19,137.55,101.21,136.34Z"/><path class="cls-21" d="M127.36,151.5l-12.49-7.26s-14,4.47-25.71,22.48A65.17,65.17,0,0,0,79,196.3l12.36,7.18a67.75,67.75,0,0,1,10.34-29.17C112.17,158.26,124.34,152.69,127.36,151.5Z"/><path class="cls-22" d="M138.87,158.24s-14,4.47-25.71,22.48A65.17,65.17,0,0,0,103,210.3l12.36,7.18a67.75,67.75,0,0,1,10.34-29.17c10.47-16.05,22.64-21.62,25.66-22.81Z"/></g><g class="cls-13"><g class="cls-23"><polygon class="cls-14" points="169.37 228.29 211.63 271.67 221.78 265.81 179.51 222.44 169.37 228.29"/><polygon class="cls-14" points="183.37 218.29 225.63 261.67 235.78 255.81 193.51 212.44 183.37 218.29"/><polygon class="cls-14" points="209.51 203.44 199.37 209.29 241.63 252.67 251.78 246.81 209.51 203.44"/></g></g><path class="cls-24" d="M143.13,303a6.23,6.23,0,0,1,2.83,4.89c0,1.81-1.28,2.54-2.85,1.63a6.21,6.21,0,0,1-2.82-4.9C140.29,302.81,141.57,302.09,143.13,303Z"/><path class="cls-24" d="M143.17,288.32a6.19,6.19,0,0,1,2.83,4.89c0,1.81-1.28,2.53-2.84,1.63a6.24,6.24,0,0,1-2.83-4.9C140.34,288.14,141.61,287.41,143.17,288.32Z"/><path class="cls-24" d="M143.22,273.64a6.24,6.24,0,0,1,2.82,4.9c0,1.8-1.28,2.53-2.84,1.63a6.25,6.25,0,0,1-2.83-4.9C140.38,273.47,141.65,272.74,143.22,273.64Z"/><path class="cls-24" d="M143.26,259a6.24,6.24,0,0,1,2.82,4.9c0,1.8-1.28,2.53-2.84,1.62a6.25,6.25,0,0,1-2.83-4.9C140.42,258.8,141.69,258.07,143.26,259Z"/><g class="cls-25"><polygon class="cls-26" points="152.95 147.91 54.28 90.57 54.16 0 152.83 57.34 152.95 147.91"/></g><polygon class="cls-27" points="155.71 95.68 155.83 136.25 152.95 137.91 152.83 97.34 155.71 95.68"/><polygon class="cls-28" points="152.95 137.91 54.28 80.57 54.16 40 152.83 97.34 152.95 137.91"/><polygon class="cls-24" points="152.83 97.34 54.16 40 57.04 38.34 155.71 95.68 152.83 97.34"/><path class="cls-29" d="M82.69,69.27a17.22,17.22,0,0,1,5.42,5.17l-1.87,1.14a12.27,12.27,0,0,0-3.76-3.38c-1.21-.71-2-.7-2,.2s1.09,1.91,2.65,3.37l2,2c2.13,2,3.48,4,3.48,6.24,0,2.58-2.3,3.5-6.34,1.16A20.28,20.28,0,0,1,76,79.3l2.13-1.19a15.07,15.07,0,0,0,4.33,4.13c1.57.91,2.3.75,2.3,0,0-1.12-1-2-2.51-3.46l-2.12-2.09c-1.81-1.7-3.46-4-3.45-6.23C76.7,67.87,79.15,67.23,82.69,69.27Z"/><polygon class="cls-30" points="103.28 81.44 103.23 96.97 99.53 94.83 99.55 88.36 95.12 85.8 95.1 92.28 91.39 90.14 91.44 74.61 95.14 76.75 95.13 82.73 99.55 85.28 99.57 79.3 103.28 81.44"/><path class="cls-31" d="M112.4,86.42a13.39,13.39,0,0,1,6.54,11.77c0,5.32-2.7,6.58-6.59,4.33a13.44,13.44,0,0,1-6.54-11.91C105.82,85.42,108.51,84.18,112.4,86.42Zm0,13.07c1.7,1,2.78-.13,2.79-3.48s-1.06-5.57-2.76-6.55-2.78.11-2.79,3.34,1.06,5.71,2.76,6.69"/><path class="cls-32" d="M127.58,95.47c3.54,2,6.39,4.92,6.38,8.69s-3,3.58-6.41,1.57l-2.1-1.21v5.27l-3.69-2.13,0-15.53Zm-.24,7.35c2,1.18,3,.87,3-.75s-1-2.8-3-3.93l-1.89-1.08v4.68l1.88,1.08"/><polygon class="cls-33" points="122.86 269.87 61.06 233.96 31.44 251.06 122.96 304.24 122.86 269.87"/><polygon class="cls-34" points="216.96 157.24 178.96 222.24 241.96 266.24 278.96 159.24 216.96 157.24"/><g class="cls-35"><polygon class="cls-14" points="216.74 156.9 216.86 200.1 179.26 221.81 179.14 178.6 216.74 156.9"/><polygon class="cls-36" points="179.26 221.81 177.15 220.58 177.02 177.37 179.14 178.6 179.26 221.81"/><polygon class="cls-37" points="179.14 178.6 177.02 177.37 214.62 155.67 216.74 156.9 179.14 178.6"/></g></g></g></svg>