<svg xmlns="http://www.w3.org/2000/svg" xmlns:xlink="http://www.w3.org/1999/xlink" viewBox="0 0 92.31 149.68"><defs><style>.cls-1{fill:none;}.cls-2{isolation:isolate;}.cls-3{fill:url(#未命名的渐变_3);}.cls-4{fill:url(#未命名的渐变_68);}.cls-5{fill:url(#未命名的渐变_3-2);}.cls-6{fill:url(#未命名的渐变_68-2);}.cls-7{clip-path:url(#clip-path);}.cls-8{fill:#633d23;}.cls-9{fill:#603b22;}.cls-10{fill:#5d3a21;}.cls-11{fill:#5a3820;}.cls-12{fill:#58361f;}.cls-13{fill:#55351e;}.cls-14{fill:#52331d;}.cls-15{fill:#4f311c;}.cls-16{fill:#4d301b;}.cls-17{fill:#4a2e1a;}.cls-18{fill:#472c19;}.cls-19{clip-path:url(#clip-path-2);}.cls-20{clip-path:url(#clip-path-3);}.cls-21{fill:#6a4225;}.cls-22{clip-path:url(#clip-path-4);}.cls-23{fill:#653f24;}.cls-24{fill:#684124;}.cls-25{fill:#6b4225;}.cls-26{fill:#6e4426;}.cls-27{clip-path:url(#clip-path-5);}.cls-28{clip-path:url(#clip-path-6);}.cls-29{fill:#704627;}.cls-30{fill:#734728;}.cls-31{fill:#764929;}.cls-32{fill:#794b2a;}.cls-33{fill:#7b4d2b;}.cls-34{fill:#7e4e2c;}.cls-35{fill:#81502d;}.cls-36{fill:#84522e;}.cls-37{fill:#86532f;}.cls-38{fill:#895530;}.cls-39{fill:#976949;}.cls-40{fill:#9d7253;}.cls-41{fill:#a2785b;}.cls-42{fill:#a57e62;}.cls-43{fill:#a98368;}.cls-44{clip-path:url(#clip-path-7);}.cls-45{clip-path:url(#clip-path-8);}.cls-46{fill:#c5c5c5;}.cls-47{clip-path:url(#clip-path-9);}.cls-48{clip-path:url(#clip-path-10);}.cls-49{fill:url(#未命名的渐变_50);}.cls-50{fill:url(#未命名的渐变_50-2);}.cls-51{fill:url(#未命名的渐变_50-3);}.cls-52{clip-path:url(#clip-path-11);}.cls-53{clip-path:url(#clip-path-12);}.cls-54{fill:url(#未命名的渐变_50-4);}.cls-55{fill:url(#未命名的渐变_50-5);}.cls-56{fill:url(#未命名的渐变_50-6);}.cls-57{fill:url(#未命名的渐变_50-7);}.cls-58{fill:url(#未命名的渐变_8);}.cls-59{fill:url(#未命名的渐变_3-3);}.cls-60,.cls-61{fill:#011f9e;}.cls-61{opacity:0.7;}.cls-62{fill:url(#未命名的渐变_53);}.cls-63{fill:url(#未命名的渐变_53-2);}.cls-64{fill:url(#未命名的渐变_3-4);}</style><linearGradient id="未命名的渐变_3" x1="-3.63" y1="125.95" x2="3.65" y2="125.95" gradientTransform="matrix(-1, 0, 0, 1, 78.31, 0)" gradientUnits="userSpaceOnUse"><stop offset="0" stop-color="#31e0e4"/><stop offset="1" stop-color="#0057c0"/></linearGradient><linearGradient id="未命名的渐变_68" x1="2.89" y1="119.76" x2="31.84" y2="119.76" gradientTransform="matrix(-1, 0, 0, 1, 78.31, 0)" gradientUnits="userSpaceOnUse"><stop offset="0" stop-color="#148fcf"/><stop offset="1" stop-color="#025bc1"/></linearGradient><linearGradient id="未命名的渐变_3-2" x1="32.24" y1="146.66" x2="39.52" y2="146.66" xlink:href="#未命名的渐变_3"/><linearGradient id="未命名的渐变_68-2" x1="38.76" y1="140.47" x2="67.71" y2="140.47" xlink:href="#未命名的渐变_68"/><clipPath id="clip-path"><path class="cls-1" d="M49.88,90.71l28.19,16.38a1.47,1.47,0,0,1-.6-1.34L49.28,89.37A1.47,1.47,0,0,0,49.88,90.71Z"/></clipPath><clipPath id="clip-path-2"><path class="cls-1" d="M37.06,98.11,65.25,114.5a1.48,1.48,0,0,1-.6-1.34L36.45,96.77A1.49,1.49,0,0,0,37.06,98.11Z"/></clipPath><clipPath id="clip-path-3"><path class="cls-1" d="M24.24,105.51,52.43,121.9a1.45,1.45,0,0,1-.61-1.34L23.63,104.18A1.43,1.43,0,0,0,24.24,105.51Z"/></clipPath><clipPath id="clip-path-4"><path class="cls-1" d="M80.9,49,52.71,32.62a1.47,1.47,0,0,0-1.48.14L79.42,49.15A1.45,1.45,0,0,1,80.9,49Z"/></clipPath><clipPath id="clip-path-5"><path class="cls-1" d="M11.41,112.92,39.6,129.3A1.45,1.45,0,0,1,39,128L10.8,111.58A1.45,1.45,0,0,0,11.41,112.92Z"/></clipPath><clipPath id="clip-path-6"><path class="cls-1" d="M79.42,49.15,51.23,32.76a4.61,4.61,0,0,0-2.08,3.6l28.2,16.38A4.54,4.54,0,0,1,79.42,49.15Z"/></clipPath><clipPath id="clip-path-7"><path class="cls-1" d="M68.07,56.41,39.88,40a1.47,1.47,0,0,0-1.48.14L66.59,56.55A1.47,1.47,0,0,1,68.07,56.41Z"/></clipPath><clipPath id="clip-path-8"><path class="cls-1" d="M66.59,56.55,38.4,40.17a4.57,4.57,0,0,0-2.07,3.59L64.52,60.14A4.58,4.58,0,0,1,66.59,56.55Z"/></clipPath><clipPath id="clip-path-9"><path class="cls-1" d="M55.25,63.81,27.06,47.43a1.47,1.47,0,0,0-1.48.14L53.77,64A1.45,1.45,0,0,1,55.25,63.81Z"/></clipPath><clipPath id="clip-path-10"><path class="cls-1" d="M53.77,64,25.58,47.57a4.56,4.56,0,0,0-2.07,3.6L51.7,67.55A4.54,4.54,0,0,1,53.77,64Z"/></clipPath><linearGradient id="未命名的渐变_50" x1="25.49" y1="33.07" x2="25.71" y2="32.16" gradientTransform="matrix(-1, 0, 0, 1, 78.31, 0)" gradientUnits="userSpaceOnUse"><stop offset="0" stop-color="#002083"/><stop offset="1" stop-color="#0f51b9"/></linearGradient><linearGradient id="未命名的渐变_50-2" x1="38.04" y1="41.63" x2="38.82" y2="38.42" xlink:href="#未命名的渐变_50"/><linearGradient id="未命名的渐变_50-3" x1="23.65" y1="115.25" x2="34.58" y2="70.27" xlink:href="#未命名的渐变_50"/><clipPath id="clip-path-11"><path class="cls-1" d="M42.43,71.22,14.23,54.83a1.46,1.46,0,0,0-1.48.15L41,71.36A1.47,1.47,0,0,1,42.43,71.22Z"/></clipPath><clipPath id="clip-path-12"><path class="cls-1" d="M41,71.36,12.75,55a4.57,4.57,0,0,0-2.07,3.59L38.87,75A4.58,4.58,0,0,1,41,71.36Z"/></clipPath><linearGradient id="未命名的渐变_50-4" x1="11.25" y1="57.18" x2="-11.01" y2="97.83" xlink:href="#未命名的渐变_50"/><linearGradient id="未命名的渐变_50-5" x1="24.27" y1="64.23" x2="2" y2="104.88" xlink:href="#未命名的渐变_50"/><linearGradient id="未命名的渐变_50-6" x1="37.29" y1="71.28" x2="15.02" y2="111.93" xlink:href="#未命名的渐变_50"/><linearGradient id="未命名的渐变_50-7" x1="50.31" y1="78.33" x2="28.04" y2="118.98" xlink:href="#未命名的渐变_50"/><linearGradient id="未命名的渐变_8" x1="21.31" y1="13.86" x2="52.42" y2="82.45" gradientTransform="matrix(-1, 0, 0, 1, 78.31, 0)" gradientUnits="userSpaceOnUse"><stop offset="0" stop-color="#28a5e6"/><stop offset="1" stop-color="#011f9e"/></linearGradient><linearGradient id="未命名的渐变_3-3" x1="13.36" y1="38.29" x2="22.05" y2="132.29" xlink:href="#未命名的渐变_3"/><linearGradient id="未命名的渐变_53" x1="20.07" y1="12.23" x2="26.21" y2="33.86" gradientTransform="matrix(-1, 0, 0, 1, 78.31, 0)" gradientUnits="userSpaceOnUse"><stop offset="0" stop-color="#1769c6"/><stop offset="1" stop-color="#011f9e"/></linearGradient><linearGradient id="未命名的渐变_53-2" x1="18.25" y1="1.64" x2="61.62" y2="38.55" xlink:href="#未命名的渐变_53"/><linearGradient id="未命名的渐变_3-4" x1="24.6" y1="2.6" x2="32.6" y2="67.16" xlink:href="#未命名的渐变_3"/></defs><title>资源 60</title><g id="图层_2" data-name="图层 2"><g id="图层_3" data-name="图层 3"><g class="cls-2"><path class="cls-3" d="M74.66,127.12c0,1.66,1.17,2.31,2.6,1.49l2.1-1.21a5.68,5.68,0,0,0,2.58-4.47Z"/><path class="cls-4" d="M74.66,127.12a2.47,2.47,0,0,0,.06.56v0a1.66,1.66,0,0,0,.15.46h0a1.35,1.35,0,0,0,.19.31l.08.09a1,1,0,0,0,.28.23L47.23,112.41a1.32,1.32,0,0,1-.29-.24l-.07-.09-.09-.11a1.62,1.62,0,0,1-.1-.18h0s0-.08-.05-.13,0-.09,0-.13l0-.14a.13.13,0,0,1,0-.06h0a.07.07,0,0,0,0,0,.51.51,0,0,0,0-.13s0-.08,0-.13a.49.49,0,0,0,0-.12v-.13h0Z"/></g><g class="cls-2"><path class="cls-5" d="M38.79,147.83c0,1.66,1.17,2.32,2.6,1.49l2.1-1.21a5.68,5.68,0,0,0,2.58-4.47Z"/><path class="cls-6" d="M38.79,147.83a2.47,2.47,0,0,0,.06.56v0a1.66,1.66,0,0,0,.15.46h0a1.21,1.21,0,0,0,.2.3l.07.09a1.23,1.23,0,0,0,.28.23L11.36,133.12a1,1,0,0,1-.28-.23L11,132.8l-.09-.12-.1-.17v0h0a.61.61,0,0,0-.05-.12l-.05-.14,0-.14s0,0,0-.06h0a.07.07,0,0,0,0,0s0-.09,0-.13,0-.08,0-.13a.49.49,0,0,0,0-.12v-.13h0Z"/></g><g class="cls-2"><g class="cls-7"><g class="cls-2"><polyline class="cls-8" points="77.47 105.75 49.27 89.37 49.27 89.38 77.47 105.76 77.47 105.75"/><path class="cls-9" d="M77.47,105.76,49.28,89.38v.1l28.19,16.38v-.1"/><path class="cls-10" d="M77.47,105.86,49.28,89.48v.1L77.48,106a.34.34,0,0,1,0-.1"/><path class="cls-11" d="M77.48,106,49.28,89.58a.31.31,0,0,1,0,.1l28.2,16.38a.34.34,0,0,1,0-.1"/><path class="cls-12" d="M77.49,106.06,49.29,89.68s0,.06,0,.1L77.5,106.16a.34.34,0,0,1,0-.1"/><path class="cls-13" d="M77.5,106.16,49.31,89.78a.44.44,0,0,0,0,.1l28.19,16.38s0-.07,0-.1"/><path class="cls-14" d="M77.52,106.26,49.33,89.88l0,.1,28.19,16.39,0-.11"/><path class="cls-15" d="M77.55,106.37,49.36,90l0,.11,28.2,16.39a.76.76,0,0,1,0-.11"/><path class="cls-16" d="M77.59,106.48,49.39,90.09a.61.61,0,0,1,0,.12l28.2,16.38a.37.37,0,0,1,0-.11"/><path class="cls-17" d="M77.64,106.59,49.44,90.21c0,.05.05.1.08.14l28.19,16.39s0-.09-.07-.15"/><path class="cls-18" d="M77.71,106.74,49.52,90.35a1.12,1.12,0,0,0,.36.36l28.19,16.38a1.09,1.09,0,0,1-.36-.35"/></g></g></g><g class="cls-2"><g class="cls-19"><g class="cls-2"><polyline class="cls-8" points="64.65 113.16 36.45 96.77 36.45 96.78 64.65 113.16 64.65 113.16"/><path class="cls-9" d="M64.65,113.16,36.45,96.78s0,.07,0,.1l28.19,16.38v-.1"/><path class="cls-10" d="M64.65,113.26,36.46,96.88V97l28.2,16.38a.31.31,0,0,1,0-.1"/><path class="cls-11" d="M64.66,113.36,36.46,97a.34.34,0,0,1,0,.1l28.2,16.38a.31.31,0,0,1,0-.1"/><path class="cls-12" d="M64.67,113.46,36.47,97.08s0,.07,0,.1l28.19,16.38a.31.31,0,0,1,0-.1"/><path class="cls-13" d="M64.68,113.56,36.49,97.18a.36.36,0,0,0,0,.1L64.7,113.67s0-.07,0-.11"/><path class="cls-14" d="M64.7,113.67,36.51,97.28l0,.11,28.19,16.38,0-.1"/><path class="cls-15" d="M64.73,113.77,36.54,97.39l0,.11,28.2,16.38a.36.36,0,0,1,0-.11"/><path class="cls-16" d="M64.77,113.88,36.57,97.5a.61.61,0,0,1,0,.12L64.82,114a.61.61,0,0,1,0-.12"/><path class="cls-17" d="M64.82,114,36.62,97.62s.05.1.08.14l28.19,16.38-.07-.14"/><path class="cls-18" d="M64.89,114.14,36.7,97.76a1.09,1.09,0,0,0,.36.35L65.25,114.5a1.23,1.23,0,0,1-.36-.36"/></g></g></g><g class="cls-2"><g class="cls-20"><g class="cls-2"><polyline class="cls-8" points="51.82 120.56 23.63 104.18 23.63 104.19 51.82 120.57 51.82 120.56"/><path class="cls-9" d="M51.82,120.57,23.63,104.18v.11l28.19,16.38v-.1"/><path class="cls-10" d="M51.82,120.67,23.63,104.29a.28.28,0,0,0,0,.09l28.19,16.39s0-.07,0-.1"/><path class="cls-11" d="M51.83,120.77,23.64,104.38a.31.31,0,0,0,0,.1l28.19,16.39a.38.38,0,0,1,0-.1"/><path class="cls-12" d="M51.84,120.87,23.65,104.48s0,.07,0,.1L51.85,121s0-.07,0-.1"/><path class="cls-13" d="M51.85,121,23.66,104.58s0,.07,0,.1l28.19,16.39a.3.3,0,0,0,0-.1"/><path class="cls-14" d="M51.87,121.07,23.68,104.68l0,.11L51.9,121.17l0-.1"/><path class="cls-15" d="M51.9,121.17,23.71,104.79a.36.36,0,0,0,0,.11l28.19,16.38a.36.36,0,0,1,0-.11"/><path class="cls-16" d="M51.94,121.28,23.75,104.9a.61.61,0,0,0,.05.12L52,121.4a.61.61,0,0,1-.05-.12"/><path class="cls-17" d="M52,121.4,23.8,105l.07.14,28.2,16.38a.64.64,0,0,1-.08-.14"/><path class="cls-18" d="M52.07,121.54l-28.2-16.38a1,1,0,0,0,.37.35L52.43,121.9a1,1,0,0,1-.36-.36"/></g></g></g><polygon class="cls-21" points="77.34 52.74 49.15 36.36 49.27 89.37 77.47 105.75 77.34 52.74"/><g class="cls-2"><g class="cls-22"><g class="cls-2"><path class="cls-18" d="M80.9,49,52.71,32.62l-.17-.08L80.73,48.92l.17.08"/><path class="cls-17" d="M80.73,48.92,52.54,32.54l-.15,0,28.2,16.38.14,0"/><path class="cls-16" d="M80.59,48.88,52.39,32.5l-.12,0,28.2,16.39h.12"/><path class="cls-15" d="M80.47,48.87,52.27,32.48h-.1L80.36,48.86h.11"/><path class="cls-14" d="M80.36,48.86,52.17,32.48h-.1L80.26,48.87h.1"/><path class="cls-13" d="M80.26,48.87,52.07,32.48H52L80.17,48.87h.09"/><path class="cls-12" d="M80.17,48.87,52,32.49l-.09,0L80.08,48.89l.09,0"/><path class="cls-11" d="M80.08,48.89,51.89,32.51l-.09,0L80,48.91l.09,0"/><path class="cls-10" d="M80,48.91,51.8,32.53l-.09,0,28.2,16.38.08,0"/><path class="cls-9" d="M79.91,48.93,51.71,32.55l-.08,0L79.82,49l.09,0"/><path class="cls-8" d="M79.82,49,51.63,32.58l-.08,0L79.74,49l.08,0"/><path class="cls-23" d="M79.74,49,51.55,32.61l-.09,0L79.66,49l.08,0"/><path class="cls-24" d="M79.66,49,51.46,32.64l-.08,0L79.57,49.07l.09,0"/><path class="cls-25" d="M79.57,49.07,51.38,32.68l-.09,0,28.2,16.38.08,0"/><path class="cls-26" d="M79.49,49.11,51.29,32.73l-.06,0L79.42,49.15l.07,0"/></g></g></g><g class="cls-2"><g class="cls-27"><g class="cls-2"><polyline class="cls-8" points="38.99 127.97 10.8 111.58 10.8 111.59 38.99 127.97 38.99 127.97"/><path class="cls-9" d="M39,128,10.8,111.59v.1L39,128.07a.31.31,0,0,1,0-.1"/><path class="cls-10" d="M39,128.07,10.8,111.69a.34.34,0,0,1,0,.1L39,128.17v-.1"/><path class="cls-11" d="M39,128.17,10.81,111.79s0,.07,0,.1L39,128.27s0-.06,0-.1"/><path class="cls-12" d="M39,128.27,10.82,111.89s0,.07,0,.1L39,128.37s0-.06,0-.1"/><path class="cls-13" d="M39,128.37,10.83,112l0,.1,28.19,16.38a.3.3,0,0,1,0-.1"/><path class="cls-14" d="M39.05,128.47,10.86,112.09a.43.43,0,0,0,0,.11l28.19,16.38s0-.07,0-.11"/><path class="cls-15" d="M39.07,128.58,10.88,112.2s0,.07,0,.11l28.19,16.38a.49.49,0,0,0,0-.11"/><path class="cls-16" d="M39.11,128.69,10.92,112.31a.37.37,0,0,0,.05.11l28.19,16.39,0-.12"/><path class="cls-17" d="M39.16,128.81,11,112.42a1.09,1.09,0,0,0,.08.15L39.24,129s-.05-.09-.08-.14"/><path class="cls-18" d="M39.24,129,11.05,112.57a1,1,0,0,0,.36.35L39.6,129.3a1.09,1.09,0,0,1-.36-.35"/></g></g></g><g class="cls-2"><g class="cls-28"><g class="cls-2"><path class="cls-26" d="M79.42,49.15,51.23,32.76l0,0L79.4,49.16h0"/><path class="cls-29" d="M79.4,49.16,51.21,32.78l-.09,0L79.31,49.21l.09-.05"/><path class="cls-30" d="M79.31,49.21,51.12,32.83l-.09.06L79.22,49.27l.09-.06"/><path class="cls-31" d="M79.22,49.27,51,32.89l-.09.06L79.13,49.34l.09-.07"/><path class="cls-32" d="M79.13,49.34,50.94,33l-.09.07L79,49.41l.09-.07"/><path class="cls-33" d="M79,49.41,50.85,33l-.09.08L79,49.48l.09-.07"/><path class="cls-34" d="M79,49.48,50.76,33.1l-.1.08,28.2,16.38.09-.08"/><path class="cls-35" d="M78.86,49.56,50.66,33.18l-.09.08L78.76,49.65l.1-.09"/><path class="cls-36" d="M78.76,49.65,50.57,33.26l-.09.09,28.2,16.38.08-.08"/><path class="cls-37" d="M78.68,49.73,50.48,33.35l-.08.09L78.59,49.82l.09-.09"/><path class="cls-38" d="M78.59,49.82,50.4,33.44l-.08.09L78.51,49.91l.08-.09"/><path class="cls-39" d="M78.51,49.91,50.32,33.53l-.08.09L78.43,50l.08-.1"/><path class="cls-40" d="M78.43,50,50.24,33.62l-.08.1L78.35,50.11l.08-.1"/><path class="cls-41" d="M78.35,50.11,50.16,33.72l-.09.12L78.26,50.23l.09-.12"/><path class="cls-42" d="M78.26,50.23,50.07,33.84l-.14.19,28.2,16.39a1.27,1.27,0,0,1,.13-.19"/><path class="cls-43" d="M78.13,50.42,49.93,34l-.15.25L78,50.66c0-.08.1-.16.16-.24"/><path class="cls-42" d="M78,50.66,49.78,34.28a1.62,1.62,0,0,0-.1.18L77.87,50.84l.1-.18"/><path class="cls-41" d="M77.87,50.84,49.68,34.46a.54.54,0,0,0-.07.13L77.8,51s0-.08.07-.13"/><path class="cls-40" d="M77.8,51,49.61,34.59a1.17,1.17,0,0,0,0,.11L77.75,51.08a.54.54,0,0,0,0-.11"/><path class="cls-39" d="M77.75,51.08,49.56,34.7a.93.93,0,0,0-.05.1l28.2,16.38,0-.1"/><path class="cls-38" d="M77.71,51.18,49.51,34.8a1,1,0,0,0,0,.1L77.66,51.28s0-.07,0-.1"/><path class="cls-37" d="M77.66,51.28,49.47,34.9a1,1,0,0,0,0,.1L77.62,51.38l0-.1"/><path class="cls-36" d="M77.62,51.38,49.43,35a1,1,0,0,0,0,.1L77.58,51.48a.42.42,0,0,0,0-.1"/><path class="cls-35" d="M77.58,51.48,49.39,35.1a.42.42,0,0,1,0,.1l28.2,16.39,0-.11"/><path class="cls-34" d="M77.55,51.59,49.35,35.2l0,.11L77.51,51.7a.36.36,0,0,1,0-.11"/><path class="cls-33" d="M77.51,51.7,49.32,35.31l0,.11L77.48,51.81l0-.11"/><path class="cls-32" d="M77.48,51.81,49.29,35.42l0,.11L77.45,51.92l0-.11"/><path class="cls-31" d="M77.45,51.92,49.26,35.53l0,.11L77.43,52a.36.36,0,0,1,0-.11"/><path class="cls-30" d="M77.43,52,49.23,35.64a.43.43,0,0,1,0,.11L77.4,52.13l0-.1"/><path class="cls-29" d="M77.4,52.13,49.21,35.75a.43.43,0,0,1,0,.11l28.2,16.38s0-.07,0-.11"/><path class="cls-26" d="M77.39,52.24,49.19,35.86s0,.07,0,.1L77.37,52.34a.36.36,0,0,1,0-.1"/><path class="cls-25" d="M77.37,52.34,49.18,36a.34.34,0,0,0,0,.1L77.36,52.45s0-.07,0-.11"/><path class="cls-24" d="M77.36,52.45,49.17,36.06a.38.38,0,0,0,0,.1L77.35,52.55s0-.07,0-.1"/><path class="cls-23" d="M77.35,52.55,49.16,36.16a.31.31,0,0,1,0,.1l28.2,16.39v-.1"/><path class="cls-8" d="M77.35,52.65,49.15,36.26v.1l28.2,16.38a.27.27,0,0,1,0-.09"/></g></g></g><g class="cls-2"><g class="cls-44"><g class="cls-2"><path class="cls-18" d="M68.07,56.41,39.88,40a.53.53,0,0,0-.17-.08l28.2,16.38.16.08"/><path class="cls-17" d="M67.91,56.33,39.71,40l-.14,0L67.76,56.29l.15,0"/><path class="cls-16" d="M67.76,56.29,39.57,39.91l-.12,0L67.64,56.27l.12,0"/><path class="cls-15" d="M67.64,56.27,39.45,39.89h-.11L67.53,56.27h.11"/><path class="cls-14" d="M67.53,56.27,39.34,39.88h-.1L67.43,56.27h.1"/><path class="cls-13" d="M67.43,56.27,39.24,39.89h-.09L67.34,56.28h.09"/><path class="cls-12" d="M67.34,56.28,39.15,39.9h-.09L67.25,56.3l.09,0"/><path class="cls-11" d="M67.25,56.3,39.06,39.91l-.09,0L67.16,56.31h.09"/><path class="cls-10" d="M67.16,56.31,39,39.93l-.08,0L67.08,56.34l.08,0"/><path class="cls-9" d="M67.08,56.34,38.89,40l-.09,0L67,56.37l.08,0"/><path class="cls-8" d="M67,56.37,38.8,40l-.08,0L66.91,56.4l.09,0"/><path class="cls-23" d="M66.91,56.4,38.72,40l-.08,0L66.83,56.43l.08,0"/><path class="cls-24" d="M66.83,56.43,38.64,40.05l-.09,0L66.74,56.47l.09,0"/><path class="cls-25" d="M66.74,56.47,38.55,40.09l-.08,0L66.66,56.52l.08-.05"/><path class="cls-26" d="M66.66,56.52,38.47,40.13l-.07,0L66.59,56.55l.07,0"/></g></g></g><g class="cls-2"><g class="cls-45"><g class="cls-2"><path class="cls-26" d="M66.59,56.55,38.4,40.17h0L66.57,56.57l0,0"/><path class="cls-29" d="M66.57,56.57,38.38,40.18l-.09.06L66.48,56.62l.09,0"/><path class="cls-30" d="M66.48,56.62,38.29,40.24l-.09,0L66.4,56.68l.08-.06"/><path class="cls-31" d="M66.4,56.68,38.2,40.29l-.09.07,28.2,16.38.09-.06"/><path class="cls-32" d="M66.31,56.74,38.11,40.36l-.09.07L66.21,56.81l.1-.07"/><path class="cls-33" d="M66.21,56.81,38,40.43l-.09.07L66.12,56.89l.09-.08"/><path class="cls-34" d="M66.12,56.89,37.93,40.5l-.09.08L66,57l.09-.08"/><path class="cls-35" d="M66,57,37.84,40.58l-.09.09L65.94,57.05,66,57"/><path class="cls-36" d="M65.94,57.05,37.75,40.67l-.09.08L65.85,57.14l.09-.09"/><path class="cls-37" d="M65.85,57.14,37.66,40.75l-.08.09L65.77,57.23l.08-.09"/><path class="cls-38" d="M65.77,57.23,37.58,40.84l-.08.09L65.69,57.32l.08-.09"/><path class="cls-39" d="M65.69,57.32,37.5,40.93a.39.39,0,0,0-.08.1L65.61,57.41l.08-.09"/><path class="cls-40" d="M65.61,57.41,37.42,41l-.08.09L65.53,57.51a.39.39,0,0,1,.08-.1"/><path class="cls-41" d="M65.53,57.51,37.34,41.12l-.1.12,28.2,16.39.09-.12"/><path class="cls-42" d="M65.44,57.63,37.24,41.24c0,.07-.09.13-.13.19L65.3,57.82l.14-.19"/><path class="cls-43" d="M65.3,57.82,37.11,41.43l-.15.24L65.15,58.05l.15-.23"/><path class="cls-42" d="M65.15,58.05,37,41.67l-.1.19L65.05,58.24c0-.06.07-.12.1-.19"/><path class="cls-41" d="M65.05,58.24,36.86,41.86a.75.75,0,0,0-.07.12L65,58.37s0-.09.07-.13"/><path class="cls-40" d="M65,58.37,36.79,42a1.17,1.17,0,0,1,0,.11L64.93,58.48l0-.11"/><path class="cls-39" d="M64.93,58.48,36.74,42.09l-.05.1,28.2,16.39a1,1,0,0,1,0-.1"/><path class="cls-38" d="M64.89,58.58,36.69,42.19a1,1,0,0,1,0,.1L64.84,58.68l0-.1"/><path class="cls-37" d="M64.84,58.68,36.65,42.29a1,1,0,0,1,0,.1L64.8,58.78l0-.1"/><path class="cls-36" d="M64.8,58.78,36.61,42.39s0,.07,0,.11L64.76,58.88a.42.42,0,0,0,0-.1"/><path class="cls-35" d="M64.76,58.88,36.57,42.5a.42.42,0,0,1,0,.1L64.73,59l0-.11"/><path class="cls-34" d="M64.73,59,36.53,42.6l0,.11L64.69,59.09a.42.42,0,0,1,0-.1"/><path class="cls-33" d="M64.69,59.09,36.5,42.71l0,.11L64.66,59.2l0-.11"/><path class="cls-32" d="M64.66,59.2,36.47,42.82l0,.11L64.63,59.31l0-.11"/><path class="cls-31" d="M64.63,59.31,36.44,42.93l0,.11,28.2,16.38a.52.52,0,0,1,0-.11"/><path class="cls-30" d="M64.61,59.42,36.41,43a.43.43,0,0,1,0,.11L64.58,59.53l0-.11"/><path class="cls-29" d="M64.58,59.53,36.39,43.15s0,.07,0,.1l28.2,16.39s0-.07,0-.11"/><path class="cls-26" d="M64.57,59.64,36.37,43.25s0,.07,0,.11L64.55,59.74a.36.36,0,0,1,0-.1"/><path class="cls-25" d="M64.55,59.74,36.36,43.36a.34.34,0,0,0,0,.1L64.54,59.85s0-.07,0-.11"/><path class="cls-24" d="M64.54,59.85,36.35,43.46a.38.38,0,0,0,0,.1L64.53,60s0-.07,0-.1"/><path class="cls-23" d="M64.53,60,36.34,43.56a.41.41,0,0,1,0,.11l28.2,16.38V60"/><path class="cls-8" d="M64.53,60.05,36.33,43.67v.09L64.52,60.14a.28.28,0,0,1,0-.09"/></g></g></g><polygon class="cls-46" points="72.35 35.88 44.16 19.49 44.17 23.07 72.36 39.46 72.35 35.88"/><polygon class="cls-21" points="51.7 67.55 23.51 51.16 23.63 104.18 51.82 120.56 51.7 67.55"/><g class="cls-2"><g class="cls-47"><g class="cls-2"><path class="cls-18" d="M55.25,63.81,27.06,47.43l-.17-.08L55.08,63.73l.17.08"/><path class="cls-17" d="M55.08,63.73,26.89,47.35l-.15,0L54.93,63.69l.15,0"/><path class="cls-16" d="M54.93,63.69,26.74,47.31l-.12,0,28.2,16.39h.11"/><path class="cls-15" d="M54.82,63.68,26.62,47.29h-.1L54.71,63.67h.11"/><path class="cls-14" d="M54.71,63.67,26.52,47.29h-.1L54.61,63.67h.1"/><path class="cls-13" d="M54.61,63.67,26.42,47.29h-.09L54.52,63.68h.09"/><path class="cls-12" d="M54.52,63.68,26.33,47.3h-.09L54.43,63.7l.09,0"/><path class="cls-11" d="M54.43,63.7,26.24,47.31l-.09,0L54.34,63.72l.09,0"/><path class="cls-10" d="M54.34,63.72,26.15,47.33l-.08,0L54.26,63.74l.08,0"/><path class="cls-9" d="M54.26,63.74,26.07,47.36l-.09,0L54.17,63.77l.09,0"/><path class="cls-8" d="M54.17,63.77,26,47.38l-.08,0L54.09,63.8l.08,0"/><path class="cls-23" d="M54.09,63.8,25.9,47.42l-.08,0L54,63.83l.08,0"/><path class="cls-24" d="M54,63.83,25.82,47.45l-.09,0L53.92,63.87l.09,0"/><path class="cls-25" d="M53.92,63.87,25.73,47.49l-.08,0L53.84,63.92l.08-.05"/><path class="cls-26" d="M53.84,63.92,25.65,47.53l-.07,0L53.77,64l.07,0"/></g></g></g><g class="cls-2"><g class="cls-48"><g class="cls-2"><path class="cls-26" d="M53.77,64,25.58,47.57h0L53.75,64h0"/><path class="cls-29" d="M53.75,64,25.56,47.58l-.09.06L53.66,64l.09,0"/><path class="cls-30" d="M53.66,64,25.47,47.64l-.09.06,28.2,16.38.08-.06"/><path class="cls-31" d="M53.58,64.08,25.38,47.7l-.09.06,28.2,16.38.09-.06"/><path class="cls-32" d="M53.49,64.14,25.29,47.76l-.09.07L53.39,64.21l.1-.07"/><path class="cls-33" d="M53.39,64.21,25.2,47.83l-.09.08L53.3,64.29l.09-.08"/><path class="cls-34" d="M53.3,64.29,25.11,47.91,25,48,53.21,64.37l.09-.08"/><path class="cls-35" d="M53.21,64.37,25,48l-.09.08L53.12,64.45l.09-.08"/><path class="cls-36" d="M53.12,64.45,24.93,48.07l-.09.09L53,64.54l.09-.09"/><path class="cls-37" d="M53,64.54,24.84,48.16l-.09.09L52.94,64.63l.09-.09"/><path class="cls-38" d="M52.94,64.63,24.75,48.25l-.08.09L52.86,64.72l.08-.09"/><path class="cls-39" d="M52.86,64.72,24.67,48.34l-.08.09L52.78,64.81l.08-.09"/><path class="cls-40" d="M52.78,64.81,24.59,48.43l-.08.1L52.7,64.91a.39.39,0,0,0,.08-.1"/><path class="cls-41" d="M52.7,64.91,24.51,48.53l-.09.12L52.61,65l.09-.13"/><path class="cls-42" d="M52.61,65,24.42,48.65a2.14,2.14,0,0,0-.13.19L52.48,65.22l.13-.18"/><path class="cls-43" d="M52.48,65.22,24.29,48.84a2.13,2.13,0,0,0-.16.25L52.32,65.47c0-.08.1-.17.16-.25"/><path class="cls-42" d="M52.32,65.47,24.13,49.09l-.1.18L52.22,65.65l.1-.18"/><path class="cls-41" d="M52.22,65.65,24,49.27a.75.75,0,0,1-.07.12l28.2,16.39.06-.13"/><path class="cls-40" d="M52.16,65.78,24,49.39a.37.37,0,0,1-.05.11L52.1,65.89l.06-.11"/><path class="cls-39" d="M52.1,65.89,23.91,49.5a1,1,0,0,1,0,.1L52.06,66a1,1,0,0,1,0-.1"/><path class="cls-38" d="M52.06,66,23.87,49.6l-.05.1L52,66.09a.3.3,0,0,1,0-.1"/><path class="cls-37" d="M52,66.09,23.82,49.7a.3.3,0,0,1,0,.1L52,66.19a.93.93,0,0,1,.05-.1"/><path class="cls-36" d="M52,66.19,23.78,49.8a.49.49,0,0,1,0,.11l28.2,16.38,0-.1"/><path class="cls-35" d="M51.94,66.29,23.74,49.91l0,.1L51.9,66.4a.36.36,0,0,1,0-.11"/><path class="cls-34" d="M51.9,66.4,23.71,50s0,.07,0,.11L51.86,66.5a.42.42,0,0,0,0-.1"/><path class="cls-33" d="M51.86,66.5,23.67,50.12l0,.11L51.83,66.61l0-.11"/><path class="cls-32" d="M51.83,66.61,23.64,50.23l0,.11L51.8,66.72l0-.11"/><path class="cls-31" d="M51.8,66.72,23.61,50.34a.43.43,0,0,0,0,.11L51.78,66.83s0-.07,0-.11"/><path class="cls-30" d="M51.78,66.83,23.59,50.45l0,.11,28.2,16.38a.52.52,0,0,1,0-.11"/><path class="cls-29" d="M51.76,66.94,23.56,50.56s0,.07,0,.1L51.74,67.05a.43.43,0,0,1,0-.11"/><path class="cls-26" d="M51.74,67.05,23.55,50.66s0,.07,0,.11L51.72,67.15s0-.07,0-.1"/><path class="cls-25" d="M51.72,67.15,23.53,50.77s0,.07,0,.1L51.71,67.25a.31.31,0,0,0,0-.1"/><path class="cls-24" d="M51.71,67.25,23.52,50.87s0,.07,0,.1L51.7,67.35a.31.31,0,0,0,0-.1"/><path class="cls-23" d="M51.7,67.35,23.51,51v.1L51.7,67.45v-.1"/><path class="cls-8" d="M51.7,67.45,23.51,51.07v.1L51.7,67.55v-.1"/></g></g></g><polygon class="cls-49" points="52.71 32.62 52.71 32.62 52.71 32.62 52.71 32.62"/><polygon class="cls-50" points="39.88 40.02 39.88 40.02 39.88 40.02 39.88 40.02"/><path class="cls-51" d="M11.41,112.92h0a1.43,1.43,0,0,0,.31.12h0a1.36,1.36,0,0,0,.35,0h0a1.84,1.84,0,0,0,.38-.08h0a2,2,0,0,0,.42-.2,2.71,2.71,0,0,0,.41-.28h0a3.24,3.24,0,0,0,.38-.36h0a4.36,4.36,0,0,0,.65-.88l0,0q.14-.24.24-.48h0a3.52,3.52,0,0,0,.19-.51h0a2.36,2.36,0,0,0,.12-.51h0a2.92,2.92,0,0,0,0-.51l-.12-53h0a2.15,2.15,0,0,0,0-.45h0a1.79,1.79,0,0,0-.12-.37h0a2.14,2.14,0,0,0-.13-.19,1.3,1.3,0,0,0-.31-.31h0L27.7,62.66l0-13.89a2,2,0,0,0,0-.45v0a1.9,1.9,0,0,0-.12-.36h0a1.27,1.27,0,0,0-.13-.19,1,1,0,0,0-.31-.31h0l5.25,3,2.94,1.71.87.5,4.41,2.57,0-13.9a3.14,3.14,0,0,0,0-.45h0a1.34,1.34,0,0,0-.11-.37h0a.88.88,0,0,0-.12-.19,1,1,0,0,0-.32-.31l12,6.95,1.51.87,0-13.9h0a2,2,0,0,0,0-.44v0a1.9,1.9,0,0,0-.12-.36h0a1.22,1.22,0,0,0-.12-.19,1,1,0,0,0-.32-.31h0l15.46,9,1.27.73L80.9,49a1.08,1.08,0,0,1,.32.32l0,0a.64.64,0,0,1,.08.14h0a.37.37,0,0,1,0,.11.76.76,0,0,0,0,.11.36.36,0,0,1,0,.1.09.09,0,0,1,0,.05h0v0s0,.07,0,.1,0,.07,0,.1a.31.31,0,0,0,0,.1v.1h0l.12,53v.1a.38.38,0,0,1,0,.1v.1s0,.06,0,.1a.34.34,0,0,1,0,.1h0s0,.06,0,.1,0,.07,0,.11l0,.11,0,.11a.24.24,0,0,1,0,.08h0v0l0,.1s0,.07,0,.11a.42.42,0,0,1,0,.1.3.3,0,0,1,0,.1l0,.08h0l0,.1a.37.37,0,0,1,0,.11l-.06.13-.08.13v0l0,0-.15.25-.13.18h0l-.09.13-.09.1-.08.09-.08.09v0h0l-.06.07-.09.09-.09.08-.09.08,0,0h0l0,0-.09.07-.09.06-.09.06-.08.05h0l-.07,0-.09,0-.08,0-.08,0-.09,0h0l-.06,0-.09,0-.08,0-.09,0h-.43l-.14,0-.17-.08-9.29-5.4,0,9.07h0V111a.34.34,0,0,0,0,.1s0,.07,0,.1,0,.07,0,.11h0a.3.3,0,0,1,0,.1.36.36,0,0,1,0,.11s0,.07,0,.11l0,.11,0,.09h0v0s0,.07,0,.11a.76.76,0,0,1,0,.11l0,.1a.3.3,0,0,0,0,.1.2.2,0,0,0,0,.08h0v0a1,1,0,0,0,0,.1l-.06.11-.06.12s0,.09-.07.14l0,0v0l-.16.24a1.27,1.27,0,0,1-.13.19h0l-.09.12-.08.1-.08.09-.08.09,0,0h0l-.06.06-.09.09-.09.09-.09.08,0,0h0l0,0-.09.07-.09.07-.09,0-.09.06h0l-.07,0-.08,0-.09,0-.08,0-.08,0h0l-.06,0-.08,0-.09,0h-.38l-.12,0h0l-.14,0-.17-.07h0l-9.3-5.4,0,9.07a.34.34,0,0,1,0,.1v.1a7142690978659.95,7142690978659.95,0,0,0,0,.2s0,.07,0,.11h0a.36.36,0,0,0,0,.1.52.52,0,0,0,0,.11l0,.11,0,.11s0,.06,0,.08h0v0a.49.49,0,0,1,0,.11l0,.11a.3.3,0,0,0,0,.1l0,.1,0,.07h0v0s0,.07,0,.1a.54.54,0,0,0,0,.11l-.07.12a.83.83,0,0,1-.07.13v0s0,0,0,0l-.15.24-.13.18h0l-.1.12-.08.1-.08.09-.08.09h0l-.06.07-.09.08-.09.09-.09.08-.05,0h0l0,0-.1.07a.31.31,0,0,1-.09.07l-.08.06-.09,0h0l-.07,0-.08,0-.09,0-.08,0-.08,0h0l-.06,0-.08,0-.09,0h-.39l-.12,0h0l-.13,0-.17-.07h0l-9.3-5.41,0,9.07a.31.31,0,0,1,0,.1v.1a.34.34,0,0,1,0,.1s0,.07,0,.1,0,.07,0,.11h0s0,.07,0,.1a.43.43,0,0,0,0,.11l0,.11,0,.11a.29.29,0,0,0,0,.09h0v0a.49.49,0,0,1,0,.11l0,.1a.69.69,0,0,0,0,.1s0,.07,0,.11a.25.25,0,0,1,0,.07h0v0l0,.1a1.17,1.17,0,0,0,0,.11l-.07.12c0,.05-.05.09-.07.13v0l0,0-.15.25-.14.19h0l-.09.12-.08.1-.08.09-.08.09,0,0h0l-.07.06-.08.09a.39.39,0,0,1-.1.08l-.09.08,0,0h0l0,0-.09.07-.09.06-.09.06-.09.06h0l-.07,0-.08.05-.08,0-.09,0-.08,0h0l-.06,0-.09,0-.09,0H40l-.12,0h0l-.14,0-.17-.08h0L11.41,112.92Z"/><polygon class="cls-21" points="38.87 74.95 10.68 58.57 10.8 111.58 38.99 127.97 38.87 74.95"/><g class="cls-2"><g class="cls-52"><g class="cls-2"><path class="cls-18" d="M42.43,71.22,14.23,54.83l-.16-.08L42.26,71.14a.65.65,0,0,1,.17.08"/><path class="cls-17" d="M42.26,71.14,14.07,54.75l-.15,0L42.11,71.1l.15,0"/><path class="cls-16" d="M42.11,71.1,13.92,54.71H13.8L42,71.08l.12,0"/><path class="cls-15" d="M42,71.08,13.8,54.7h-.11L41.88,71.08H42"/><path class="cls-14" d="M41.88,71.08,13.69,54.69H13.6L41.79,71.08h.09"/><path class="cls-13" d="M41.79,71.08,13.6,54.7h-.1L41.69,71.09h.1"/><path class="cls-12" d="M41.69,71.09,13.5,54.7l-.09,0L41.6,71.1h.09"/><path class="cls-11" d="M41.6,71.1,13.41,54.72l-.08,0L41.52,71.12l.08,0"/><path class="cls-10" d="M41.52,71.12,13.33,54.74l-.09,0L41.43,71.15l.09,0"/><path class="cls-9" d="M41.43,71.15,13.24,54.76l-.08,0L41.35,71.17l.08,0"/><path class="cls-8" d="M41.35,71.17,13.16,54.79l-.09,0L41.26,71.2l.09,0"/><path class="cls-23" d="M41.26,71.2,13.07,54.82l-.08,0L41.18,71.24a.2.2,0,0,0,.08,0"/><path class="cls-24" d="M41.18,71.24,13,54.86l-.08,0L41.1,71.28l.08,0"/><path class="cls-25" d="M41.1,71.28,12.91,54.9l-.09,0L41,71.32l.09,0"/><path class="cls-26" d="M41,71.32,12.82,54.94l-.07,0L41,71.36l.06,0"/></g></g></g><g class="cls-2"><g class="cls-53"><g class="cls-2"><path class="cls-26" d="M41,71.36,12.75,55h0l28.2,16.38h0"/><path class="cls-29" d="M40.93,71.37,12.73,55l-.08,0L40.84,71.43l.09-.06"/><path class="cls-30" d="M40.84,71.43,12.65,55l-.09.06L40.75,71.48l.09,0"/><path class="cls-31" d="M40.75,71.48,12.56,55.1l-.09.07L40.66,71.55l.09-.07"/><path class="cls-32" d="M40.66,71.55,12.47,55.17l-.09.07L40.57,71.62l.09-.07"/><path class="cls-33" d="M40.57,71.62,12.38,55.24l-.1.07L40.47,71.69l.1-.07"/><path class="cls-34" d="M40.47,71.69,12.28,55.31l-.09.08L40.38,71.77l.09-.08"/><path class="cls-35" d="M40.38,71.77,12.19,55.39l-.09.09L40.29,71.86l.09-.09"/><path class="cls-36" d="M40.29,71.86,12.1,55.48l-.09.08L40.2,72l.09-.09"/><path class="cls-37" d="M40.2,72,12,55.56l-.08.09L40.12,72,40.2,72"/><path class="cls-38" d="M40.12,72,11.93,55.65l-.09.09L40,72.13l.08-.09"/><path class="cls-39" d="M40,72.13,11.84,55.74l-.08.1L40,72.22l.08-.09"/><path class="cls-40" d="M40,72.22,11.76,55.84l-.08.1,28.2,16.38.08-.1"/><path class="cls-41" d="M39.88,72.32,11.68,55.94l-.09.12L39.78,72.44l.1-.12"/><path class="cls-42" d="M39.78,72.44,11.59,56.06c0,.06-.09.12-.13.19L39.65,72.63c0-.07.09-.13.13-.19"/><path class="cls-43" d="M39.65,72.63,11.46,56.25c-.05.08-.11.16-.15.24L39.5,72.87l.15-.24"/><path class="cls-42" d="M39.5,72.87,11.31,56.49l-.11.18L39.39,73.06l.11-.19"/><path class="cls-41" d="M39.39,73.06,11.2,56.67l-.06.13L39.33,73.18l.06-.12"/><path class="cls-40" d="M39.33,73.18,11.14,56.8a.54.54,0,0,0-.05.11L39.28,73.29l0-.11"/><path class="cls-39" d="M39.28,73.29,11.09,56.91,11,57,39.23,73.39a.93.93,0,0,0,.05-.1"/><path class="cls-38" d="M39.23,73.39,11,57a.42.42,0,0,0,0,.1L39.19,73.49a1,1,0,0,0,0-.1"/><path class="cls-37" d="M39.19,73.49,11,57.11a.42.42,0,0,0,0,.1L39.15,73.59l0-.1"/><path class="cls-36" d="M39.15,73.59,11,57.21a.42.42,0,0,0,0,.1L39.11,73.7a.49.49,0,0,1,0-.11"/><path class="cls-35" d="M39.11,73.7,10.92,57.31s0,.07,0,.11L39.07,73.8l0-.1"/><path class="cls-34" d="M39.07,73.8,10.88,57.42l0,.11L39,73.91l0-.11"/><path class="cls-33" d="M39,73.91,10.85,57.53s0,.07,0,.11L39,74l0-.11"/><path class="cls-32" d="M39,74,10.81,57.64a.36.36,0,0,0,0,.11L39,74.13,39,74"/><path class="cls-31" d="M39,74.13,10.79,57.75l0,.1L39,74.24l0-.11"/><path class="cls-30" d="M39,74.24,10.76,57.85a.52.52,0,0,0,0,.11L38.93,74.35s0-.08,0-.11"/><path class="cls-29" d="M38.93,74.35,10.74,58s0,.07,0,.11L38.91,74.45s0-.07,0-.1"/><path class="cls-26" d="M38.91,74.45,10.72,58.07s0,.07,0,.1L38.9,74.56s0-.07,0-.11"/><path class="cls-25" d="M38.9,74.56,10.7,58.17a.31.31,0,0,1,0,.1l28.2,16.39a.31.31,0,0,1,0-.1"/><path class="cls-24" d="M38.89,74.66,10.69,58.27v.11L38.88,74.76a.34.34,0,0,1,0-.1"/><path class="cls-23" d="M38.88,74.76,10.69,58.38a.31.31,0,0,0,0,.1L38.87,74.86a.34.34,0,0,1,0-.1"/><path class="cls-8" d="M38.87,74.86,10.68,58.48v.09L38.87,75v-.09"/></g></g></g><polygon class="cls-46" points="43.76 52.39 15.56 36 15.57 39.59 43.77 55.97 43.76 52.39"/><path class="cls-54" d="M78.42,49.15c1.15-.67,2.08-.13,2.09,1.19l.12,53a4.59,4.59,0,0,1-2.07,3.59c-1.15.67-2.09.14-2.09-1.19l-.12-53A4.54,4.54,0,0,1,78.42,49.15Z"/><path class="cls-55" d="M65.59,56.55c1.15-.66,2.09-.13,2.09,1.19l.12,53a4.54,4.54,0,0,1-2.07,3.59c-1.15.66-2.08.13-2.08-1.19l-.13-53A4.58,4.58,0,0,1,65.59,56.55Z"/><path class="cls-56" d="M52.77,64c1.15-.67,2.08-.13,2.08,1.19l.13,53a4.57,4.57,0,0,1-2.07,3.59c-1.15.67-2.09.13-2.09-1.19l-.12-53A4.54,4.54,0,0,1,52.77,64Z"/><path class="cls-57" d="M40,71.36C41.1,70.7,42,71.23,42,72.55l.13,53a4.61,4.61,0,0,1-2.08,3.6c-1.15.66-2.08.13-2.09-1.19l-.12-53A4.58,4.58,0,0,1,40,71.36Z"/><path class="cls-58" d="M0,56c0-.16,0-.32,0-.48a1.64,1.64,0,0,1,0-.22v-.09c0-.06,0-.12,0-.17s0-.33,0-.49.05-.34.07-.5v0h0c0-.16,0-.32.08-.48s.07-.34.11-.52a1.16,1.16,0,0,1,0-.18s0-.07,0-.11l.06-.23c0-.17.09-.35.14-.53s.07-.25.11-.38l0-.07a.64.64,0,0,1,0-.07c0-.18.11-.35.16-.52l.18-.51,0-.09,0-.08c0-.1.07-.21.12-.31s.12-.33.19-.49l.15-.35,0-.06,0-.06.22-.48c.09-.18.17-.36.26-.53l0-.08,0-.1c.07-.14.14-.28.22-.42l.28-.51.15-.26L3,46.5l.27-.43c.13-.22.26-.43.4-.64a.61.61,0,0,1,.07-.1c.2-.31.41-.6.62-.9h0c.14-.2.29-.39.44-.58s.25-.31.37-.46h0l.38-.45L6,42.49,6,42.42l.07-.07.28-.29a5.44,5.44,0,0,1,.42-.41l.13-.12.1-.1.2-.19.45-.39.19-.16a.39.39,0,0,0,.1-.08l.15-.12.44-.33.32-.23.06,0,.05,0,.42-.28.43-.26.09-.05h0l44-25.41h0l.32-.18a4,4,0,0,1,.41-.21l.26-.13.07,0,.07,0,.4-.17a3.39,3.39,0,0,1,.41-.15l.06,0,.06,0,.28-.08c.13-.05.27-.08.41-.12l.19,0,.09,0,.13,0,.43-.07.27,0H59a5.4,5.4,0,0,1,.58.09h0l.12,0a5.15,5.15,0,0,1,.56.16l.05,0a4.35,4.35,0,0,1,.76.35L89.23,29.53a4.78,4.78,0,0,0-.76-.35,6.13,6.13,0,0,0-.61-.18.53.53,0,0,1-.12,0,4.52,4.52,0,0,0-.75-.09h-.15a4.86,4.86,0,0,0-.76,0H86a6.15,6.15,0,0,0-.83.12l-.08,0c-.29.07-.59.15-.88.25l-.06,0a7.52,7.52,0,0,0-1,.38l-.07,0c-.32.15-.65.32-1,.51h0l-44,25.41h0c-.34.19-.67.41-1,.63l-.06,0c-.31.22-.61.45-.91.69l-.09.08c-.29.23-.57.48-.85.74l-.1.09c-.28.26-.56.54-.83.83l-.07.07c-.28.3-.57.62-.84.95h0c-.28.34-.55.69-.81,1h0c-.24.32-.47.65-.7,1s-.26.43-.4.64l-.33.54c-.05.09-.1.17-.14.26q-.27.47-.51.93l-.05.1c-.19.38-.37.77-.54,1.16l0,.06c-.16.38-.32.76-.46,1.15l0,.07c-.15.4-.28.79-.4,1.19,0,0,0,0,0,.07-.11.38-.22.76-.3,1.15l0,.1c-.09.4-.17.79-.23,1.18v0a11.66,11.66,0,0,0-.14,1.17v.09c0,.39,0,.78,0,1.16l.17,69.53c0,.38,0,.74.05,1.09a.38.38,0,0,1,0,.1,9,9,0,0,0,.14.93s0,.08,0,.12a7.79,7.79,0,0,0,.22.83s0,.09,0,.14c.09.25.18.49.28.71l0,.08a7.28,7.28,0,0,0,.41.73s0,0,.06.08c.12.18.25.35.38.51l.16.17a4.17,4.17,0,0,0,.37.36l.16.14a4.29,4.29,0,0,0,.58.4L3.08,132.39a4,4,0,0,1-.58-.4l-.16-.14a4.27,4.27,0,0,1-.38-.36l-.15-.17q-.2-.24-.39-.51a.47.47,0,0,0-.06-.09v0A6.31,6.31,0,0,1,1,130v0l0-.08a5.11,5.11,0,0,1-.2-.47c0-.08,0-.16-.08-.24a.88.88,0,0,0-.05-.15s0-.08,0-.13-.09-.33-.13-.51a1.06,1.06,0,0,1,0-.19.5.5,0,0,1,0-.12,1,1,0,0,1,0-.18c0-.15,0-.31-.07-.47l0-.28s0-.06,0-.09,0-.07,0-.11l0-.47c0-.16,0-.32,0-.48v0L0,56.46C0,56.31,0,56.16,0,56Z"/><path class="cls-59" d="M82.14,30.23c5.5-3.18,10-.63,10,5.69l.17,69.54c0,6.32-4.43,14-9.94,17.21l-.43.25-7.28,4.2L46.07,143.63l-7.28,4.2-.43.25c-5.5,3.18-10,.62-10-5.7l-.17-69.53c0-6.33,4.43-14,9.94-17.21ZM39,128c0,1.32.94,1.85,2.09,1.19a4.61,4.61,0,0,0,2.08-3.6l-.13-53c0-1.32-.94-1.85-2.08-1.19A4.58,4.58,0,0,0,38.87,75L39,128m38.48-22.22c0,1.33.94,1.86,2.09,1.19a4.59,4.59,0,0,0,2.07-3.59l-.12-53c0-1.32-.94-1.86-2.09-1.19a4.54,4.54,0,0,0-2.07,3.59l.12,53m-12.82,7.41c0,1.32.93,1.85,2.08,1.19a4.54,4.54,0,0,0,2.07-3.59l-.12-53c0-1.32-.94-1.85-2.09-1.19a4.58,4.58,0,0,0-2.07,3.59l.13,53m-12.83,7.4c0,1.32.94,1.86,2.09,1.19A4.57,4.57,0,0,0,56,118.16l-.13-53c0-1.32-.93-1.86-2.08-1.2a4.57,4.57,0,0,0-2.07,3.6l.12,53"/><polygon class="cls-60" points="35.19 36.53 34.76 48.39 25.92 43.25 25.88 31.37 35.19 36.53"/><polygon class="cls-61" points="64.47 19.53 63.35 31.88 55.19 26.53 55.16 14.37 64.47 19.53"/><path class="cls-62" d="M54.51,4l0,0c-.13.29-.25.59-.36.89l0,.06c-.11.3-.21.61-.31.92V6c-.09.3-.17.59-.24.89l0,.08c-.07.31-.13.61-.18.91h0c-.05.31-.08.61-.11.91v.08c0,.3,0,.6,0,.89v5.72l8.85,5.18V14.86c0-.29,0-.59,0-.89V13.9c0-.3.06-.6.11-.91h0c0-.3.11-.6.18-.91l0-.08c.07-.29.15-.59.23-.88l0,0c.09-.31.2-.62.31-.92l0-.06c.11-.29.23-.59.36-.89l0,0Z"/><path class="cls-63" d="M24.05,32.31V26.58c0-.29,0-.59,0-.89v-.07c0-.3.07-.6.11-.91h0c0-.3.11-.61.18-.91V23.7c.07-.29.15-.59.24-.89l0,0c.09-.31.19-.61.31-.92l0-.06c.11-.29.23-.59.36-.89l0,0c.13-.31.27-.6.42-.9,0,0,0-.05,0-.08q.18-.36.39-.72c0-.06.07-.13.11-.2s.17-.28.26-.42.2-.33.31-.49.34-.52.53-.76v0c.2-.28.41-.54.63-.8h0c.21-.26.42-.5.65-.74l.05-.06.64-.64.08-.07c.21-.2.43-.39.65-.57l.08-.07c.23-.18.46-.36.7-.52l0,0c.25-.17.51-.34.77-.49L52.87,1.05c.26-.14.51-.28.76-.39l0,0c.25-.11.5-.21.74-.29h0a6.34,6.34,0,0,1,.68-.19l.07,0a5,5,0,0,1,.64-.1h.07c.2,0,.4,0,.59,0h.12a3.68,3.68,0,0,1,.58.07l.09,0,.07,0L67,5.74a4.58,4.58,0,0,0-.59-.27A3.47,3.47,0,0,0,66,5.34l-.1,0a3.55,3.55,0,0,0-.57-.07h-.78a4.58,4.58,0,0,0-.63.1h-.07c-.22,0-.45.12-.68.19l0,0a7.38,7.38,0,0,0-.73.29l-.05,0c-.25.12-.51.25-.76.4l-21,12.13c-.26.15-.52.32-.77.49l-.05,0c-.23.17-.46.34-.69.53l-.08.06c-.22.18-.44.37-.65.57l-.08.07c-.21.21-.43.42-.63.64l-.06.05c-.22.24-.44.49-.65.74h0c-.22.26-.43.52-.63.8v0c-.18.24-.36.49-.53.75l-.3.49c-.09.14-.18.28-.26.42a2,2,0,0,0-.11.2q-.21.36-.39.72l0,.07c-.15.3-.29.6-.42.89l0,.05c-.13.29-.25.59-.36.89l0,.05c-.11.31-.21.61-.31.92v.05c-.09.3-.17.59-.24.89l0,.08c-.07.3-.13.61-.17.91h0c0,.3-.08.6-.11.9v.08c0,.29,0,.59,0,.88v5.81Z"/><path class="cls-64" d="M40.55,18.41l21-12.13c4.24-2.45,7.69-.48,7.7,4.39l0,5.81-1.81,1.05,0,12-4.16,2.4,0-11.95L62,20.68V16.27c0-1.69-1.2-2.37-2.67-1.52L42.82,24.28a5.81,5.81,0,0,0-2.64,4.58v4.42L38.88,34l0,12-4.15,2.4,0-12-1.81,1,0-5.81A16.9,16.9,0,0,1,40.55,18.41Z"/></g></g></svg>