<svg xmlns="http://www.w3.org/2000/svg" xmlns:xlink="http://www.w3.org/1999/xlink" viewBox="0 0 55.31 49.79"><defs><style>.cls-1{isolation:isolate;}.cls-2{fill:url(#未命名的渐变_8);}.cls-3{fill:url(#未命名的渐变_8-2);}.cls-4{fill:url(#未命名的渐变_8-3);}.cls-5{fill:url(#未命名的渐变_3);}</style><linearGradient id="未命名的渐变_8" x1="17.2" y1="27.91" x2="27.71" y2="27.91" gradientUnits="userSpaceOnUse"><stop offset="0" stop-color="#28a5e6"/><stop offset="1" stop-color="#011f9e"/></linearGradient><linearGradient id="未命名的渐变_8-2" x1="34.73" y1="40.3" x2="50.3" y2="40.3" xlink:href="#未命名的渐变_8"/><linearGradient id="未命名的渐变_8-3" x1="1.55" y1="19.57" x2="55.31" y2="19.57" xlink:href="#未命名的渐变_8"/><linearGradient id="未命名的渐变_3" y1="25.92" x2="51.79" y2="25.92" gradientUnits="userSpaceOnUse"><stop offset="0" stop-color="#31e0e4"/><stop offset="1" stop-color="#0057c0"/></linearGradient></defs><title>资源 63</title><g id="图层_2" data-name="图层 2"><g id="图层_3" data-name="图层 3"><g class="cls-1"><path class="cls-2" d="M27.39,28.15a1.4,1.4,0,0,1-.36,0h0a2,2,0,0,1-.39-.09h0a3.26,3.26,0,0,1-.43-.2L23,26,22.9,26l-.13-.07-.13-.06-.13-.05-.13-.05h0l-.1,0-.13,0-.13,0-.14,0h-.46l-.18,0h0l-.21.05-.26.12L17.2,27.86a1.91,1.91,0,0,1,.47-.18h0a2.38,2.38,0,0,1,.54,0h0a2.58,2.58,0,0,1,.59.12h0a4,4,0,0,1,.64.29l3.2,1.85.06,0,.09,0,.09,0,.09,0,.08,0h0l.07,0,.09,0,.08,0,.1,0h.3l.13,0h0l.14,0,.18-.08h0l3.52-2a.91.91,0,0,1-.31.12Z"/><path class="cls-3" d="M50.29,45.18c0-.06,0-.11,0-.16s0-.1,0-.16a1,1,0,0,0,0-.16h0l0-.16,0-.16c0-.06,0-.11,0-.17l0-.17,0-.13h0v0a1,1,0,0,0,0-.16,1.09,1.09,0,0,1-.05-.17l-.06-.15a1.11,1.11,0,0,0-.07-.16.61.61,0,0,0-.05-.12h0v0l-.07-.15-.08-.17-.1-.19-.12-.21,0,0,0,0a3.87,3.87,0,0,0-.24-.37,3,3,0,0,0-.2-.29l-.14-.19-.12-.15-.13-.14L48.39,41l0,0h0l-.09-.1-.14-.13A.86.86,0,0,0,48,40.6l-.14-.13-.07,0,0,0,0,0-.14-.11-.14-.1-.13-.09L47.15,40l0,0-6.74-3.89a3.52,3.52,0,0,1-.42-.29h0a3.33,3.33,0,0,1-.39-.36h0c-.12-.13-.24-.28-.36-.43h0a5.66,5.66,0,0,1-.31-.48h0a4.66,4.66,0,0,1-.25-.5h0a4.65,4.65,0,0,1-.2-.52h0a4.87,4.87,0,0,1-.12-.52h0a3.12,3.12,0,0,1,0-.52,2.19,2.19,0,0,1,0-.46h0a2.11,2.11,0,0,1,.12-.38h0a1.22,1.22,0,0,1,.12-.19,1,1,0,0,1,.33-.32h0l-3.53,2.05a1,1,0,0,0-.32.32l-.05,0-.08.14h0l0,.11,0,.11,0,.11s0,0,0,0h0a.09.09,0,0,0,0,0s0,.06,0,.1a.38.38,0,0,1,0,.1v.1a.34.34,0,0,0,0,.1h0a.28.28,0,0,0,0,.09v.1a.41.41,0,0,0,0,.11s0,.07,0,.1,0,.07,0,.11h0s0,.06,0,.09l0,.12a.52.52,0,0,0,0,.11l0,.11,0,.09h0a.49.49,0,0,1,0,.11.49.49,0,0,0,0,.11.42.42,0,0,0,0,.1.49.49,0,0,0,0,.11l0,.08h0l0,.1a1.17,1.17,0,0,0,.05.11s0,.09.07.13a.64.64,0,0,0,.08.14v0l.16.26.14.19h0l.09.12.08.1.09.1.08.09,0,0h0l.06.06.09.09.09.09.1.08,0,0h0l0,0,.09.07.1.06.09.06.09.06h0L43.6,42a6,6,0,0,1,.63.44h0a7.44,7.44,0,0,1,.58.55h0a7,7,0,0,1,1,1.35l0,0c.14.24.26.49.38.74h0a8.21,8.21,0,0,1,.29.78h0a6,6,0,0,1,.18.79h0a4.08,4.08,0,0,1,.07.77,3.66,3.66,0,0,1-.07.69v0a2.3,2.3,0,0,1-.18.56h0a1.57,1.57,0,0,1-.24.37,1,1,0,0,1-.08.11,1.35,1.35,0,0,1-.35.29l3.52-2a1.54,1.54,0,0,0,.35-.28l.09-.11a.83.83,0,0,0,.11-.15.88.88,0,0,0,.12-.21v0h0a1.22,1.22,0,0,0,.07-.17l.06-.16c0-.06,0-.11,0-.17s0,0,0-.07v0s0,0,0-.06a.78.78,0,0,0,0-.16s0-.1,0-.15,0-.1,0-.15v-.16h0v-.14A.76.76,0,0,0,50.29,45.18Z"/><path class="cls-4" d="M55.31,33.43c0-.09,0-.17,0-.26a9229251440234.78,9229251440234.78,0,0,0,0-.52c0-.09,0-.18,0-.26h0a2.17,2.17,0,0,0,0-.25l-.06-.28L55,31.56c0-.09,0-.19-.07-.28a1.87,1.87,0,0,1-.07-.22v0l0,0c0-.09-.05-.19-.08-.28s-.07-.18-.1-.27a2.77,2.77,0,0,0-.1-.26c0-.08-.07-.17-.1-.26l-.09-.19v0l0,0-.12-.26c0-.09-.09-.18-.13-.28L54,28.82l-.19-.34,0-.05a.43.43,0,0,0,0-.07q-.2-.33-.39-.63c-.11-.17-.23-.33-.34-.48l-.24-.31c-.06-.09-.13-.17-.2-.26l-.21-.24-.21-.23,0,0v0C52,26.1,52,26,51.91,26l-.23-.23-.23-.21-.24-.21-.12-.1,0,0L51,25.15,50.74,25l-.23-.17-.22-.14-.23-.14-.05,0L8.86.73,8.69.63,8.47.52,8.33.46l0,0,0,0L8,.33,7.83.25H7.76L7.62.18,7.4.12,7.29.1h0l-.07,0L7,0H6.18l-.3,0h0l-.06,0-.3.08h0a1.84,1.84,0,0,0-.4.19L1.55,2.41A2.17,2.17,0,0,1,2,2.22l.33-.1h.06a2.57,2.57,0,0,1,.4,0h.53a3.32,3.32,0,0,1,.44.06h0l.47.13,0,0a4.12,4.12,0,0,1,.51.2h0a5.48,5.48,0,0,1,.53.28L46.48,26.53a7.48,7.48,0,0,1,1.06.74l0,0a10.36,10.36,0,0,1,1,.91l0,0a12.87,12.87,0,0,1,1.67,2.25l0,.06a12,12,0,0,1,.62,1.24h0a10.86,10.86,0,0,1,.48,1.31v0a10.71,10.71,0,0,1,.3,1.31h0a8.35,8.35,0,0,1,.11,1.3,5.49,5.49,0,0,1,0,.58v.05a4,4,0,0,1-.07.5v.06a3.31,3.31,0,0,1-.12.45.19.19,0,0,1,0,.07c-.05.14-.1.26-.15.38l0,0a2.82,2.82,0,0,1-.21.38,3.38,3.38,0,0,1-.37.46l-.1.09a2.42,2.42,0,0,1-.45.34l3.53-2a3.79,3.79,0,0,0,.45-.34l.1-.1a3.33,3.33,0,0,0,.36-.46h0c.07-.12.14-.24.2-.37h0s0,0,0-.05a2.56,2.56,0,0,0,.11-.24l0-.13,0-.08a.14.14,0,0,1,0-.07,2.68,2.68,0,0,0,.07-.27s0-.07,0-.11V34.8a.29.29,0,0,0,0-.09,2.34,2.34,0,0,0,0-.26c0-.05,0-.1,0-.15v0s0,0,0-.06a2,2,0,0,0,0-.25,2.17,2.17,0,0,0,0-.26h0Z"/><path class="cls-5" d="M46.48,26.53a11.7,11.7,0,0,1,5.31,9.19c0,3.38-2.4,4.74-5.34,3l-9.58-5.52c-1.17-.68-2.13-.14-2.14,1.21a4.68,4.68,0,0,0,2.13,3.67L43.6,42a7,7,0,0,1,3.18,5.51c0,2-1.44,2.84-3.21,1.83L19.45,35.42a7,7,0,0,1-3.18-5.51c0-2,1.44-2.84,3.2-1.83l3.2,1.85c1.18.68,2.13.14,2.14-1.21A4.7,4.7,0,0,0,22.68,25L5.3,15A11.69,11.69,0,0,1,0,5.82c0-3.38,2.4-4.74,5.34-3Z"/></g></g></g></svg>