<svg xmlns="http://www.w3.org/2000/svg" xmlns:xlink="http://www.w3.org/1999/xlink" viewBox="0 0 64.5 66.49"><defs><style>.cls-1{isolation:isolate;}.cls-2{fill:url(#未命名的渐变_159);}.cls-3{fill:url(#未命名的渐变_159-2);}.cls-4{fill:url(#未命名的渐变_159-3);}.cls-5{fill:url(#未命名的渐变_153);}</style><linearGradient id="未命名的渐变_159" x1="28.87" y1="38.37" x2="40.23" y2="38.37" gradientUnits="userSpaceOnUse"><stop offset="0" stop-color="#009587"/><stop offset="1" stop-color="#0286a7"/></linearGradient><linearGradient id="未命名的渐变_159-2" x1="4.94" y1="22.27" x2="62.3" y2="22.27" xlink:href="#未命名的渐变_159"/><linearGradient id="未命名的渐变_159-3" x1="0" y1="52.96" x2="22.51" y2="52.96" xlink:href="#未命名的渐变_159"/><linearGradient id="未命名的渐变_153" x1="3.52" y1="34.27" x2="64.5" y2="34.27" gradientUnits="userSpaceOnUse"><stop offset="0" stop-color="#08ffb3"/><stop offset="1" stop-color="#0df"/></linearGradient></defs><title>资源 64</title><g id="图层_2" data-name="图层 2"><g id="图层_3" data-name="图层 3"><g class="cls-1"><path class="cls-2" d="M38.09,38.31l.2-.06.18,0,.24,0,.13,0h.36l.33,0,.08,0,.25.07.07,0a1.38,1.38,0,0,1,.3.14l-3.52-2.05h0a1,1,0,0,0-.23-.11l0,0-.08,0-.11,0-.13,0-.08,0h0l-.27,0h-.63l-.11,0-.19,0-.1,0-.1,0-.32.11-.11,0-.06,0a6,6,0,0,0-.57.28L31,38.17a2.94,2.94,0,0,1-.55.25l-.11,0a3.11,3.11,0,0,1-.49.11h0a2,2,0,0,1-.49,0h0a1.23,1.23,0,0,1-.43-.16h0l3.52,2h0l.15.07.15.05.11,0h.06l.18,0h.43l.26-.05.12,0,.1,0,.13,0,.43-.21L37,38.77a5.84,5.84,0,0,1,.56-.28l.18-.07Z"/><path class="cls-3" d="M58.21,2.49a5.34,5.34,0,0,1,.52-.18l.34-.1.3-.06.4-.06.23,0h.59a4.86,4.86,0,0,1,.55.07l.13,0,.42.12.12,0a3.68,3.68,0,0,1,.49.23L58.78.5l0,0A2.64,2.64,0,0,0,58.36.3l-.07,0-.13,0L58,.16l-.22,0-.13,0-.07,0a3.41,3.41,0,0,0-.46,0h-.62l-.22,0L56,.06l-.19,0-.31.06-.16,0a.85.85,0,0,0-.17.06l-.53.18L54.49.5l-.1.06a7.49,7.49,0,0,0-.94.47l-41,23.68c-.24.14-.48.29-.71.45l-.23.17-.47.35-.26.22-.42.37-.26.24-.15.14-.16.17-.51.54-.15.17L9,27.68,8.68,28a2.11,2.11,0,0,0-.19.23l-.15.2-.21.28A2.43,2.43,0,0,0,8,29a4,4,0,0,0-.23.34l-.15.22-.06.08-.39.64,0,0a.91.91,0,0,0-.07.14c-.09.15-.18.3-.26.45s-.07.15-.11.22a2.4,2.4,0,0,0-.11.23,1.14,1.14,0,0,0-.1.19c-.09.18-.17.36-.25.54l0,.09v0c-.1.23-.19.45-.28.68a.56.56,0,0,1,0,.12l-.09.25-.12.33c0,.09,0,.18-.08.27l-.09.31a1.39,1.39,0,0,0-.06.19c0,.12-.06.23-.09.35L5.25,35a.61.61,0,0,0,0,.13c0,.09,0,.19,0,.28s-.08.4-.1.6a.9.9,0,0,0,0,.16.81.81,0,0,0,0,.16,9.72,9.72,0,0,0-.09,1.31c0,2.37.84,4,2.19,4.81l3.52,2.05c-1.34-.78-2.18-2.45-2.19-4.81a12,12,0,0,1,.09-1.32c0-.1,0-.21,0-.32s.06-.39.1-.6.05-.27.08-.4.06-.26.1-.39.09-.35.14-.53l.09-.31.2-.6L9.39,35c.11-.28.22-.55.34-.82a.3.3,0,0,1,0-.1c.11-.24.22-.49.34-.73l.12-.22c.11-.23.23-.45.36-.67,0-.05.05-.09.07-.14.15-.26.31-.51.48-.77,0-.07.09-.14.14-.21s.25-.36.37-.54l.21-.28.34-.44c.1-.12.19-.24.29-.35l.29-.33c.16-.18.33-.36.5-.53l.32-.32.25-.23.43-.37.25-.22.47-.35.23-.17q.36-.24.72-.45L57,3.07c.32-.18.63-.33.94-.47Z"/><path class="cls-4" d="M21.63,41.78l-3.52-2.05A2.08,2.08,0,0,1,19,41.65a5.34,5.34,0,0,1-.05.69.43.43,0,0,0,0,.11c0,.22-.09.44-.15.65l0,.06a6,6,0,0,1-.26.71v0a7.61,7.61,0,0,1-.35.7v0c-.13.22-.27.43-.42.64l0,0c-.14.19-.29.36-.44.53l-.1.11-.38.35-.17.15a4.12,4.12,0,0,1-.57.39L4.49,53.48a5.81,5.81,0,0,0-.85.58l-.26.23-.4.35-.17.18L2.66,55l-.17.18c-.12.15-.25.3-.36.45a1.83,1.83,0,0,0-.13.16l-.06.09L1.83,56l-.26.39-.24.38,0,0v0l-.18.31c-.06.13-.13.26-.19.38l-.17.36v0c-.06.13-.11.26-.16.4s-.11.28-.16.42L.37,59l0,.1-.05.14c0,.18-.09.35-.12.52s0,.21-.06.32l0,.16c0,.05,0,.1,0,.15a6.62,6.62,0,0,0-.06.88,3.14,3.14,0,0,0,1.31,2.89l3.53,2A3.17,3.17,0,0,1,3.52,63.3a6.15,6.15,0,0,1,.09-1l0-.16a7,7,0,0,1,.22-1l0-.09c.11-.35.24-.71.39-1.06v0a9.39,9.39,0,0,1,.53-1.05l0,0a8.82,8.82,0,0,1,.63-1l.06-.09A8.37,8.37,0,0,1,6.19,57l.14-.16c.19-.19.38-.36.57-.53l.26-.23A7.64,7.64,0,0,1,8,55.52l11.51-6.64a4,4,0,0,0,.56-.39l.18-.15c.08-.08.18-.15.26-.24a.63.63,0,0,0,.11-.12.94.94,0,0,0,.1-.1l.12-.13.24-.29.08-.11,0-.06.08-.1c.06-.09.12-.17.17-.26s.11-.17.16-.25v0l.12-.21.13-.25.11-.24h0l.11-.27.1-.28s0-.1,0-.15l0-.06,0-.1.09-.34,0-.21a.43.43,0,0,0,0-.11s0-.07,0-.1c0-.2,0-.4,0-.59A2.11,2.11,0,0,0,21.63,41.78Z"/><path class="cls-5" d="M57,3.07c4.14-2.39,7.51-.46,7.53,4.3a16.5,16.5,0,0,1-7.48,13l-22.51,13a6.58,6.58,0,0,0-3,5.18c0,1.91,1.35,2.67,3,1.72L37,38.77c2.48-1.43,4.51-.28,4.51,2.58a9.89,9.89,0,0,1-4.48,7.77L8,65.88c-2.49,1.43-4.51.28-4.52-2.58A9.92,9.92,0,0,1,8,55.52l11.51-6.64a6.59,6.59,0,0,0,3-5.18c0-1.9-1.35-2.67-3-1.71L16,44c-4.15,2.39-7.52.47-7.54-4.29a16.5,16.5,0,0,1,7.49-13Z"/></g></g></g></svg>