<svg xmlns="http://www.w3.org/2000/svg" xmlns:xlink="http://www.w3.org/1999/xlink" viewBox="0 0 96.21 342.2"><defs><style>.cls-1{fill:#373f49;}.cls-2{fill:#ffe5cf;}.cls-3{fill:url(#未命名的渐变_75);}.cls-4{fill:url(#未命名的渐变_78);}.cls-5{fill:url(#未命名的渐变_130);}.cls-6{fill:url(#未命名的渐变_75-2);}.cls-7{fill:url(#未命名的渐变_130-2);}.cls-8{fill:url(#未命名的渐变_130-3);}.cls-9{fill:#efd0bb;}.cls-10{fill:url(#未命名的渐变_78-2);}</style><linearGradient id="未命名的渐变_75" x1="18.16" y1="204.94" x2="61.06" y2="204.94" gradientUnits="userSpaceOnUse"><stop offset="0" stop-color="#e6e8f7"/><stop offset="1" stop-color="#b1b4d9"/></linearGradient><linearGradient id="未命名的渐变_78" x1="16.39" y1="308.15" x2="32.01" y2="311.27" gradientUnits="userSpaceOnUse"><stop offset="0" stop-color="#6736d9"/><stop offset="1" stop-color="#2f1179"/></linearGradient><linearGradient id="未命名的渐变_130" x1="9.94" y1="86.55" x2="34.51" y2="86.55" gradientUnits="userSpaceOnUse"><stop offset="0" stop-color="#6736d9"/><stop offset="1" stop-color="#a06ffd"/></linearGradient><linearGradient id="未命名的渐变_75-2" x1="34.82" y1="210.3" x2="76.48" y2="210.3" xlink:href="#未命名的渐变_75"/><linearGradient id="未命名的渐变_130-2" x1="15.45" y1="90.27" x2="85.16" y2="90.27" xlink:href="#未命名的渐变_130"/><linearGradient id="未命名的渐变_130-3" x1="72.53" y1="97.73" x2="91.84" y2="97.73" xlink:href="#未命名的渐变_130"/><linearGradient id="未命名的渐变_78-2" x1="16.79" y1="316.4" x2="72.68" y2="316.4" xlink:href="#未命名的渐变_78"/></defs><title>资源 65</title><g id="图层_2" data-name="图层 2"><g id="图层_3" data-name="图层 3"><path class="cls-1" d="M71.79,8c10,15,12,24,11,36-1.7,20.33.89,19.23,8,29,8,11,7,39-2,53s-24-27-24-27Z"/><path class="cls-2" d="M14.53,98.81c-.93,6.5-1.47,10.85-1.47,10.85S0,167.48,0,171.21,6.06,185.62,9.79,185s-2-5-2-10,.91-6.89.91-6.89S6.79,180,10.57,180.54c2.54.36,15.54-58.45,15.54-58.45L26.86,103S17.33,79.31,14.53,98.81Z"/><polygon class="cls-3" points="18.16 131.25 19.33 208.41 36.86 296.54 58.76 298.53 61.06 111.35 18.16 131.25"/><path class="cls-4" d="M58.76,286.63c-6.79,1.28-17,2.44-24.37-.11l9.13,37s-10.88,4-16.47,5.9-10.57,8.71-10.57,8.71H58.76Z"/><path class="cls-5" d="M13.06,109.66s-1.32,5.83-3.12,13.91c3.62,3.72,9,5.76,14.3,6.84,1.15-5,1.87-8.32,1.87-8.32l8.4-79.27C16.48,39.09,12.71,109.32,13.06,109.66Z"/><polygon class="cls-6" points="34.82 133.06 40.48 295.56 72.58 297.49 76.48 123.11 34.82 133.06"/><path class="cls-7" d="M34.51,42.82c19.89,2.49,45.62,5.35,49.43,9.64,5,5.59-6.84,77.76-6.84,77.76s-31.71,15.55-61.56,1.87a87.21,87.21,0,0,0,.63-35.49C12.44,77.33,23.94,67.07,34.51,42.82Z"/><path class="cls-1" d="M37.79,32c1,21-3,29-16,48,21-14,29-43,29-43Z"/><path class="cls-2" d="M71.93,186.73c-.63,7.46,4.59,7.93,3.86,4.27-1-5,1-7,1-7s0,8-2.38,11.44-.62,5.59,5,4.35S90,188.6,90.58,183.62,92,69.38,91.82,63.65C91.4,47.51,74,50,73.37,63.65S72.55,179.27,71.93,186.73Z"/><path class="cls-8" d="M73.37,63.65c-.37,8.08-.59,46.93-.84,78.93a71.91,71.91,0,0,0,18.78-.42c.35-33.31.6-75,.51-78.51C91.4,47.51,74,50,73.37,63.65Z"/><path class="cls-9" d="M44.77,31.94,46,52.46c4,9,20.52-5.6,20.52-5.6L58.45,26.34Z"/><ellipse class="cls-2" cx="50.28" cy="22.89" rx="18.69" ry="13.82" transform="translate(12.86 63.53) rotate(-71.84)"/><path class="cls-1" d="M42.34,6.5c1,9.73,1.54,16.9,11.26,23.55,0,0,5.59,22-3.58,37.38C34.79,93,58.79,106,58.79,106c-4-23,14.05-30.21,18-46,3-12,1.51-15.78,1-25s.85-26.53-14-33.1C50-4.25,42.34,6.5,42.34,6.5Z"/><path class="cls-1" d="M44.13,4.71C37,11.37,36.45,21.09,36.45,21.09a46.43,46.43,0,0,1,5.12-9.21A57.79,57.79,0,0,1,48.74,4.2Z"/><path class="cls-10" d="M40.3,290.6l1.36,36.06S20.52,333.5,16.79,342.2H71.5l1.18-48.81C62.39,297.55,47.69,295.38,40.3,290.6Z"/></g></g></svg>