<svg xmlns="http://www.w3.org/2000/svg" xmlns:xlink="http://www.w3.org/1999/xlink" viewBox="0 0 127.01 262.96"><defs><style>.cls-1{fill:url(#未命名的渐变_153);}.cls-2{fill:url(#未命名的渐变_60);}.cls-3{fill:url(#未命名的渐变_69);}.cls-4{fill:url(#未命名的渐变_32);}.cls-5{opacity:0.35;fill:url(#未命名的渐变_135);}</style><linearGradient id="未命名的渐变_153" x1="7.61" y1="73.48" x2="119.77" y2="73.48" gradientUnits="userSpaceOnUse"><stop offset="0" stop-color="#08ffb3"/><stop offset="1" stop-color="#0df"/></linearGradient><linearGradient id="未命名的渐变_60" x1="58.47" y1="111.06" x2="127.38" y2="229.82" gradientUnits="userSpaceOnUse"><stop offset="0" stop-color="#0057c0"/><stop offset="1" stop-color="#31e0e4" stop-opacity="0"/></linearGradient><linearGradient id="未命名的渐变_69" x1="58.88" y1="106.49" x2="9.82" y2="236.34" gradientUnits="userSpaceOnUse"><stop offset="0" stop-color="#109eeb"/><stop offset="1" stop-color="#31e0e4" stop-opacity="0"/></linearGradient><linearGradient id="未命名的渐变_32" x1="63.83" y1="56.37" x2="63.83" y2="87.05" gradientUnits="userSpaceOnUse"><stop offset="0" stop-color="#b8fbff"/><stop offset="1" stop-color="#d8f9f9"/></linearGradient><linearGradient id="未命名的渐变_135" x1="63.51" y1="88.32" x2="63.51" y2="1.86" gradientUnits="userSpaceOnUse"><stop offset="0" stop-color="#00dcf3"/><stop offset="0.1" stop-color="#16e0f4" stop-opacity="0.87"/><stop offset="0.35" stop-color="#48e9f7" stop-opacity="0.56"/><stop offset="0.57" stop-color="#71f0f9" stop-opacity="0.32"/><stop offset="0.76" stop-color="#8ef5fb" stop-opacity="0.15"/><stop offset="0.91" stop-color="#9ff8fc" stop-opacity="0.04"/><stop offset="1" stop-color="#a6f9fc" stop-opacity="0"/></linearGradient></defs><title>资源 66</title><g id="图层_2" data-name="图层 2"><g id="图层_3" data-name="图层 3"><polygon class="cls-1" points="119.77 73.48 63.87 105.97 7.61 73.48 63.5 41 119.77 73.48"/><polygon class="cls-2" points="119.77 73.48 119.41 230.48 63.51 262.96 63.87 105.97 119.77 73.48"/><polygon class="cls-3" points="63.87 105.97 63.51 262.96 7.25 230.48 7.61 73.48 63.87 105.97"/><ellipse class="cls-4" cx="63.83" cy="72.01" rx="35.3" ry="17.22"/><path class="cls-5" d="M0,0,28.88,69.1c0,10.62,15.5,19.22,34.63,19.22s34.62-8.6,34.62-19.22L127,0Z"/><path class="cls-5" d="M23.24,0l5.64,69.1c0,10.62,15.5,19.22,34.63,19.22s34.62-8.6,34.62-19.22L103.78,0Z"/></g></g></svg>