<svg xmlns="http://www.w3.org/2000/svg" xmlns:xlink="http://www.w3.org/1999/xlink" viewBox="0 0 61.87 74.78"><defs><style>.cls-1{fill:url(#未命名的渐变_153);}.cls-2{fill:url(#未命名的渐变_153-2);}.cls-3{fill:url(#未命名的渐变_153-3);}.cls-4{fill:url(#未命名的渐变_153-4);}.cls-5{fill:url(#未命名的渐变_153-5);}.cls-6{fill:url(#未命名的渐变_3);}</style><linearGradient id="未命名的渐变_153" x1="39.74" y1="53.13" x2="45.99" y2="53.13" gradientUnits="userSpaceOnUse"><stop offset="0" stop-color="#08ffb3"/><stop offset="1" stop-color="#0df"/></linearGradient><linearGradient id="未命名的渐变_153-2" x1="31.72" y1="61.74" x2="35.68" y2="61.74" xlink:href="#未命名的渐变_153"/><linearGradient id="未命名的渐变_153-3" x1="13.5" y1="64.29" x2="18.82" y2="64.29" xlink:href="#未命名的渐变_153"/><linearGradient id="未命名的渐变_153-4" x1="31.63" y1="14.94" x2="60.51" y2="14.94" xlink:href="#未命名的渐变_153"/><linearGradient id="未命名的渐变_153-5" x1="0" y1="38.5" x2="35.55" y2="38.5" xlink:href="#未命名的渐变_153"/><linearGradient id="未命名的渐变_3" x1="3.55" y1="38.42" x2="61.87" y2="38.42" gradientUnits="userSpaceOnUse"><stop offset="0" stop-color="#31e0e4"/><stop offset="1" stop-color="#0057c0"/></linearGradient></defs><title>资源 71</title><g id="图层_2" data-name="图层 2"><g id="图层_3" data-name="图层 3"><path class="cls-1" d="M46,51.4c0-2-.7-3.38-1.83-4l-3.54-2.06c1.12.65,1.82,2,1.83,4,0,.25,0,.5,0,.74a1.5,1.5,0,0,1,0,.22c0,.16,0,.32-.06.48s0,.31-.08.46-.06.3-.1.45,0,.2-.07.3-.11.4-.17.6,0,.11,0,.16q-.12.38-.27.75c0,.06-.05.11-.07.17-.09.21-.18.43-.28.64l-.06.13c-.11.24-.24.48-.36.71l-.09.17c-.14.23-.27.47-.41.69l-.08.13s-.05.09-.08.14,0,.09-.07.14l0,0v0l0,.09L40,56.7l-.06.16v.07a.36.36,0,0,0,0,.11c0,.06,0,.13-.05.19s0,.07,0,.1v.07s0,.05,0,.07,0,.23,0,.33a1.18,1.18,0,0,0,.5,1.09L43.78,61a1.18,1.18,0,0,1-.49-1.09,2.8,2.8,0,0,1,0-.4.17.17,0,0,0,0-.07c0-.13.06-.27.1-.4v0c.05-.14.1-.29.17-.44h0a4.92,4.92,0,0,1,.24-.45l.27-.44.14-.25.09-.17.07-.11.27-.54,0-.06.06-.13c.05-.12.11-.23.16-.35l.12-.29a1.22,1.22,0,0,1,.07-.17.42.42,0,0,1,0-.1l.21-.59s0,0,0-.06a1,1,0,0,1,.05-.16c0-.14.09-.28.12-.42s0-.12.05-.18,0-.2.07-.3l.06-.24c0-.07,0-.14,0-.21s.05-.3.08-.46l0-.21,0-.27c0-.07,0-.14,0-.21C46,51.89,46,51.64,46,51.4Z"/><path class="cls-2" d="M32.13,60.81l-.08,0a2.59,2.59,0,0,1-.33-.17l3.54,2.07h0a2.1,2.1,0,0,0,.3.15l.08,0-3.55-2.06Z"/><path class="cls-3" d="M17.58,71.75l0-14.51a1.18,1.18,0,0,0-.5-1.09L13.5,54.09A1.19,1.19,0,0,1,14,55.18l0,14.51a3,3,0,0,0,1.25,2.74l3.54,2.06A3,3,0,0,1,17.58,71.75Z"/><path class="cls-4" d="M58.18,2.31l.3-.1.19-.06.18,0,.22,0h.47l.31,0,.08,0,.23.07.07,0a2.44,2.44,0,0,1,.28.14L57,.29l0,0-.21-.1,0,0-.08,0-.11,0-.12,0L56.3,0h0L56,0h-.6l-.11,0-.18,0L55,.11l-.09,0-.31.1-.1,0s0,0-.06,0a4.43,4.43,0,0,0-.54.26L41.3,7.88A2.27,2.27,0,0,0,41,8.1l-.1.08-.15.14-.06.06-.06.06-.06.07a2.09,2.09,0,0,0-.14.17l0,.06,0,0,0,.06a1.3,1.3,0,0,0-.1.15l-.09.15h0a.75.75,0,0,0-.07.12c0,.05-.05.09-.07.14l-.06.13h0l-.06.15-.06.16a.24.24,0,0,0,0,.08v0s0,0,0,0a1.46,1.46,0,0,0,0,.2s0,.08,0,.12,0,0,0,.06a.43.43,0,0,1,0,.05,2,2,0,0,0,0,.34,1.22,1.22,0,0,0,.49,1.09l.69.39c1,.77,1.64,2.22,1.55,4.24,0,.25,0,.5-.06.76,0,.07,0,.15,0,.22s-.06.4-.1.61,0,.24-.08.36l-.09.34c0,.15-.08.3-.13.45a2.17,2.17,0,0,1-.07.24c-.07.22-.15.44-.24.67l0,.07-.24.59-.1.2c-.07.16-.15.32-.23.48l-.09.19-.34.62h0c-.12.21-.25.42-.38.62s-.09.14-.14.2-.18.27-.28.4l-.18.26-.26.33c-.08.11-.17.21-.26.32l-.23.26q-.21.24-.45.48l-.19.19-.15.15-.36.32-.18.16-.37.29-.17.13-.55.37L36.1,27l-.58.29-.15.07c-.18.08-.36.16-.54.22h0l-.46.13-.26,0-.33.05-.19,0a2.71,2.71,0,0,1-.4,0h-.1a3.4,3.4,0,0,1-.46-.06l-.11,0-.35-.1-.1,0a3.11,3.11,0,0,1-.41-.2l3.54,2.07h0l.31.16.06,0,.11,0,.16.06.19,0,.11,0,.06,0,.38,0h.11a1.5,1.5,0,0,0,.3,0h.29l.18,0,.16,0,.25-.05.14,0,.32-.1h0l.38-.15.16-.07.15-.06q.28-.13.57-.3l.25-.15.55-.37.16-.13c.13-.09.25-.19.37-.29l.19-.16.35-.32.16-.15.06-.06a1.59,1.59,0,0,0,.13-.13l.45-.48a.47.47,0,0,1,.1-.1,1,1,0,0,1,.13-.16c.08-.11.17-.21.26-.32l.12-.15.13-.18c.07-.08.13-.17.19-.25l.1-.14.18-.26.13-.21.06-.08.33-.53h0c.1-.17.2-.34.29-.52a.47.47,0,0,0,.05-.1,1.74,1.74,0,0,0,.1-.19l.12-.24a2.56,2.56,0,0,0,.11-.24l.09-.2a.54.54,0,0,0,.05-.11c.07-.16.14-.31.2-.47l0-.08v0l.21-.59s0,0,0-.06,0-.16.07-.24.07-.22.1-.34l0-.11c0-.11.06-.23.08-.34a2.5,2.5,0,0,0,.07-.26s0-.07,0-.1c0-.21.07-.41.1-.61l0-.18v0a6.51,6.51,0,0,0,.07-.76c.09-2.19-.62-3.73-1.82-4.42l-.55-.32a1.33,1.33,0,0,1-.37-1,2.58,2.58,0,0,1,0-.39.13.13,0,0,1,0-.06c0-.13,0-.25.08-.37v0a3.25,3.25,0,0,1,.15-.4h0c.06-.13.13-.26.2-.39h0a2.92,2.92,0,0,1,.24-.37l0,0a3.47,3.47,0,0,1,.25-.29l.06-.06a1.31,1.31,0,0,1,.21-.2l.1-.09a2.27,2.27,0,0,1,.32-.22l12.63-7.3A5.16,5.16,0,0,1,58,2.38Z"/><path class="cls-5" d="M19.27,25.59l.12-.16c.07-.08.13-.17.19-.25l.17-.2.16-.18c.1-.11.19-.21.29-.3l.18-.19.14-.13.24-.21.15-.12.27-.2.13-.1.4-.26L34.35,16a1.41,1.41,0,0,1,.31-.14l.06,0a1,1,0,0,1,.28-.07h0a.78.78,0,0,1,.27,0h0a.85.85,0,0,1,.24.09h0L32,13.82h0l-.09-.05-.09,0h-.43l-.15,0-.07,0-.06,0-.07,0-.24.12L18.17,21.23l-.41.26-.13.09-.27.21-.14.12-.24.21-.15.13-.09.09-.09.09a4.12,4.12,0,0,0-.28.31l-.09.09-.08.09-.16.2-.11.13a.83.83,0,0,0-.08.12l-.12.16a.44.44,0,0,0-.08.11,2.14,2.14,0,0,0-.13.19l-.09.13,0,.05c-.08.12-.15.24-.22.36l0,0a.16.16,0,0,1,0,.07c0,.09-.09.18-.14.27l-.06.12a.54.54,0,0,0-.07.13l-.06.11-.13.3,0,.05v0c-.06.13-.11.25-.16.38l0,.07a.58.58,0,0,1,0,.14,1.07,1.07,0,0,1-.07.19c0,.05,0,.1,0,.15a1.21,1.21,0,0,0,0,.18.49.49,0,0,0,0,.11c0,.06,0,.13,0,.19a1.42,1.42,0,0,1-.05.22.24.24,0,0,1,0,.08s0,.1,0,.16a1.91,1.91,0,0,0-.06.33.44.44,0,0,0,0,.1c0,.07,0,.14,0,.21a.76.76,0,0,0,0,.15,3.77,3.77,0,0,0,0,.47l0,14.46a2.56,2.56,0,0,1,0,.39.13.13,0,0,0,0,.06c0,.12-.05.24-.08.37v0c0,.13-.09.26-.14.39v0c-.06.13-.12.26-.19.39l0,0c-.07.13-.15.26-.23.38h0a2.16,2.16,0,0,1-.27.33l0,.05-.24.23-.09.08a2.43,2.43,0,0,1-.32.24,2.12,2.12,0,0,1-.31.14l-.06,0-.27.06h0a1.29,1.29,0,0,1-.28,0h0l-.14,0-.45-.26,0,0-.32-.16-.06,0-.11,0L10,45.65l-.18,0-.11,0H9.69a2.47,2.47,0,0,0-.38,0H9.19c-.1,0-.19,0-.3,0h-.1l-.19,0H8.43l-.16,0-.26,0-.13,0-.33.1h0l-.38.14L7,46l-.15.06q-.29.13-.57.3c-.21.12-.41.25-.61.39a1.33,1.33,0,0,0-.19.14l-.41.31-.21.17-.37.33a1.8,1.8,0,0,0-.2.19.52.52,0,0,0-.11.1c-.06,0-.11.11-.16.16s-.27.29-.4.44l-.12.12-.15.18-.24.29L3,49.34l-.18.25-.17.22-.07.1-.35.51v0h0c-.11.18-.22.36-.32.54a.54.54,0,0,0-.07.13,1.62,1.62,0,0,0-.1.18c0,.07-.09.14-.13.22l-.17.34L1.32,52l0,0c-.08.18-.17.36-.25.55l0,.09a1.22,1.22,0,0,0-.07.17c0,.1-.09.2-.13.3l-.09.26c0,.06,0,.13-.07.2s0,.09-.05.13l-.15.5s0,.08,0,.11v0c-.07.25-.13.49-.18.73v0q-.09.42-.15.84v0c0,.16,0,.32,0,.48a2.11,2.11,0,0,1,0,.26c0,.26,0,.51,0,.76a4.24,4.24,0,0,0,1.83,3.73l3.54,2.06a4.27,4.27,0,0,1-1.83-3.73c0-.25,0-.5,0-.76a2.46,2.46,0,0,1,0-.26c0-.17,0-.33,0-.51s.08-.56.14-.84.12-.51.19-.77a.76.76,0,0,1,0-.11c.06-.21.12-.42.19-.63l.08-.2.21-.56a1.22,1.22,0,0,0,.07-.17c.1-.23.21-.46.32-.69l.06-.13c.1-.2.2-.38.3-.57a1.62,1.62,0,0,0,.1-.18c.13-.23.26-.45.4-.67l0,0,.42-.61.16-.22.31-.4L6.88,51l.26-.3.41-.43L7.81,50,8,49.77l.37-.33.21-.17L9,49l.19-.14c.2-.14.41-.27.61-.39l.58-.29.15-.07c.18-.08.36-.16.54-.22h0l.47-.13.26-.05.33,0,.19,0h.49a3.4,3.4,0,0,1,.46.06l.11,0a2,2,0,0,1,.35.1l.1,0,.18.09.57.33h0l.09,0,.09,0h.43l.15,0,.08,0,.06,0,.07,0,.24-.12a3.33,3.33,0,0,0,.32-.24l.09-.08.12-.11.11-.12a.12.12,0,0,0,.05,0l0,0a2.09,2.09,0,0,0,.14-.17l.09-.13h0v0l.1-.15.09-.14,0-.07,0,0,0-.06.07-.15a1,1,0,0,0,.07-.15l0,0v0a.3.3,0,0,1,0-.1,1.09,1.09,0,0,0,0-.17.5.5,0,0,0,0-.13V45.9a1.17,1.17,0,0,0,.05-.2.68.68,0,0,0,0-.14.13.13,0,0,0,0-.06.09.09,0,0,0,0,0,1.94,1.94,0,0,0,0-.34l0-14.46c0-.15,0-.31,0-.47s0-.1,0-.15l0-.3.06-.34c0-.08,0-.16.05-.24a1.6,1.6,0,0,1,.05-.21c0-.11,0-.21.08-.31l.06-.17c0-.12.07-.23.11-.35S18,28,18,28s.12-.31.19-.46l0-.06c.06-.14.13-.27.2-.41l.06-.13.21-.38s0-.05,0-.08L19,26l.08-.13Z"/><path class="cls-6" d="M57.48,2.64c2.35-1.35,4.27-.26,4.28,2.44l.11,41.1a9.34,9.34,0,0,1-4.25,7.36L45,60.83c-.94.54-1.7.11-1.7-1a3.51,3.51,0,0,1,.57-1.8A12.94,12.94,0,0,0,46,51.4c0-4-2.83-5.59-6.3-3.59l-.25.15a14,14,0,0,0-6,10.29c-.1,2.38.75,4,2.15,4.58A1.14,1.14,0,0,1,36.18,64a3.74,3.74,0,0,1-1.69,2.93L21.86,74.19c-2.36,1.36-4.27.27-4.28-2.44l0-14.51c0-1.08-.77-1.51-1.71-1a3.48,3.48,0,0,0-1.27,1.4,13,13,0,0,1-4.72,5.19l-.34.19c-3.21,1.66-5.82.13-5.95-3.49-.15-4,2.7-9.08,6.25-11.13,1.89-1.08,3.58-1.1,4.73-.26a1.17,1.17,0,0,0,1.29-.07,3.82,3.82,0,0,0,1.68-3l0-14.46a9.41,9.41,0,0,1,4.25-7.36L34.35,16c.93-.54,1.69-.11,1.7,1a3.5,3.5,0,0,1-.58,1.8,13,13,0,0,0-2.13,6.67c0,4,2.83,5.59,6.3,3.59l.25-.15a14,14,0,0,0,6-10.29c.1-2.39-.75-4-2.15-4.59a1.16,1.16,0,0,1-.59-1.13,3.73,3.73,0,0,1,1.7-2.93Z"/></g></g></svg>