<svg xmlns="http://www.w3.org/2000/svg" xmlns:xlink="http://www.w3.org/1999/xlink" viewBox="0 0 92.16 100.53"><defs><style>.cls-1{fill:url(#未命名的渐变_153);}.cls-2{fill:url(#未命名的渐变_153-2);}.cls-3{fill:url(#未命名的渐变_153-3);}.cls-4{fill:url(#未命名的渐变_153-4);}.cls-5{fill:url(#未命名的渐变_153-5);}.cls-6{fill:url(#未命名的渐变_2);}.cls-7{fill:url(#未命名的渐变_2-2);}.cls-8{fill:url(#未命名的渐变_2-3);}.cls-9{fill:url(#未命名的渐变_2-4);}.cls-10{fill:url(#未命名的渐变_2-5);}.cls-11{fill:url(#未命名的渐变_3);}.cls-12{fill:url(#未命名的渐变_153-6);}</style><linearGradient id="未命名的渐变_153" x1="70.03" y1="53.13" x2="76.28" y2="53.13" gradientUnits="userSpaceOnUse"><stop offset="0" stop-color="#08ffb3"/><stop offset="1" stop-color="#0df"/></linearGradient><linearGradient id="未命名的渐变_153-2" x1="62" y1="61.74" x2="65.97" y2="61.74" xlink:href="#未命名的渐变_153"/><linearGradient id="未命名的渐变_153-3" x1="43.78" y1="64.29" x2="49.11" y2="64.29" xlink:href="#未命名的渐变_153"/><linearGradient id="未命名的渐变_153-4" x1="61.91" y1="14.94" x2="90.8" y2="14.94" xlink:href="#未命名的渐变_153"/><linearGradient id="未命名的渐变_153-5" x1="30.29" y1="38.5" x2="65.84" y2="38.5" xlink:href="#未命名的渐变_153"/><linearGradient id="未命名的渐变_2" x1="32.22" y1="59.02" x2="47.42" y2="59.02" gradientUnits="userSpaceOnUse"><stop offset="0" stop-color="#0feef4"/><stop offset="1" stop-color="#69ffff"/></linearGradient><linearGradient id="未命名的渐变_2-2" x1="41.1" y1="47.26" x2="44.98" y2="47.26" xlink:href="#未命名的渐变_2"/><linearGradient id="未命名的渐变_2-3" x1="26.17" y1="30.83" x2="46.6" y2="30.83" xlink:href="#未命名的渐变_2"/><linearGradient id="未命名的渐变_2-4" x1="0.08" y1="81.52" x2="17.58" y2="81.52" xlink:href="#未命名的渐变_2"/><linearGradient id="未命名的渐变_2-5" x1="0" y1="45.88" x2="30.1" y2="45.88" xlink:href="#未命名的渐变_2"/><linearGradient id="未命名的渐变_3" x1="33.83" y1="38.42" x2="92.16" y2="38.42" gradientUnits="userSpaceOnUse"><stop offset="0" stop-color="#31e0e4"/><stop offset="1" stop-color="#0057c0"/></linearGradient><linearGradient id="未命名的渐变_153-6" x1="3.55" y1="61.17" x2="47.96" y2="61.17" xlink:href="#未命名的渐变_153"/></defs><title>资源 72</title><g id="图层_2" data-name="图层 2"><g id="图层_3" data-name="图层 3"><path class="cls-1" d="M76.28,51.4c0-2-.71-3.38-1.83-4L70.9,45.31c1.13.65,1.83,2,1.83,4,0,.25,0,.5,0,.74a1.8,1.8,0,0,0,0,.22c0,.16,0,.32-.07.48s0,.31-.07.46-.06.3-.1.45,0,.2-.07.3-.11.4-.17.6a1,1,0,0,0,0,.16c-.09.25-.18.5-.28.75l-.06.17c-.09.21-.18.43-.28.64l-.06.13c-.12.24-.24.48-.37.71l-.09.17c-.13.23-.27.47-.41.69l-.08.13s0,.09-.07.14l-.08.14v.05l0,.09-.06.15-.06.16v.07l0,.11a1.33,1.33,0,0,0,0,.19s0,.07,0,.1v.07s0,.05,0,.07a1.94,1.94,0,0,0,0,.33,1.19,1.19,0,0,0,.49,1.09L74.07,61a1.17,1.17,0,0,1-.5-1.09,2.85,2.85,0,0,1,0-.4.17.17,0,0,1,0-.07,2,2,0,0,1,.1-.4v0a3,3,0,0,1,.17-.44h0a4.92,4.92,0,0,1,.24-.45l.27-.44.14-.25.09-.17.06-.11q.15-.27.27-.54l0-.06.06-.13c.06-.12.11-.23.16-.35l.12-.29c0-.06.05-.11.07-.17l0-.1c.08-.2.15-.4.22-.59,0,0,0,0,0-.06a1,1,0,0,0,0-.16c.05-.14.09-.28.13-.42a1.16,1.16,0,0,0,0-.18c0-.1,0-.2.08-.3l.06-.24,0-.21c0-.15.06-.3.08-.46s0-.14,0-.21a2.45,2.45,0,0,0,0-.27l0-.21C76.27,51.89,76.28,51.64,76.28,51.4Z"/><path class="cls-2" d="M62.41,60.81l-.07,0A2.16,2.16,0,0,1,62,60.6l3.55,2.07h0l.3.15.09,0-3.55-2.06Z"/><path class="cls-3" d="M47.86,71.75l0-14.51a1.19,1.19,0,0,0-.49-1.09l-3.55-2.06a1.18,1.18,0,0,1,.5,1.09l0,14.51a3,3,0,0,0,1.24,2.74l3.55,2.06A3,3,0,0,1,47.86,71.75Z"/><path class="cls-4" d="M88.47,2.31l.3-.1L89,2.15l.17,0,.23,0h.46l.32,0,.07,0,.24.07.07,0,.28.14L87.25.29l0,0L87,.17l0,0-.07,0-.11,0-.12,0-.08,0h0l-.26,0h-.6l-.1,0-.18,0-.09,0-.1,0-.3.1-.11,0-.06,0a5.16,5.16,0,0,0-.53.26L71.58,7.88a2.18,2.18,0,0,0-.31.22l-.1.08L71,8.32,71,8.38l0,.06-.07.07-.14.17,0,.06,0,0,0,.06-.1.15a1.09,1.09,0,0,0-.08.15h0l-.06.12-.08.14-.06.13h0a1,1,0,0,0-.07.15,1,1,0,0,0,0,.16L70,10v0l0,0a1.42,1.42,0,0,0,0,.2.5.5,0,0,0,0,.12s0,0,0,.06a.07.07,0,0,1,0,.05c0,.12,0,.23,0,.34a1.2,1.2,0,0,0,.5,1.09l.68.39c1,.77,1.64,2.22,1.56,4.24,0,.25,0,.5-.07.76l0,.22c0,.2-.06.4-.1.61l-.09.36c0,.11,0,.23-.08.34s-.09.3-.13.45a2.17,2.17,0,0,0-.07.24l-.24.67,0,.07c-.08.2-.16.4-.25.59l-.09.2c-.07.16-.15.32-.23.48a1.74,1.74,0,0,1-.1.19c-.11.21-.22.42-.34.62h0c-.12.21-.25.42-.38.62l-.13.2c-.09.14-.19.27-.28.4l-.19.26-.25.33c-.09.11-.18.21-.26.32s-.16.17-.23.26l-.45.48-.19.19-.16.15a3.73,3.73,0,0,1-.36.32l-.18.16c-.12.1-.24.2-.37.29l-.16.13-.55.37-.25.15c-.19.11-.38.2-.57.29l-.15.07c-.19.08-.37.16-.55.22h0l-.46.13-.25,0-.34.05-.19,0a2.67,2.67,0,0,1-.4,0h-.09a3.4,3.4,0,0,1-.46-.06l-.12,0-.34-.1-.11,0a3.11,3.11,0,0,1-.41-.2l3.55,2.07h0l.32.16.06,0,.11,0,.16.06.18,0,.11,0,.06,0,.38,0H67a1.5,1.5,0,0,0,.3,0h.29l.17,0,.16,0,.26-.05.14,0,.32-.1h0a3.12,3.12,0,0,0,.39-.15l.15-.07.15-.06.58-.3.25-.15.54-.37.17-.13.37-.29.18-.16.36-.32.16-.15L72,27.4a1.59,1.59,0,0,1,.13-.13l.44-.48.1-.1.13-.16c.09-.11.18-.21.26-.32l.12-.15.14-.18c.06-.08.12-.17.19-.25l.1-.14c.06-.09.11-.18.17-.26l.14-.21a.22.22,0,0,0,0-.08c.12-.17.22-.35.33-.53h0l.29-.52,0-.1a1.74,1.74,0,0,1,.1-.19l.12-.24L75,23.1l.09-.2a.54.54,0,0,1,0-.11c.07-.16.13-.31.19-.47a.3.3,0,0,1,0-.08v0a5.89,5.89,0,0,0,.21-.59.14.14,0,0,0,0-.06l.08-.24c0-.11.07-.22.1-.34l0-.11c0-.11,0-.23.08-.34a2.44,2.44,0,0,0,.06-.26s0-.07,0-.1c0-.21.08-.41.11-.61a1.13,1.13,0,0,1,0-.18v0c0-.25,0-.51.07-.76.09-2.19-.63-3.73-1.83-4.42l-.55-.32a1.29,1.29,0,0,1-.36-1,2.56,2.56,0,0,1,0-.39s0,0,0-.06a2.22,2.22,0,0,1,.09-.37v0a3.25,3.25,0,0,1,.15-.4h0c.06-.13.13-.26.2-.39h0c.07-.13.15-.25.23-.37l0,0a3.36,3.36,0,0,1,.24-.29l.06-.06a1.94,1.94,0,0,1,.21-.2l.1-.09a3.05,3.05,0,0,1,.32-.22l12.63-7.3a5.28,5.28,0,0,1,.54-.26Z"/><path class="cls-5" d="M49.56,25.59l.12-.16c.06-.08.12-.17.19-.25s.11-.13.17-.2l.16-.18c.09-.11.19-.21.28-.3l.18-.19.15-.13.24-.21.14-.12.27-.2.13-.1.41-.26L64.63,16a1.66,1.66,0,0,1,.31-.14l.06,0a1,1,0,0,1,.28-.07h0a.82.82,0,0,1,.27,0h0a1.06,1.06,0,0,1,.25.09h0l-3.55-2.06h0l-.08-.05-.09,0h-.44l-.15,0-.06,0-.06,0-.08,0-.24.12L48.45,21.23l-.41.26-.12.09-.27.21-.15.12-.24.21-.14.13-.09.09-.09.09c-.1.1-.2.2-.29.31l-.09.09-.07.09-.17.2a.69.69,0,0,1-.11.13l-.08.12-.12.16-.08.11-.13.19-.08.13,0,.05c-.07.12-.14.24-.22.36v0a.43.43,0,0,1,0,.07l-.15.27-.06.12-.06.13-.06.11-.14.3s0,0,0,.05v0c0,.13-.11.25-.16.38a.14.14,0,0,1,0,.07c0,.05,0,.1,0,.14s0,.13-.07.19l0,.15a1.21,1.21,0,0,1-.05.18l0,.11c0,.06,0,.13,0,.19a2.25,2.25,0,0,0,0,.22.24.24,0,0,0,0,.08l0,.16-.06.33s0,.07,0,.1a1.49,1.49,0,0,0,0,.21.77.77,0,0,0,0,.15c0,.16,0,.32,0,.47l0,14.46a2.56,2.56,0,0,1,0,.39.13.13,0,0,1,0,.06,2.74,2.74,0,0,1-.08.37v0a3,3,0,0,1-.14.39v0a3.39,3.39,0,0,1-.18.39l0,0c-.07.13-.15.26-.23.38h0a2.91,2.91,0,0,1-.26.33l0,.05-.23.23-.09.08a2.52,2.52,0,0,1-.33.24,2,2,0,0,1-.3.14l-.06,0-.28.06h0a1.2,1.2,0,0,1-.27,0h0l-.14,0L41,45.94l0,0-.31-.16-.07,0-.1,0a1.15,1.15,0,0,0-.17-.06l-.18,0-.11,0H40a2.32,2.32,0,0,0-.38,0h-.11c-.1,0-.2,0-.3,0h-.11l-.18,0h-.18l-.16,0-.25,0-.14,0-.33.1h0l-.38.14-.16.08-.15.06-.58.3c-.2.12-.41.25-.61.39l-.19.14-.4.31-.21.17-.37.33-.21.19-.11.1-.15.16c-.14.14-.27.29-.41.44l-.12.12-.14.18-.24.29-.13.15-.18.25-.16.22-.08.1-.34.51,0,0h0l-.33.54-.07.13a1.62,1.62,0,0,1-.1.18l-.12.22-.18.34-.06.14,0,0c-.09.18-.17.36-.25.55l0,.09c0,.06-.05.11-.07.17l-.12.3-.09.26c0,.06-.05.13-.08.2l0,.13c-.06.17-.11.33-.16.5l0,.11v0c-.06.25-.12.49-.17.73v0a8.17,8.17,0,0,0-.14.84v0c0,.16,0,.32,0,.48a2.46,2.46,0,0,0,0,.26,6.45,6.45,0,0,0,0,.76,4.28,4.28,0,0,0,1.83,3.73l3.55,2.06a4.22,4.22,0,0,1-1.83-3.73c0-.25,0-.5,0-.76l0-.26c0-.17,0-.33,0-.51s.09-.56.15-.84a7.2,7.2,0,0,1,.19-.77l0-.11c.06-.21.13-.42.2-.63s.05-.13.07-.2.14-.37.22-.56a1.22,1.22,0,0,1,.07-.17c.1-.23.2-.46.31-.69,0-.05.05-.09.07-.13.1-.2.19-.38.3-.57l.1-.18c.13-.23.26-.45.4-.67l0,0c.13-.21.27-.41.42-.61s.1-.15.16-.22.2-.27.31-.4.15-.19.23-.29l.27-.3c.13-.15.27-.29.4-.43L38.1,50l.2-.19.37-.33a1.84,1.84,0,0,1,.22-.17l.4-.31.19-.14c.2-.14.4-.27.61-.39s.38-.2.57-.29l.15-.07.54-.22h0l.47-.13.25-.05.33,0,.19,0h.49a3.55,3.55,0,0,1,.47.06l.11,0a1.91,1.91,0,0,1,.34.1l.11,0,.18.09.57.33h0l.08,0,.09,0h.44l.15,0,.07,0,.06,0,.07,0,.24-.12a2.43,2.43,0,0,0,.32-.24.39.39,0,0,0,.1-.08l.12-.11.11-.12,0,0,0,0A2.09,2.09,0,0,1,47,47.3l.09-.13h0v0l.1-.15.09-.14a.43.43,0,0,0,0-.07v0l0-.06.08-.15.07-.15v0a1,1,0,0,1,0-.1l.06-.17s0-.08,0-.13V45.9a1.17,1.17,0,0,0,0-.2l0-.14s0,0,0-.06,0,0,0,0,0-.23,0-.34l0-14.46c0-.15,0-.31,0-.47s0-.1,0-.15,0-.2,0-.3l.06-.34c0-.08,0-.16,0-.24l.06-.21a2.81,2.81,0,0,1,.08-.31.84.84,0,0,1,0-.17c0-.12.07-.23.12-.35a1.21,1.21,0,0,1,.05-.14c0-.15.12-.31.18-.46l0-.06c.06-.14.13-.27.19-.41l.07-.13a2.82,2.82,0,0,1,.21-.38.3.3,0,0,1,0-.08,5.08,5.08,0,0,1,.27-.43l.08-.13Z"/><path class="cls-6" d="M46.86,56.22h0a.81.81,0,0,1,.27,0h0a.77.77,0,0,1,.25.1h0l-3.55-2.06h0l-.08,0-.09,0-.06,0h-.38l-.15,0-.06,0-.06,0-.08,0-.23.11a2,2,0,0,0-.33.24.39.39,0,0,0-.1.08.86.86,0,0,0-.14.13l-.11.11,0,0,0,0-.13.17-.12.15h0l-.09.13-.08.14a1.09,1.09,0,0,0-.08.15h0c-.13.24-.27.48-.41.72a1.74,1.74,0,0,1-.11.18c-.12.19-.24.39-.37.58l-.09.12a8.05,8.05,0,0,1-.49.66c-.05.08-.12.15-.18.23s-.23.28-.35.41-.28.31-.42.45l-.24.25-.16.15-.43.39-.21.17a4.46,4.46,0,0,1-.43.33l-.19.14a6.29,6.29,0,0,1-.64.41,3.65,3.65,0,0,1-.34.18,4.89,4.89,0,0,1-.57.27l-.07,0-.46.16-.1,0-.29.07-.28.05a2.6,2.6,0,0,1-.39,0h-.11a3.49,3.49,0,0,1-.46,0h-.12l-.33-.05-.13,0-.31-.1-.1,0a3.54,3.54,0,0,1-.39-.19h0l3.54,2.06,0,0a1.77,1.77,0,0,0,.31.15l0,0,.1,0,.2.07.11,0,.14,0,.1,0a1.6,1.6,0,0,0,.23,0h.69l.34,0h0l.27-.06.23-.05.07,0,.09,0,.47-.16.06,0h0c.18-.07.37-.16.55-.25l.34-.19a7.49,7.49,0,0,0,.63-.41l.2-.14c.14-.1.29-.21.43-.33l.2-.17c.15-.12.3-.26.44-.39l.16-.15,0-.05.19-.2.42-.44.07-.08.28-.34.18-.23a.1.1,0,0,0,0,0c.15-.18.28-.37.42-.56l0,0a.83.83,0,0,0,.08-.12c.09-.12.17-.25.25-.37a2.39,2.39,0,0,0,.13-.21l.11-.18.09-.14c.1-.18.2-.35.29-.53l0,0a3.07,3.07,0,0,1,.26-.43h0c.1-.13.19-.25.3-.37l0,0c.08-.09.16-.16.24-.24l.1-.08.33-.24a2.22,2.22,0,0,1,.32-.14l.06,0A1.31,1.31,0,0,1,46.86,56.22Z"/><path class="cls-7" d="M41.1,46.12l.27.17.07.05L45,48.4l-.07,0a1.78,1.78,0,0,0-.27-.17Z"/><path class="cls-8" d="M44.1,28.13l.17-.07.3-.1.19-.05.17,0,.23,0h.46a3,3,0,0,1,.31,0l.08,0,.23.07.08,0a1.75,1.75,0,0,1,.28.13L43.05,26l0,0-.22-.1,0,0-.07,0-.11,0-.13,0-.07,0h0l-.26,0h-.6l-.11,0-.17,0-.1,0-.09,0-.3.1-.11,0-.06,0a5.16,5.16,0,0,0-.53.26L27.43,33.6l-.32.15-.06,0-.29.06h0a1.37,1.37,0,0,1-.29,0h0a.82.82,0,0,1-.26-.1l3.55,2.06h0a.2.2,0,0,0,.08,0l.1,0h.46l.15,0,.07,0,.06,0,.08,0a1.42,1.42,0,0,0,.25-.12L43.56,28.4A4.53,4.53,0,0,1,44.1,28.13Z"/><path class="cls-9" d="M17.57,68.6a5.17,5.17,0,0,0-.79-2.75,3.22,3.22,0,0,0-1-1l-3.55-2.06A4.24,4.24,0,0,1,14,66.54c0,.25,0,.5,0,.75,0,.09,0,.17,0,.26s0,.34-.05.51-.09.57-.15.85-.11.51-.18.77c0,0,0,.07,0,.11-.06.21-.12.42-.2.63,0,.06-.05.13-.07.2l-.21.56a1.22,1.22,0,0,0-.07.17c-.1.23-.21.46-.32.69a.54.54,0,0,1-.07.13q-.13.28-.3.57a1.62,1.62,0,0,1-.1.18c-.12.23-.26.45-.4.67v0l-.42.62c-.05.07-.11.14-.16.22l-.31.4-.24.29-.26.3-.41.43-.26.27-.21.19c-.12.11-.24.22-.37.32L9,76.83l-.4.31-.2.14-.6.38L7.2,78,7.05,78c-.18.08-.36.16-.54.22h0c-.16.06-.32.1-.47.14l-.26,0-.33,0-.19,0H4.75a3.55,3.55,0,0,1-.47-.06l-.11,0-.34-.1-.11,0-.18-.08L3,77.88H3l-.08,0-.09,0H2.35l-.15,0-.07,0-.06,0-.07,0L1.77,78a2.27,2.27,0,0,0-.32.22l-.1.08-.15.14-.07.07,0,0a.23.23,0,0,1-.07.07l-.13.17-.05.06,0,0s0,0-.05,0l-.09.15-.09.14v0h0l-.06.12a.61.61,0,0,0-.07.14.91.91,0,0,0-.07.14h0l-.06.15L.24,80l0,.08v0a.43.43,0,0,1,0,0,1.46,1.46,0,0,0,0,.2.5.5,0,0,0,0,.12.13.13,0,0,0,0,.06.13.13,0,0,0,0,.06,1.83,1.83,0,0,0,0,.33l0,14.52a3,3,0,0,0,1.24,2.73l3.55,2.06a3,3,0,0,1-1.25-2.73L3.62,83a2.56,2.56,0,0,1,0-.39.13.13,0,0,0,0-.06,2.49,2.49,0,0,1,.09-.37v0a4,4,0,0,1,.15-.4h0c.06-.14.13-.27.2-.4h0A3.17,3.17,0,0,1,4.35,81l0,0a3.47,3.47,0,0,1,.25-.29l0-.06a1.37,1.37,0,0,1,.22-.2L5,80.28a3.05,3.05,0,0,1,.32-.22,1.66,1.66,0,0,1,.31-.14l.06,0A1.34,1.34,0,0,1,6,79.83H6a1.29,1.29,0,0,1,.28,0h0l.13.05.46.26,0,0a1.87,1.87,0,0,0,.32.15l.06,0,.1,0,.17.06.18,0,.11,0h.06l.38,0h.52l.19,0,.17,0,.16,0,.25,0,.14,0,.33-.1h0l.38-.14.17-.08.15-.07a5.21,5.21,0,0,0,.57-.3c.21-.11.41-.25.61-.38l.19-.14.41-.31.21-.17.37-.33.2-.19.11-.1.16-.17c.13-.14.27-.28.4-.43l.12-.13.15-.17.24-.29.12-.16.18-.24.16-.22.08-.1c.12-.17.23-.34.34-.52l0,0h0c.12-.17.22-.35.33-.53s0-.08.07-.13a1.62,1.62,0,0,0,.1-.18l.12-.22a3.84,3.84,0,0,0,.18-.35s0-.08.07-.13,0,0,0,0c.09-.18.17-.36.25-.55a.36.36,0,0,0,0-.09,1.22,1.22,0,0,0,.07-.17c0-.1.09-.2.12-.3a2,2,0,0,0,.1-.26c0-.06.05-.13.07-.2s0-.09.05-.13l.15-.5,0-.11v0q.1-.36.18-.72v0c.06-.28.11-.57.15-.85v0c0-.17,0-.33,0-.49l0-.25C17.58,69.1,17.58,68.85,17.57,68.6Z"/><path class="cls-10" d="M26.36,22.3c.18-.08.36-.16.54-.22h0l.46-.13.26-.05c.11,0,.22,0,.33-.06h.19a2.71,2.71,0,0,1,.4,0h.09a3.55,3.55,0,0,1,.47.06l.11,0,.34.1.11,0,.41.19-3.54-2.06,0,0L26.21,20l-.07,0-.1,0-.17-.06-.18,0-.11,0-.06,0-.38,0h-.52l-.19,0-.17,0-.16,0-.26.06-.13,0-.33.1h0l-.38.14-.16.08-.15.06q-.29.14-.57.3l-.25.15-.55.37-.17.13-.37.29-.18.15-.36.33-.15.15s0,0-.07.06l-.12.13c-.16.16-.3.31-.45.48l-.1.1a1.83,1.83,0,0,1-.13.16l-.26.32-.12.15a1.18,1.18,0,0,0-.13.18c-.07.08-.13.17-.19.25l-.1.14-.18.26c0,.07-.09.14-.14.21l-.05.08-.33.53h0v0c-.1.17-.2.34-.29.52l-.06.1-.09.19-.13.24-.1.24-.09.19-.06.12c-.07.16-.13.32-.19.47l0,.08v0l-.21.59s0,0,0,.06-.05.16-.07.23-.07.23-.11.34,0,.08,0,.12l-.09.34-.06.26s0,.07,0,.1c0,.21-.07.41-.1.61a1.22,1.22,0,0,0,0,.17.09.09,0,0,1,0,.05c0,.25-.05.51-.06.76-.09,2.19.62,3.73,1.82,4.42l.55.33a1.25,1.25,0,0,1,.36,1,2.56,2.56,0,0,1,0,.39.13.13,0,0,1,0,.06c0,.12-.05.25-.08.37v0c-.05.13-.09.26-.15.4h0a3,3,0,0,1-.21.4h0a2.25,2.25,0,0,1-.24.36l0,0a2.48,2.48,0,0,1-.25.3l-.06.06a2,2,0,0,1-.21.2l-.1.09a2.27,2.27,0,0,1-.32.22L4.25,47l-.41.26-.13.1-.26.2-.15.12-.24.21L2.92,48l-.1.09-.09.09c-.09.1-.19.2-.28.31l-.09.09-.07.09-.17.2A.69.69,0,0,1,2,49l-.08.12-.12.16-.08.11-.13.19a.57.57,0,0,0-.08.13l0,0-.22.36v0a.3.3,0,0,0,0,.08l-.15.26L1,50.6l-.06.13-.06.11-.14.3a.14.14,0,0,0,0,.06h0c-.06.13-.11.25-.16.38a.64.64,0,0,1,0,.07,1.21,1.21,0,0,0-.05.14c0,.07,0,.13-.07.19s0,.1,0,.15,0,.12,0,.18l0,.11a1.33,1.33,0,0,0-.05.19l-.06.22s0,0,0,.08a.76.76,0,0,0,0,.16l-.06.34a.29.29,0,0,1,0,.09,1.49,1.49,0,0,1,0,.21c0,.05,0,.1,0,.15s0,.32,0,.47L0,68.86A1.17,1.17,0,0,0,.54,70L4.08,72a1.18,1.18,0,0,1-.49-1.09l0-14.51a3.85,3.85,0,0,1,0-.48s0-.1,0-.15,0-.2,0-.3a1.86,1.86,0,0,1,.06-.34,2,2,0,0,1,0-.24,1.6,1.6,0,0,0,0-.21l.09-.31a.84.84,0,0,1,.05-.17c0-.12.07-.23.11-.34a.88.88,0,0,0,.05-.15l.19-.46,0-.06c.06-.14.12-.27.19-.41a.83.83,0,0,1,.07-.13c.06-.13.13-.25.2-.38l0-.08.26-.43.09-.13.21-.3.12-.16c.06-.08.12-.17.19-.25l.16-.2L6,50.55a2.68,2.68,0,0,1,.28-.3l.18-.19.15-.13.24-.21L7,49.6l.27-.2.13-.1L7.8,49l12.63-7.29a2.27,2.27,0,0,0,.32-.22l.1-.09.15-.13.06-.07.06-.06.06-.07.14-.16,0-.06,0,0,0-.06a.71.71,0,0,0,.1-.14l.09-.15h0l.07-.12s.05-.09.07-.14l.06-.14h0l.06-.15.06-.16s0-.06,0-.08v0l0,0c0-.07,0-.13,0-.2s0-.08,0-.12,0,0,0-.06a.43.43,0,0,1,0-.05c0-.12,0-.23,0-.34a1.22,1.22,0,0,0-.49-1.09l-.7-.4c-1-.76-1.63-2.21-1.55-4.23,0-.25,0-.51.07-.76l0-.22c0-.2.07-.4.11-.61s.05-.24.08-.36,0-.23.08-.34.09-.3.14-.45a2.17,2.17,0,0,1,.07-.24c.07-.22.15-.45.23-.67,0,0,0-.05,0-.08.07-.19.16-.39.24-.58l.09-.2.23-.48a1.74,1.74,0,0,0,.1-.19c.11-.21.22-.42.34-.62v0l.38-.61.14-.21.27-.4c.07-.08.13-.17.19-.25l.26-.33c.08-.11.17-.21.26-.32s.15-.17.23-.26.29-.32.44-.48l.19-.19.16-.15.36-.32.18-.16.37-.29.17-.13.54-.37.25-.15.58-.3Z"/><path class="cls-11" d="M87.76,2.64C90.12,1.29,92,2.38,92,5.08l.12,41.1a9.37,9.37,0,0,1-4.25,7.36L75.27,60.83c-.93.54-1.69.11-1.7-1a3.53,3.53,0,0,1,.58-1.8,13,13,0,0,0,2.13-6.66c0-4-2.83-5.59-6.3-3.59l-.25.15a14,14,0,0,0-6,10.29c-.1,2.38.76,4,2.15,4.58A1.16,1.16,0,0,1,66.47,64a3.76,3.76,0,0,1-1.69,2.93L52.14,74.19c-2.35,1.36-4.27.27-4.28-2.44l0-14.51c0-1.08-.76-1.51-1.7-1a3.5,3.5,0,0,0-1.28,1.4,13,13,0,0,1-4.71,5.19l-.34.19c-3.22,1.66-5.82.13-5.95-3.49-.16-4,2.7-9.08,6.25-11.13,1.88-1.08,3.57-1.1,4.73-.26a1.16,1.16,0,0,0,1.28-.07,3.86,3.86,0,0,0,1.69-3l0-14.46A9.35,9.35,0,0,1,52,23.29L64.63,16c.94-.54,1.7-.11,1.7,1a3.48,3.48,0,0,1-.57,1.8,13,13,0,0,0-2.13,6.67c0,4,2.83,5.59,6.3,3.59l.25-.15a14,14,0,0,0,6-10.29c.09-2.39-.76-4-2.15-4.59a1.13,1.13,0,0,1-.59-1.13,3.75,3.75,0,0,1,1.69-2.93Z"/><path class="cls-12" d="M25.63,22.66c3.47-2,6.29-.39,6.3,3.59a13,13,0,0,1-2.13,6.67,3.5,3.5,0,0,0-.57,1.88c0,1,.83,1.39,1.75.86L43.56,28.4c2.36-1.36,4.27-.27,4.28,2.43l0,14.52a3.72,3.72,0,0,1-1.69,2.93,1.16,1.16,0,0,1-1.28.07c-1.15-.85-2.84-.82-4.73.27-3.55,2.05-6.4,7.08-6.25,11.12.13,3.62,2.74,5.15,6,3.49l.34-.19a13.17,13.17,0,0,0,4.72-5.19,3.58,3.58,0,0,1,1.27-1.41c.94-.54,1.7-.1,1.7,1L48,71.93a9.41,9.41,0,0,1-4.25,7.37L7.94,99.94c-2.35,1.36-4.27.27-4.28-2.43L3.62,83a3.72,3.72,0,0,1,1.69-2.93A1.16,1.16,0,0,1,6.59,80c1.15.84,2.85.82,4.73-.27,3.55-2,6.4-7.08,6.25-11.12-.13-3.62-2.73-5.15-6-3.49l-.33.19a13,13,0,0,0-4.72,5.19A3.68,3.68,0,0,1,5.29,71.9c-.94.54-1.7.1-1.7-1l0-14.51A9.36,9.36,0,0,1,7.8,49l12.63-7.29a3.72,3.72,0,0,0,1.69-2.93,1.12,1.12,0,0,0-.59-1.13c-1.39-.6-2.24-2.2-2.15-4.59a14,14,0,0,1,6-10.29Z"/></g></g></svg>