<svg xmlns="http://www.w3.org/2000/svg" xmlns:xlink="http://www.w3.org/1999/xlink" viewBox="0 0 122.32 132.91"><defs><style>.cls-1{fill:none;}.cls-2{isolation:isolate;}.cls-3{clip-path:url(#clip-path);}.cls-4{fill:#858585;}.cls-5{fill:url(#未命名的渐变_2);}.cls-6{fill:url(#未命名的渐变_2-2);}.cls-7{fill:#69ffff;}.cls-8{fill:url(#未命名的渐变_14);}.cls-9{fill:url(#未命名的渐变_2-3);}.cls-10{fill:url(#未命名的渐变_2-4);}.cls-11{clip-path:url(#clip-path-2);}.cls-12{fill:url(#未命名的渐变_2-5);}.cls-13{fill:#0feef4;}.cls-14{fill:url(#未命名的渐变_2-6);}.cls-15{fill:url(#未命名的渐变_30);}</style><clipPath id="clip-path"><path class="cls-1" d="M41.7,114,71.14,96.85l.14-.07a3.6,3.6,0,0,0,.52-.26L42.36,113.63a5,5,0,0,1-.52.26Z"/></clipPath><linearGradient id="未命名的渐变_2" x1="43.61" y1="92.38" x2="47.69" y2="101.56" gradientUnits="userSpaceOnUse"><stop offset="0" stop-color="#0feef4"/><stop offset="1" stop-color="#69ffff"/></linearGradient><linearGradient id="未命名的渐变_2-2" x1="39.49" y1="30.11" x2="52.89" y2="51.97" xlink:href="#未命名的渐变_2"/><linearGradient id="未命名的渐变_14" x1="41.56" y1="21.67" x2="44.62" y2="26.77" gradientUnits="userSpaceOnUse"><stop offset="0" stop-color="#69ffff"/><stop offset="1" stop-color="#0feef4"/></linearGradient><linearGradient id="未命名的渐变_2-3" x1="84.79" y1="103.7" x2="84.35" y2="131.53" xlink:href="#未命名的渐变_2"/><linearGradient id="未命名的渐变_2-4" x1="86.09" y1="77.29" x2="88.85" y2="82.39" xlink:href="#未命名的渐变_2"/><clipPath id="clip-path-2"><path class="cls-1" d="M75.81,90.26l29.44-17.1c1.82-1.06,4.33-.91,7.11.69q.27.15.54.33c5.12,3.27,9.23,10.47,9.42,16.47.1,3.39-1,5.78-2.91,6.87L90,114.63c1.88-1.09,3-3.48,2.91-6.87-.19-6-4.3-13.21-9.42-16.47q-.27-.18-.54-.33C80.15,89.36,77.63,89.21,75.81,90.26Z"/></clipPath><linearGradient id="未命名的渐变_2-5" x1="95.02" y1="79.74" x2="106.09" y2="104.8" xlink:href="#未命名的渐变_2"/><linearGradient id="未命名的渐变_2-6" x1="85.19" y1="53.52" x2="79.8" y2="42.15" xlink:href="#未命名的渐变_2"/><linearGradient id="未命名的渐变_30" x1="4.56" y1="29.63" x2="69.25" y2="124.93" gradientUnits="userSpaceOnUse"><stop offset="0" stop-color="#31e0ff"/><stop offset="1" stop-color="#00b7ff"/></linearGradient></defs><title>资源 74</title><g id="图层_2" data-name="图层 2"><g id="图层_3" data-name="图层 3"><g class="cls-2"><g class="cls-3"><g class="cls-2"><path class="cls-4" d="M41.7,114,71.14,96.85l.14-.07a3.6,3.6,0,0,0,.52-.26L42.36,113.63a5,5,0,0,1-.52.26l-.14.07"/></g></g></g><path class="cls-5" d="M59,91.93s0-.08,0-.13a.25.25,0,0,0,0-.08v0s0-.08,0-.13a.59.59,0,0,1,0-.13v-.07s0,0,0-.07l0-.14,0-.13h0a.83.83,0,0,0,0-.15,1,1,0,0,0,0-.14l0-.06v-.08a.78.78,0,0,1-.05-.14.69.69,0,0,1,0-.13v0l0-.09L58.57,90l-.06-.13h0a.83.83,0,0,0-.07-.13c0-.05,0-.1-.08-.16l0,0,0-.07a.75.75,0,0,0-.07-.12l-.11-.19c-.14-.22-.28-.45-.41-.68l-.05-.08-.39-.69c-.07-.14-.14-.28-.22-.42L57,87.1l-.3-.61-.06-.13c-.08-.17-.15-.35-.23-.52l-.06-.15L56,85.06A.49.49,0,0,0,56,85c-.06-.18-.13-.36-.19-.53l-.06-.18-.21-.62v0c-.07-.21-.13-.42-.19-.64,0-.06,0-.12-.05-.18l-.12-.5s0-.11,0-.17-.09-.43-.13-.64c0,0,0,0,0-.08l-.09-.56a1.1,1.1,0,0,1,0-.18c0-.18-.05-.37-.07-.56,0,0,0,0,0-.07,0-.21,0-.41,0-.62a.86.86,0,0,1,0-.16c0-.17,0-.34,0-.5V78.6c0-.22,0-.43,0-.65s0-.65.09-1a.5.5,0,0,1,0-.12,7,7,0,0,1,.16-.82l0-.12a5.94,5.94,0,0,1,.23-.75s0,0,0,0a6.06,6.06,0,0,1,.3-.68,3.07,3.07,0,0,1,.17-.31c.07-.13.14-.26.22-.38l.15-.21.29-.36.17-.19.35-.32.16-.14a4.91,4.91,0,0,1,.55-.38L28.21,89.28a4.91,4.91,0,0,0-.55.38,1.07,1.07,0,0,0-.16.14l-.35.32-.17.19c-.1.11-.19.24-.29.36l-.14.21-.08.1-.15.28a3.07,3.07,0,0,0-.17.31l0,.08a5.89,5.89,0,0,0-.24.58h0s0,0,0,.05-.11.31-.16.48a2.13,2.13,0,0,0-.07.27l0,.12,0,.1c0,.16-.07.32-.1.48l0,.24s0,.08,0,.12,0,.08,0,.12,0,.31-.05.47,0,.24,0,.37v.1c0,.16,0,.33,0,.49v.19a2.71,2.71,0,0,1,0,.29c0,.07,0,.14,0,.21a.86.86,0,0,0,0,.16v.11c0,.16,0,.33,0,.49v0s0,0,0,.07,0,.26,0,.4l0,.16c0,.06,0,.12,0,.18l0,.16.06.4s0,.05,0,.08v0c0,.17.07.34.11.51a.36.36,0,0,0,0,.1c0,.06,0,.11,0,.17l.06.26.06.23c0,.07,0,.13.05.19l0,.11.15.53h0v0l.16.49s0,.09,0,.13l.06.17a1.18,1.18,0,0,0,.07.2l.12.34.05.11v0c.06.16.13.32.2.48a.69.69,0,0,0,0,.1l.06.14c0,.08.07.16.1.23l.13.3.06.12,0,.06.24.51,0,0a2.12,2.12,0,0,0,.11.21c.05.11.11.22.17.33l0,.08.39.7a.43.43,0,0,1,0,.07h0c.13.23.27.46.41.68l.18.31a.43.43,0,0,1,0,.07c.06.11.12.22.17.33h0a2.75,2.75,0,0,1,.15.36v0a2.3,2.3,0,0,1,.12.34v0c0,.12.07.23.1.35h0c0,.11.06.23.08.34v0c0,.11,0,.22,0,.33v0c0,.11,0,.22,0,.33s0,.2,0,.3v0l0,.25v0l-.06.22v0a1.08,1.08,0,0,1-.08.19v0a1.24,1.24,0,0,1-.1.2,2.11,2.11,0,0,1-.19.23l-.05,0-.23.17L58.25,93.78a.91.91,0,0,0,.23-.17l.05,0a1.45,1.45,0,0,0,.19-.23h0a1.14,1.14,0,0,0,.1-.19h0v0l.06-.13a.19.19,0,0,1,0-.07v-.07a.74.74,0,0,0,0-.14.07.07,0,0,1,0,0v0a.11.11,0,0,0,0,0,.69.69,0,0,0,0-.13.22.22,0,0,0,0-.08v-.05a.57.57,0,0,1,0-.13v-.13h0Z"/><path class="cls-6" d="M42.14,60.93l.37-.19L72,43.63l-.37.19-.12,0-.27.11-.11,0a4.37,4.37,0,0,1-.62.17l-.11,0a3,3,0,0,1-.43.06h-.11a3.71,3.71,0,0,1-.47,0h-.06l-.4,0-.2,0-.23,0-.23,0-.2,0-.29-.06-.15,0L67.15,44l-.07,0-.37-.13-.14,0-.3-.12-.16-.07-.29-.13-.16-.07-.42-.21L64.85,43c-.34-.2-.68-.41-1-.64l-.05,0c-.31-.21-.61-.44-.91-.68l-.1-.08c-.29-.24-.57-.49-.85-.75l-.1-.09c-.28-.26-.56-.54-.83-.83l-.07-.07q-.43-.47-.84-1h0c-.28-.34-.56-.68-.82-1h0c-.24-.32-.47-.66-.7-1l-.4-.65-.33-.54-.15-.26c-.17-.31-.34-.62-.5-.93l-.06-.1c-.19-.38-.37-.77-.54-1.16l0-.06c-.16-.38-.32-.77-.46-1.15l0-.08c-.15-.4-.28-.79-.4-1.19l0-.07c-.11-.38-.22-.77-.31-1.15l0-.11c-.09-.39-.17-.79-.23-1.18v0c-.07-.39-.11-.78-.15-1.17v-.1c0-.39,0-.77,0-1.15s0-.75,0-1.1c0,0,0-.06,0-.09a8.64,8.64,0,0,1,.14-.93.5.5,0,0,1,0-.12c.06-.29.13-.57.21-.83a.88.88,0,0,0,0-.15c.09-.25.18-.49.28-.71a.2.2,0,0,1,0-.08,6.1,6.1,0,0,1,.39-.72l.08-.11c.12-.17.24-.34.37-.49l.16-.17c.12-.13.24-.25.37-.37l.17-.14a5.81,5.81,0,0,1,.57-.4L28.36,36.39a4,4,0,0,0-.58.4l-.17.14-.37.36-.16.18c-.13.15-.25.32-.37.49l-.07.1,0,0a4.8,4.8,0,0,0-.37.67v0a.2.2,0,0,0,0,.08c-.07.15-.14.31-.2.47s-.05.16-.07.24a.88.88,0,0,0-.05.15.78.78,0,0,0-.05.14c0,.16-.09.33-.13.5a1.06,1.06,0,0,0,0,.19s0,.07,0,.11,0,.13,0,.19-.05.32-.07.48l0,.27s0,.06,0,.09,0,.08,0,.11l0,.48c0,.16,0,.31,0,.48v0c0,.15,0,.3,0,.46s0,.32,0,.48a1.64,1.64,0,0,0,0,.22v.1c0,.05,0,.11,0,.17s0,.32,0,.49.05.33.07.5h0v0c0,.16.05.32.08.47s.07.35.11.52,0,.13,0,.19l0,.11.06.23c0,.17.09.35.14.53s.07.26.11.39l0,.07a.14.14,0,0,1,0,.07c.05.17.11.34.17.51a5.17,5.17,0,0,0,.18.51l0,.1,0,.07.12.32c.06.17.13.33.19.49l.15.35,0,.06,0,.07c.07.16.14.32.22.48s.17.35.25.53a.56.56,0,0,1,.05.08.93.93,0,0,0,0,.1l.21.42c.1.17.2.34.29.51l.15.26.06.1c.08.15.18.3.27.44s.27.43.4.64l.07.11c.2.3.41.6.63.89h0l.45.58c.12.16.24.31.37.46h0l.39.45.39.43.06.07.07.07a3.83,3.83,0,0,0,.28.29l.42.42.13.12.1.09.21.19a5.34,5.34,0,0,0,.44.39l.2.16.1.09.15.12.44.33.32.23.06,0,.05,0,.42.28.43.26.1.06.32.18.07,0,.33.16.09.05.16.07.14.07.15.06.16.07.09,0,.21.08.14,0,0,0,.32.1.07,0h0l.4.11h0l.15,0,.25.05h0l.2,0,.19,0h0l.23,0,.17,0h.49l.47,0h.11l.43-.06H41a6.29,6.29,0,0,0,.62-.17l0,0,.06,0L42,61Z"/><path class="cls-7" d="M36.44.93,36.22.81a2.44,2.44,0,0,0-.28-.14L35.76.58l0,0,0,0L35.4.42l-.28-.1,0,0h0L34.85.23,34.57.15l-.13,0h-.06l-.09,0L34,0l-.17,0H33l-.39.05h0l-.08,0-.38.1,0,0a2.45,2.45,0,0,0-.52.24L2.17,17.57a2.45,2.45,0,0,1,.52-.24,2.77,2.77,0,0,1,.41-.12l.08,0a4.43,4.43,0,0,1,.51-.06H3.8a4.35,4.35,0,0,1,.51,0h.07l.56.09H5a5.54,5.54,0,0,1,.6.17h0a6.62,6.62,0,0,1,.64.26l0,0c.22.1.44.22.67.35L27.11,29.65,56.55,12.54Z"/><path class="cls-8" d="M59.25,17.09a.62.62,0,0,0,0-.13.57.57,0,0,0,0-.13s0-.09,0-.13,0-.09,0-.14h0l0-.12a.59.59,0,0,0,0-.14c0-.05,0-.1,0-.15l0-.14s0-.08,0-.11h0v0s0-.09,0-.14l-.05-.14a.69.69,0,0,0,0-.13s0-.09,0-.13l-.05-.11h0v0l-.06-.13a.61.61,0,0,0-.07-.14,1.3,1.3,0,0,0-.08-.17,1.62,1.62,0,0,0-.1-.18v0l0,0c-.06-.11-.13-.22-.2-.33L58.06,14h0a1.67,1.67,0,0,0-.12-.16l-.1-.13-.1-.12-.11-.12,0,0h0l-.08-.08-.11-.12-.12-.11-.12-.1-.07-.05h0l0,0-.12-.09-.12-.08-.12-.08-.11-.07,0,0L27.11,29.65a4,4,0,0,1,.54.38h0a4.33,4.33,0,0,1,.5.46h0a4.89,4.89,0,0,1,.45.55h0a4.81,4.81,0,0,1,.4.6v0a5.46,5.46,0,0,1,.32.64h0c.09.22.17.44.24.67h0a5.89,5.89,0,0,1,.16.67h0a4.87,4.87,0,0,1,0,.65,2.71,2.71,0,0,1,0,.29v0c0,.08,0,.16,0,.24v0a1.74,1.74,0,0,1-.05.22l0,0-.06.18a.05.05,0,0,0,0,0,1.62,1.62,0,0,1-.1.18v0h0a2.31,2.31,0,0,1-.18.23l-.06.05a.87.87,0,0,1-.22.17L58.46,19a1,1,0,0,0,.23-.18l.05-.05a1.45,1.45,0,0,0,.19-.23h0v0l.09-.16v0a.08.08,0,0,1,0,0,.42.42,0,0,1,0-.1s0,0,0-.08l0,0v0a.65.65,0,0,0,0-.13.13.13,0,0,0,0-.06v-.08a.69.69,0,0,1,0-.13v-.12c0-.05,0-.09,0-.13v-.13h0Z"/><path class="cls-9" d="M100.06,87.64l0-.26v0l.06-.23v0a1.54,1.54,0,0,1,.08-.19s0,0,0,0,.07-.13.1-.19v0h0a2,2,0,0,1,.18-.23l.06-.05a1.3,1.3,0,0,1,.23-.18L71.41,103.28a1.3,1.3,0,0,0-.23.18s0,0-.05.05a1.37,1.37,0,0,0-.19.23h0v0l-.09.17h0s0,0,0,0a.54.54,0,0,0,0,.11l0,.08v.07s0,.09,0,.14a.13.13,0,0,1,0,.06v.08a.59.59,0,0,0,0,.13.25.25,0,0,0,0,.08v.06a.57.57,0,0,1,0,.13v.14h0l-.06,23c0,.26,0,.51,0,.75v.06a6,6,0,0,1-.09.63l0,.09a5.09,5.09,0,0,1-.14.56l0,.1c-.06.17-.12.33-.19.48l0,.06a3.84,3.84,0,0,1-.27.49l0,.06c-.08.12-.17.24-.26.35l-.11.11-.25.25-.11.09a2.63,2.63,0,0,1-.4.28L98,115.34a3.51,3.51,0,0,0,.4-.27l.11-.1a3,3,0,0,0,.25-.25,1.14,1.14,0,0,0,.11-.11c.09-.11.18-.23.26-.35l0-.06h0a5,5,0,0,0,.26-.46v0l0-.06c0-.1.09-.2.13-.31l.06-.17,0-.1,0-.09.09-.34a.69.69,0,0,0,0-.13l0-.08a.59.59,0,0,0,0-.13,3.06,3.06,0,0,0,0-.32,1.23,1.23,0,0,0,0-.19v-.06s0,0,0-.08,0-.21,0-.32V111L100,88c0-.1,0-.2,0-.3Z"/><path class="cls-10" d="M104.72,73.51l-.22.1-.2,0h0l-.2,0h-.28l-.22,0h0l-.24-.07h0l-.25-.11h0l-.26-.13a5.77,5.77,0,0,1-.54-.37h0a4.34,4.34,0,0,1-.49-.47h0a6,6,0,0,1-.46-.54h0c-.14-.2-.27-.4-.39-.61l0,0c-.11-.2-.22-.42-.32-.63h0a5.84,5.84,0,0,1-.24-.66h0a5.37,5.37,0,0,1-.15-.67h0a3.68,3.68,0,0,1-.06-.66L70.66,85.76V86a.62.62,0,0,1,0,.13s0,.09,0,.14a.59.59,0,0,0,0,.13h0s0,.08,0,.13l0,.14,0,.14s0,.09,0,.14l0,.12h0v0s0,.09,0,.13a.58.58,0,0,0,0,.14s0,.09,0,.13l.06.14,0,.1h0v0l.06.13s0,.09.07.14a1.19,1.19,0,0,1,.08.16l.11.18v0l.21.33.17.24h0l.12.15.11.13.1.12.11.12,0,0h0l.08.09.11.11.12.11.12.1.06.05,0,0,0,0,.12.09.12.09.11.07.12.07,0,0,.09,0,.11,0,.06,0h0l.11,0,.11,0h0l.09,0,.11,0h.12l.11,0h.39l.15,0h0l.18,0h0a.85.85,0,0,0,.22-.09Z"/><g class="cls-2"><g class="cls-11"><path class="cls-12" d="M122.32,90.66h0c0-.16,0-.31,0-.47s0-.32,0-.48l-.06-.48c0-.17,0-.33-.07-.5s0-.33-.08-.5-.07-.34-.11-.52l-.12-.52c0-.18-.09-.35-.14-.53l-.15-.53c-.06-.17-.11-.34-.17-.52l-.18-.51L121,84.6c-.07-.16-.13-.33-.2-.49l-.21-.48c-.07-.16-.14-.32-.22-.48s-.17-.36-.25-.53-.21-.41-.32-.61-.33-.61-.51-.92-.5-.81-.77-1.21-.4-.59-.61-.87l-.43-.57c-.13-.16-.26-.33-.4-.49s-.25-.3-.38-.44l-.39-.44-.4-.42-.43-.42-.43-.4-.44-.39-.44-.36-.44-.33-.42-.3-.41-.27h0l-.42-.26-.1-.06-.32-.18-.41-.21-.4-.19-.4-.17-.4-.15-.4-.13-.41-.11-.42-.1-.42-.07-.45,0-.47,0a4.24,4.24,0,0,0-.51,0,3.4,3.4,0,0,0-.57.08,4.26,4.26,0,0,0-.7.19,4.16,4.16,0,0,0-.83.38L75.81,90.26a5.17,5.17,0,0,1,.83-.38,5.53,5.53,0,0,1,.7-.18,4.85,4.85,0,0,1,.57-.09l.51,0,.47,0,.45,0,.42.07.42.1.41.11.4.13.4.15.4.17.4.19.41.21.32.18L83,91l.42.26h0l.41.27q.21.14.42.3l.44.33.44.36.44.39.43.4.43.42.4.42.39.44c.13.14.26.29.38.44s.27.33.4.49l.43.56c.21.29.42.58.62.88s.52.8.76,1.21.35.61.52.92.21.4.31.61.17.35.25.52l.22.49.21.48c.07.16.13.32.2.49l.18.49.18.51c.06.17.11.35.17.52l.15.53c.05.18.1.35.14.53l.12.52c0,.17.07.35.11.52s.06.33.08.5,0,.33.07.5l.06.48c0,.16,0,.32,0,.48s0,.31,0,.47h0c0,.17,0,.33,0,.49s0,.32,0,.47a3.75,3.75,0,0,1,0,.48c0,.16,0,.32,0,.47s0,.33-.07.49-.06.33-.1.49-.08.34-.13.5a4.27,4.27,0,0,1-.18.54,5.89,5.89,0,0,1-.24.58,6.31,6.31,0,0,1-.38.68A5.11,5.11,0,0,1,90,114.63l29.44-17.11a5.11,5.11,0,0,0,1.72-1.68,6.31,6.31,0,0,0,.38-.68,5,5,0,0,0,.24-.58,4.27,4.27,0,0,0,.18-.54c0-.16.09-.33.13-.5s.07-.32.1-.49,0-.32.07-.49,0-.31,0-.46a3.91,3.91,0,0,0,0-.49c0-.15,0-.31,0-.47Z"/></g></g><polygon class="cls-13" points="70.72 62.65 100.16 45.54 100.09 68.65 70.66 85.76 70.72 62.65"/><path class="cls-7" d="M73.28,22.2l-.09-.05-.11,0-.07,0h0l-.11,0-.11,0h0l-.07,0-.12,0h-.11l-.12,0h-.38l-.16,0h0l-.16,0h0a.72.72,0,0,0-.2.09h0L41.91,39.12l.21-.1.17,0h0a1.2,1.2,0,0,1,.2,0h.27A1.81,1.81,0,0,1,43,39h0l.24.06h0l.25.1h0l.27.14L64,50.92,93.4,33.82Z"/><path class="cls-14" d="M65.29,51.85l.07,0c.2.16.39.33.58.51l.06.06c.2.18.38.37.57.56l0,0c.2.21.39.43.58.65h0c.18.23.37.46.55.71l0,0,.45.66.27.44c.08.12.16.24.23.36l.1.18c.12.21.23.42.34.63a.43.43,0,0,0,0,.07c.13.26.25.52.37.79l0,0c.11.26.21.52.31.78l0,0q.15.41.27.81l0,0c.07.26.14.52.2.78l0,.07c.06.27.11.54.16.81h0c0,.26.07.53.09.8v.06c0,.27,0,.53,0,.79l29.44-17.11v-.31c0-.11,0-.22,0-.33s0-.1,0-.15v-.06a.49.49,0,0,0,0-.12l0-.33c0-.11,0-.23,0-.34h0l-.06-.33c0-.11,0-.23-.07-.35l0-.12,0-.08a1.24,1.24,0,0,0,0-.16c0-.12-.06-.24-.09-.36s0-.17-.08-.26v-.1l-.12-.35-.12-.34,0-.06,0,0-.08-.23-.14-.33c0-.07-.06-.15-.1-.23v0l0-.05-.15-.33-.18-.35,0-.06,0-.06-.15-.29L98.26,39l-.1-.18a.16.16,0,0,1,0-.07l-.19-.29L97.66,38l0-.07c-.13-.2-.27-.39-.4-.58l0,0h0l-.3-.39c-.08-.1-.16-.21-.25-.31h0l-.26-.31L96.1,36l0-.05,0,0-.19-.2-.29-.28-.09-.09-.06-.06-.15-.13-.3-.26-.13-.11-.07-.06-.1-.08-.3-.23-.21-.15-.05,0,0,0L93.75,34l-.29-.18-.06,0L64,50.92c.23.14.45.28.68.44l0,0C64.88,51.53,65.09,51.69,65.29,51.85Z"/><path class="cls-15" d="M64,50.92a14.93,14.93,0,0,1,6.76,11.73l-.06,23.11a5.92,5.92,0,0,0,2.69,4.67,1.84,1.84,0,0,0,2,.11c1.84-1.34,4.53-1.31,7.53.42q.27.15.54.33c5.12,3.26,9.23,10.47,9.42,16.47.2,6.67-4.37,9.44-10,6.17a20.74,20.74,0,0,1-7.52-8.27,5.56,5.56,0,0,0-2-2.22c-1.58-.85-2.71,0-2.72,1.63l-.06,23c0,4.31-3.06,6-6.81,3.89L43.61,120.36a5.93,5.93,0,0,1-2.7-4.67,1.83,1.83,0,0,1,.93-1.8c2.1-.9,3.43-3.22,3.44-6.67,0-6.35-4.44-14.07-10-17.26l-.4-.22c-5.12-2.73-9.33-.4-9.61,5.32a20.2,20.2,0,0,0,3.37,11.23,5.66,5.66,0,0,1,.92,2.87c0,1.72-1.22,2.41-2.72,1.54L6.77,99.09A14.91,14.91,0,0,1,0,87.37L.19,21.92C.2,17.61,3.25,15.87,7,18L27.11,29.65a5.94,5.94,0,0,1,2.7,4.67,1.8,1.8,0,0,1-.93,1.8c-2.1.9-3.43,3.23-3.44,6.67,0,6.35,4.44,14.08,10,17.27l.39.22c5.13,2.72,9.33.4,9.62-5.33A20.26,20.26,0,0,0,42,43.72a5.52,5.52,0,0,1-.91-2.87c0-1.71,1.21-2.4,2.71-1.54Z"/></g></g></svg>