<svg xmlns="http://www.w3.org/2000/svg" xmlns:xlink="http://www.w3.org/1999/xlink" viewBox="0 0 156.6 325.95"><defs><style>.cls-1{fill:none;}.cls-2{fill:url(#未命名的渐变_3);}.cls-3{fill:url(#未命名的渐变_3-2);}.cls-4{fill:url(#未命名的渐变_3-3);}.cls-5{fill:url(#未命名的渐变_8);}.cls-6{fill:url(#未命名的渐变_8-2);}.cls-7{fill:url(#未命名的渐变_8-3);}.cls-8{opacity:0.4;}.cls-10,.cls-9{fill:#fff;}.cls-10{opacity:0.3;}.cls-11{fill:url(#未命名的渐变_30);}.cls-12{fill:url(#未命名的渐变_30-2);}.cls-13{isolation:isolate;}.cls-14{clip-path:url(#clip-path);}.cls-15{fill:url(#未命名的渐变_30-3);}.cls-16{fill:url(#未命名的渐变_30-4);}</style><linearGradient id="未命名的渐变_3" x1="147.53" y1="9.11" x2="14.52" y2="324.66" gradientUnits="userSpaceOnUse"><stop offset="0" stop-color="#31e0e4"/><stop offset="1" stop-color="#0057c0"/></linearGradient><linearGradient id="未命名的渐变_3-2" x1="80.14" y1="46.05" x2="73.74" y2="61.22" xlink:href="#未命名的渐变_3"/><linearGradient id="未命名的渐变_3-3" x1="94" y1="42.49" x2="92.61" y2="45.78" xlink:href="#未命名的渐变_3"/><linearGradient id="未命名的渐变_8" x1="110.07" y1="30.12" x2="69.63" y2="63.89" gradientUnits="userSpaceOnUse"><stop offset="0" stop-color="#28a5e6"/><stop offset="1" stop-color="#011f9e"/></linearGradient><linearGradient id="未命名的渐变_8-2" x1="108" y1="27.65" x2="67.56" y2="61.41" xlink:href="#未命名的渐变_8"/><linearGradient id="未命名的渐变_8-3" x1="98.38" y1="-11.65" x2="-24.05" y2="308.91" xlink:href="#未命名的渐变_8"/><linearGradient id="未命名的渐变_30" x1="29.48" y1="149.41" x2="87.78" y2="149.41" gradientUnits="userSpaceOnUse"><stop offset="0" stop-color="#31e0ff"/><stop offset="1" stop-color="#00b7ff"/></linearGradient><linearGradient id="未命名的渐变_30-2" x1="35.31" y1="149.26" x2="75.07" y2="149.26" xlink:href="#未命名的渐变_30"/><clipPath id="clip-path"><path class="cls-1" d="M75.05,156.16l-2.64-1.53c.19-1.11,3.65-22.23,6.2-40.63l2.63,1.53C78.7,133.93,75.23,155.05,75.05,156.16Z"/></clipPath><linearGradient id="未命名的渐变_30-3" x1="72.41" y1="135.08" x2="81.24" y2="135.08" xlink:href="#未命名的渐变_30"/><linearGradient id="未命名的渐变_30-4" x1="78.61" y1="114.43" x2="97.86" y2="114.43" xlink:href="#未命名的渐变_30"/></defs><title>资源 75</title><g id="图层_2" data-name="图层 2"><g id="图层_3" data-name="图层 3"><path class="cls-2" d="M133,7.22c12.67-7.31,23-1.44,23,13.1l.58,203.36c0,14.55-10.19,32.27-22.85,39.58L30.6,322.81c-12.66,7.31-23,1.44-23-13.11L7,106.35C7,91.8,17.22,74.09,29.88,66.78Z"/><path class="cls-3" d="M69.24,57a1.89,1.89,0,0,0-.86,1.48c0,.54.39.76.86.49l15.47-8.93a1.92,1.92,0,0,0,.87-1.49c0-.55-.39-.76-.87-.48L69.24,57"/><path class="cls-4" d="M93.31,42.63A2.83,2.83,0,0,0,92,44.86c0,.82.58,1.15,1.3.73a2.82,2.82,0,0,0,1.28-2.22c0-.81-.58-1.15-1.29-.74"/><path class="cls-5" d="M93.31,42.63A2.85,2.85,0,0,0,92,44.86c0,.82.58,1.15,1.3.73a2.82,2.82,0,0,0,1.28-2.22C94.6,42.56,94,42.22,93.31,42.63Z"/><path class="cls-6" d="M84.71,48.1,69.24,57a1.89,1.89,0,0,0-.86,1.48c0,.54.39.76.86.49l15.47-8.93a1.92,1.92,0,0,0,.87-1.49C85.58,48,85.19,47.82,84.71,48.1Z"/><path class="cls-7" d="M134.89,6.24c.37-.18.73-.34,1.1-.5l.38-.16,1-.39.24-.09c.42-.15.83-.27,1.24-.38l.71-.18.34-.08c.35-.08.69-.14,1-.2.53-.08,1-.12,1.54-.15l.3,0c.45,0,.89,0,1.33,0l.22,0a8.7,8.7,0,0,1,1,.12l.32,0a10.5,10.5,0,0,1,1.14.26l0,0c.36.1.7.23,1,.36l.29.13a8.16,8.16,0,0,1,.84.41c.09,0,.19.09.28.15l-7-4.09-.13-.07L142,1.4c-.28-.15-.56-.29-.85-.42L141,.91,140.9.86a9.67,9.67,0,0,0-1-.36l-.05,0h0c-.37-.11-.75-.19-1.14-.27a.5.5,0,0,1-.13,0l-.19,0c-.34,0-.68-.09-1-.12l-.17,0h-.06c-.43,0-.88,0-1.33,0h-.13l-.17,0c-.5,0-1,.07-1.53.15h0c-.34.05-.68.12-1,.19l-.34.09c-.21,0-.43.09-.64.15l-.07,0c-.41.11-.82.24-1.24.38l-.24.09q-.51.18-1,.39l-.13.05-.25.12c-.36.15-.73.32-1.1.5l-.41.2c-.48.24-1,.5-1.45.78L22.85,62.69c-.61.35-1.21.74-1.81,1.13l-.3.21c-.57.38-1.13.79-1.69,1.22l-.32.25c-.57.45-1.12.91-1.67,1.39l-.15.13c-.53.47-1.05,1-1.56,1.46a1.14,1.14,0,0,0-.16.15l-.1.09q-.59.59-1.17,1.2l-.05.06q-.55.58-1.08,1.2a1.14,1.14,0,0,1-.11.11s-.08.11-.12.15c-.58.67-1.14,1.36-1.69,2.06l0,.06-.12.17c-.43.56-.86,1.14-1.28,1.73l-.12.17-.06.08c-.39.57-.78,1.15-1.16,1.73a1.63,1.63,0,0,1-.11.17l-.15.25c-.31.49-.6,1-.89,1.46,0,.08-.1.15-.14.23a.41.41,0,0,0,0,.09c-.33.56-.65,1.13-1,1.7l-.08.14c0,.09-.09.19-.14.28-.24.46-.48.92-.7,1.38l-.15.29s0,.11-.07.17c-.28.58-.55,1.17-.81,1.76l0,.06c0,.06-.05.13-.08.19-.22.53-.44,1.07-.65,1.6,0,.09-.07.18-.11.26s-.05.15-.08.22c-.24.64-.47,1.27-.68,1.91v0a.36.36,0,0,0,0,.11c-.22.66-.41,1.32-.6,2a1.83,1.83,0,0,1-.08.25l0,.14c-.21.76-.4,1.52-.56,2.29a1.17,1.17,0,0,0-.05.2l-.06.3c-.06.3-.12.59-.17.89s-.08.42-.11.63-.1.61-.14.92c0,.14,0,.29-.07.44a.41.41,0,0,1,0,.11c-.08.66-.14,1.31-.19,2l0,.41c0,.67-.06,1.34-.06,2L.58,305.62a21.93,21.93,0,0,0,1.8,9.17A13.52,13.52,0,0,0,4.49,318,9.81,9.81,0,0,0,5.8,319.3a10.34,10.34,0,0,0,1.46,1l7,4.09C10.18,322,7.62,316.93,7.6,309.7L7,106.35c0-.66,0-1.33.06-2l0-.42c0-.65.11-1.31.19-2,0-.18.05-.36.08-.54s.08-.62.14-.93.07-.41.11-.62.11-.6.17-.9.07-.33.11-.5c.16-.76.35-1.53.56-2.29,0-.13.07-.25.11-.38q.27-1,.6-2s0-.1.05-.15c.21-.64.44-1.27.68-1.91.06-.16.12-.31.19-.47.21-.54.42-1.07.65-1.61,0-.08.07-.16.11-.25.25-.59.52-1.17.8-1.76l.23-.45c.22-.47.46-.93.69-1.38l.23-.43c.3-.57.62-1.14.95-1.7L14,83.4c.29-.49.59-1,.89-1.45l.27-.42c.38-.59.76-1.17,1.16-1.74l.18-.25c.42-.59.84-1.16,1.28-1.73.06-.07.11-.15.17-.23.55-.7,1.11-1.38,1.69-2l.22-.27,1.08-1.19L21,74q.59-.62,1.17-1.2l.25-.25c.52-.5,1-1,1.57-1.46a.86.86,0,0,0,.14-.13q.83-.72,1.68-1.38a3.92,3.92,0,0,1,.32-.25c.56-.43,1.12-.84,1.69-1.23l.3-.2c.6-.4,1.2-.78,1.81-1.13L133,7.22c.49-.28,1-.53,1.46-.78Z"/><g class="cls-8"><path class="cls-9" d="M134.1,16.9c7.2-4.16,13.05-.82,13.07,7.46l.58,205.74c0,8.27-5.79,18.35-13,22.5L29.54,313.36c-7.2,4.15-13.06.82-13.08-7.46l-.59-205.74c0-8.27,5.8-18.35,13-22.51l14.42-8.32c1-.55,1.72-.11,1.72,1V74c0,3.14,2.24,4.41,5,2.83L113,40.45A10.87,10.87,0,0,0,118,31.9V28.2a3.76,3.76,0,0,1,1.71-3Z"/></g><polygon class="cls-10" points="29.67 102.83 134.01 42.59 134.28 55.41 29.93 115.65 29.67 102.83"/><polygon class="cls-10" points="43.33 264.71 29.35 272.78 29.71 286.5 43.33 278.63 43.33 264.71"/><polygon class="cls-10" points="66.9 219.3 52.93 227.37 53.29 273.69 66.9 265.83 66.9 219.3"/><polygon class="cls-10" points="90.48 226.29 76.51 234.36 76.86 260.88 90.48 253.02 90.48 226.29"/><polygon class="cls-10" points="114.06 183.21 100.09 191.28 100.44 249.24 114.06 241.38 114.06 183.21"/><polygon class="cls-10" points="137.63 129.65 123.66 137.72 124.02 236.43 137.63 228.57 137.63 129.65"/><path class="cls-10" d="M64.59,113.83c18-10.39,32.64-2,32.7,18.63S82.8,178.33,64.8,188.72s-32.63,2.05-32.69-18.63S46.6,124.22,64.59,113.83Z"/><path class="cls-11" d="M32.18,167.73c0-.42,0-.84.07-1.26l.06-.65c0-.41.08-.83.12-1.25,0-.2,0-.4.07-.6l.12-.88c.07-.44.13-.88.2-1.32s.11-.58.16-.88.16-.85.25-1.28l.21-1c.07-.28.13-.57.2-.85s.18-.75.28-1.12.14-.56.22-.84c.12-.45.25-.9.38-1.35l.15-.51c.18-.61.38-1.23.59-1.84.3-.91.63-1.82,1-2.72l.26-.68c.3-.76.61-1.53.94-2.29,0-.11.09-.23.14-.34.37-.84.75-1.67,1.15-2.51l.32-.65c.32-.65.65-1.31,1-2l.32-.6c.43-.81.88-1.62,1.35-2.42.08-.15.18-.3.26-.45.42-.7.84-1.39,1.27-2.07.12-.2.25-.4.38-.6.53-.83,1.08-1.65,1.64-2.46l.27-.37c.59-.83,1.19-1.65,1.81-2.45.09-.13.19-.25.28-.37s.39-.5.59-.74l.74-.93c.21-.24.42-.48.62-.73s.49-.57.73-.85c.51-.58,1-1.15,1.55-1.71l.07-.08c.54-.58,1.1-1.15,1.66-1.7l1.07-1,.31-.29c.47-.45.95-.88,1.44-1.3l.39-.34c.36-.31.71-.61,1.07-.9l.55-.44c.32-.25.64-.51,1-.75l.58-.44,1-.7.58-.4,1.05-.7.5-.32c.52-.33,1-.65,1.56-1l1.5-.83c.14-.06.27-.13.4-.2.44-.23.89-.45,1.33-.65l.16-.08c.46-.21.91-.4,1.37-.59s1-.37,1.44-.54l.35-.14c.6-.2,1.18-.38,1.76-.54l1-.25.47-.12,1.48-.27h0l1.32-.16.43,0,.94,0H79l1,0h.34c.41,0,.82.06,1.22.11l.25,0c.32,0,.65.09,1,.15l.33.07c.36.08.73.16,1.08.27h.07c.37.11.74.24,1.1.37l.29.11.86.37.22.1c.37.18.73.36,1.08.57L85.15,110l-.18-.1c-.29-.17-.59-.32-.9-.47l-.22-.1-.52-.23L83,109l-.29-.11c-.36-.13-.72-.25-1.09-.36h-.08q-.54-.15-1.08-.27l-.33-.07-.34-.06a6.17,6.17,0,0,0-.62-.09l-.26,0c-.36,0-.72-.08-1.09-.1h-.46c-.31,0-.63,0-1,0h-.73l-.62,0-.43,0-1.32.16h-.06c-.49.08-1,.17-1.47.28l-.47.11-.93.22-.09,0c-.58.16-1.17.34-1.76.54l-.36.14c-.47.17-1,.35-1.44.55l-.19.07q-.58.24-1.17.51l-.17.08c-.44.21-.88.42-1.33.65l-.39.2c-.5.27-1,.54-1.5.83s-1,.62-1.56,1l-.5.32-1,.7-.58.4-1,.7-.58.44c-.33.24-.65.5-1,.75l-.54.44c-.36.29-.71.59-1.07.9l-.4.34c-.48.42-1,.86-1.43,1.3-.11.09-.21.19-.31.29-.31.3-.63.59-.93.9a1.85,1.85,0,0,0-.14.14c-.56.55-1.12,1.12-1.66,1.7l-.08.08c-.52.56-1,1.13-1.54,1.71l-.14.16-.59.69-.62.73-.74.93c-.2.24-.4.49-.59.74l-.11.13-.17.24c-.62.8-1.22,1.62-1.81,2.45-.06.09-.13.17-.19.25l-.08.12Q41.78,132,41,133.26l-.15.24c-.08.12-.15.24-.22.36-.44.68-.86,1.37-1.27,2.07-.06.11-.13.21-.2.32a.83.83,0,0,1-.07.13c-.46.8-.91,1.61-1.35,2.42a2,2,0,0,1-.11.2c-.07.13-.13.27-.2.4-.34.65-.67,1.31-1,2l-.2.4c0,.08-.07.16-.11.25-.4.83-.78,1.66-1.15,2.5l0,.08-.11.26c-.33.76-.64,1.53-.94,2.29l-.15.37c0,.1-.07.21-.11.31-.34.9-.67,1.81-1,2.72a.43.43,0,0,0,0,0q-.3.9-.57,1.8c-.06.16-.1.33-.15.5l-.3,1c0,.11-.05.22-.08.33-.08.28-.15.56-.22.84s-.19.75-.28,1.12-.14.57-.2.85-.09.4-.13.6l-.09.42-.24,1.28c-.06.3-.11.59-.16.88s-.14.88-.2,1.32l-.09.62,0,.26c0,.2-.05.4-.07.6-.05.42-.09.84-.13,1.25,0,.22,0,.43-.05.65,0,.42-.06.84-.08,1.26,0,.19,0,.38,0,.57,0,.6,0,1.19,0,1.79,0,10.27,3.66,17.5,9.51,20.9L41.62,191c-5.85-3.4-9.48-10.63-9.51-20.9,0-.6,0-1.19,0-1.79Z"/><path class="cls-10" d="M70.42,115.53a40.12,40.12,0,0,1,4.65-2.31c-2.22,19.81-4.18,38.9-4.28,39.91l-29.2,33.69c-2.32-3.8-3.63-8.86-3.65-15C37.88,151.11,52.42,125.92,70.42,115.53Z"/><path class="cls-12" d="M75.07,113.22l-2.63-1.52a38.57,38.57,0,0,0-4.66,2.3c-.52.3-1,.62-1.56,1l-.5.33q-.52.33-1,.69l-.57.41-1,.7-.58.43-1,.76-.54.43c-.36.29-.72.6-1.08.9l-.39.34c-.49.43-1,.86-1.44,1.3l-.3.29-.94.9a1.85,1.85,0,0,1-.14.14c-.56.56-1.11,1.13-1.66,1.71a.46.46,0,0,1-.07.07c-.52.56-1,1.13-1.54,1.71l-.15.16-.59.7c-.2.24-.41.48-.61.73l-.75.92-.59.74a1.47,1.47,0,0,1-.1.13l-.18.24c-.62.8-1.22,1.62-1.81,2.46l-.18.24-.08.12c-.57.81-1.12,1.63-1.65,2.47l-.16.23-.22.37c-.43.68-.85,1.37-1.26,2.06-.07.11-.14.22-.2.33a.75.75,0,0,0-.07.12q-.7,1.2-1.35,2.43l-.11.19-.21.4c-.34.66-.67,1.31-1,2l-.21.4c0,.08-.07.17-.11.25-.4.83-.78,1.66-1.15,2.51l0,.07-.11.27c-.33.76-.64,1.52-.94,2.29,0,.12-.1.24-.15.37s-.07.2-.11.31c-.34.9-.67,1.8-1,2.71l0,.05q-.3.9-.57,1.8l-.15.5c-.1.34-.2.68-.29,1l-.09.33c-.08.28-.15.56-.22.84s-.19.75-.28,1.12-.13.57-.19.86-.1.4-.14.59,0,.29-.08.43c-.09.42-.17.85-.25,1.27s-.11.59-.15.89-.14.88-.2,1.32c0,.2-.07.41-.1.61l0,.26c0,.21,0,.41-.07.61,0,.41-.09.83-.12,1.25,0,.21,0,.43,0,.64,0,.42-.06.84-.08,1.26l0,.57c0,.6,0,1.2,0,1.79a33.72,33.72,0,0,0,1.48,10.23,22.44,22.44,0,0,0,2.17,4.8l2.63,1.53c-2.32-3.8-3.63-8.86-3.65-15,0-.59,0-1.19,0-1.79l0-.57c0-.42,0-.84.08-1.26,0-.21,0-.43.05-.65,0-.41.08-.83.13-1.24,0-.2,0-.41.07-.61s.08-.58.12-.88.12-.87.2-1.31l.15-.89c.08-.42.16-.85.25-1.27s.14-.68.22-1,.13-.57.19-.86.19-.74.28-1.12.15-.56.22-.84c.12-.45.25-.9.38-1.35l.15-.5c.19-.62.38-1.23.59-1.85.3-.91.63-1.81,1-2.71l.27-.68c.3-.77.61-1.53.93-2.29l.15-.35c.36-.84.75-1.67,1.14-2.5.11-.22.21-.44.32-.65.32-.66.66-1.32,1-2l.31-.59q.64-1.23,1.35-2.43l.27-.45c.41-.7.83-1.38,1.26-2.07l.38-.6c.54-.83,1.08-1.65,1.65-2.46l.26-.36c.59-.84,1.2-1.66,1.82-2.46.09-.12.18-.25.28-.37l.58-.74.75-.92c.2-.25.41-.49.61-.73l.74-.86c.5-.58,1-1.15,1.54-1.7l.07-.08c.55-.58,1.1-1.15,1.67-1.71l1.07-1,.3-.29,1.44-1.3.4-.34c.35-.3.71-.61,1.07-.9l.54-.43,1-.76.58-.43,1-.7.57-.41,1-.7.5-.32c.52-.33,1-.65,1.57-1,1.18-.68,2.35-1.28,3.5-1.81l1.15-.5Z"/><g class="cls-13"><g class="cls-14"><g class="cls-13"><path class="cls-15" d="M75.05,156.16l-2.64-1.53c.19-1.11,3.65-22.23,6.2-40.63l2.63,1.53c-2.54,18.4-6,39.52-6.19,40.63"/></g></g></g><path class="cls-10" d="M81.24,115.53c10.66-3.64,19.44-.22,23.57,8.67a31,31,0,0,1,2.55,13c-22.25,13.15-31.81,18.67-32.31,19C75.23,155.05,78.7,133.93,81.24,115.53Z"/><path class="cls-16" d="M83.31,114.91l.94-.23.4-.09c.43-.09.87-.17,1.3-.23l.28,0,.89-.11.42,0,.73,0h1.6l.54,0,.55,0,.46,0,.55.08.44.06c.2,0,.4.08.59.12l.37.07.67.17.26.07c.31.09.61.18.91.29l.2.08.67.26.34.15.52.24.35.19.57.3-2.64-1.53-.17-.1-.39-.2-.35-.19-.53-.24-.33-.15,0,0c-.21-.09-.42-.16-.63-.24l-.2-.08-.89-.29h0l-.26-.07-.67-.17-.37-.07-.51-.11h-.08l-.44-.06-.55-.08-.46,0-.43,0h-.12l-.55,0H85.64l-.73,0-.43,0-.89.11-.26,0h0c-.43.06-.86.14-1.3.23l-.39.09-.94.23-.22.05-.2.07c-.55.15-1.09.31-1.65.5l2.63,1.53c.56-.19,1.11-.35,1.65-.5Z"/></g></g></svg>