<svg xmlns="http://www.w3.org/2000/svg" xmlns:xlink="http://www.w3.org/1999/xlink" viewBox="0 0 58.38 92.39"><defs><style>.cls-1{fill:url(#未命名的渐变_4);}.cls-2{fill:url(#未命名的渐变_3);}.cls-3{fill:url(#未命名的渐变_7);}.cls-4{fill:url(#未命名的渐变_51);}</style><linearGradient id="未命名的渐变_4" x1="704.47" y1="46.33" x2="762.64" y2="46.33" gradientTransform="matrix(-1, 0, 0, 1, 762.75, 0)" gradientUnits="userSpaceOnUse"><stop offset="0" stop-color="#0867eb"/><stop offset="1" stop-color="#04b5fb"/></linearGradient><linearGradient id="未命名的渐变_3" y1="46.19" x2="58.38" y2="46.19" gradientUnits="userSpaceOnUse"><stop offset="0" stop-color="#31e0e4"/><stop offset="1" stop-color="#0057c0"/></linearGradient><linearGradient id="未命名的渐变_7" x1="704.47" y1="47.77" x2="758.68" y2="47.77" gradientTransform="matrix(-1, 0, 0, 1, 762.75, 0)" gradientUnits="userSpaceOnUse"><stop offset="0" stop-color="#0691fd"/><stop offset="1" stop-color="#2543db"/></linearGradient><linearGradient id="未命名的渐变_51" x1="704.47" y1="47.77" x2="758.68" y2="47.77" gradientTransform="matrix(-1, 0, 0, 1, 762.75, 0)" gradientUnits="userSpaceOnUse"><stop offset="0" stop-color="#056cf6"/><stop offset="1" stop-color="#2337db"/></linearGradient></defs><title>资源 77</title><g id="图层_2" data-name="图层 2"><g id="图层_3" data-name="图层 3"><path class="cls-1" d="M27.21,16S40.56,22.51,54.31.37a33.59,33.59,0,0,0,4,2.87V41.05c0,25.42-27.1,50.6-27.1,50.6s-12.3,2.78-20.33-3.19c-.07,0-3.71-2.68-3.77-2.73-4-2.87-7-7.82-7-16.25V31.67C13.13,37.39,27.21,16,27.21,16Z"/><path class="cls-2" d="M10.77,88.55,7,85.82C2.36,82.47,0,77,0,69.48v-38l.15.06c3.68,1.62,9.85,2,18.32-5.66A57.86,57.86,0,0,0,27.12,16l.05-.08.09,0a13.52,13.52,0,0,0,8.32.47C43.9,14.51,50.31,6.61,54.22.32l.2-.32V.34a43.74,43.74,0,0,0,3.81,2.77l.15-.24V41.05c0,13.16-7.38,26.24-13.57,34.89A115.93,115.93,0,0,1,31.24,91.73l0,0h0a33.44,33.44,0,0,1-6.71.64C20.3,92.39,14.94,91.64,10.77,88.55ZM44.63,75.82c6.18-8.63,13.53-21.67,13.53-34.77V3.32c-.37-.19-1.87-1.28-2-1.41A18.31,18.31,0,0,1,54.33.54c-7.1,11.38-14.09,15-18.7,16.06a14.08,14.08,0,0,1-8.38-.45,59.14,59.14,0,0,1-8.64,9.92c-6.7,6-13.06,8-18.4,5.76V69.48c0,7.42,2.33,12.86,6.92,16.17.07,0,3.73,2.7,3.77,2.73,7.71,5.73,19.56,3.31,20.22,3.17A115.43,115.43,0,0,0,44.63,75.82Z"/><path class="cls-3" d="M31.17,91.65s27.1-25.18,27.1-50.6V3.24c-13.76,22.14-27.1,15.65-27.1,15.65S17.09,40.26,4.06,34.54V72.35C4.06,97.77,31.17,91.65,31.17,91.65Z"/><path class="cls-4" d="M31,26.72c3.13.46,8.1.26,14.14-3.23a38.23,38.23,0,0,0,7.64-5.91V44.23c0,8.28-3.71,17.7-11,28A109.81,109.81,0,0,1,31.17,84.91a29.44,29.44,0,0,1-10.59-.45c-7.31-1.87-11-7-11-15.29V42.28a24.34,24.34,0,0,0,7.31-2.9C22.8,36,27.8,30.63,31,26.72M4.06,34.54V72.35c0,25.42,27.11,19.3,27.11,19.3s27.1-25.18,27.1-50.6V3.24c-4.58,7.38-9.13,11.58-13.14,13.9-8,4.63-14,1.75-14,1.75S24.91,28.39,16.88,33c-4,2.32-8.47,3.42-12.82,1.52Z"/></g></g></svg>