<svg xmlns="http://www.w3.org/2000/svg" viewBox="0 0 101 55.86"><defs><style>.cls-1{fill:#31e0e4;}</style></defs><title>资源 78</title><g id="图层_2" data-name="图层 2"><g id="图层_3" data-name="图层 3"><path class="cls-1" d="M31.91,39.31,3.91,5.06c-.64-.68.25.24.25-.9l28,34.25C32.16,39.55,31.26,38.63,31.91,39.31Z"/><path class="cls-1" d="M97,52.08,75.79,14.21c-.52-.79.21.28.51-.67L97.53,51.41C97.22,52.36,96.49,51.29,97,52.08Z"/><path class="cls-1" d="M75.77,13.68,32.29,39.31c-.44.39.15-.16-1-.82L74.79,12.86C75.91,13.51,75.32,14.07,75.77,13.68Z"/><ellipse class="cls-1" cx="3.88" cy="4.3" rx="3.07" ry="4.91" transform="translate(-1.83 3.34) rotate(-38.36)"/><ellipse class="cls-1" cx="31.72" cy="38.81" rx="3.07" ry="4.91" transform="translate(-17.24 28.06) rotate(-38.36)"/><ellipse class="cls-1" cx="75.1" cy="13.33" rx="3.07" ry="4.91" transform="translate(7.94 49.48) rotate(-38.36)"/><ellipse class="cls-1" cx="97.12" cy="51.56" rx="3.07" ry="4.91" transform="translate(-11.03 71.4) rotate(-38.36)"/></g></g></svg>