<svg xmlns="http://www.w3.org/2000/svg" xmlns:xlink="http://www.w3.org/1999/xlink" viewBox="0 0 144.27 355.11"><defs><style>.cls-1{fill:#f4d8c3;}.cls-2{fill:#373f49;}.cls-3{fill:#4e5d6d;}.cls-4{fill:url(#未命名的渐变_3);}.cls-5{fill:url(#未命名的渐变_3-2);}.cls-6{fill:#e7ebf4;}.cls-7{fill:#ccd2db;}.cls-8{fill:#fcfdfd;}.cls-9{fill:#e5c5ae;}.cls-10{fill:url(#未命名的渐变_177);}.cls-11{fill:url(#未命名的渐变_177-2);}.cls-12{fill:url(#未命名的渐变_3-3);}.cls-13{fill:#bca095;}</style><linearGradient id="未命名的渐变_3" x1="53.1" y1="338.72" x2="85.88" y2="165.97" gradientUnits="userSpaceOnUse"><stop offset="0" stop-color="#31e0e4"/><stop offset="1" stop-color="#0057c0"/></linearGradient><linearGradient id="未命名的渐变_3-2" x1="100.66" y1="316.65" x2="137.99" y2="132.51" xlink:href="#未命名的渐变_3"/><linearGradient id="未命名的渐变_177" x1="91.93" y1="83.7" x2="121.75" y2="83.7" gradientTransform="matrix(1, 0, 0, -1, 0, 115.11)" gradientUnits="userSpaceOnUse"><stop offset="0" stop-color="#3c53ce"/><stop offset="1" stop-color="#0091c7"/></linearGradient><linearGradient id="未命名的渐变_177-2" x1="67.34" y1="73" x2="108.61" y2="73" gradientTransform="matrix(1, 0, 0, -1, 0, 106.5)" xlink:href="#未命名的渐变_177"/><linearGradient id="未命名的渐变_3-3" x1="66.67" y1="70.03" x2="95.06" y2="70.03" gradientTransform="matrix(1, 0, 0, -1, 0, 106.5)" xlink:href="#未命名的渐变_3"/></defs><title>资源 82</title><g id="图层_2" data-name="图层 2"><g id="图层_3" data-name="图层 3"><rect class="cls-1" x="59.4" y="301.98" width="27.16" height="27.16"/><path class="cls-2" d="M59.61,326.89s-22,7.92-23.65,13.78-1.07,5.87-1.07,5.87H87.62V326.89Z"/><path class="cls-3" d="M35.32,343.14c-.79,3.38-.43,3.4-.43,3.4H87.62v-3.4Z"/><polygon class="cls-1" points="139.18 337.72 112.02 337.72 110.32 310.56 137.48 310.56 139.18 337.72"/><path class="cls-2" d="M112.22,335.47s-22,7.92-23.65,13.78-1.06,5.86-1.06,5.86h52.73V335.47Z"/><path class="cls-3" d="M87.94,351.72c-.8,3.38-.43,3.39-.43,3.39h52.73v-3.39Z"/><path class="cls-4" d="M99.29,151.87,89.11,313s-21.22,5.1-35.65-5.09c0-21.21,5.1-162,5.1-162Z"/><path class="cls-5" d="M92.5,155.26,106.08,319.9a38.63,38.63,0,0,0,34.79,0c0-25.46-6.79-168-6.79-168Z"/><path class="cls-6" d="M76.8,57.24s40.74-5.94,54.31,0c0,0,5.1,73,4.25,98.44C113.29,163.32,53,154,53,154S59,93.73,76.8,57.24Z"/><path class="cls-1" d="M76.8,57.24,25.46,56s-7.64-42.33-7.64-45.83c0-5.09-3.39-5.94-3.39.85-.85-2.54-1-7.28-1.7-9.33-.85-2.55-3.39-2-3.39.55C8.49-.34,5.94.76,5.94,3.3,5.09.76,2.55,1.66,2.55,4.2,1.7,2.51,0,3.35,0,5.05c0,1.2,6.79,66.2,9.34,70.44s65.34,6.79,65.34,6.79Z"/><path class="cls-7" d="M144.27,99.25c-5.94,6.79-27.58,4.67-27.58-3.82S142.57,91.61,144.27,99.25Z"/><path class="cls-6" d="M76.8,57.24c-7.21-.42-21.87-1.14-21.87-1.14s-2.29,4.39-2.74,12.18A66.75,66.75,0,0,0,53.46,84l22.07.84L87.41,60.21Z"/><path class="cls-1" d="M137.59,134c1.72-10.83,1.59-43.19,1.59-43.19l-22.07-.84-.55,24.18c-13.49-4.59-32.79-14.7-33-17.82-.85-14.43-.84-20.31-1-20.79-.42-1.64-2.28-2-2.67-.18-.64-2.46-3.32-2.65-3.5,0-.64-2.46-3.32-2.64-3.5,0-.64-2.46-3.32-2.64-3.5,0-.15,2.16.88,6.79.7,9.47-1.7-6.58-4.78-4.9-3.5,0,.39,1.51,1.24,9.26,2.1,20.29.41,5.3,49.21,35.64,60.24,36.49,3.23.25,5.36-.81,6.71-2.52l.08,0c.53-.24,1-1.26,1.35-2.82A13.25,13.25,0,0,0,137.59,134Z"/><path class="cls-8" d="M138.75,59.79c4.33,4.33,5.52,39.46,5.52,39.46S132,88.64,116.69,95.43c0,0,1.69-26.31,2.54-32.25C120,58.14,132,53,138.75,59.79Z"/><path class="cls-9" d="M109.47,37.3l4.25,21.92a25.29,25.29,0,0,1-12.31,4.64c-7.64.84-9.33-1.69-9.33-1.69V43.62Z"/><ellipse class="cls-1" cx="98.87" cy="28.39" rx="21.22" ry="17.82" transform="translate(41.62 113.85) rotate(-72.21)"/><path class="cls-2" d="M81.47,7.6c-.85,5.09-3,11.45,2.12,12.3s19.52-.85,22.91,2.55c4.25,4.24,6.37,9.76,6.37,12.3s-.43,6.37-.43,6.37l.85,4.24A63.69,63.69,0,0,0,120.51,28c2.47-9.92-6.37-20.8-14.85-22.49S83.17,11,81.47,7.6Z"/><polygon class="cls-10" points="92.74 42.89 121.75 24.92 120.41 19.93 91.93 36.59 92.74 42.89"/><path class="cls-11" d="M67.34,27.58l10.75-5.35c1.83-.91,8-1.05,7.2,1.5s5.09,2.55,7.64.85,12.73-1.7,15.27,3.39-7.57,10.12-8.91,11.46c-1.7,1.7-5.09,5.94-5.09,5.94Z"/><path class="cls-12" d="M68.92,40.76a55.41,55.41,0,0,1-2.25-11.9,1.44,1.44,0,0,1,1.64-1.49L92.2,30.78a1.44,1.44,0,0,1,1.23,1.31A94.66,94.66,0,0,0,95,43.84a1.43,1.43,0,0,1-1.57,1.73A217.45,217.45,0,0,1,70,41.74,1.43,1.43,0,0,1,68.92,40.76Z"/><path class="cls-1" d="M113.72,29.66c4.24-3.39,5.94,0,5.09,2.55s-3.4,5.09-5.94,5.09C107.71,37.3,113.72,29.66,113.72,29.66Z"/><path class="cls-13" d="M3.68,13.62a.43.43,0,0,1-.42-.37l-1.14-9a.44.44,0,0,1,.37-.48A.44.44,0,0,1,3,4.15l1.13,9a.42.42,0,0,1-.36.47Z"/><path class="cls-13" d="M7.21,12.5a.44.44,0,0,1-.42-.37L5.52,3.36a.43.43,0,0,1,.36-.48.42.42,0,0,1,.48.36L7.63,12a.41.41,0,0,1-.36.48Z"/><path class="cls-13" d="M10.61,11.4a.42.42,0,0,1-.42-.36L8.91,2.27a.42.42,0,0,1,.36-.48.43.43,0,0,1,.49.35L11,10.91a.42.42,0,0,1-.36.48Z"/><path class="cls-13" d="M73.3,84.4a.42.42,0,0,1-.42-.42l-.21-8.8a.42.42,0,0,1,.41-.43.44.44,0,0,1,.43.41l.21,8.8a.43.43,0,0,1-.41.44Z"/><path class="cls-13" d="M76.69,84.4a.44.44,0,0,1-.42-.42l-.21-8.8a.42.42,0,0,1,.41-.43.43.43,0,0,1,.44.41l.21,8.8a.43.43,0,0,1-.42.44Z"/><path class="cls-13" d="M80.09,84.4a.44.44,0,0,1-.43-.42l-.21-8.8a.43.43,0,0,1,.85,0l.21,8.8a.43.43,0,0,1-.41.44Z"/></g></g></svg>