<svg xmlns="http://www.w3.org/2000/svg" xmlns:xlink="http://www.w3.org/1999/xlink" viewBox="0 0 174.56 351"><defs><style>.cls-1{fill:url(#未命名的渐变_75);}.cls-2{fill:url(#未命名的渐变_3);}.cls-3{fill:url(#未命名的渐变_183);}.cls-4{fill:url(#未命名的渐变_75-2);}.cls-5{opacity:0.5;}.cls-6{fill:#9da4cc;}.cls-7{fill:url(#未命名的渐变_75-3);}.cls-8{fill:#ffe5cf;}.cls-9{fill:url(#未命名的渐变_75-4);}.cls-10{fill:url(#未命名的渐变_3-2);}.cls-11{fill:url(#未命名的渐变_3-3);}.cls-12{fill:url(#未命名的渐变_75-5);}.cls-13{fill:url(#未命名的渐变_75-6);}.cls-14{fill:url(#未命名的渐变_3-4);}.cls-15{fill:#373f49;}.cls-16{fill:#ffd100;}.cls-17{fill:url(#未命名的渐变_81);}</style><linearGradient id="未命名的渐变_75" x1="0.05" y1="339.18" x2="50.35" y2="339.18" gradientUnits="userSpaceOnUse"><stop offset="0" stop-color="#e6e8f7"/><stop offset="1" stop-color="#b1b4d9"/></linearGradient><linearGradient id="未命名的渐变_3" x1="-44.08" y1="210.88" x2="69.95" y2="268.87" gradientUnits="userSpaceOnUse"><stop offset="0" stop-color="#31e0e4"/><stop offset="1" stop-color="#0057c0"/></linearGradient><linearGradient id="未命名的渐变_183" x1="47.59" y1="41.67" x2="174.56" y2="41.67" gradientTransform="translate(20.22 -34.61) rotate(19.45)" gradientUnits="userSpaceOnUse"><stop offset="0" stop-color="#ff4a74"/><stop offset="1" stop-color="#e62c47"/></linearGradient><linearGradient id="未命名的渐变_75-2" x1="38.47" y1="70.98" x2="78.91" y2="70.98" xlink:href="#未命名的渐变_75"/><linearGradient id="未命名的渐变_75-3" x1="46.18" y1="344.18" x2="96.48" y2="344.18" xlink:href="#未命名的渐变_75"/><linearGradient id="未命名的渐变_75-4" x1="3.1" y1="98.45" x2="72.3" y2="98.45" xlink:href="#未命名的渐变_75"/><linearGradient id="未命名的渐变_3-2" x1="1.43" y1="93.94" x2="57" y2="93.94" xlink:href="#未命名的渐变_3"/><linearGradient id="未命名的渐变_3-3" x1="6.88" y1="98.4" x2="54.5" y2="98.4" xlink:href="#未命名的渐变_3"/><linearGradient id="未命名的渐变_75-5" x1="48.94" y1="81.39" x2="94.47" y2="81.39" xlink:href="#未命名的渐变_75"/><linearGradient id="未命名的渐变_75-6" x1="134.79" y1="33.37" x2="164.12" y2="33.37" xlink:href="#未命名的渐变_75"/><linearGradient id="未命名的渐变_3-4" x1="1.43" y1="233.88" x2="81.9" y2="233.88" xlink:href="#未命名的渐变_3"/><linearGradient id="未命名的渐变_81" x1="16.96" y1="14.29" x2="55.83" y2="14.29" gradientUnits="userSpaceOnUse"><stop offset="0" stop-color="#fdd900"/><stop offset="1" stop-color="#ffd100"/></linearGradient></defs><title>资源 73</title><g id="图层_2" data-name="图层 2"><g id="图层_3" data-name="图层 3"><path class="cls-1" d="M.05,336.06V346h50.3a62.17,62.17,0,0,0-22.23-12.28C14.67,329.62.05,336.06.05,336.06Z"/><polygon class="cls-2" points="1.43 156.53 0 336.06 34.51 336.06 46.49 154.19 1.43 156.53"/><rect class="cls-3" x="44.98" y="38.16" width="132.18" height="7.02" transform="translate(-7.54 39.37) rotate(-19.45)"/><path class="cls-4" d="M75.47,56.44a2.42,2.42,0,0,0-3.73-3.06c.72-2.89-2.2-4.92-4.51-2.78,1-2.11-2.17-3.61-4.23-2A64.8,64.8,0,0,0,47.07,67.79c-1.27,2.37-3.7,4.52-8.6,8A27.39,27.39,0,0,0,55.09,94,80.7,80.7,0,0,0,67.91,75.16C73,64.45,76,62.35,78.42,59.78,80,58.16,77.53,54.83,75.47,56.44Z"/><g class="cls-5"><path class="cls-6" d="M57.58,60a.5.5,0,0,1-.37-.17.48.48,0,0,1,0-.7l10-9a.48.48,0,0,1,.7,0,.49.49,0,0,1,0,.7l-10,9A.5.5,0,0,1,57.58,60Z"/><path class="cls-6" d="M61.58,62a.48.48,0,0,1-.39-.19.5.5,0,0,1,.08-.7l10-8a.5.5,0,0,1,.62.78l-10,8A.51.51,0,0,1,61.58,62Z"/><path class="cls-6" d="M66.58,64a.5.5,0,0,1-.31-.89l9-7a.5.5,0,0,1,.62.78l-9,7A.45.45,0,0,1,66.58,64Z"/></g><path class="cls-7" d="M46.18,341.06V351h50.3a62.17,62.17,0,0,0-22.23-12.28C60.8,334.62,46.18,341.06,46.18,341.06Z"/><ellipse class="cls-8" cx="37.11" cy="25.22" rx="18.13" ry="23.1" transform="translate(-7.75 24.53) rotate(-33.32)"/><path class="cls-8" d="M21.88,30.19,16.64,55.34s10,7.6,25.69,2.34c1-7,5-24.27,5-24.27Z"/><path class="cls-9" d="M11.61,52.19c14.14-4.5,21-2.2,36.65,1.29,0,5.15,10.56,5.05,19.1,6.71s3.41,43.45,3.41,43.45l-3.19,38.27s-60.41,8.93-60.7,3.57c-2-37-4.25-45.73-3.69-60.89C3.79,68.47,11,63.13,11.61,52.19Z"/><path class="cls-10" d="M51.15,55.34S33,103.89,1.43,126.7l4.68,5.85S38.87,107.4,57,57.1Z"/><path class="cls-11" d="M10.48,58.41c8.5,33.19,27.8,61.27,44,75.93l-6.86,4S17.23,110.32,6.88,67.68Z"/><path class="cls-8" d="M80.49,98.4c26.92,3.69,47.9,6.61,54.69,6.61,3.78,0,16.33-32.62,22.48-54.34,2.1-7.42-19-10.78-19.72-8.55-3.73,12.41-15,31.49-17.42,32.44-1.59.63-20-5-36.21-9.75C77.76,62.88,76.12,97.8,80.49,98.4Z"/><path class="cls-12" d="M93.86,67.63h0c-9.76-2.89-20.07-6-26.91-7.73C49.47,55.39,37.7,88.09,65.77,98c5.62,2,12.28,3.51,18.72,5.26C89.05,96.5,96.69,79.37,93.86,67.63Z"/><path class="cls-13" d="M159.94,13.81a2.42,2.42,0,0,0-4.68-1.17c-.59-2.92-4.1-3.5-5.27-.58,0-2.34-3.51-2.34-4.67,0a64.68,64.68,0,0,0-6.19,24.16c-.15,2.68-1.42,5.67-4.34,10.93a27.4,27.4,0,0,0,22.81,9.36A81,81,0,0,0,161.12,34c0-11.84,1.78-15,2.91-18.39C164.74,13.45,161.11,11.47,159.94,13.81Z"/><g class="cls-5"><path class="cls-6" d="M146.58,26h-.06a.51.51,0,0,1-.44-.56c1-9,3.46-13.5,3.56-13.68a.5.5,0,1,1,.88.48s-2.47,4.54-3.44,13.32A.51.51,0,0,1,146.58,26Z"/><path class="cls-6" d="M151.58,27h-.06a.51.51,0,0,1-.44-.56,51.89,51.89,0,0,1,3.55-14.65.5.5,0,0,1,.66-.25.52.52,0,0,1,.25.67,51.93,51.93,0,0,0-3.46,14.35A.51.51,0,0,1,151.58,27Z"/><path class="cls-6" d="M156.58,28h-.06a.51.51,0,0,1-.44-.56c1-9,3.46-13.5,3.56-13.68a.5.5,0,0,1,.88.48s-2.47,4.54-3.44,13.32A.51.51,0,0,1,156.58,28Z"/></g><path class="cls-14" d="M81.9,341.06,72.2,156.53V129C59.34,137.81,12,137.81,1.43,126.7V163l26.62,7.9,18.34,170.2Z"/><path class="cls-15" d="M19.07,39.86C26.29,44.52,38,42.18,38,42.18s4.09-11.11,5.85-13.45S64,15.05,53.05,14.29,19.27,30.48,19.27,30.48A37.4,37.4,0,0,1,19.07,39.86Z"/><path class="cls-8" d="M44.42,29.31c-3.51-8.77-7.6.59-2.34,6.44Z"/><path class="cls-16" d="M17.81,24.34s-3.51,2.93-2.34,5.85S31.26,32,44.13,27.27,62.85,15.57,55.24,14.4,30.68,14.4,17.81,24.34Z"/><path class="cls-17" d="M17.23,28.44C15.47,8.55,22.82,3.78,30.09,1,40.62-3.15,52.9,6.8,55.83,16.15,48.22,23.17,35.36,29.61,17.23,28.44Z"/></g></g></svg>