<svg xmlns="http://www.w3.org/2000/svg" xmlns:xlink="http://www.w3.org/1999/xlink" viewBox="0 0 128.8 342.24"><defs><style>.cls-1{fill:#efd0bb;}.cls-2{fill:url(#未命名的渐变_3);}.cls-3{fill:#edf2f9;}.cls-4{fill:url(#未命名的渐变_3-2);}.cls-5{fill:#ffe5cf;}.cls-6{fill:#f3f8ff;}.cls-7{fill:#373f49;}.cls-8{fill:#fdfefe;}.cls-9{fill:url(#未命名的渐变_183);}</style><linearGradient id="未命名的渐变_3" x1="176.86" y1="424.56" x2="50.73" y2="127.13" gradientUnits="userSpaceOnUse"><stop offset="0" stop-color="#31e0e4"/><stop offset="1" stop-color="#0057c0"/></linearGradient><linearGradient id="未命名的渐变_3-2" x1="117.79" y1="361.14" x2="21.76" y2="-2.72" xlink:href="#未命名的渐变_3"/><linearGradient id="未命名的渐变_183" x1="12.66" y1="56.42" x2="46.76" y2="56.42" gradientUnits="userSpaceOnUse"><stop offset="0" stop-color="#ff4a74"/><stop offset="1" stop-color="#e62c47"/></linearGradient></defs><title>资源 76</title><g id="图层_2" data-name="图层 2"><g id="图层_3" data-name="图层 3"><polygon class="cls-1" points="85.98 31.55 84.26 53.46 106.27 53.66 103.78 32.09 85.98 31.55"/><path class="cls-1" d="M85.8,86.68c-8.08,13.9-66.43,39.24-71.06,40.37s-6-2-8.76-5.33c-3.29,2.79-7.73.88-5.26-1.21,1-.82,30.83-19.23,53.59-36.59A244.7,244.7,0,0,0,85.07,56.11Z"/><path class="cls-2" d="M70.93,128.67,86,328.12s-18.58,3.94-20.16,14.12c8.4-.26,57.72,0,57.72,0L124.24,121Z"/><path class="cls-3" d="M86,328.12h0s-18.58,3.94-20.16,14.12c6.46-.2,37.15-.09,51,0A67.93,67.93,0,0,1,86,328.12Z"/><path class="cls-4" d="M59.49,128.67,74.58,328.12S56,332.06,54.42,342.24c8.4-.26,57.73,0,57.73,0L112.8,121Z"/><path class="cls-3" d="M74.58,328.12h0S56,332.06,54.42,342.24c6.47-.2,37.16-.09,51,0A68,68,0,0,1,74.58,328.12Z"/><ellipse class="cls-5" cx="82.62" cy="22.36" rx="21.6" ry="17.82" transform="translate(53.59 102.88) rotate(-85.32)"/><path class="cls-6" d="M73.26,58.46s38-22,43.23-4.49c7.39,24.76,12.31,93.41,12.31,93.41s-37.65,21.71-76.51-2.53C49.89,118.42,73.26,58.46,73.26,58.46Z"/><path class="cls-5" d="M72.63,63.35C67.24,70.57,58.12,84,49.26,97.46c-9-15-20.85-39.07-21.82-41.14-1.36-2.94-8.69-6.83-6.86-2.91-3.92,1.82-3,9.89-3.12,14.71S35.61,129,48.26,127.46c5.25-.65,38.21-44.69,43.16-54.25S81.07,52.08,72.63,63.35Z"/><path class="cls-7" d="M59.44,15.87C60.1,21,63.67,23,67.16,22s12.47-6.49,17.32-2.58S88.9,27.2,88.9,27.2s-.47-4.38,2.52-4.46,4.34,4.8.93,8.76c5.35,3,11.87,1.46,11.87,1.46s1.14-14.11-4.76-24.49S76.16-2.32,69.15,4.9C64.61,9.58,64.09,19.08,59.44,15.87Z"/><path class="cls-8" d="M56.34,81.31c7,11.63,25.88,17.44,25.88,17.44s24-38.55,7-44.59C74.31,48.86,56.34,81.31,56.34,81.31Z"/><polygon class="cls-9" points="12.66 51.15 26.92 72.85 46.76 61.69 31.26 39.99 12.66 51.15"/><path class="cls-5" d="M20.34,70.61c.62-9.3,1.86-9.3,3.1-9.3s1.86,4.34,1.24,9.3S20.34,70.61,20.34,70.61Z"/></g></g></svg>