<svg xmlns="http://www.w3.org/2000/svg" xmlns:xlink="http://www.w3.org/1999/xlink" viewBox="0 0 162.54 164.39"><defs><style>.cls-1{isolation:isolate;}.cls-2{opacity:0.5;mix-blend-mode:screen;fill:url(#未命名的渐变_94);}</style><linearGradient id="未命名的渐变_94" y1="82.2" x2="162.54" y2="82.2" gradientUnits="userSpaceOnUse"><stop offset="0" stop-color="#04b8ff"/><stop offset="1" stop-color="#0970ff"/></linearGradient></defs><title>资源 4</title><g class="cls-1"><g id="图层_2" data-name="图层 2"><g id="图层_3" data-name="图层 3"><path class="cls-2" d="M162.44,3.06c0,.36,0,.71-.07,1.07s-.07.82-.11,1.23-.07.71-.11,1.07-.11.82-.17,1.24-.1.7-.16,1.05-.14.83-.22,1.25-.12.69-.19,1-.18.82-.28,1.23-.15.69-.23,1l-.33,1.25c-.09.34-.18.68-.28,1s-.26.84-.39,1.27-.2.66-.31,1-.31.88-.46,1.32l-.33.93c-.24.62-.48,1.24-.74,1.85-.06.14-.11.28-.17.43-.31.75-.65,1.5-1,2.26l-.32.65c-.25.53-.51,1.07-.78,1.6l-.46.85c-.24.46-.48.92-.74,1.38-.15.27-.3.53-.46.79-.29.52-.59,1-.91,1.55-.18.3-.37.6-.56.9-.3.47-.6.95-.91,1.42l-.63.93c-.31.46-.64.92-1,1.39-.22.3-.43.61-.66.91-.35.48-.71.95-1.07,1.42l-.64.83c-.66.83-1.33,1.66-2,2.48-.11.14-.23.27-.35.4-.6.7-1.22,1.39-1.85,2.08l-.7.75c-.58.62-1.17,1.23-1.77,1.84l-.63.65c-.81.8-1.63,1.59-2.48,2.38l-1,.86-1.24,1.12-1,.88-1.26,1.08-1.1.89-1.29,1-1.16.9c-.44.34-.88.68-1.33,1l-1.21.89-1.37,1c-.41.3-.84.59-1.26.88l-1.42,1c-.43.29-.86.58-1.3.86s-1,.65-1.47,1-.89.57-1.34.85l-1.52.94c-.8.49-1.61,1-2.43,1.45-1.22.71-2.45,1.4-3.7,2.08l-1.07.59c-1,.52-1.94,1-2.92,1.53l-1,.51c-1.27.64-2.55,1.27-3.85,1.88l-.7.33q-1.64.77-3.3,1.5l-1.18.52c-1.1.48-2.2.94-3.3,1.4-.27.11-.53.23-.8.33-1.35.56-2.72,1.09-4.09,1.62l-1,.39-3.25,1.19-1.22.43c-1.34.47-2.69.93-4,1.37l-.23.08c-1.2.39-2.41.77-3.62,1.14l-1,.31-2.62.77-1.41.4-2.29.63-1.56.41-2.17.56-1.64.4-2.12.51-1.69.39-2.11.47-1.73.36-2.1.43-1.75.35-2.1.4-1.54.27c-1.2.22-2.41.42-3.62.62l-1.06.17c-1.54.25-3.07.48-4.61.7l-1.06.14L34.07,92l-1.41.17c-1.31.16-2.62.3-3.94.44l-.8.08q-2.1.21-4.2.39l-.9.07-3.31.24-1.5.1-2.74.16-1.66.08L11,93.85l-1.73.06L7,94,5.22,94,3,94H0v70.34H2.77l2.25,0,1.81,0,2.23-.06.82,0,.91,0,2.63-.11,1.64-.08,2.75-.16,1.5-.09,3.31-.25.91-.07c1.4-.12,2.79-.25,4.19-.39h.18l.62-.07,3.94-.43,1.41-.17q1.85-.23,3.69-.48l1-.14c1.54-.22,3.08-.45,4.61-.69l1.07-.18c1.2-.2,2.41-.4,3.61-.62l.74-.12.8-.15,2.1-.4,1.75-.34,2.1-.44,1.73-.36,2.11-.47,1.69-.39c.71-.16,1.41-.34,2.12-.51l1.64-.4,2.18-.56,1.55-.41,2.29-.63,1.41-.4c.89-.25,1.77-.52,2.66-.78l1-.3c1.21-.37,2.42-.75,3.62-1.14h0l.18-.07c1.36-.44,2.71-.9,4-1.37l1.22-.43c1.09-.39,2.18-.78,3.25-1.19l1.05-.39c1.37-.52,2.74-1.06,4.09-1.61l.79-.33c1.11-.46,2.21-.93,3.31-1.41l1.18-.52q1.67-.74,3.3-1.5l.7-.33c1.3-.61,2.58-1.24,3.85-1.88l1-.51c1-.5,2-1,2.92-1.53l1.07-.58c1.25-.68,2.48-1.37,3.7-2.08l2-1.18.45-.28,1.51-.94,1.35-.84,1.47-1,1.3-.86,1.42-1c.42-.29.85-.58,1.26-.88l1.38-1,1.2-.88,1.34-1,1.15-.88,1.3-1.05c.36-.3.73-.59,1.08-.89s.85-.72,1.27-1.08l1-.88,1.24-1.12.86-.77.09-.09c.85-.79,1.67-1.58,2.48-2.38l.63-.64c.6-.61,1.2-1.23,1.77-1.84.24-.25.47-.5.7-.76.64-.69,1.25-1.38,1.85-2.07l.36-.41c.7-.82,1.37-1.65,2-2.48l.18-.21c.15-.21.3-.41.46-.61.36-.48.72-1,1.07-1.43.23-.3.44-.61.66-.91.33-.46.66-.93,1-1.39l.63-.93c.31-.47.61-.95.91-1.42.19-.3.38-.6.56-.9.32-.51.62-1,.91-1.54l.37-.63.09-.17c.26-.45.5-.91.74-1.37l.46-.86c.27-.53.53-1.07.78-1.6.11-.22.22-.43.32-.65.35-.75.69-1.51,1-2.26.06-.14.12-.29.17-.43.26-.61.51-1.23.74-1.85l0-.08c.11-.28.2-.56.3-.85s.32-.87.46-1.32.21-.65.31-1,.27-.86.39-1.28.19-.68.28-1l.33-1.26c.08-.34.16-.69.23-1s.19-.83.28-1.24a1.74,1.74,0,0,1,0-.22c.05-.27.09-.54.14-.82s.16-.83.23-1.25l.15-1c.06-.42.12-.83.17-1.24s.07-.71.11-1.07.08-.82.11-1.23.05-.71.07-1.07,0-.82.06-1.23c0-.13,0-.26,0-.4,0-.47,0-1,0-1.43L162.54,0c0,.61,0,1.22,0,1.83C162.49,2.24,162.46,2.65,162.44,3.06Z"/></g></g></g></svg>