<svg xmlns="http://www.w3.org/2000/svg" xmlns:xlink="http://www.w3.org/1999/xlink" viewBox="0 0 67.39 93.64"><defs><style>.cls-1{isolation:isolate;}.cls-2{opacity:0.5;fill:url(#未命名的渐变_4);}.cls-2,.cls-3,.cls-4,.cls-5,.cls-6{mix-blend-mode:screen;}.cls-3,.cls-4,.cls-5,.cls-6{opacity:0.75;}.cls-3{fill:url(#未命名的渐变_4-2);}.cls-4{fill:url(#未命名的渐变_4-3);}.cls-5{fill:url(#未命名的渐变_4-4);}.cls-6{fill:url(#未命名的渐变_4-5);}</style><linearGradient id="未命名的渐变_4" x1="-88.47" y1="46.82" x2="36.85" y2="46.82" gradientUnits="userSpaceOnUse"><stop offset="0" stop-color="#0867eb"/><stop offset="1" stop-color="#04b5fb"/></linearGradient><linearGradient id="未命名的渐变_4-2" x1="-202.89" y1="46.63" x2="-99.39" y2="46.63" gradientTransform="matrix(-1, 0.08, 0, 1, -65.4, 5.69)" xlink:href="#未命名的渐变_4"/><linearGradient id="未命名的渐变_4-3" x1="-172.13" y1="64.6" x2="-137.6" y2="64.6" gradientTransform="matrix(-1, 0.08, 0, 1, -65.4, 5.69)" xlink:href="#未命名的渐变_4"/><linearGradient id="未命名的渐变_4-4" x1="-174.69" y1="71.29" x2="-140.16" y2="71.29" gradientTransform="matrix(-1, 0.08, 0, 1, -65.4, 5.69)" xlink:href="#未命名的渐变_4"/><linearGradient id="未命名的渐变_4-5" x1="-182.7" y1="78.04" x2="-148.17" y2="78.04" gradientTransform="matrix(-1, 0.08, 0, 1, -65.4, 5.69)" xlink:href="#未命名的渐变_4"/></defs><title>资源 5</title><g class="cls-1"><g id="图层_2" data-name="图层 2"><g id="图层_3" data-name="图层 3"><path class="cls-2" d="M44.92,20.27a93.31,93.31,0,0,1-17.28,7.65l-.35.1A125.09,125.09,0,0,1,0,33.57V93.64c15.44-.3,33.78-7.55,37.57-9.27a85.11,85.11,0,0,0,7.61-3.92C56.85,73.66,64.24,65.34,67.39,56.6V0C63.58,5.83,54.19,14.92,44.92,20.27Z"/><path class="cls-3" d="M13.24,41V61A129.52,129.52,0,0,0,37.4,54l.35-.13a108,108,0,0,0,10-4.68v-20c-3.21,1.7-6.56,3.26-10,4.67l-.35.13A129.54,129.54,0,0,1,13.24,41Z"/><path class="cls-4" d="M13.24,67.67v2.61A142,142,0,0,0,37.66,63l.25-.1.09,0,0,0c3.39-1.38,6.65-2.87,9.72-4.46V55.82c-3.21,1.7-6.56,3.26-10,4.67l-.35.13A129.54,129.54,0,0,1,13.24,67.67Z"/><path class="cls-5" d="M13.24,73.67v3.79a142,142,0,0,0,24.42-7.33l.25-.09L38,70l0,0c3.39-1.37,6.65-2.87,9.72-4.45V62c-2.76,1.37-5.66,2.68-8.63,3.89a2.08,2.08,0,0,1-.32.12l-.09,0A145.87,145.87,0,0,1,13.24,73.67Z"/><path class="cls-6" d="M13.24,80.86v2.93a142,142,0,0,0,24.42-7.33l.25-.09a.32.32,0,0,1,.09,0l0,0c3.39-1.38,6.65-2.87,9.72-4.45V69.19c-2.76,1.38-5.66,2.68-8.63,3.9a2.08,2.08,0,0,1-.32.12l-.09,0A146.75,146.75,0,0,1,13.24,80.86Z"/></g></g></g></svg>