<svg xmlns="http://www.w3.org/2000/svg" xmlns:xlink="http://www.w3.org/1999/xlink" viewBox="0 0 132.31 95.36"><defs><style>.cls-1{isolation:isolate;}.cls-2,.cls-3,.cls-4,.cls-5,.cls-6,.cls-7,.cls-8{opacity:0.5;}.cls-2,.cls-4,.cls-5,.cls-6,.cls-7,.cls-8{mix-blend-mode:screen;}.cls-2{fill:url(#未命名的渐变_4);}.cls-3{fill:url(#未命名的渐变_2);}.cls-4{fill:url(#未命名的渐变_4-2);}.cls-5{fill:url(#未命名的渐变_4-3);}.cls-6{fill:url(#未命名的渐变_4-4);}.cls-7{fill:url(#未命名的渐变_4-5);}.cls-8{fill:url(#未命名的渐变_4-6);}</style><linearGradient id="未命名的渐变_4" y1="47.68" x2="132.31" y2="47.68" gradientUnits="userSpaceOnUse"><stop offset="0" stop-color="#0867eb"/><stop offset="1" stop-color="#04b5fb"/></linearGradient><linearGradient id="未命名的渐变_2" x1="14.49" y1="26.51" x2="41.74" y2="26.51" gradientTransform="matrix(1.05, 0.07, -0.03, 0.95, 0.99, 1.79)" gradientUnits="userSpaceOnUse"><stop offset="0" stop-color="#0feef4"/><stop offset="1" stop-color="#69ffff"/></linearGradient><linearGradient id="未命名的渐变_4-2" x1="53.77" y1="23.78" x2="69.63" y2="23.78" xlink:href="#未命名的渐变_4"/><linearGradient id="未命名的渐变_4-3" x1="76.95" y1="30.47" x2="109.89" y2="30.47" xlink:href="#未命名的渐变_4"/><linearGradient id="未命名的渐变_4-4" x1="53.77" y1="40.21" x2="109.89" y2="40.21" xlink:href="#未命名的渐变_4"/><linearGradient id="未命名的渐变_4-5" x1="53.77" y1="45.32" x2="76.95" y2="45.32" xlink:href="#未命名的渐变_4"/><linearGradient id="未命名的渐变_4-6" x1="53.77" y1="57.57" x2="87.93" y2="57.57" xlink:href="#未命名的渐变_4"/></defs><title>资源 2</title><g class="cls-1"><g id="图层_2" data-name="图层 2"><g id="图层_3" data-name="图层 3"><path class="cls-2" d="M0,69.88c46.85-3.53,96,5,132.31,25.48V26.26C96,5.74,46.85-2.75,0,.78Z"/><path class="cls-3" d="M40.74,18.53a102.51,102.51,0,0,0-21.86-.67,3.49,3.49,0,0,0-3.25,3.48v15a3.47,3.47,0,0,0,3.7,3.47,102,102,0,0,1,20.5.58A3.47,3.47,0,0,0,43.76,37V22A3.5,3.5,0,0,0,40.74,18.53Z"/><path class="cls-4" d="M67.09,21.47q-5-.78-10-1.36a3,3,0,0,0-3.35,3v0a3,3,0,0,0,2.68,3c3.25.37,6.49.8,9.7,1.28a3,3,0,0,0,3.48-3h0A3,3,0,0,0,67.09,21.47Z"/><path class="cls-5" d="M108,31.51a227.28,227.28,0,0,0-27.56-7.62A2.89,2.89,0,0,0,77,26.72v.22a2.87,2.87,0,0,0,2.31,2.81A228.75,228.75,0,0,1,106.07,37a2.88,2.88,0,0,0,3.82-2.72h0A2.88,2.88,0,0,0,108,31.51Z"/><path class="cls-6" d="M108.43,44.42A233.51,233.51,0,0,0,56.35,31.6a2.29,2.29,0,0,0-2.58,2.27v.28a2.28,2.28,0,0,0,2,2.26A234.13,234.13,0,0,1,106.81,48.7a2.28,2.28,0,0,0,3.08-2.13h0A2.3,2.3,0,0,0,108.43,44.42Z"/><path class="cls-7" d="M75.14,44.57C69,43.28,62.7,42.2,56.35,41.37a2.28,2.28,0,0,0-2.58,2.27v.28a2.28,2.28,0,0,0,2,2.25q9.35,1.21,18.45,3.08A2.26,2.26,0,0,0,77,47v-.22A2.28,2.28,0,0,0,75.14,44.57Z"/><path class="cls-8" d="M86.22,58.15a245.28,245.28,0,0,0-29.87-5.8,2.29,2.29,0,0,0-2.58,2.27v.27a2.28,2.28,0,0,0,2,2.26,249,249,0,0,1,29.32,5.58,2.27,2.27,0,0,0,2.85-2.2v-.17A2.28,2.28,0,0,0,86.22,58.15Z"/></g></g></g></svg>