<svg xmlns="http://www.w3.org/2000/svg" xmlns:xlink="http://www.w3.org/1999/xlink" viewBox="0 0 59.83 108.71"><defs><style>.cls-1,.cls-2,.cls-3,.cls-4{opacity:0.5;}.cls-1{fill:url(#未命名的渐变_2);}.cls-2{fill:url(#未命名的渐变_2-2);}.cls-3{fill:url(#未命名的渐变_2-3);}.cls-4{fill:url(#未命名的渐变_2-4);}</style><linearGradient id="未命名的渐变_2" y1="54.36" x2="59.83" y2="54.36" gradientUnits="userSpaceOnUse"><stop offset="0" stop-color="#0feef4"/><stop offset="1" stop-color="#69ffff"/></linearGradient><linearGradient id="未命名的渐变_2-2" x1="7.4" y1="30.88" x2="19.49" y2="30.88" xlink:href="#未命名的渐变_2"/><linearGradient id="未命名的渐变_2-3" x1="24.37" y1="45.53" x2="52.43" y2="45.53" xlink:href="#未命名的渐变_2"/><linearGradient id="未命名的渐变_2-4" x1="7.4" y1="54.24" x2="32.91" y2="54.24" xlink:href="#未命名的渐变_2"/></defs><title>资源 3</title><g id="图层_2" data-name="图层 2"><g id="图层_3" data-name="图层 3"><path class="cls-1" d="M59.83,42C52,31,40.29,20.6,24.68,11.62A174.84,174.84,0,0,0,0,0V66.66A174.84,174.84,0,0,1,24.68,78.28c15.61,9,27.33,19.36,35.15,30.43Z"/><path class="cls-2" d="M17.61,29.1c-1.82-.87-3.68-1.71-5.56-2.51A3.34,3.34,0,0,0,7.4,29.66v.14a3.33,3.33,0,0,0,2.11,3.08Q12.2,34,14.78,35.13a3.33,3.33,0,0,0,4.71-3h0A3.34,3.34,0,0,0,17.61,29.1Z"/><path class="cls-3" d="M24.37,37.28V38A2.89,2.89,0,0,0,26,40.63,104.69,104.69,0,0,1,47.57,55.86a2.88,2.88,0,0,0,4.86-2.08h0a2.86,2.86,0,0,0-.71-1.91c-6.19-6.95-15.43-13-23.13-17.13A2.87,2.87,0,0,0,24.37,37.28Z"/><path class="cls-4" d="M31.8,57.58A93.42,93.42,0,0,0,11.61,45.69,3.06,3.06,0,0,0,7.4,48.54v.88a3,3,0,0,0,1.92,2.84c5.4,2.14,13.6,6.86,18.86,10.26A3.06,3.06,0,0,0,32.91,60h0A3.1,3.1,0,0,0,31.8,57.58Z"/></g></g></svg>