<svg xmlns="http://www.w3.org/2000/svg" xmlns:xlink="http://www.w3.org/1999/xlink" viewBox="0 0 184.33 107.17"><defs><style>.cls-1{fill:url(#linear-gradient);}</style><linearGradient id="linear-gradient" y1="53.58" x2="184.33" y2="53.58" gradientUnits="userSpaceOnUse"><stop offset="0" stop-color="#4c82ff"/><stop offset="1" stop-color="#2af9de"/></linearGradient></defs><title>资源 24</title><g id="图层_2" data-name="图层 2"><g id="图层_3" data-name="图层 3"><path class="cls-1" d="M92.46,107.17a12.19,12.19,0,0,1-6-1.46L2.65,57.33C.94,56.35,0,55,0,53.57s.92-2.76,2.61-3.74L85.85,1.46a12.19,12.19,0,0,1,6-1.46,12.32,12.32,0,0,1,6,1.45l83.79,48.38c1.71,1,2.64,2.32,2.65,3.76s-.93,2.76-2.61,3.74L98.47,105.71A12.12,12.12,0,0,1,92.46,107.17ZM91.87.93a11.22,11.22,0,0,0-5.55,1.32L3.07,50.63A3.67,3.67,0,0,0,.92,53.57c0,1.1.78,2.15,2.19,3L86.9,104.91a12.31,12.31,0,0,0,11.11,0l83.25-48.38a3.69,3.69,0,0,0,2.15-2.95c0-1.1-.78-2.15-2.19-3L97.43,2.25A11.34,11.34,0,0,0,91.87.93Z"/></g></g></svg>