<svg xmlns="http://www.w3.org/2000/svg" xmlns:xlink="http://www.w3.org/1999/xlink" viewBox="0 0 71.07 97.92"><defs><style>.cls-1{fill:url(#未命名的渐变_159);}.cls-2{fill:url(#未命名的渐变_159-2);}.cls-3{fill:url(#未命名的渐变_153);}</style><linearGradient id="未命名的渐变_159" x1="49.34" y1="4.46" x2="26.64" y2="84.82" gradientUnits="userSpaceOnUse"><stop offset="0" stop-color="#009587"/><stop offset="1" stop-color="#0286a7"/></linearGradient><linearGradient id="未命名的渐变_159-2" x1="38.71" y1="1.46" x2="16.01" y2="81.82" xlink:href="#未命名的渐变_159"/><linearGradient id="未命名的渐变_153" x1="8.6" y1="51.45" x2="71.07" y2="51.45" gradientUnits="userSpaceOnUse"><stop offset="0" stop-color="#08ffb3"/><stop offset="1" stop-color="#0df"/></linearGradient></defs><title>资源 19</title><g id="图层_2" data-name="图层 2"><g id="图层_3" data-name="图层 3"><path class="cls-1" d="M50,39.72c0-.1,0-.21,0-.32a10.08,10.08,0,0,0-.14-1.12l0-.12a8.06,8.06,0,0,0-.23-.91c0-.1-.06-.19-.1-.29a5.47,5.47,0,0,0-.31-.74c0-.07,0-.13-.08-.19a7.18,7.18,0,0,0-.5-.8,2.09,2.09,0,0,1-.14-.17c-.16-.19-.32-.36-.49-.53l-.19-.17a4.76,4.76,0,0,0-.74-.53l-8.6-5a5.47,5.47,0,0,1,.74.52l.19.18a6,6,0,0,1,.49.52,1.15,1.15,0,0,0,.14.17,7.18,7.18,0,0,1,.5.8c0,.06.05.13.08.19a6.21,6.21,0,0,1,.31.75,2.31,2.31,0,0,1,.1.28,8.65,8.65,0,0,1,.23.91l0,.13a9.79,9.79,0,0,1,.14,1.12c0,.1,0,.21,0,.32,0,.3,0,.61,0,.93,0,.11,0,.22,0,.33,0,.41-.05.84-.1,1.27l0,.22c0,.35-.11.7-.19,1.06,0,.16-.07.32-.1.48l-.15.62c-.05.19-.11.38-.16.58l-.15.47c-.07.22-.15.45-.23.67s-.09.25-.13.37c-.13.35-.27.7-.42,1-.22.52-.47,1-.73,1.52,0,.06-.05.11-.07.16-.25.46-.51.92-.78,1.36L38,46c-.26.43-.55.85-.84,1.25a2.83,2.83,0,0,1-.2.28c-.24.32-.49.64-.74.95l-.27.33c-.2.23-.41.45-.61.67s-.34.38-.52.55c-.33.33-.67.65-1,.95l-.21.17c-.29.25-.59.48-.88.7l-.3.22c-.37.26-.73.5-1.1.71a12.33,12.33,0,0,1-1.26.63l-.37.15-.72.25-.41.12-.42.08a5.54,5.54,0,0,1-.69.12,6.87,6.87,0,0,1-.78,0h-.21a6.31,6.31,0,0,1-.76-.08l-.15,0a5.69,5.69,0,0,1-.59-.16l-.17-.06a5.16,5.16,0,0,1-.67-.32l8.6,5,.05,0a4.74,4.74,0,0,0,.51.24l.11,0a.85.85,0,0,0,.17.06,2.34,2.34,0,0,0,.24.09l.35.08.15,0,.07,0a5.68,5.68,0,0,0,.61.07h.67l.4,0,.37,0,.32-.07.42-.09.16,0,.25-.09.72-.24.21-.08.16-.07c.42-.19.84-.39,1.26-.63s.73-.46,1.1-.71l.3-.22c.29-.22.59-.45.88-.7l.21-.17c.31-.27.61-.55.91-.84l.1-.11c.18-.18.34-.37.52-.55l.48-.51a1.83,1.83,0,0,1,.13-.16l.27-.34c.14-.16.28-.32.41-.49l.33-.45.2-.28.14-.18c.2-.29.39-.57.58-.87l.12-.2.14-.22.26-.42.47-.85.05-.1.07-.15c.11-.2.21-.4.31-.6s.27-.58.4-.88l0,0c.13-.3.25-.6.37-.9a.78.78,0,0,1,.05-.14c0-.12.09-.24.13-.37s.11-.3.16-.44a2.17,2.17,0,0,0,.07-.24c0-.15.1-.31.14-.47s.08-.22.11-.33a2.1,2.1,0,0,1,.06-.24l.15-.62c0-.1,0-.2.07-.3l0-.18c.07-.36.14-.72.18-1.07a1,1,0,0,0,0-.17.08.08,0,0,0,0,0c0-.43.09-.86.1-1.27,0-.11,0-.22,0-.33C50,40.34,50,40,50,39.72Z"/><path class="cls-2" d="M16.2,83.54c-.26-.22-.53-.44-.78-.67L15,82.5l-.69-.71c-.12-.13-.24-.26-.35-.4s-.48-.57-.7-.87L13,80.2c-.29-.42-.58-.85-.84-1.29-.06-.09-.11-.19-.17-.29-.2-.36-.4-.72-.59-1.1l-.24-.5c-.15-.32-.29-.65-.43-1l-.23-.57c-.13-.34-.25-.69-.37-1L10,73.88c-.14-.45-.26-.91-.38-1.38,0-.09,0-.18-.07-.27-.14-.57-.26-1.14-.37-1.73,0-.17-.05-.34-.08-.52C9,69.56,9,69.13,8.89,68.7c0-.22-.05-.45-.07-.67,0-.4-.08-.81-.11-1.23,0-.23,0-.45-.05-.69,0-.44,0-.89-.05-1.35,0-.2,0-.39,0-.59,0-.66,0-1.32,0-2,0-.06,0-.13,0-.19,0-.61.06-1.23.11-1.85,0-.22.05-.45.07-.68,0-.47.09-.94.15-1.42,0-.26.06-.52.1-.78.06-.45.13-.91.21-1.37l.12-.77c.09-.51.19-1,.3-1.54,0-.19.07-.38.12-.58.24-1.13.52-2.27.83-3.42,0-.13.08-.27.11-.41.27-1,.57-1.91.88-2.87.07-.21.14-.43.22-.64.28-.83.58-1.67.9-2.51,0-.08.05-.15.08-.22.33-.86.68-1.71,1.05-2.57l.31-.7c.28-.65.58-1.31.89-2l.3-.63c.4-.82.82-1.65,1.26-2.47.33-.63.67-1.25,1-1.88.24-.43.49-.85.74-1.28.39-.64.78-1.28,1.18-1.92l.25-.41c.51-.79,1-1.56,1.56-2.32l.37-.53c.57-.79,1.14-1.57,1.73-2.33l.12-.16c.74-1,1.5-1.88,2.27-2.78l.3-.35c.48-.55,1-1.08,1.46-1.61l.08-.09c.52-.56,1.05-1.09,1.58-1.62.1-.11.21-.21.32-.31.7-.69,1.41-1.35,2.13-2l.22-.2c.74-.65,1.49-1.27,2.25-1.87l.44-.34c.75-.57,1.5-1.12,2.26-1.64l.4-.27c.8-.53,1.6-1,2.4-1.5s1.29-.72,1.94-1l.53-.26c.52-.26,1-.5,1.57-.72L44.16,7q.84-.34,1.68-.63l.24-.08c.47-.15.94-.3,1.41-.43l.77-.2.62-.15.8-.15.59-.11.3,0c.64-.09,1.27-.15,1.9-.19l.32,0a17.35,17.35,0,0,1,1.77,0l.42,0c.45,0,.89.09,1.32.15l.4.07a13.06,13.06,0,0,1,1.53.35l.26.08c.41.13.81.27,1.2.43l.42.17c.38.17.75.35,1.11.55l.39.2-8.6-5L52.84,2l-.22-.11a11.37,11.37,0,0,0-1.11-.54l-.21-.11-.21-.07a12.15,12.15,0,0,0-1.2-.42l-.2-.08h-.06A15.44,15.44,0,0,0,48.1.28L48,.25a2.48,2.48,0,0,0-.27,0C47.27.15,46.83.1,46.38.06l-.26,0H46c-.58,0-1.17,0-1.77,0h-.11l-.21,0c-.63,0-1.26.1-1.9.19l-.19,0-.11,0-.59.11-.8.16c-.21,0-.42.1-.62.15l-.6.14-.17.05c-.47.13-.94.28-1.41.44l-.24.07c-.56.19-1.12.41-1.68.64l-.11,0a2.36,2.36,0,0,1-.28.12L33.6,2.9l-.53.26c-.65.33-1.29.67-1.94,1s-1.6,1-2.4,1.51l-.4.26c-.76.52-1.51,1.07-2.26,1.65L25.63,8c-.75.59-1.51,1.21-2.25,1.87l-.22.19c-.72.64-1.43,1.31-2.13,2l-.2.19-.12.12c-.53.53-1.06,1.07-1.58,1.62l-.08.09c-.49.53-1,1.07-1.46,1.62l-.12.14-.18.21c-.77.9-1.53,1.82-2.27,2.77l0,0-.09.13c-.59.76-1.16,1.54-1.73,2.33-.07.11-.15.2-.22.31l-.15.22c-.53.76-1.05,1.54-1.56,2.33l-.06.08a3.37,3.37,0,0,1-.19.32c-.4.64-.79,1.28-1.18,1.93-.06.11-.14.22-.2.34-.19.31-.37.62-.54.94-.33.58-.66,1.17-1,1.76a1.17,1.17,0,0,0,0,.11c-.44.82-.86,1.65-1.26,2.48l-.1.19c-.07.14-.13.29-.2.43-.31.66-.61,1.31-.89,2-.07.13-.13.27-.2.41s-.07.19-.11.28c-.37.86-.72,1.72-1,2.57l0,0-.06.17q-.48,1.26-.9,2.52c0,.12-.09.24-.13.35L3,41.3c-.31,1-.61,1.92-.88,2.88,0,0,0,.1,0,.15s0,.17-.07.26c-.31,1.15-.59,2.29-.83,3.42l0,.09-.09.49c-.11.51-.21,1-.3,1.54l-.12.76q-.12.69-.21,1.38l-.06.42c0,.12,0,.23,0,.35-.06.48-.11,1-.15,1.42,0,.23,0,.46-.07.68C.1,55.77.07,56.38,0,57c0,.06,0,.13,0,.19,0,.67,0,1.34,0,2,0,.2,0,.39,0,.59,0,.46,0,.91,0,1.36,0,.23,0,.46.05.68,0,.42.07.83.11,1.24,0,.22.05.44.07.66.06.43.12.86.19,1.29,0,.17.05.34.09.51.1.59.22,1.17.36,1.73,0,.09,0,.18.07.27.12.47.24.93.38,1.39l.18.53c.12.36.24.71.38,1.06.07.19.14.37.22.56s.28.66.43,1l.24.49q.29.57.6,1.11c0,.09.1.19.16.28.26.45.55.88.84,1.29l.25.32c.23.3.46.59.7.87s.23.27.35.4l.69.71.4.38c.25.23.52.45.79.66l.37.3q.6.45,1.23.84l8.6,5a13.4,13.4,0,0,1-1.23-.85Z"/><path class="cls-3" d="M61.86,7.21c12.22,7.46,12.29,30.44.15,52L40,97.92,17.81,84.68c-12.23-7.45-12.29-30.42-.14-52C23.44,22.5,31.4,14,39.73,9.2S56,3.67,61.86,7.21ZM48.29,47.77c2.67-6.16,2.12-12-1.31-13.94-1.9-1.09-4.46-.83-7.14.72-4.86,2.81-9,9.13-9.91,15.11s1.62,10,6.09,9.5a9.87,9.87,0,0,0,3.87-1.35,21.72,21.72,0,0,0,8.4-10"/></g></g></svg>