<?xml version="1.0" encoding="utf-8"?>
<!-- Generator: Adobe Illustrator 24.0.3, SVG Export Plug-In . SVG Version: 6.00 Build 0)  -->
<svg version="1.1" id="图层_1" xmlns="http://www.w3.org/2000/svg" xmlns:xlink="http://www.w3.org/1999/xlink" x="0px" y="0px"
	 viewBox="0 0 163.3 115.5" style="enable-background:new 0 0 163.3 115.5;" xml:space="preserve">
<style type="text/css">
	.st0{fill:#C5C5C5;}
	.st1{fill:#898989;}
	.st2{clip-path:url(#SVGID_2_);}
	.st3{fill:#858585;}
	.st4{clip-path:url(#SVGID_4_);}
	.st5{fill:#4F311C;}
	.st6{fill:#52331D;}
	.st7{fill:#55351E;}
	.st8{fill:#58361F;}
	.st9{fill:#5A3820;}
	.st10{fill:#5D3A21;}
	.st11{fill:#603B22;}
	.st12{fill:#633D23;}
	.st13{clip-path:url(#SVGID_6_);}
	.st14{clip-path:url(#SVGID_8_);}
	.st15{fill:url(#SVGID_9_);}
	.st16{fill:#011F9E;}
	.st17{clip-path:url(#SVGID_11_);}
	.st18{fill:url(#SVGID_12_);}
	.st19{fill:url(#SVGID_13_);}
	.st20{fill:url(#SVGID_14_);}
	.st21{fill:url(#SVGID_15_);}
	.st22{fill:url(#SVGID_16_);}
	.st23{clip-path:url(#SVGID_18_);}
	.st24{clip-path:url(#SVGID_20_);}
	.st25{clip-path:url(#SVGID_22_);}
	.st26{fill:url(#SVGID_23_);}
	.st27{fill:#6A4225;}
	.st28{clip-path:url(#SVGID_25_);}
	.st29{clip-path:url(#SVGID_27_);}
	.st30{fill:#4D301B;}
	.st31{fill:#4A2E1A;}
	.st32{fill:#472C19;}
	.st33{fill:url(#SVGID_28_);}
	.st34{clip-path:url(#SVGID_30_);}
	.st35{fill:url(#SVGID_31_);}
	.st36{fill:url(#SVGID_32_);}
	.st37{clip-path:url(#SVGID_34_);}
	.st38{fill:url(#SVGID_35_);}
	.st39{clip-path:url(#SVGID_37_);}
	.st40{fill:url(#SVGID_38_);}
	.st41{fill:url(#SVGID_39_);}
	.st42{fill:url(#SVGID_40_);}
	.st43{fill:url(#SVGID_41_);}
	.st44{fill:url(#SVGID_42_);}
	.st45{fill:url(#SVGID_43_);}
	.st46{fill:url(#SVGID_44_);}
	.st47{fill:url(#SVGID_45_);}
	.st48{fill:url(#SVGID_46_);}
	.st49{fill:#D1A091;}
	.st50{fill:#EFD0BB;}
	.st51{fill:#3D208C;}
	.st52{fill:#F3F8FF;}
	.st53{fill:#C49583;}
	.st54{fill:#193341;}
	.st55{fill:url(#SVGID_47_);}
	.st56{fill:#083A66;}
	.st57{fill:#6736D9;}
	.st58{fill:#373F49;}
	.st59{fill:#FFE5CF;}
	.st60{fill:#FDFEFE;}
	.st61{fill:#D3CFCE;}
	.st62{fill:#EBEBEB;}
	.st63{fill:#FE7C80;}
	.st64{fill:#D8D8D6;}
	.st65{fill:#C4B3AB;}
	.st66{fill:#D6B49D;}
	.st67{fill:#E5E5E5;}
</style>
<title>资源 88</title>
<g id="图层_2_1_">
	<g id="图层_3">
		<polygon class="st0" points="102.6,6.1 102.4,40.3 98.9,42.4 99,8.2 		"/>
		<polygon class="st0" points="107.3,8.9 107.2,43.1 103.7,45.1 103.8,10.9 		"/>
		<polygon class="st1" points="103.8,10.9 103.7,45.1 98.9,42.4 99,8.2 		"/>
		<g>
			<g>
				<defs>
					<polygon id="SVGID_1_" points="82,48.4 82,48.4 82.1,14.2 82.1,14.2 					"/>
				</defs>
				<clipPath id="SVGID_2_">
					<use xlink:href="#SVGID_1_"  style="overflow:visible;"/>
				</clipPath>
				<g class="st2">
					<g>
						<path class="st3" d="M83.1,15.6L83,49.8c0-0.6-0.4-1.1-1-1.4c-0.2-0.1-0.3-0.2-0.5-0.2L81.6,14c0.2,0.1,0.3,0.1,0.5,0.2
							C82.7,14.5,83.1,15,83.1,15.6"/>
					</g>
				</g>
			</g>
		</g>
		<g>
			<g>
				<defs>
					<path id="SVGID_3_" d="M83.1,15.6L83,49.8c-0.1,0.6-0.4,1.1-1,1.4L82.1,17C82.7,16.7,83.1,16.2,83.1,15.6z"/>
				</defs>
				<clipPath id="SVGID_4_">
					<use xlink:href="#SVGID_3_"  style="overflow:visible;"/>
				</clipPath>
				<g class="st4">
					<g>
						<path class="st5" d="M83.1,15.6L83,49.8l0,0L83.1,15.6L83.1,15.6"/>
						<path class="st6" d="M83.1,15.6L83,49.8c0,0.1,0,0.1,0,0.2l0.1-34.2C83.1,15.7,83.1,15.7,83.1,15.6"/>
						<path class="st7" d="M83.1,15.8L83,50c0,0.1,0,0.1,0,0.2V16C83,15.9,83.1,15.9,83.1,15.8"/>
						<path class="st8" d="M83,16l-0.1,34.2l-0.1,0.2l0.1-34.2C83,16.1,83,16.1,83,16"/>
						<path class="st9" d="M83,16.2l-0.1,34.2c0,0.1-0.1,0.1-0.1,0.2l0.1-34.2C82.9,16.3,83,16.3,83,16.2"/>
						<path class="st10" d="M82.8,16.4l-0.1,34.2c-0.1,0.1-0.1,0.2-0.2,0.2l0.1-34.2C82.7,16.5,82.7,16.5,82.8,16.4"/>
						<path class="st11" d="M82.6,16.6l-0.1,34.2c-0.1,0.1-0.3,0.2-0.4,0.3l0.1-34.2C82.3,16.8,82.5,16.7,82.6,16.6"/>
						<path class="st12" d="M82.2,16.9l-0.1,34.2l0,0L82.2,16.9L82.2,16.9"/>
					</g>
				</g>
			</g>
		</g>
		<g>
			<g>
				<defs>
					<path id="SVGID_5_" d="M96.7,56.9L96.7,56.9c0-11.4,0-22.8,0.1-34.2l0,0C96.8,34.1,96.8,45.5,96.7,56.9z"/>
				</defs>
				<clipPath id="SVGID_6_">
					<use xlink:href="#SVGID_5_"  style="overflow:visible;"/>
				</clipPath>
				<g class="st13">
					<g>
						<path class="st3" d="M97.8,24.1l-0.1,34.2c-0.1-0.6-0.4-1.1-1-1.4c-0.2-0.1-0.3-0.2-0.5-0.2l0.1-34.2c0.2,0.1,0.3,0.1,0.5,0.2
							C97.4,22.9,97.7,23.5,97.8,24.1"/>
					</g>
				</g>
			</g>
		</g>
		<g>
			<g>
				<defs>
					<path id="SVGID_7_" d="M97.8,24.1l-0.1,34.2c-0.1,0.6-0.4,1.1-1,1.4l0.1-34.2C97.4,25.2,97.7,24.7,97.8,24.1z"/>
				</defs>
				<clipPath id="SVGID_8_">
					<use xlink:href="#SVGID_7_"  style="overflow:visible;"/>
				</clipPath>
				<g class="st14">
					<g>
						<path class="st5" d="M97.8,24.1l-0.1,34.2l0,0L97.8,24.1L97.8,24.1"/>
						<path class="st6" d="M97.8,24.1l-0.1,34.2c0,0.1,0,0.1,0,0.2l0.1-34.2C97.8,24.2,97.8,24.2,97.8,24.1"/>
						<path class="st7" d="M97.8,24.3l-0.1,34.2c0,0.1,0,0.1-0.1,0.2l0.1-34.2C97.7,24.4,97.7,24.3,97.8,24.3"/>
						<path class="st8" d="M97.7,24.5l-0.1,34.2c0,0.1-0.1,0.1-0.1,0.2l0.1-34.2L97.7,24.5"/>
						<path class="st9" d="M97.6,24.7l-0.1,34.2l-0.1,0.2l0.1-34.2C97.5,24.8,97.6,24.7,97.6,24.7"/>
						<path class="st10" d="M97.5,24.9l-0.1,34.2c-0.1,0.1-0.1,0.2-0.2,0.2l0.1-34.2C97.4,25,97.4,24.9,97.5,24.9"/>
						<path class="st11" d="M97.3,25.1l-0.1,34.2c-0.1,0.1-0.3,0.2-0.4,0.3l0.1-34.2C97,25.3,97.2,25.2,97.3,25.1"/>
						<path class="st12" d="M96.9,25.4l-0.1,34.2l0,0L96.9,25.4L96.9,25.4"/>
					</g>
				</g>
			</g>
		</g>
		<polygon class="st0" points="135.3,25 135.2,59.2 131.6,61.3 131.7,27.1 		"/>
		<linearGradient id="SVGID_9_" gradientUnits="userSpaceOnUse" x1="112.2" y1="23.54" x2="114.37" y2="23.54">
			<stop  offset="0" style="stop-color:#1769C6"/>
			<stop  offset="1" style="stop-color:#011F9E"/>
		</linearGradient>
		<polygon class="st15" points="114.4,7.6 114.3,25.1 112.2,40.6 112.3,6.4 		"/>
		<polygon class="st16" points="120.6,11.2 120.5,28.7 119,27.8 119.1,10.4 		"/>
		<polygon class="st16" points="150,19.6 149.9,37 131,26.1 131.1,8.7 		"/>
		<g>
			<g>
				<defs>
					<path id="SVGID_10_" d="M151.2,21.4l-0.1,17.4c-0.1-0.8-0.5-1.5-1.3-1.8l0.1-17.4C150.7,20,151.2,20.6,151.2,21.4z"/>
				</defs>
				<clipPath id="SVGID_11_">
					<use xlink:href="#SVGID_10_"  style="overflow:visible;"/>
				</clipPath>
				<g class="st17">
					<g>
						<path class="st16" d="M151.2,21.4l-0.1,17.4c-0.1-0.8-0.5-1.5-1.3-1.8l0.1-17.4C150.7,19.9,151.2,20.6,151.2,21.4"/>
					</g>
				</g>
			</g>
		</g>
		<polygon class="st16" points="147.1,26.5 147,44 145.5,43.1 145.6,25.7 		"/>
		<polygon class="st0" points="149.5,25.2 149.4,42.6 147,44 147.1,26.5 		"/>
		<polygon class="st1" points="154.2,27.9 154.1,45.3 149.4,42.6 149.5,25.2 		"/>
		<polygon class="st0" points="154.2,27.9 154.1,45.3 151.8,46.7 151.9,29.3 		"/>
		<polygon class="st16" points="153.9,30.5 153.9,47.9 151.8,46.7 151.9,29.3 		"/>
		
			<linearGradient id="SVGID_12_" gradientUnits="userSpaceOnUse" x1="120.53" y1="97.4948" x2="131.06" y2="97.4948" gradientTransform="matrix(1 0 0 -1 0 115.8898)">
			<stop  offset="0" style="stop-color:#1769C6"/>
			<stop  offset="1" style="stop-color:#011F9E"/>
		</linearGradient>
		<path class="st18" d="M130.4,8.4h-0.1l-0.4-0.1l-0.2-0.1h-0.1h-0.1l-0.4-0.1h-0.1h-0.1h-0.2h-0.4h-0.4c-0.2,0-0.3,0-0.5,0h-0.1
			h-0.1h-0.4h-0.2l-0.4,0.1l-0.2,0.1h-0.1c-0.3,0.1-0.6,0.2-0.8,0.4l-4.4,2.5l-0.1,17.4l4.4-2.5c0.3-0.2,0.6-0.3,0.8-0.4l0.3-0.1
			l0.4-0.1l0.5-0.1h0.1c0.2,0,0.5,0,0.7,0h0.1c0.2,0,0.5,0,0.7,0h0.1c0.2,0,0.5,0.1,0.7,0.1h0.1c0.2,0,0.4,0.1,0.6,0.2h0.1
			c0.2,0.1,0.4,0.2,0.7,0.3l0.1-17.4C130.9,8.5,130.7,8.4,130.4,8.4L130.4,8.4z"/>
		
			<linearGradient id="SVGID_13_" gradientUnits="userSpaceOnUse" x1="107.21" y1="93.3548" x2="119.13" y2="93.3548" gradientTransform="matrix(1 0 0 -1 0 115.8898)">
			<stop  offset="0" style="stop-color:#1769C6"/>
			<stop  offset="1" style="stop-color:#011F9E"/>
		</linearGradient>
		<polygon class="st19" points="107.2,34.7 119,27.8 119.1,10.4 107.3,17.3 		"/>
		
			<linearGradient id="SVGID_14_" gradientUnits="userSpaceOnUse" x1="153.85" y1="80.8848" x2="163.3" y2="80.8848" gradientTransform="matrix(1 0 0 -1 0 115.8898)">
			<stop  offset="0" style="stop-color:#1769C6"/>
			<stop  offset="1" style="stop-color:#011F9E"/>
		</linearGradient>
		<path class="st20" d="M163.3,22.5c0,0.1,0,0.3,0,0.4s-0.1,0.2-0.1,0.3s-0.1,0.2-0.1,0.4s-0.1,0.2-0.1,0.3
			c-0.1,0.1-0.1,0.3-0.2,0.4l-0.2,0.3c-0.1,0.1-0.2,0.3-0.3,0.4l-0.2,0.2c-0.2,0.2-0.3,0.4-0.5,0.6l-0.2,0.2l-0.4,0.3
			c-0.1,0.1-0.2,0.2-0.4,0.3c-0.1,0.1-0.3,0.2-0.4,0.3s-0.3,0.2-0.5,0.3l-5.8,3.4l-0.1,17.4l5.8-3.3l0.1-0.1l0.3-0.2l0.4-0.3
			l0.4-0.3c0.1-0.1,0.3-0.2,0.4-0.3l0.1-0.1c0,0,0.1-0.1,0.1-0.1c0.2-0.2,0.4-0.4,0.5-0.6c0,0,0.1-0.1,0.1-0.1c0,0,0.1-0.1,0.1-0.1
			c0.1-0.2,0.2-0.3,0.3-0.4c0-0.1,0.1-0.1,0.1-0.2c0,0,0-0.1,0-0.1c0.1-0.1,0.1-0.3,0.2-0.4l0.1-0.2c0,0,0-0.1,0-0.1
			c0-0.1,0.1-0.2,0.1-0.4l0.1-0.2c0,0,0,0,0-0.1s0-0.3,0-0.4c0-0.1,0-0.2,0-0.2v-0.1l0.1-17.4C163.3,22.2,163.3,22.3,163.3,22.5z"/>
		
			<linearGradient id="SVGID_15_" gradientUnits="userSpaceOnUse" x1="139.95" y1="74.4548" x2="151.87" y2="74.4548" gradientTransform="matrix(1 0 0 -1 0 115.8898)">
			<stop  offset="0" style="stop-color:#1769C6"/>
			<stop  offset="1" style="stop-color:#011F9E"/>
		</linearGradient>
		<polygon class="st21" points="139.9,53.6 151.8,46.7 151.9,29.3 140,36.2 		"/>
		
			<linearGradient id="SVGID_16_" gradientUnits="userSpaceOnUse" x1="115.3702" y1="110.61" x2="169.2602" y2="66.52" gradientTransform="matrix(1 0 0 -1 0 115.8898)">
			<stop  offset="0" style="stop-color:#31E0E4"/>
			<stop  offset="1" style="stop-color:#0057C0"/>
		</linearGradient>
		<path class="st22" d="M159.6,17L135.6,3.1c-4.9-2.8-12.7-2.8-17.5,0l-5.7,3.3l2.1,1.2l-11.8,6.9L99,16.6l4.8,2.8l3.6-2.1l11.8-6.9
			l1.5,0.9l4.4-2.5c1.9-1,4.2-1,6.1,0L150,19.6c1.7,1,1.7,2.5,0,3.5l-4.4,2.5l1.5,0.9l-11.8,6.9l-3.6,2.1l4.8,2.8l3.6-2.1l11.8-6.9
			l2.1,1.2l5.8-3.4C164.5,24.3,164.5,19.8,159.6,17z"/>
		<polygon class="st1" points="136.5,29.8 136.4,64 131.6,61.3 131.7,27.1 		"/>
		<polygon class="st0" points="140,27.8 139.9,62 136.4,64 136.5,29.8 		"/>
		<g>
			<g>
				<defs>
					<path id="SVGID_17_" d="M111.4,65.3L111.4,65.3c0-11.4,0-22.8,0.1-34.2l0,0C111.5,42.5,111.4,53.9,111.4,65.3z"/>
				</defs>
				<clipPath id="SVGID_18_">
					<use xlink:href="#SVGID_17_"  style="overflow:visible;"/>
				</clipPath>
				<g class="st23">
					<g>
						<path class="st3" d="M112.5,32.5l-0.1,34.2c-0.1-0.6-0.4-1.1-1-1.4c-0.2-0.1-0.3-0.2-0.5-0.2l0.1-34.2
							c0.2,0.1,0.3,0.1,0.5,0.2C112,31.4,112.4,31.9,112.5,32.5"/>
					</g>
				</g>
			</g>
		</g>
		<g>
			<g>
				<defs>
					<path id="SVGID_19_" d="M112.5,32.5l-0.1,34.2c-0.1,0.6-0.4,1.1-1,1.4l0.1-34.2C112,33.7,112.4,33.1,112.5,32.5z"/>
				</defs>
				<clipPath id="SVGID_20_">
					<use xlink:href="#SVGID_19_"  style="overflow:visible;"/>
				</clipPath>
				<g class="st24">
					<g>
						<path class="st5" d="M112.5,32.5l-0.1,34.2l0,0L112.5,32.5L112.5,32.5"/>
						<path class="st6" d="M112.5,32.6l-0.1,34.2c0,0.1,0,0.1,0,0.2l0.1-34.2C112.5,32.7,112.5,32.6,112.5,32.6"/>
						<path class="st7" d="M112.5,32.8L112.4,67c0,0.1,0,0.1,0,0.2l0-34.2C112.4,32.9,112.4,32.9,112.5,32.8"/>
						<path class="st8" d="M112.4,33l-0.1,34.2l-0.1,0.2l0.1-34.2C112.3,33.1,112.4,33.1,112.4,33"/>
						<path class="st9" d="M112.3,33.1l-0.1,34.2c0,0.1-0.1,0.1-0.1,0.2l0.1-34.2L112.3,33.1"/>
						<path class="st10" d="M112.2,33.3l-0.1,34.2c-0.1,0.1-0.1,0.2-0.2,0.2l0.1-34.2C112,33.5,112.1,33.4,112.2,33.3"/>
						<path class="st11" d="M112,33.6l-0.1,34.2c-0.1,0.1-0.3,0.2-0.4,0.3l0.1-34.2C111.7,33.8,111.9,33.7,112,33.6"/>
						<path class="st12" d="M111.5,33.9l-0.1,34.2l0,0L111.5,33.9L111.5,33.9"/>
					</g>
				</g>
			</g>
		</g>
		<g>
			<g>
				<defs>
					<path id="SVGID_21_" d="M126.1,73.8L126.1,73.8c0-11.4,0.1-22.8,0.1-34.2l0,0C126.1,51,126.1,62.4,126.1,73.8z"/>
				</defs>
				<clipPath id="SVGID_22_">
					<use xlink:href="#SVGID_21_"  style="overflow:visible;"/>
				</clipPath>
				<g class="st25">
					<g>
						<path class="st3" d="M127.2,41l-0.1,34.2c-0.1-0.6-0.4-1.1-1-1.4c-0.2-0.1-0.3-0.2-0.5-0.2l0.1-34.2c0.2,0.1,0.3,0.1,0.5,0.2
							C126.7,39.9,127.1,40.4,127.2,41"/>
					</g>
				</g>
			</g>
		</g>
		
			<linearGradient id="SVGID_23_" gradientUnits="userSpaceOnUse" x1="33.72" y1="71.8185" x2="83.11" y2="71.8185" gradientTransform="matrix(1 0 0 -1 0 115.8898)">
			<stop  offset="0" style="stop-color:#011F9E"/>
			<stop  offset="1" style="stop-color:#28A5E6"/>
		</linearGradient>
		<path class="st26" d="M83.1,32.6V20v-4.5l0,0c0-0.4-0.2-0.8-0.5-1c0,0,0,0,0-0.1l-0.3-0.2c-0.1,0-0.1-0.1-0.2-0.1l0,0
			c-0.2-0.1-0.3-0.2-0.5-0.2l0,0h-0.1l-0.3-0.1h-0.2H81h-0.1l-0.3-0.1h-0.3h-0.3h-0.3c-0.1,0-0.3,0-0.4,0l0,0h-0.1h-0.3h-0.1
			l-0.3,0.1h-0.2h-0.1c-0.2,0.1-0.5,0.2-0.7,0.3L34.8,38.9l0,0c-0.1,0-0.1,0.1-0.2,0.1l-0.2,0.2l0,0c-0.1,0.1-0.1,0.1-0.2,0.2
			c0,0,0,0,0,0.1l0,0c0,0,0,0.1-0.1,0.1c0,0.1-0.1,0.1-0.1,0.2l0,0l0,0c0,0,0,0.1,0,0.1c0,0.1,0,0.1,0,0.2l0,0l-0.1,34.2l0,0
			c0-0.1,0-0.2,0.1-0.3l0,0c0-0.1,0.1-0.2,0.2-0.3l0,0c0.1-0.1,0.2-0.2,0.3-0.3c0.1-0.1,0.2-0.1,0.2-0.2l0.2-0.2l42.4-24.6
			c0.2-0.1,0.4-0.2,0.7-0.3l0.2-0.1l0.3-0.1l0.4-0.1H79h0.6h0.1h0.6h0.1l0.5,0.1h0.1c0.2,0,0.3,0.1,0.5,0.1h0.1
			c0.2,0.1,0.4,0.2,0.5,0.2l0,0c0.1,0.1,0.2,0.1,0.2,0.2l0.2,0.1c0.1,0.1,0.1,0.2,0.2,0.2l0.1,0.1c0,0,0,0.1,0,0.1
			c0.1,0.2,0.2,0.4,0.2,0.7c0-1.2,0-2.4,0-3.7V32.6L83.1,32.6z"/>
		<polygon class="st27" points="82.1,16.9 82,51.1 39.5,75.9 39.5,41.7 		"/>
		<g>
			<g>
				<defs>
					<path id="SVGID_24_" d="M127.2,41l-0.1,34.2c-0.1,0.6-0.4,1.1-1,1.4l0.1-34.2C126.7,42.1,127.1,41.6,127.2,41z"/>
				</defs>
				<clipPath id="SVGID_25_">
					<use xlink:href="#SVGID_24_"  style="overflow:visible;"/>
				</clipPath>
				<g class="st28">
					<g>
						<path class="st5" d="M127.2,41l-0.1,34.2l0,0L127.2,41L127.2,41"/>
						<path class="st6" d="M127.2,41l-0.1,34.2c0,0.1,0,0.1,0,0.2l0.1-34.2C127.2,41.1,127.2,41.1,127.2,41"/>
						<path class="st7" d="M127.1,41.2L127,75.4c0,0.1,0,0.1-0.1,0.2l0.1-34.2C127.1,41.4,127.1,41.3,127.1,41.2"/>
						<path class="st8" d="M127.1,41.4L127,75.6c0,0.1-0.1,0.1-0.1,0.2l0.1-34.2L127.1,41.4"/>
						<path class="st9" d="M127,41.6l-0.1,34.2c0,0.1-0.1,0.1-0.1,0.2l0.1-34.2L127,41.6"/>
						<path class="st10" d="M126.9,41.8L126.8,76l-0.2,0.2l0.1-34.2C126.7,42,126.8,41.9,126.9,41.8"/>
						<path class="st11" d="M126.7,42l-0.1,34.2c-0.1,0.1-0.3,0.2-0.4,0.3l0.1-34.2C126.4,42.2,126.5,42.1,126.7,42"/>
						<path class="st12" d="M126.2,42.4l-0.1,34.2l0,0L126.2,42.4L126.2,42.4"/>
					</g>
				</g>
			</g>
		</g>
		<g>
			<g>
				<defs>
					<path id="SVGID_26_" d="M33.7,74.5l0.1-34.2c0.1,0.6,0.4,1.1,1,1.4c1.5,0.8,3.3,0.8,4.7,0l-0.1,34.2c-1.5,0.8-3.3,0.8-4.7,0
						C34.2,75.6,33.8,75.1,33.7,74.5z"/>
				</defs>
				<clipPath id="SVGID_27_">
					<use xlink:href="#SVGID_26_"  style="overflow:visible;"/>
				</clipPath>
				<g class="st29">
					<g>
						<path class="st12" d="M39.5,41.7l-0.1,34.2c-0.2,0.1-0.5,0.2-0.7,0.3L38.8,42C39.1,41.9,39.3,41.8,39.5,41.7"/>
						<path class="st11" d="M38.8,42l-0.1,34.2c-0.2,0.1-0.4,0.1-0.6,0.2l0.1-34.2C38.4,42.1,38.6,42.1,38.8,42"/>
						<path class="st10" d="M38.2,42.2l-0.1,34.2c-0.1,0-0.3,0.1-0.4,0.1l0.1-34.2C37.9,42.2,38,42.2,38.2,42.2"/>
						<path class="st9" d="M37.8,42.2l-0.1,34.2h-0.4l0.1-34.2H37.8"/>
						<path class="st8" d="M37.4,42.3l-0.1,34.2H37V42.3H37.4"/>
						<path class="st7" d="M37,42.3v34.2h-0.3l0.1-34.2H37"/>
						<path class="st6" d="M36.7,42.2l-0.1,34.2h-0.3l0.1-34.2H36.7"/>
						<path class="st5" d="M36.4,42.2l-0.1,34.2L36,76.3l0.1-34.2L36.4,42.2"/>
						<path class="st30" d="M36,42.1l0,34.2l-0.3-0.1l0.1-34.2L36,42.1"/>
						<path class="st31" d="M35.7,42.1l-0.1,34.2l-0.4-0.1l0.1-34.2L35.7,42.1"/>
						<path class="st32" d="M35.3,41.9l-0.1,34.2c-0.2-0.1-0.3-0.1-0.5-0.2c-0.6-0.2-0.9-0.8-1-1.4l0.1-34.2c0.1,0.6,0.4,1.1,1,1.4
							C35,41.8,35.1,41.9,35.3,41.9"/>
					</g>
				</g>
			</g>
		</g>
		
			<linearGradient id="SVGID_28_" gradientUnits="userSpaceOnUse" x1="48.41" y1="63.2548" x2="97.8" y2="63.2548" gradientTransform="matrix(1 0 0 -1 0 115.8898)">
			<stop  offset="0" style="stop-color:#011F9E"/>
			<stop  offset="1" style="stop-color:#28A5E6"/>
		</linearGradient>
		<path class="st33" d="M97.6,23.4C97.6,23.4,97.6,23.3,97.6,23.4c-0.1-0.2-0.1-0.2-0.2-0.3L97.3,23c-0.1-0.1-0.2-0.2-0.4-0.2
			c0,0,0,0-0.1,0l0,0c-0.2-0.1-0.3-0.2-0.5-0.2l0,0h-0.1c-0.1,0-0.2-0.1-0.3-0.1h-0.2h-0.1h-0.1l-0.3-0.1H95h-0.1h-0.7h-0.4h-0.2
			h-0.3h-0.1l-0.3,0.1h-0.2h-0.1c-0.2,0.1-0.4,0.2-0.7,0.3l0,0L49.5,47.4l0,0c-0.1,0-0.1,0.1-0.2,0.1c-0.1,0.1-0.2,0.1-0.2,0.2l0,0
			c-0.1,0.1-0.1,0.1-0.2,0.2v0c0,0,0,0,0,0.1l-0.1,0.1c0,0.1-0.1,0.1-0.1,0.2l0,0l0,0c0,0,0,0.1,0,0.1c0,0.1,0,0.1,0,0.2l0,0
			L48.4,83c0-0.1,0-0.2,0-0.3l0,0c0-0.1,0.1-0.2,0.2-0.3v-0.1c0.1-0.1,0.2-0.2,0.3-0.3c0.1-0.1,0.1-0.1,0.2-0.2
			c0.1-0.1,0.1-0.1,0.2-0.2L92,56.9c0.2-0.1,0.4-0.2,0.7-0.3l0.2-0.1c0.1,0,0.2-0.1,0.3-0.1l0.4-0.1h0.1c0.2,0,0.4,0,0.6,0h0.1
			c0.2,0,0.4,0,0.6,0h0c0.2,0,0.4,0,0.5,0.1h0.1c0.2,0,0.3,0.1,0.5,0.2h0.1c0.2,0.1,0.3,0.1,0.5,0.2c0.1,0.1,0.3,0.2,0.4,0.3l0,0
			c0.1,0.1,0.1,0.1,0.2,0.2l0.1,0.1v0.1c0.1,0.2,0.2,0.4,0.2,0.7c0-1.2,0-2.4,0-3.7v-0.7c0-8.3,0.1-18,0.1-26.2v-3.5l0,0
			C97.7,23.8,97.7,23.6,97.6,23.4z"/>
		<polygon class="st27" points="96.8,25.4 96.7,59.6 54.1,84.4 54.2,50.2 		"/>
		<g>
			<g>
				<defs>
					<path id="SVGID_29_" d="M48.4,83l0.1-34.2c0.1,0.6,0.4,1.1,1,1.4c1.5,0.8,3.3,0.8,4.7,0l-0.1,34.2c-1.5,0.8-3.3,0.8-4.7,0
						C48.8,84.1,48.5,83.6,48.4,83z"/>
				</defs>
				<clipPath id="SVGID_30_">
					<use xlink:href="#SVGID_29_"  style="overflow:visible;"/>
				</clipPath>
				<g class="st34">
					<g>
						<path class="st12" d="M54.2,50.2l-0.1,34.2c-0.2,0.1-0.5,0.2-0.7,0.3l0.1-34.2C53.8,50.4,54,50.3,54.2,50.2"/>
						<path class="st11" d="M53.5,50.5l-0.1,34.2c-0.2,0.1-0.4,0.1-0.6,0.2l0.1-34.2C53.1,50.6,53.3,50.6,53.5,50.5"/>
						<path class="st10" d="M52.9,50.6l-0.1,34.2l-0.4,0.1l0.1-34.2C52.6,50.7,52.7,50.7,52.9,50.6"/>
						<path class="st9" d="M52.4,50.7l-0.1,34.2H52l0.1-34.2L52.4,50.7"/>
						<path class="st8" d="M52.1,50.7L52,84.9h-0.3l0.1-34.2H52.1"/>
						<path class="st7" d="M51.7,50.7l-0.1,34.2h-0.3l0.1-34.2H51.7"/>
						<path class="st6" d="M51.4,50.7l-0.1,34.2H51l0.1-34.2L51.4,50.7"/>
						<path class="st5" d="M51.1,50.7L51,84.9c-0.1,0-0.2,0-0.3-0.1l0.1-34.2C50.9,50.6,51,50.7,51.1,50.7"/>
						<path class="st30" d="M50.7,50.6l-0.1,34.2l-0.3-0.1l0.1-34.2L50.7,50.6"/>
						<path class="st31" d="M50.4,50.5l-0.1,34.2l-0.4-0.1L50,50.4L50.4,50.5"/>
						<path class="st32" d="M50,50.4l-0.1,34.2c-0.2-0.1-0.3-0.1-0.5-0.2c-0.6-0.2-0.9-0.8-1-1.4l0.1-34.2c0.1,0.6,0.4,1.1,1,1.4
							C49.7,50.3,49.8,50.3,50,50.4"/>
					</g>
				</g>
			</g>
		</g>
		
			<linearGradient id="SVGID_31_" gradientUnits="userSpaceOnUse" x1="48.5062" y1="77.7899" x2="97.7962" y2="77.7899" gradientTransform="matrix(1 0 0 -1 0 115.8898)">
			<stop  offset="0" style="stop-color:#002083"/>
			<stop  offset="1" style="stop-color:#0F51B9"/>
		</linearGradient>
		<path class="st35" d="M96.8,24.3c1.3,0.8,1.3,2,0,2.8L54.2,51.8c-1.5,0.8-3.3,0.8-4.7,0c-1.3-0.8-1.3-2,0-2.8l42.6-24.7
			C93.5,23.6,95.3,23.6,96.8,24.3z"/>
		
			<linearGradient id="SVGID_32_" gradientUnits="userSpaceOnUse" x1="63.09" y1="54.8767" x2="112.48" y2="54.8767" gradientTransform="matrix(1 0 0 -1 0 115.8898)">
			<stop  offset="0" style="stop-color:#011F9E"/>
			<stop  offset="1" style="stop-color:#28A5E6"/>
		</linearGradient>
		<path class="st36" d="M112.4,32.3c0-0.1,0-0.1,0-0.2c0-0.1-0.1-0.1-0.1-0.2c0-0.1-0.1-0.1-0.1-0.2c-0.1-0.1-0.1-0.2-0.2-0.2
			c0,0-0.1-0.1-0.1-0.1l-0.2-0.1l-0.2-0.2l0,0c-0.2-0.1-0.3-0.2-0.5-0.2l0,0h-0.1l-0.3-0.1h-0.2h-0.1h-0.1c-0.1,0-0.2,0-0.3-0.1
			h-0.1h-0.1h-0.1h-0.3c0,0-0.1,0-0.1,0h-0.1c0,0-0.1,0-0.1,0h-0.4h-0.1h-0.3H108l-0.3,0.1h-0.2h-0.1c-0.2,0.1-0.4,0.2-0.7,0.3
			L64.2,55.9l0,0c-0.1,0-0.1,0.1-0.2,0.1l-0.2,0.2l0,0c-0.1,0.1-0.1,0.1-0.2,0.2l0,0v0.1l-0.1,0.1l-0.1,0.2l0,0l0,0v0.1
			c0,0.1,0,0.1,0,0.2l0,0l0,0l-0.1,34.2l0,0c0-0.1,0-0.2,0.1-0.3l0,0c0-0.1,0.1-0.2,0.2-0.3v-0.1c0.1-0.1,0.2-0.2,0.3-0.3l0.2-0.2
			c0.1-0.1,0.1-0.1,0.2-0.1l42.6-24.8c0.2-0.1,0.4-0.2,0.7-0.3l0.2-0.1l0.3-0.1l0.4-0.1h0.1h0.6h0.1h0.6h0.1l0.5,0.1h0.1l0.5,0.1
			h0.1c0.2,0.1,0.3,0.1,0.5,0.2c0.1,0.1,0.3,0.2,0.4,0.3l0,0c0.1,0.1,0.1,0.1,0.2,0.2c0,0,0.1,0.1,0.1,0.1c0,0.1,0.1,0.1,0.1,0.2
			c0,0.1,0.1,0.1,0.1,0.2c0,0.1,0,0.1,0,0.2c0,0.1,0,0.1,0,0.2c0-1.2,0-2.4,0-3.7V49.4v-0.1V36.8v-4.2l0,0
			C112.4,32.5,112.5,32.4,112.4,32.3z"/>
		<polygon class="st27" points="111.5,33.9 111.4,68.1 68.8,92.8 68.9,58.6 		"/>
		<g>
			<g>
				<defs>
					<path id="SVGID_33_" d="M63.1,91.5l0.1-34.2c0.1,0.6,0.4,1.1,1,1.4c1.5,0.8,3.3,0.8,4.7,0l-0.1,34.2c-1.5,0.8-3.3,0.8-4.8,0
						C63.5,92.6,63.1,92.1,63.1,91.5z"/>
				</defs>
				<clipPath id="SVGID_34_">
					<use xlink:href="#SVGID_33_"  style="overflow:visible;"/>
				</clipPath>
				<g class="st37">
					<g>
						<path class="st12" d="M68.9,58.6l-0.1,34.2c-0.2,0.1-0.5,0.2-0.7,0.3L68.2,59C68.4,58.9,68.7,58.8,68.9,58.6"/>
						<path class="st11" d="M68.2,59l-0.1,34.2c-0.2,0.1-0.4,0.1-0.6,0.2l0.1-34.2C67.8,59.1,68,59.1,68.2,59"/>
						<path class="st10" d="M67.6,59.1l-0.1,34.2L67,93.4l0.1-34.2L67.6,59.1"/>
						<path class="st9" d="M67.1,59.2L67,93.4h-0.4l0.1-34.2H67.1"/>
						<path class="st8" d="M66.8,59.2l-0.1,34.2c-0.1,0-0.2,0-0.3,0l0.1-34.2L66.8,59.2"/>
						<path class="st7" d="M66.4,59.2l-0.1,34.2H66l0.1-34.2L66.4,59.2"/>
						<path class="st6" d="M66.1,59.2L66,93.4c-0.1,0-0.2,0-0.3,0l0.1-34.2L66.1,59.2"/>
						<path class="st5" d="M65.8,59.2l-0.1,34.2l-0.3-0.1l0.1-34.2L65.8,59.2"/>
						<path class="st30" d="M65.4,59.1l-0.1,34.2L65,93.2L65.1,59L65.4,59.1"/>
						<path class="st31" d="M65.1,59L65,93.2l-0.4-0.1l0.1-34.2L65.1,59"/>
						<path class="st32" d="M64.7,58.9l-0.1,34.2c-0.2-0.1-0.3-0.1-0.5-0.2c-0.6-0.2-0.9-0.8-1-1.4l0.1-34.2c0.1,0.6,0.4,1.1,1,1.4
							C64.3,58.7,64.5,58.8,64.7,58.9"/>
					</g>
				</g>
			</g>
		</g>
		
			<linearGradient id="SVGID_35_" gradientUnits="userSpaceOnUse" x1="77.98" y1="46.3498" x2="127.37" y2="46.3498" gradientTransform="matrix(1 0 0 -1 0 115.8898)">
			<stop  offset="0" style="stop-color:#011F9E"/>
			<stop  offset="1" style="stop-color:#28A5E6"/>
		</linearGradient>
		<path class="st38" d="M127.1,40.8c0-0.1,0-0.1,0-0.2c0-0.1-0.1-0.1-0.1-0.2c0-0.1,0-0.1-0.1-0.2c-0.1-0.1-0.1-0.2-0.2-0.2
			l-0.1-0.1c-0.1-0.1-0.3-0.2-0.4-0.3c-0.2-0.1-0.3-0.2-0.5-0.2l0,0h-0.1l-0.3-0.1h-0.2h-0.1H125l-0.3,0h-0.1h-0.2H124h-0.3h-0.4
			l0,0h-0.1h-0.3h-0.1l-0.3,0.1l-0.2,0h-0.1c-0.2,0.1-0.5,0.2-0.7,0.3L78.8,64.4l0,0l-0.2,0.1l-0.2,0.2l0,0
			c-0.1,0.1-0.1,0.1-0.2,0.2l0,0V65c0,0,0,0.1-0.1,0.1c0,0.1-0.1,0.1-0.1,0.2c0,0,1425.7,0.1,0,0.1c0,0,0,0.1,0,0.1
			c0,0.1,0,0.1,0,0.2l0,0l0,0L78,99.8l0,0c0-0.1,0-0.2,0.1-0.3l0,0c0-0.1,0.1-0.2,0.2-0.3l0,0c0.1-0.1,0.2-0.2,0.3-0.3l0.2-0.2
			l0.2-0.2l42.6-24.7c0.2-0.1,0.4-0.2,0.7-0.3l0.2-0.1l0.3-0.1l0.4-0.1h0.1c0.2,0,0.4,0,0.6,0h0.1c0.2,0,0.4,0,0.6,0h0.1
			c0.2,0,0.4,0.1,0.5,0.1h0.1c0.2,0,0.3,0.1,0.5,0.1h0.1c0.2,0.1,0.3,0.1,0.5,0.2l0.1,0.1c0.3,0.1,0.5,0.3,0.7,0.6
			c0,0.1,0.1,0.1,0.1,0.2c0,0.1,0.1,0.1,0.1,0.2c0,0.1,0,0.1,0,0.2c0,0.1,0,0.1,0,0.2c0-1.2,0-2.4,0-3.7V58.1V58V45.4V41l0,0
			C127.2,40.9,127.1,40.9,127.1,40.8z"/>
		<polygon class="st27" points="126.2,42.4 126.1,76.6 83.5,101.3 83.6,67.1 		"/>
		<g>
			<g>
				<defs>
					<path id="SVGID_36_" d="M77.8,99.9l0.1-34.2c0.1,0.6,0.4,1.1,1,1.4c1.5,0.8,3.3,0.8,4.8,0l-0.1,34.2c-1.5,0.8-3.3,0.8-4.8,0
						C78.2,101.1,77.8,100.5,77.8,99.9z"/>
				</defs>
				<clipPath id="SVGID_37_">
					<use xlink:href="#SVGID_36_"  style="overflow:visible;"/>
				</clipPath>
				<g class="st39">
					<g>
						<path class="st12" d="M83.6,67.1l-0.1,34.2c-0.2,0.1-0.5,0.2-0.7,0.3l0.1-34.2C83.1,67.4,83.4,67.3,83.6,67.1"/>
						<path class="st11" d="M82.9,67.4l-0.1,34.2c-0.2,0.1-0.4,0.1-0.6,0.2l0.1-34.2C82.5,67.6,82.7,67.5,82.9,67.4"/>
						<path class="st10" d="M82.2,67.6l-0.1,34.2c-0.1,0-0.3,0.1-0.4,0.1l0.1-34.2L82.2,67.6"/>
						<path class="st9" d="M81.8,67.7l-0.1,34.2c-0.1,0-0.2,0-0.4,0l0.1-34.2C81.6,67.7,81.7,67.7,81.8,67.7"/>
						<path class="st8" d="M81.4,67.7l-0.1,34.2H81l0.1-34.2H81.4"/>
						<path class="st7" d="M81.1,67.7L81,101.9h-0.3l0.1-34.2H81.1"/>
						<path class="st6" d="M80.8,67.7l-0.1,34.2h-0.3l0.1-34.2H80.8"/>
						<path class="st5" d="M80.4,67.6l-0.1,34.2l-0.3-0.1l0.1-34.2L80.4,67.6"/>
						<path class="st30" d="M80.1,67.6L80,101.8l-0.3-0.1l0.1-34.2C79.9,67.5,80,67.5,80.1,67.6"/>
						<path class="st31" d="M79.8,67.5l-0.1,34.2c-0.1,0-0.3-0.1-0.4-0.1l0.1-34.2L79.8,67.5"/>
						<path class="st32" d="M79.3,67.4l-0.1,34.2c-0.2-0.1-0.3-0.1-0.5-0.2c-0.6-0.2-0.9-0.8-1-1.4l0.1-34.2c0.1,0.6,0.4,1.1,1,1.4
							C79,67.2,79.2,67.3,79.3,67.4"/>
					</g>
				</g>
			</g>
		</g>
		
			<linearGradient id="SVGID_38_" gradientUnits="userSpaceOnUse" x1="33.8237" y1="86.2648" x2="83.11" y2="86.2648" gradientTransform="matrix(1 0 0 -1 0 115.8898)">
			<stop  offset="0" style="stop-color:#002083"/>
			<stop  offset="1" style="stop-color:#0F51B9"/>
		</linearGradient>
		<path class="st40" d="M82.1,15.9c1.3,0.8,1.3,2,0,2.8L39.5,43.4c-1.5,0.8-3.3,0.8-4.7,0c-1.3-0.8-1.3-2,0-2.8l42.6-24.7
			C78.9,15.1,80.6,15.1,82.1,15.9z"/>
		
			<linearGradient id="SVGID_39_" gradientUnits="userSpaceOnUse" x1="63.19" y1="69.3066" x2="112.4762" y2="69.3066" gradientTransform="matrix(1 0 0 -1 0 115.8898)">
			<stop  offset="0" style="stop-color:#002083"/>
			<stop  offset="1" style="stop-color:#0F51B9"/>
		</linearGradient>
		<path class="st41" d="M111.5,32.8c1.3,0.8,1.3,2,0,2.8L68.9,60.3c-1.5,0.8-3.3,0.8-4.7,0c-1.3-0.8-1.3-2,0-2.7l42.6-24.8
			C108.2,32.1,110,32.1,111.5,32.8z"/>
		
			<linearGradient id="SVGID_40_" gradientUnits="userSpaceOnUse" x1="77.8737" y1="60.8322" x2="127.16" y2="60.8322" gradientTransform="matrix(1 0 0 -1 0 115.8898)">
			<stop  offset="0" style="stop-color:#002083"/>
			<stop  offset="1" style="stop-color:#0F51B9"/>
		</linearGradient>
		<path class="st42" d="M126.2,41.3c1.3,0.8,1.3,2,0,2.8L83.6,68.8c-1.5,0.8-3.3,0.8-4.8,0c-1.3-0.8-1.3-2,0-2.8l42.6-24.7
			C122.9,40.6,124.7,40.6,126.2,41.3z"/>
		
			<linearGradient id="SVGID_41_" gradientUnits="userSpaceOnUse" x1="9.3507" y1="72.5703" x2="150.3207" y2="77.8003" gradientTransform="matrix(1 0 0 -1 0 115.8898)">
			<stop  offset="0" style="stop-color:#31E0E4"/>
			<stop  offset="1" style="stop-color:#0057C0"/>
		</linearGradient>
		<path class="st43" d="M145.5,30.9c6.8,4,6.9,10.3,0.1,14.3l-57,33.1c-6.8,4-17.8,4-24.7,0l-7.8-4.5L23.3,54.9l-7.9-4.5
			c-6.8-4-6.9-10.3-0.1-14.3L72.4,3c6.8-4,17.8-4,24.7,0L145.5,30.9z M39.5,41.7L82.1,17c1.3-0.8,1.3-2,0-2.7
			c-1.5-0.8-3.3-0.8-4.8,0L34.8,38.9c-1.3,0.8-1.3,2,0,2.8C36.3,42.5,38,42.5,39.5,41.7 M54.2,50.2l42.6-24.7c1.3-0.8,1.3-2,0-2.8
			c-1.5-0.8-3.3-0.8-4.8,0L49.5,47.4c-1.3,0.8-1.3,2,0,2.8C51,50.9,52.7,50.9,54.2,50.2 M68.9,58.6l42.6-24.7c1.3-0.8,1.3-2,0-2.8
			c-1.5-0.8-3.3-0.8-4.8,0L64.2,55.9c-1.3,0.8-1.3,2,0,2.7C65.6,59.4,67.4,59.4,68.9,58.6 M83.6,67.1l42.6-24.8c1.3-0.8,1.3-2,0-2.8
			c-1.5-0.8-3.3-0.8-4.8,0L78.8,64.4c-1.3,0.8-1.3,2,0,2.7C80.3,67.9,82.1,67.9,83.6,67.1"/>
		
			<linearGradient id="SVGID_42_" gradientUnits="userSpaceOnUse" x1="10.21" y1="39.3048" x2="150.68" y2="39.3048" gradientTransform="matrix(1 0 0 -1 0 115.8898)">
			<stop  offset="0" style="stop-color:#28A5E6"/>
			<stop  offset="1" style="stop-color:#011F9E"/>
		</linearGradient>
		<path class="st44" d="M150.6,38.6c0,0.2,0,0.4-0.1,0.5s-0.1,0.3-0.1,0.5c0,0.2-0.1,0.3-0.1,0.5l-0.2,0.4c-0.1,0.2-0.2,0.4-0.3,0.5
			s-0.1,0.3-0.2,0.4s-0.3,0.4-0.4,0.6l-0.5,0.6l-0.1,0.1c-0.2,0.3-0.5,0.5-0.7,0.7c-0.2,0.2-0.4,0.3-0.5,0.4s-0.3,0.3-0.5,0.4
			c-0.2,0.2-0.4,0.3-0.6,0.4c-0.2,0.2-0.4,0.3-0.7,0.4l-57,33.1c-0.5,0.3-1.1,0.6-1.6,0.8l-0.5,0.2c-0.4,0.2-0.9,0.4-1.4,0.5
			l-0.5,0.2l-0.9,0.2L83,80.5l-1,0.2l-0.7,0.1c-0.7,0.1-1.3,0.2-2,0.3c-0.2,0-0.4,0-0.6,0.1c-0.4,0-0.8,0.1-1.2,0.1h-0.8h-1H75
			l-0.9-0.1l-0.8-0.1c-0.3,0-0.6-0.1-0.9-0.1L71.7,81l-0.9-0.2l-0.7-0.2c-0.4-0.1-0.7-0.2-1.1-0.3l-0.6-0.2
			c-0.6-0.2-1.3-0.4-1.9-0.6l-0.9-0.4l-0.5-0.2c-0.4-0.2-0.9-0.4-1.3-0.7l-7.8-4.5L23.3,54.9l-7.9-4.5c-3.4-2-5.2-4.6-5.1-7.2
			l-0.1,34.2c0,2.6,1.7,5.2,5.2,7.2l7.9,4.5L56,108l7.9,4.5c0.4,0.2,0.8,0.5,1.3,0.7c0.1,0.1,0.3,0.1,0.4,0.2l0.8,0.3h0.1
			c0.6,0.2,1.2,0.4,1.9,0.6h0.2l0.4,0.1c0.4,0.1,0.7,0.2,1.1,0.3l0.3,0.1l0.4,0.1c0.3,0.1,0.6,0.1,0.9,0.2l0.4,0.1h0.4l0.9,0.1h0.4
			h0.4H75h0.4h1.3c0.2,0,0.3,0,0.5,0h0.3c0.4,0,0.8,0,1.2-0.1h0.5h0.2c0.7-0.1,1.3-0.2,2-0.3h0.1c0.2,0,0.4-0.1,0.6-0.1l1-0.2
			l0.7-0.2l0.9-0.2l0.2-0.1l0.3-0.1c0.5-0.2,0.9-0.3,1.4-0.5l0.5-0.2c0.6-0.3,1.1-0.5,1.7-0.8l57-33.1l0.2-0.1
			c0.2-0.1,0.3-0.2,0.4-0.3s0.4-0.3,0.6-0.4s0.3-0.2,0.5-0.4s0.4-0.3,0.5-0.4c0,0,0.1-0.1,0.1-0.1c0.2-0.2,0.4-0.4,0.6-0.6l0.1-0.1
			c0.1-0.1,0.2-0.3,0.3-0.4c0-0.1,0.1-0.1,0.1-0.2c0.1-0.2,0.3-0.4,0.4-0.6s0.1-0.2,0.2-0.2c0,0,0-0.1,0.1-0.1
			c0.1-0.2,0.2-0.4,0.3-0.6c0-0.1,0.1-0.2,0.1-0.3v-0.1c0.1-0.2,0.1-0.3,0.1-0.5s0.1-0.2,0.1-0.4s0-0.1,0-0.1c0-0.2,0-0.4,0.1-0.6
			c0-0.1,0-0.2,0-0.4s0-0.1,0-0.2l0.1-34.2C150.7,38.3,150.6,38.5,150.6,38.6z"/>
		
			<linearGradient id="SVGID_43_" gradientUnits="userSpaceOnUse" x1="13.3" y1="54.4912" x2="23.32" y2="54.4912" gradientTransform="matrix(1 0 0 -1 0 115.8898)">
			<stop  offset="0" style="stop-color:#31E0E4"/>
			<stop  offset="1" style="stop-color:#0057C0"/>
		</linearGradient>
		<path class="st45" d="M23.3,63.3l-0.8,0.5c-1.4,0.7-3,0.7-4.3,0l-4-2.3c-0.7-0.2-1.1-1-0.8-1.7c0.1-0.4,0.4-0.7,0.8-0.8l0.8-0.5
			l0.5,0.3L23.3,63.3z"/>
		
			<linearGradient id="SVGID_44_" gradientUnits="userSpaceOnUse" x1="13.19" y1="45.0048" x2="23.31" y2="45.0048" gradientTransform="matrix(1 0 0 -1 0 115.8898)">
			<stop  offset="0" style="stop-color:#148FCF"/>
			<stop  offset="1" style="stop-color:#025BC1"/>
		</linearGradient>
		<path class="st46" d="M22.5,63.8c-0.2,0.1-0.4,0.2-0.6,0.3l-0.2,0.1l-0.3,0.1L21,64.2h-0.1c-0.2,0-0.3,0-0.5,0h-0.1h-0.5h-0.1
			c-0.2,0-0.3-0.1-0.5-0.1h-0.1c-0.1,0-0.3-0.1-0.4-0.1h-0.1c-0.2-0.1-0.3-0.1-0.5-0.2l-4-2.3c-0.5-0.2-0.9-0.7-0.9-1.3l-0.1,17.4
			c0,0.6,0.4,1,0.9,1.3l4,2.3c0.1,0.1,0.3,0.2,0.4,0.2l0,0h0.1c0.1,0,0.2,0.1,0.3,0.1H19h0.1h0.1h0.3h0.1h0.1h0.1h0.6h0.3h0.1h0.3
			h0.1l0.3-0.1h0.2h0.1c0.2-0.1,0.4-0.2,0.6-0.3l0.8-0.5l0.1-17.4L22.5,63.8z"/>
		
			<linearGradient id="SVGID_45_" gradientUnits="userSpaceOnUse" x1="54.3699" y1="30.7962" x2="64.39" y2="30.7962" gradientTransform="matrix(1 0 0 -1 0 115.8898)">
			<stop  offset="0" style="stop-color:#31E0E4"/>
			<stop  offset="1" style="stop-color:#0057C0"/>
		</linearGradient>
		<path class="st47" d="M64.4,87l-0.8,0.5c-1.4,0.7-3,0.7-4.3,0l-4-2.3c-0.7-0.2-1.1-1-0.8-1.7c0.1-0.4,0.4-0.7,0.8-0.8l0.8-0.5
			l7.8,4.5L64.4,87z"/>
		
			<linearGradient id="SVGID_46_" gradientUnits="userSpaceOnUse" x1="54.26" y1="21.2329" x2="64.39" y2="21.2329" gradientTransform="matrix(1 0 0 -1 0 115.8898)">
			<stop  offset="0" style="stop-color:#0C75C8"/>
			<stop  offset="1" style="stop-color:#0A37AC"/>
		</linearGradient>
		<path class="st48" d="M63.6,87.5c-0.2,0.1-0.4,0.2-0.6,0.3l-0.2,0.1l-0.3,0.1L62.1,88H62c-0.2,0-0.3,0-0.5,0h-0.1
			c-0.2,0-0.3,0-0.5,0h-0.1l-0.5-0.1h-0.1c-0.1,0-0.3-0.1-0.4-0.1h-0.1c-0.2-0.1-0.3-0.1-0.5-0.2l-4-2.3c-0.5-0.2-0.8-0.7-0.9-1.3
			l-0.1,17.4c0.1,0.6,0.4,1,0.9,1.3l4,2.3c0.1,0.1,0.3,0.2,0.4,0.2l0,0h0.1c0.1,0,0.2,0.1,0.3,0.1h0.2h0.1h0.1l0.3,0.1h0.1h0.5
			c0,0,0.1,0,0.1,0h0.2h0.3H62h0.3h0.1l0.3-0.1h0.2h0.1c0.2-0.1,0.4-0.2,0.6-0.3l0.8-0.5L64.4,87L63.6,87.5z"/>
		<polygon class="st49" points="15,98 13.4,103.7 21.7,103.8 22.4,99.9 		"/>
		<polygon class="st50" points="36.9,25.8 21.9,33.9 33.7,37.4 44.5,31.8 		"/>
		<path class="st51" d="M25,39.6c-0.3-2.8,1.7-5.4,4.6-5.7c0.3,0,0.6,0,0.9,0c2.6,0.2,19,15.8,19,15.8l9.1,2l-10.1,8l-9.2-2.2
			L25,39.6z"/>
		<path class="st52" d="M41,23.2c-3.5,2-5.6,3.3-5.6,3.3s5.7,7,8.6,7.4C51.2,31.5,41,23.2,41,23.2z"/>
		<path class="st52" d="M71.2,23.1c-3.4-3.4-10.7-6.1-14.1-5.9c-7,0.4-9.6,2.3-16.1,6l8,24.4l23,1.7L71.2,23.1z"/>
		<path class="st53" d="M53.5,43.7c-3.2-1.2-4.9-2-6.3-2.6c-1.2-0.5-1.6,1.1,0.3,1.7C49.5,43.3,51.5,43.6,53.5,43.7z"/>
		<polygon class="st54" points="50.3,43.7 45,40.1 39.2,40.8 39.2,41.5 45.8,46.5 		"/>
		
			<linearGradient id="SVGID_47_" gradientUnits="userSpaceOnUse" x1="10.98" y1="40.0295" x2="72.81" y2="40.0295" gradientTransform="matrix(1 0 0 -1 0 115.8898)">
			<stop  offset="0" style="stop-color:#6736D9"/>
			<stop  offset="1" style="stop-color:#2F1179"/>
		</linearGradient>
		<path class="st55" d="M72.8,58.9c-0.5,6-3.3,9.7-7.3,9.7c-3.2,0-33.2,0.4-33.2,0.4s-7.1,25.8-8.6,31.7c0,0-10.6-1.5-12.7-4.2
			c0,0,9.3-33.9,12-36.7c1.6-1.6,20.8-6.7,33.2-8.5C64.4,50,72.8,58.9,72.8,58.9z"/>
		<path class="st56" d="M25,67.5c1.5,2.5,12.3-0.8,11.6-4.8s-10.9-2.1-10.9-2.1L25,67.5z"/>
		<polygon class="st49" points="29.2,68.3 28.2,60.2 35.8,61.2 36.7,66.9 		"/>
		<path class="st57" d="M25,67.5l-2.7-27.2c0,0,0.4-9,7.6-6.8c3.3,1,4.4,6.3,4.8,9.5s2,19.6,2,19.6S28.3,59.5,25,67.5z"/>
		<path class="st52" d="M75.5,49.4c-0.2,5.3-2.4,12.8-2.4,12.8S62.4,53,54,51.4s-4.8-5.8-4.8-5.8L75.5,49.4z"/>
		<path class="st58" d="M45.3,14.2c0,0-1.9-2.9-1.1-5.2c0.8-2.1,6-3.9,8.2-2.2c2.5,2.3,3.1,5.9,1.7,8.9
			C51.5,15.5,48.8,16.1,45.3,14.2z"/>
		<path class="st50" d="M54.4,13l2.3,4.7c0,0,0.1,4.8-3.4,5.9c-0.7,0.2-1.4-0.1-1.7-0.8c0,0,0-0.1,0-0.1l-1.3-5L54.4,13z"/>
		<ellipse transform="matrix(0.9421 -0.3355 0.3355 0.9421 -1.8973 17.458)" class="st59" cx="49.6" cy="14.2" rx="4.3" ry="6"/>
		<path class="st59" d="M53.7,13.2c0.2-1.7,1-2.1,1.4-1.9s1.1,2.2-0.9,3.9S53.7,13.2,53.7,13.2z"/>
		<path class="st58" d="M52.4,11.1c-0.8,1.9-5.8,3.5-7.8,1.7c-0.4-0.9-0.4-1.9,0.1-2.8c0.8-1.8,4.6-3.3,6.9-1.7
			C52.6,8.8,53,10,52.4,11.1C52.5,11,52.4,11.1,52.4,11.1z"/>
		<path class="st59" d="M42.8,42.5c-0.9-0.2-1.5,0.6-0.8,0.9c-0.9,0.2-0.3,1.3,0.1,1.4c-0.8,0.4,0.2,1.7,1.8,1.9
			c-0.9,0.9,2.3,1.5,3,1.6c1.4,0.3,27,5.5,28.9,4.5c2.6-1.4-0.5-16.6-0.5-16.6l-9.6,1l2.1,7.4C67.8,44.5,43.5,42.6,42.8,42.5z"/>
		<path class="st60" d="M66.1,39.5c0,0-2.8-8.7-2.7-12.5s5-6.2,7.8-3.9C74.2,27.2,76,32,76.4,37C76.4,37,70.6,39.7,66.1,39.5z"/>
		<path class="st59" d="M33.9,21.3c0,0-6.8,13.2-9,17.7c-1.8,3.7-10.5,0.2-7.1-5.1c0.8-1.2,9.3-13.5,9.3-13.5s4.9,0.8,5.4,0.4
			S34.2,20.1,33.9,21.3z"/>
		<path class="st61" d="M32.5,17.1c-1,0.6-2.2,0.9-3.3,0.9c-1.2,0.1-2.3-0.3-3.3-0.9v-2c1-0.6,2.2-0.9,3.3-0.9
			c1.2-0.1,2.3,0.3,3.3,0.9V17.1z"/>
		<ellipse class="st62" cx="29.1" cy="16.6" rx="3.9" ry="1.9"/>
		<path class="st63" d="M32.8,16.6l-1,9h-5.1c0,0-1.1-7.4-1.2-9C26.5,15.8,30.1,14.2,32.8,16.6z"/>
		<ellipse class="st61" cx="29.2" cy="25.6" rx="2.6" ry="0.9"/>
		<path class="st64" d="M33.6,78c-3.7-1.5-4.9-7.7-4.6-11c1.5-2.5,4.9-2.9,6.8-2.5s4.2,9.9,4.2,9.9L33.6,78z"/>
		<path class="st65" d="M33.1,64.9c2.7-0.5,5.7,2.2,5.7,4.8c0.1,2,0.8,4,2,5.6c0.5,0.6,0.5,2.5-0.3,2.9s-4.4,3-5.3,2.5
			s-6.4-7.1-5.9-9.8C29.9,67.1,30.7,65.3,33.1,64.9z"/>
		<path class="st66" d="M47.7,44.5L47.7,44.5c-1.9-0.2-3.9-0.5-5.7-1.1c-0.1,0-0.1-0.1-0.1-0.1c0,0,0,0,0,0c0-0.1,0.1-0.1,0.1-0.1
			c0,0,0,0,0,0c1.9,0.5,3.8,0.9,5.7,1.1c0.1,0,0.1,0,0.1,0.1c0,0,0,0,0,0C47.9,44.5,47.8,44.5,47.7,44.5
			C47.7,44.5,47.7,44.5,47.7,44.5z"/>
		<path class="st66" d="M47.9,46L47.9,46c-1.9-0.1-3.8-0.5-5.7-1c-0.1,0-0.1-0.1-0.1-0.1c0,0,0,0,0,0c0-0.1,0.1-0.1,0.2-0.1
			c1.8,0.5,3.7,0.9,5.7,1c0.1,0,0.1,0.1,0.1,0.1C48,46,47.9,46,47.9,46z"/>
		<path class="st66" d="M48,47.3L48,47.3c-1.4-0.1-2.7-0.3-4.1-0.6c-0.1,0-0.1-0.1-0.1-0.2c0-0.1,0.1-0.1,0.1-0.1
			c1.3,0.3,2.7,0.5,4.1,0.6c0.1,0,0.1,0.1,0.1,0.2C48.1,47.3,48.1,47.3,48,47.3L48,47.3z"/>
		<path class="st59" d="M27.6,17.4c-0.5,0.2-2.2,0.7-2.3,1.5s-0.1,4.3,0.4,5.1s2.3,0,2.8-0.1c1-0.3,0.8-1.4,0.2-1.5
			c0.4-0.4,0.5-1.7-0.3-1.7c0.7-0.2,0.6-1.7-0.2-1.7C28.7,18.6,28.4,17,27.6,17.4z"/>
		<path class="st66" d="M25.2,20.4C25.2,20.4,25.1,20.4,25.2,20.4c-0.1,0-0.1-0.1-0.1-0.2c0,0,0,0,0,0c0.8-0.7,1.8-1.1,2.9-1.3h0.2
			c0.1,0,0.1,0.1,0.1,0.1c0,0.1-0.1,0.1-0.1,0.1C27.1,19.3,26.1,19.7,25.2,20.4C25.3,20.4,25.2,20.4,25.2,20.4z"/>
		<path class="st66" d="M25.2,22.2C25.2,22.2,25.1,22.2,25.2,22.2c-0.1,0-0.1-0.1-0.1-0.2c0,0,0,0,0,0c0.7-0.7,2.3-1.6,3.3-1.5
			c0.1,0,0.1,0.1,0.1,0.1c0,0.1-0.1,0.1-0.1,0.1c0,0,0,0,0,0c-1.1,0.1-2.2,0.6-3,1.4C25.3,22.3,25.2,22.3,25.2,22.2z"/>
		<path class="st66" d="M25.5,23.6c0,0-0.1,0-0.1,0c0,0,0-0.1,0-0.2c0,0,0,0,0,0c0.9-0.7,2-1.1,3.2-1.1c0.1,0,0.1,0.1,0.1,0.1
			s-0.1,0.1-0.1,0.1c0,0,0,0,0,0C27.5,22.5,26.5,22.9,25.5,23.6L25.5,23.6z"/>
		<path class="st67" d="M13.4,102.5c0,0-12.2,3.7-13.4,6.1v1.2h22v-6.1L13.4,102.5z"/>
		<rect y="108.6" class="st52" width="22" height="1.2"/>
	</g>
</g>
</svg>
