<svg xmlns="http://www.w3.org/2000/svg" xmlns:xlink="http://www.w3.org/1999/xlink" viewBox="0 0 58.65 51.06"><defs><style>.cls-1{fill:url(#未命名的渐变_2);}.cls-2{stroke:#29abe2;stroke-miterlimit:10;stroke-width:0.24px;fill:url(#未命名的渐变_11);}.cls-3{fill:url(#未命名的渐变_2-2);}.cls-4{fill:url(#未命名的渐变_2-3);}.cls-5{fill:url(#未命名的渐变_2-4);}.cls-6{fill:url(#未命名的渐变_32);}</style><linearGradient id="未命名的渐变_2" x1="4359.14" y1="6.86" x2="4375.63" y2="6.86" gradientTransform="translate(-4319.81)" gradientUnits="userSpaceOnUse"><stop offset="0" stop-color="#0feef4"/><stop offset="1" stop-color="#69ffff"/></linearGradient><linearGradient id="未命名的渐变_11" x1="4358.66" y1="7.67" x2="4368.73" y2="7.67" gradientTransform="translate(-4319.81)" gradientUnits="userSpaceOnUse"><stop offset="0" stop-color="#8cc0fc"/><stop offset="1" stop-color="#4399fe"/></linearGradient><linearGradient id="未命名的渐变_2-2" x1="4349.49" y1="4.04" x2="4366.18" y2="4.04" xlink:href="#未命名的渐变_2"/><linearGradient id="未命名的渐变_2-3" x1="4319.81" y1="36.96" x2="4336.75" y2="36.96" xlink:href="#未命名的渐变_2"/><linearGradient id="未命名的渐变_2-4" x1="7.35" y1="14.78" x2="37.79" y2="14.78" gradientTransform="matrix(1, 0, 0, 1, 0, 0)" xlink:href="#未命名的渐变_2"/><linearGradient id="未命名的渐变_32" x1="34.12" y1="43.41" x2="34.12" y2="13.23" gradientUnits="userSpaceOnUse"><stop offset="0" stop-color="#b8fbff"/><stop offset="1" stop-color="#d8f9f9"/></linearGradient></defs><title>资源 13</title><g id="图层_2" data-name="图层 2"><g id="图层_3" data-name="图层 3"><path class="cls-1" d="M46.24,4.06l9.58,5.57c-1.76-1-4.2-.88-6.9.68L39.34,4.74C42,3.18,44.47,3,46.24,4.06Z"/><polygon class="cls-2" points="48.44 10.59 38.85 5.02 39.34 4.74 48.92 10.31 48.44 10.59"/><path class="cls-3" d="M36.78.48l9.59,5.57c-1.29-.75-3.07-.64-5,.49a11.69,11.69,0,0,0-2,1.54L29.69,2.51a11.69,11.69,0,0,1,2-1.54C33.71-.16,35.5-.27,36.78.48Z"/><path class="cls-4" d="M12.41,50.4,2.83,44.83C1.09,43.82,0,41.67,0,38.61c0-5.24,3.12-11.44,7.36-15.09l9.58,5.57c-4.23,3.65-7.37,9.85-7.35,15.09C9.59,47.24,10.67,49.39,12.41,50.4Z"/><path class="cls-5" d="M28.2,1.28C26,0,22.91.18,19.52,2.13,12.78,6,7.33,15.46,7.35,23.21c0,.11,0,.21,0,.31l9.58,5.57c0-.1,0-.2,0-.31C16.91,21,22.36,11.6,29.1,7.7c3.39-1.95,6.47-2.14,8.69-.85Z"/><path class="cls-6" d="M29.1,7.7c4.23-2.44,8-2.12,10.17.38a11.69,11.69,0,0,1,2-1.54c3.92-2.26,7.1-.45,7.11,4.05l.49-.28c5.36-3.09,9.71-.61,9.73,5.55S54.34,29.5,49,32.6L19.31,49.73c-5.35,3.09-9.71.61-9.72-5.55,0-5.24,3.12-11.44,7.35-15.09,0-.1,0-.2,0-.31C16.91,21,22.36,11.6,29.1,7.7Z"/></g></g></svg>