<svg xmlns="http://www.w3.org/2000/svg" xmlns:xlink="http://www.w3.org/1999/xlink" viewBox="0 0 56.68 113.91"><defs><style>.cls-1{fill:#efd0bb;}.cls-2{fill:url(#未命名的渐变_130);}.cls-3{fill:#ffe5cf;}.cls-4{fill:url(#未命名的渐变_130-2);}.cls-5{fill:#373f49;}.cls-6{fill:#bca095;}.cls-7{fill:url(#未命名的渐变_130-3);}</style><linearGradient id="未命名的渐变_130" x1="27" y1="107.89" x2="46.87" y2="107.89" gradientUnits="userSpaceOnUse"><stop offset="0" stop-color="#6736d9"/><stop offset="1" stop-color="#a06ffd"/></linearGradient><linearGradient id="未命名的渐变_130-2" x1="20.46" y1="47.82" x2="56.68" y2="47.82" xlink:href="#未命名的渐变_130"/><linearGradient id="未命名的渐变_130-3" x1="20.46" y1="109.89" x2="40.33" y2="109.89" xlink:href="#未命名的渐变_130"/></defs><title>资源 14</title><g id="图层_2" data-name="图层 2"><g id="图层_3" data-name="图层 3"><polygon class="cls-1" points="46.87 107.11 37.28 107.11 35.97 75.29 46.87 75.29 46.87 107.11"/><path class="cls-2" d="M37.14,103.87s-9,3.24-9.67,5.64-.44,2.4-.44,2.4H46.87v-8Z"/><polygon class="cls-3" points="40.33 109.11 30.74 109.11 29.43 77.29 40.33 77.29 40.33 109.11"/><path class="cls-1" d="M34.88,31.47,30.52,39.1s-4.56-7.84-7.63-12a7.3,7.3,0,0,0-2.62-2.39c-.68-.12-.43-1.31.22-1.09a9.13,9.13,0,0,1,1.09.43,6.56,6.56,0,0,0-1.74-2c-.87-.43-.22-1.52.43-1.09,0,0-.33-.38.22-.65s.87.22.87.22-.43-.44.22-.66a1,1,0,0,1,.87.22s-.21-.39.22-.44C24.63,19.53,34.88,31.47,34.88,31.47Z"/><ellipse class="cls-3" cx="31.61" cy="7.49" rx="4.36" ry="5.45"/><path class="cls-4" d="M39.24,15.12l4.84,17.32s12.6,40.94,12.6,44.09-36.22,6.3-36.22,1.58,7.88-45.67,7.88-45.67l2.18-17.32Z"/><path class="cls-3" d="M34.88,19.48,18.53,30.38S7.63,19.09,5.45,19.48c-4.29.77-5.45-1.09-5.45,0s3.27,2.18,3.27,2.18-1.09,3.27,0,3.27S16.62,38.38,17.44,39.1C19,40.45,38.15,28.2,38.15,28.2Z"/><path class="cls-5" d="M38.58,2.09c1.53,1.09,3.05,3.5,3.93,6.49.59,2.06,7.62,3.27,5.45,9.81,2.17,1.09,9.8,4.36,4.35,10.9-8.65,9.81-21.79,6.54-17.43-1.09-6.54-2.18-4.36-7.63-3.27-9.81-3.27-2.18-1.09-8.72-2.18-10.9-.69-1.38-1.09-1.09-2.18-1.08C27.25-.14,34.44-1.84,38.58,2.09Z"/><path class="cls-6" d="M22.24,23.12a.1.1,0,0,1-.09,0,12.75,12.75,0,0,0-1.95-1.94.12.12,0,0,1,0-.16.11.11,0,0,1,.15,0,12,12,0,0,1,2,2,.1.1,0,0,1,0,.15A.07.07,0,0,1,22.24,23.12Z"/><path class="cls-6" d="M23.22,22.58a.18.18,0,0,1-.09,0,14.85,14.85,0,0,0-1.94-1.94.11.11,0,0,1,0-.15.11.11,0,0,1,.16,0,14.93,14.93,0,0,1,2,2,.11.11,0,0,1,0,.15A.11.11,0,0,1,23.22,22.58Z"/><path class="cls-6" d="M24.31,21.92a.11.11,0,0,1-.09,0,7.61,7.61,0,0,0-1.82-1.61.1.1,0,0,1,0-.14.11.11,0,0,1,.15-.05,7.27,7.27,0,0,1,1.88,1.67.11.11,0,0,1,0,.15A.11.11,0,0,1,24.31,21.92Z"/><path class="cls-7" d="M30.6,105.87s-9,3.24-9.67,5.64-.44,2.4-.44,2.4H40.33v-8Z"/></g></g></svg>