<svg xmlns="http://www.w3.org/2000/svg" xmlns:xlink="http://www.w3.org/1999/xlink" viewBox="0 0 40 157.11"><defs><style>.cls-1{fill:url(#未命名的渐变_130);}.cls-2{fill:url(#未命名的渐变_70);}.cls-3{fill:#ffe5cf;}.cls-4{fill:#373f49;}.cls-5{fill:url(#未命名的渐变_130-2);}.cls-6{fill:url(#未命名的渐变_75);}.cls-7{fill:url(#未命名的渐变_98);}</style><linearGradient id="未命名的渐变_130" x1="34.41" y1="150" x2="34.41" y2="142.3" gradientUnits="userSpaceOnUse"><stop offset="0" stop-color="#6736d9"/><stop offset="1" stop-color="#a06ffd"/></linearGradient><linearGradient id="未命名的渐变_70" x1="-16.77" y1="88.38" x2="49.46" y2="114.71" gradientUnits="userSpaceOnUse"><stop offset="0" stop-color="#9fa1c2"/><stop offset="1" stop-color="#e6e8f7"/></linearGradient><linearGradient id="未命名的渐变_130-2" x1="17.66" y1="157.11" x2="17.66" y2="150.58" xlink:href="#未命名的渐变_130"/><linearGradient id="未命名的渐变_75" x1="10.37" y1="115.21" x2="65.24" y2="122.41" gradientUnits="userSpaceOnUse"><stop offset="0" stop-color="#e6e8f7"/><stop offset="1" stop-color="#b1b4d9"/></linearGradient><linearGradient id="未命名的渐变_98" x1="19.15" y1="84.45" x2="19.15" y2="32.54" gradientUnits="userSpaceOnUse"><stop offset="0" stop-color="#00e2f2"/><stop offset="1" stop-color="#00f2d0"/></linearGradient></defs><title>资源 92</title><g id="图层_2" data-name="图层 2"><g id="图层_3" data-name="图层 3"><path class="cls-1" d="M29.08,146c0,1-1,4,1,4S40,144,40,143s-5-1-7,0A18.61,18.61,0,0,0,29.08,146Z"/><path class="cls-2" d="M20.14,88.43l7.94,20.85-1,36.74s6,3,10.92-1l2-38.73L32.06,67.57l-13.91,7Z"/><polygon class="cls-3" points="9.21 35.8 10.21 48.7 16.17 42.75 15.17 31.82 9.21 35.8"/><ellipse class="cls-4" cx="10.65" cy="31.51" rx="5.54" ry="6.45" transform="translate(-9.53 5.07) rotate(-18.67)"/><path class="cls-5" d="M12.19,155c0,3,5,2,6,2s5-4,5-5-2-2-5-1A18.75,18.75,0,0,0,12.19,155Z"/><path class="cls-6" d="M24.11,76.51l-3,79.44s-7.94,2-9.93-2c-1-17.88-2-72.35-2-72.35Z"/><path class="cls-3" d="M24.11,36.79s6-28.8,6-33.77,2-3,2,0V6s5,0,5,2-6,38.73-6,38.73Z"/><path class="cls-3" d="M1.27,60.62s-2,36.74-1,38.73,5,7,6,6,0-3-1-5,0-2,1-1,2,1,1-1c-1.4-2.81-1-2-1-5s3-26.81,3-26.81Z"/><path class="cls-7" d="M10.21,40.76c-5,5-7,7.94-8,11.92a37.27,37.27,0,0,0-1,7.94l7,9.93,1,13.9s19.86-2,27.8-12.91l-6-11.91L32,41.12l-7-8.58s-10.8,5.24-11.79,6.23A14.25,14.25,0,0,1,10.21,40.76Z"/></g></g></svg>