<svg xmlns="http://www.w3.org/2000/svg" xmlns:xlink="http://www.w3.org/1999/xlink" viewBox="0 0 154.96 232.58"><defs><style>.cls-1{isolation:isolate;}.cls-2,.cls-3,.cls-4,.cls-5,.cls-6,.cls-7,.cls-8{opacity:0.5;}.cls-2,.cls-3,.cls-4,.cls-5,.cls-6,.cls-7{mix-blend-mode:screen;}.cls-2{fill:url(#未命名的渐变_4);}.cls-3{fill:url(#未命名的渐变_79);}.cls-4{fill:url(#未命名的渐变_79-2);}.cls-5{fill:url(#未命名的渐变_79-3);}.cls-6{fill:url(#未命名的渐变_79-4);}.cls-7{fill:url(#未命名的渐变_79-5);}.cls-8,.cls-9{fill:none;stroke-linecap:round;stroke-miterlimit:10;stroke-width:2.09px;}.cls-8{stroke:#1c3d7f;}.cls-9{stroke:#47faff;}</style><linearGradient id="未命名的渐变_4" x1="0.98" y1="71.13" x2="154.96" y2="71.13" gradientUnits="userSpaceOnUse"><stop offset="0" stop-color="#0867eb"/><stop offset="1" stop-color="#04b5fb"/></linearGradient><linearGradient id="未命名的渐变_79" y1="173.32" x2="50.71" y2="173.32" gradientUnits="userSpaceOnUse"><stop offset="0" stop-color="#04b5fb"/><stop offset="1" stop-color="#0867eb"/></linearGradient><linearGradient id="未命名的渐变_79-2" x1="6.1" y1="164.37" x2="25.62" y2="164.37" xlink:href="#未命名的渐变_79"/><linearGradient id="未命名的渐变_79-3" x1="30.5" y1="181.8" x2="40.26" y2="181.8" xlink:href="#未命名的渐变_79"/><linearGradient id="未命名的渐变_79-4" x1="9.76" y1="199.21" x2="40.26" y2="199.21" xlink:href="#未命名的渐变_79"/><linearGradient id="未命名的渐变_79-5" x1="18.3" y1="190.62" x2="40.26" y2="190.62" xlink:href="#未命名的渐变_79"/></defs><title>资源 7</title><g class="cls-1"><g id="图层_2" data-name="图层 2"><g id="图层_3" data-name="图层 3"><path class="cls-2" d="M155,0C86.63,8.33,40.26,43.71,24.4,64.46c-17.62,23-34.09,50.12-14.66,77.8C15.86,95,97.61,59.57,155,55.32Z"/><path class="cls-3" d="M50.71,174.9c-.58-.27-1.18-.53-1.76-.81l-.64-.31c-1.42-.69-2.83-1.39-4.21-2.12l-.42-.23c-1.45-.77-2.89-1.56-4.29-2.37C13.19,153.88.11,134,.16,114.05L0,171.66c-.06,19.91,13,39.83,39.23,55q2.1,1.22,4.28,2.37l.43.23c1.38.73,2.79,1.43,4.21,2.12l.64.31c.63.3,1.28.59,1.92.88Z"/><path class="cls-4" d="M24.76,171.23A77.58,77.58,0,0,1,9,154.1,1.56,1.56,0,0,0,6.1,155h0a1.53,1.53,0,0,0,.19.76,70.94,70.94,0,0,0,15.48,19.05A2.32,2.32,0,0,0,25.62,173h0A2.31,2.31,0,0,0,24.76,171.23Z"/><path class="cls-5" d="M30.5,180.32h0a2.57,2.57,0,0,0,1.15,2.14c1.37.91,3.13,2,4.7,3a2.56,2.56,0,0,0,3.91-2.18v-.09A2.56,2.56,0,0,0,39,181c-1.13-.69-2.89-1.76-4.6-2.84A2.56,2.56,0,0,0,30.5,180.32Z"/><path class="cls-6" d="M9.76,187.73h0a2,2,0,0,0,.23.92c4.83,8.68,19.22,18.86,26.28,23.5a2.58,2.58,0,0,0,4-2.16h0a2.59,2.59,0,0,0-1.15-2.15c-4.1-2.69-18.12-12.25-26-21.33A1.88,1.88,0,0,0,9.76,187.73Z"/><path class="cls-7" d="M18.3,184h0a2.18,2.18,0,0,0,.64,1.57c5.19,5.19,13.3,10.66,17.88,13.58a2.24,2.24,0,0,0,3.44-1.9v-.81a2.23,2.23,0,0,0-1.07-1.91A145.91,145.91,0,0,1,22,182.29,2.25,2.25,0,0,0,18.3,184Z"/><path class="cls-8" d="M19.67,96.28s9.61,3.56,13.87-2.21c2.14-2.89,6.34-19.58,11.6-22.29s16.16,5,20.75,1.22c7.32-6.1,9.76-20.75,13.32-29.53,6.85-16.9,39.14,6.34,39.14,6.34"/><path class="cls-9" d="M20.9,98.72s9.6,3.56,13.86-2.21c2.14-2.89,6.34-19.58,11.61-22.29s16.15,5,20.74,1.22c7.32-6.1,9.76-20.75,13.32-29.53,6.85-16.9,39.14,6.34,39.14,6.34"/></g></g></g></svg>