<svg xmlns="http://www.w3.org/2000/svg" xmlns:xlink="http://www.w3.org/1999/xlink" viewBox="0 0 356.27 137.35"><defs><style>.cls-1{opacity:0.5;}.cls-2{fill:url(#linear-gradient);}.cls-3{fill:url(#linear-gradient-2);}.cls-4{fill:url(#linear-gradient-3);}.cls-5{fill:url(#未命名的渐变_2);}</style><linearGradient id="linear-gradient" y1="56" x2="193.03" y2="56" gradientUnits="userSpaceOnUse"><stop offset="0" stop-color="#4c82ff"/><stop offset="1" stop-color="#2af9de"/></linearGradient><linearGradient id="linear-gradient-2" x1="186.97" y1="51.48" x2="190.68" y2="51.48" xlink:href="#linear-gradient"/><linearGradient id="linear-gradient-3" x1="215.01" y1="96.24" x2="356.27" y2="96.24" xlink:href="#linear-gradient"/><linearGradient id="未命名的渐变_2" x1="268.06" y1="129.94" x2="274.67" y2="129.94" gradientUnits="userSpaceOnUse"><stop offset="0" stop-color="#0feef4"/><stop offset="1" stop-color="#69ffff"/></linearGradient></defs><title>资源 43</title><g id="图层_2" data-name="图层 2"><g id="图层_3" data-name="图层 3"><g class="cls-1"><path class="cls-2" d="M96.83,112a12.67,12.67,0,0,1-6.21-1.48L2.67,59.74C1,58.75,0,57.42,0,56s.93-2.75,2.62-3.73L90,1.48a13.75,13.75,0,0,1,12.41,0l88,50.78c1.72,1,2.67,2.32,2.67,3.75s-.93,2.75-2.63,3.73L103,110.52A12.57,12.57,0,0,1,96.83,112ZM96.2.5a12,12,0,0,0-5.94,1.43L2.88,52.71C1.36,53.59.51,54.76.52,56s.85,2.41,2.4,3.3l88,50.78a12.05,12.05,0,0,0,6,1.43,11.88,11.88,0,0,0,5.93-1.43L190.14,59.3c1.53-.89,2.37-2.06,2.37-3.29s-.86-2.41-2.41-3.31L102.15,1.93A12,12,0,0,0,96.2.5Z"/><path class="cls-3" d="M190.13,50.72a.8.8,0,0,1,0,1.52,2.9,2.9,0,0,1-2.63,0,.8.8,0,0,1,0-1.52A2.88,2.88,0,0,1,190.13,50.72Z"/></g><g class="cls-1"><path class="cls-4" d="M285.87,137.35a9.4,9.4,0,0,1-4.66-1.13l-64.12-37a3.15,3.15,0,0,1,0-5.92l63.7-37a10.25,10.25,0,0,1,9.32,0l64.11,37a3.15,3.15,0,0,1,0,5.92l-63.7,37A9.36,9.36,0,0,1,285.87,137.35Zm-.46-81.3a8.43,8.43,0,0,0-4.19,1l-63.7,37a2.69,2.69,0,0,0-1.59,2.16,2.72,2.72,0,0,0,1.62,2.18l64.11,37a8.54,8.54,0,0,0,4.21,1h0a8.54,8.54,0,0,0,4.19-1l63.7-37a2.67,2.67,0,0,0,1.59-2.16,2.73,2.73,0,0,0-1.62-2.18l-64.11-37A8.54,8.54,0,0,0,285.41,56.05Z"/><path class="cls-5" d="M273.69,128.59c1.3.75,1.3,2,0,2.71a5.19,5.19,0,0,1-4.67,0c-1.29-.75-1.3-2,0-2.71A5.19,5.19,0,0,1,273.69,128.59Z"/></g></g></g></svg>