<svg xmlns="http://www.w3.org/2000/svg" xmlns:xlink="http://www.w3.org/1999/xlink" viewBox="0 0 587.25 154.79"><defs><style>.cls-1{opacity:0.1;}.cls-2{fill:url(#linear-gradient);}.cls-3{fill:url(#未命名的渐变_2);}.cls-4{fill:url(#linear-gradient-2);}.cls-5{fill:url(#linear-gradient-3);}.cls-6{opacity:0.2;}.cls-7{fill:url(#linear-gradient-4);}.cls-8{fill:url(#未命名的渐变_2-2);}.cls-9{fill:url(#linear-gradient-5);}.cls-10{fill:url(#未命名的渐变_2-3);}</style><linearGradient id="linear-gradient" x1="120.64" y1="101.2" x2="304.97" y2="101.2" gradientUnits="userSpaceOnUse"><stop offset="0" stop-color="#4c82ff"/><stop offset="1" stop-color="#2af9de"/></linearGradient><linearGradient id="未命名的渐变_2" x1="280.88" y1="87.82" x2="287.49" y2="87.82" gradientUnits="userSpaceOnUse"><stop offset="0" stop-color="#0feef4"/><stop offset="1" stop-color="#69ffff"/></linearGradient><linearGradient id="linear-gradient-2" x1="457.99" y1="73.36" x2="587.25" y2="73.36" xlink:href="#linear-gradient"/><linearGradient id="linear-gradient-3" x1="583.19" y1="70.34" x2="585.67" y2="70.34" xlink:href="#linear-gradient"/><linearGradient id="linear-gradient-4" x1="0" y1="114.87" x2="88.92" y2="114.87" xlink:href="#linear-gradient"/><linearGradient id="未命名的渐变_2-2" x1="33.4" y1="136.09" x2="37.55" y2="136.09" xlink:href="#未命名的渐变_2"/><linearGradient id="linear-gradient-5" x1="472" y1="25.87" x2="560.92" y2="25.87" xlink:href="#linear-gradient"/><linearGradient id="未命名的渐变_2-3" x1="505.4" y1="47.09" x2="509.55" y2="47.09" xlink:href="#未命名的渐变_2"/></defs><title>资源 44</title><g id="图层_2" data-name="图层 2"><g id="图层_3" data-name="图层 3"><g class="cls-1"><path class="cls-2" d="M213.11,154.79a12.26,12.26,0,0,1-6-1.46L123.29,105c-1.7-1-2.64-2.32-2.65-3.76a4.49,4.49,0,0,1,2.61-3.73L206.5,49.08a13.12,13.12,0,0,1,12,0l83.8,48.37c1.7,1,2.64,2.32,2.64,3.76a4.47,4.47,0,0,1-2.61,3.74l-83.24,48.38A12.15,12.15,0,0,1,213.11,154.79Zm-.6-106.24A11.28,11.28,0,0,0,207,49.87L123.71,98.25a3.69,3.69,0,0,0-2.15,2.94c0,1.1.78,2.15,2.19,3l83.79,48.38a12.37,12.37,0,0,0,11.12,0l83.24-48.38a3.1,3.1,0,0,0,0-5.91l-83.8-48.38A11.32,11.32,0,0,0,212.51,48.55Z"/><path class="cls-3" d="M286.51,86.47c1.3.75,1.3,2,0,2.7a5.13,5.13,0,0,1-4.67,0c-1.29-.74-1.3-2,0-2.7A5.13,5.13,0,0,1,286.51,86.47Z"/></g><g class="cls-1"><path class="cls-4" d="M522.83,110.86a8.42,8.42,0,0,1-4.16-1l-58.9-34A3,3,0,0,1,458,73.36a3,3,0,0,1,1.76-2.5l58.51-34a9.21,9.21,0,0,1,8.31,0l58.89,34a2.66,2.66,0,0,1,0,5l-58.51,34A8.41,8.41,0,0,1,522.83,110.86Zm-.42-74.67a8.16,8.16,0,0,0-4,1l-58.51,34a2.69,2.69,0,0,0-1.59,2.19A2.73,2.73,0,0,0,460,75.57l58.89,34a8.09,8.09,0,0,0,4,1,8,8,0,0,0,4-1l58.52-34a2.32,2.32,0,0,0,0-4.41l-58.9-34A8.05,8.05,0,0,0,522.41,36.19Z"/><path class="cls-5" d="M585.31,69.83c.48.28.49.73,0,1a1.93,1.93,0,0,1-1.75,0c-.49-.28-.49-.73,0-1A2,2,0,0,1,585.31,69.83Z"/></g><g class="cls-6"><path class="cls-7" d="M44.6,140.75a5.91,5.91,0,0,1-2.93-.71L1.31,116.74a2,2,0,0,1,0-3.73l40.1-23.3a6.4,6.4,0,0,1,5.86,0L87.61,113a2,2,0,0,1,0,3.73L47.53,140A5.86,5.86,0,0,1,44.6,140.75Zm-.28-51.17a5.31,5.31,0,0,0-2.64.63l-40.1,23.3a1.69,1.69,0,0,0-1,1.36,1.71,1.71,0,0,0,1,1.37L42,139.54a5.31,5.31,0,0,0,2.64.63h0a5.28,5.28,0,0,0,2.63-.63l40.1-23.3a1.69,1.69,0,0,0,1-1.36,1.71,1.71,0,0,0-1-1.37L47,90.21A5.31,5.31,0,0,0,44.32,89.58Z"/><path class="cls-8" d="M36.94,135.24a.9.9,0,0,1,0,1.7,3.24,3.24,0,0,1-2.94,0,.9.9,0,0,1,0-1.7A3.24,3.24,0,0,1,36.94,135.24Z"/></g><g class="cls-6"><path class="cls-9" d="M516.6,51.75a5.91,5.91,0,0,1-2.93-.71l-40.36-23.3A2.28,2.28,0,0,1,472,25.87,2.26,2.26,0,0,1,473.29,24L513.39.71a6.4,6.4,0,0,1,5.86,0L559.61,24a2.28,2.28,0,0,1,1.31,1.87,2.27,2.27,0,0,1-1.29,1.86L519.53,51A5.86,5.86,0,0,1,516.6,51.75ZM516.32.58a5.31,5.31,0,0,0-2.64.63l-40.1,23.3a1.69,1.69,0,0,0-1,1.36,1.71,1.71,0,0,0,1,1.37L514,50.54a5.31,5.31,0,0,0,2.64.63h0a5.28,5.28,0,0,0,2.63-.63l40.1-23.3a1.69,1.69,0,0,0,1-1.36,1.71,1.71,0,0,0-1-1.37L519,1.21A5.31,5.31,0,0,0,516.32.58Z"/><path class="cls-10" d="M508.94,46.24a.9.9,0,0,1,0,1.7,3.24,3.24,0,0,1-2.94,0,.9.9,0,0,1,0-1.7A3.24,3.24,0,0,1,508.94,46.24Z"/></g></g></g></svg>