<svg xmlns="http://www.w3.org/2000/svg" xmlns:xlink="http://www.w3.org/1999/xlink" viewBox="0 0 112.52 191.96"><defs><style>.cls-1{fill:url(#未命名的渐变_3);}.cls-2{fill:url(#未命名的渐变_92);}.cls-3{opacity:0.2;}.cls-4,.cls-6{fill:#aefffb;}.cls-5,.cls-6{opacity:0.1;}.cls-7{fill:url(#未命名的渐变_92-2);}</style><linearGradient id="未命名的渐变_3" x1="0.36" y1="32.48" x2="112.52" y2="32.48" gradientUnits="userSpaceOnUse"><stop offset="0" stop-color="#31e0e4"/><stop offset="1" stop-color="#0057c0"/></linearGradient><linearGradient id="未命名的渐变_92" x1="57.57" y1="65.99" x2="113.29" y2="162.04" gradientUnits="userSpaceOnUse"><stop offset="0" stop-color="#31e0e4"/><stop offset="1" stop-color="#0057c0" stop-opacity="0"/></linearGradient><linearGradient id="未命名的渐变_92-2" x1="47.48" y1="61.49" x2="7.16" y2="168.21" xlink:href="#未命名的渐变_92"/></defs><title>资源 46</title><g id="图层_2" data-name="图层 2"><g id="图层_3" data-name="图层 3"><polygon class="cls-1" points="112.52 32.48 56.62 64.97 0.36 32.48 56.26 0 112.52 32.48"/><polygon class="cls-2" points="112.52 32.48 112.16 159.48 56.26 191.96 56.62 64.97 112.52 32.48"/><g class="cls-3"><polygon class="cls-4" points="105.76 50.36 105.5 58.47 65.25 81.86 65.51 73.75 105.76 50.36"/></g><g class="cls-5"><polygon class="cls-4" points="105.76 64.8 105.5 72.92 65.25 96.31 65.51 88.19 105.76 64.8"/></g><polygon class="cls-6" points="88.58 90.34 65.51 103.75 65.25 129.64 88.58 116.08 88.58 90.34"/><polygon class="cls-7" points="56.62 64.97 56.26 191.96 0 159.48 0.36 32.48 56.62 64.97"/><polygon class="cls-6" points="88.58 123.67 88.58 131.64 105.5 121.81 105.76 113.69 88.58 123.67"/><polygon class="cls-6" points="88.58 135.9 88.58 143.86 105.5 134.03 105.76 125.91 88.58 135.9"/></g></g></svg>