<svg xmlns="http://www.w3.org/2000/svg" xmlns:xlink="http://www.w3.org/1999/xlink" viewBox="0 0 76.09 129.92"><defs><style>.cls-1{fill:#efd0bb;}.cls-2{fill:url(#未命名的渐变_130);}.cls-3{fill:#ffe5cf;}.cls-4{fill:url(#未命名的渐变_130-2);}.cls-5{fill:#373f49;}.cls-6{fill:url(#未命名的渐变_130-3);}.cls-7{fill:url(#未命名的渐变_78);}.cls-8{fill:#edf2f9;}.cls-9{fill:url(#未命名的渐变_78-2);}.cls-10{fill:#f3f8ff;}.cls-11{fill:#fdfefe;}</style><linearGradient id="未命名的渐变_130" x1="48.72" y1="101.93" x2="68.97" y2="101.93" gradientTransform="translate(-3.27 13.35) rotate(-0.32)" gradientUnits="userSpaceOnUse"><stop offset="0" stop-color="#6736d9"/><stop offset="1" stop-color="#a06ffd"/></linearGradient><linearGradient id="未命名的渐变_130-2" x1="42.07" y1="40.72" x2="78.97" y2="40.72" xlink:href="#未命名的渐变_130"/><linearGradient id="未命名的渐变_130-3" x1="42.06" y1="103.97" x2="62.31" y2="103.97" xlink:href="#未命名的渐变_130"/><linearGradient id="未命名的渐变_78" x1="67.99" y1="160.64" x2="20.92" y2="49.65" gradientUnits="userSpaceOnUse"><stop offset="0" stop-color="#6736d9"/><stop offset="1" stop-color="#2f1179"/></linearGradient><linearGradient id="未命名的渐变_78-2" x1="45.95" y1="136.98" x2="10.11" y2="1.19" xlink:href="#未命名的渐变_78"/></defs><title>资源 47</title><g id="图层_2" data-name="图层 2"><g id="图层_3" data-name="图层 3"><polygon class="cls-1" points="66.26 114.11 56.49 114.16 54.98 81.74 66.08 81.68 66.26 114.11"/><path class="cls-2" d="M56.33,110.86s-9.17,3.35-9.82,5.8-.44,2.44-.44,2.44L66.29,119l-.05-8.19Z"/><polygon class="cls-3" points="59.61 116.18 49.84 116.23 48.32 83.81 59.43 83.75 59.61 116.18"/><ellipse class="cls-3" cx="50.15" cy="12.68" rx="4.44" ry="5.55" transform="translate(-0.07 0.28) rotate(-0.32)"/><path class="cls-4" d="M58,20.41,63,38S76.07,79.68,76.09,82.89s-36.87,6.62-36.9,1.81S47,38.12,47,38.12l2.12-17.66Z"/><path class="cls-3" d="M53.54,13.87c-1.23,3.56-3,27-3,27L47.47,60s-3.82,4.1-3.58,5.15,2.85-1.1,2.85-1.1-.66,3.85-.76,4.87,1.1,1.7,1.71.33c-.13,1.36,1,1.36,1.37.33,0,1,1.27,1,1.37,0-.1,1,1,1.36,1.37.33s6.68-26.35,6.68-26.35l2.24-29.06Z"/><path class="cls-5" d="M57.23,7.13c1.56,1.1,3.12,3.56,4,6.6.62,2.09,7.79,3.29,5.61,10,2.23,1.1,10,4.39,4.5,11.08-8.76,10-22.17,6.79-17.77-1-6.68-2.18-4.49-7.75-3.39-10-3.34-2.21-1.16-8.88-2.28-11.1-.71-1.4-1.12-1.1-2.23-1.09C45.66,4.93,53,3.16,57.23,7.13Z"/><path class="cls-6" d="M49.68,112.93s-9.17,3.36-9.83,5.8-.43,2.45-.43,2.45l20.21-.11,0-8.19Z"/><path class="cls-7" d="M28.46,50.22l5.63,74.43s-6.93,1.48-7.52,5.27c3.13-.09,21.54,0,21.54,0l.24-82.55Z"/><path class="cls-8" d="M34.09,124.65h0s-6.93,1.48-7.52,5.27c2.41-.07,13.86,0,19,0A25.31,25.31,0,0,1,34.09,124.65Z"/><path class="cls-9" d="M24.19,50.22l5.63,74.43s-6.93,1.48-7.52,5.27c3.14-.09,21.54,0,21.54,0l.25-82.55Z"/><path class="cls-8" d="M29.82,124.65h0s-6.93,1.48-7.52,5.27c2.41-.07,13.87,0,19,0A25.37,25.37,0,0,1,29.82,124.65Z"/><ellipse class="cls-3" cx="35.85" cy="8.36" rx="8.06" ry="6.65" transform="translate(15.6 39.1) rotate(-69.74)"/><polygon class="cls-3" points="34.08 13.98 33.48 20.71 41.65 22.23 40.72 14.18 34.08 13.98"/><path class="cls-10" d="M29.79,20.72s14.73-3.07,15.67,1.63c1.89,9.45,4.6,34.85,4.6,34.85S36,65.31,21.5,56.26C20.61,46.4,29.79,20.72,29.79,20.72Z"/><path class="cls-3" d="M27.44,24.54c-2.46,2.28-8.09,8-12.25,12.34C10.92,30.76,3.59,20.23,3.13,19.51c-.65-1-1.58.53-.71,1.88-1.35.87-2.59,1.18-2.4,3s10.26,25.25,14.86,24a2.52,2.52,0,0,0,1.46-.36c3.17-1.93,14.87-15.45,17.33-18.62S31.3,21,27.44,24.54Z"/><path class="cls-5" d="M28.17,3.7c-.27,1.89.81,3,2.16,3s5.14-1.09,6.49.81.81,3.24.81,3.24S37.9,9.11,39,9.38s1.08,2.16-.54,3.24a17.38,17.38,0,0,1,2.45,3S44.38,9.38,43.3,5.05,36-1.16,32.76.73C30.66,2,29.52,5.32,28.17,3.7Z"/><path class="cls-11" d="M21.39,29.76c2.08,4.63,8.79,7.64,8.79,7.64s10.64-13.19,4.63-16.2C29.52,18.56,21.39,29.76,21.39,29.76Z"/></g></g></svg>