<svg xmlns="http://www.w3.org/2000/svg" xmlns:xlink="http://www.w3.org/1999/xlink" viewBox="0 0 34 46.84"><defs><style>.cls-1{fill:url(#未命名的渐变_2);}.cls-2{fill:url(#未命名的渐变_2-2);}.cls-3{fill:url(#未命名的渐变_32);}</style><linearGradient id="未命名的渐变_2" x1="6.99" y1="43.38" x2="24.97" y2="10.1" gradientUnits="userSpaceOnUse"><stop offset="0" stop-color="#0feef4"/><stop offset="1" stop-color="#69ffff"/></linearGradient><linearGradient id="未命名的渐变_2-2" x1="0" y1="39.6" x2="17.98" y2="6.32" xlink:href="#未命名的渐变_2"/><linearGradient id="未命名的渐变_32" x1="4.11" y1="24.62" x2="34" y2="24.62" gradientUnits="userSpaceOnUse"><stop offset="0" stop-color="#b8fbff"/><stop offset="1" stop-color="#d8f9f9"/></linearGradient></defs><title>资源 49</title><g id="图层_2" data-name="图层 2"><g id="图层_3" data-name="图层 3"><path class="cls-1" d="M23.89,19v-.15c0-.18,0-.36-.07-.53s0,0,0-.07a3,3,0,0,0-.12-.43c0-.05,0-.09,0-.14l-.15-.35,0-.09a2,2,0,0,0-.24-.38l-.07-.09a2.73,2.73,0,0,0-.23-.25l-.09-.08a1.78,1.78,0,0,0-.36-.25l-4.11-2.4a2.27,2.27,0,0,1,.35.26.24.24,0,0,1,.09.08,1.88,1.88,0,0,1,.24.25.27.27,0,0,0,.07.08,3.64,3.64,0,0,1,.23.39s0,.06.05.08.1.24.14.36a.78.78,0,0,1,0,.14c0,.14.08.28.11.43a.42.42,0,0,0,0,.06,5,5,0,0,1,.06.54.76.76,0,0,1,0,.15c0,.15,0,.3,0,.45a.92.92,0,0,1,0,.16,4.3,4.3,0,0,1-.05.61s0,.06,0,.1l-.09.51c0,.07,0,.15-.05.23s0,.19-.07.29-.05.19-.08.28a1.87,1.87,0,0,1-.07.22c0,.11-.07.22-.11.33l-.06.18c-.07.16-.13.33-.2.49s-.23.49-.35.73a.25.25,0,0,1,0,.07c-.11.23-.24.44-.37.66l-.06.1c-.13.21-.27.41-.4.6l-.1.13c-.12.16-.23.31-.36.46l-.13.16c-.09.11-.19.21-.29.32s-.16.18-.25.26-.32.31-.48.45l-.1.09-.42.33-.15.11-.52.34a5.48,5.48,0,0,1-.6.29l-.18.08-.35.11-.19.06-.2,0-.33.06h-.47a2.21,2.21,0,0,1-.37,0l-.07,0a1.29,1.29,0,0,1-.28-.08l-.09,0a2.3,2.3,0,0,1-.32-.15L15.64,28l0,0,.24.12.06,0,.08,0,.12,0,.16,0,.07,0h0a2.58,2.58,0,0,0,.29,0h.14a1.08,1.08,0,0,0,.18,0h.19l.18,0,.15,0,.2,0h.08l.12,0L18.3,28l.1,0,.08,0q.3-.13.6-.3l.53-.34.14-.11q.21-.15.42-.33l.1-.09a5.48,5.48,0,0,0,.44-.4l.05-.05.24-.26a2.73,2.73,0,0,0,.23-.25.46.46,0,0,0,.07-.07,1,1,0,0,1,.13-.16l.19-.24c.06-.07.11-.15.16-.22a1.47,1.47,0,0,0,.1-.13l.06-.09c.1-.13.19-.27.28-.41l.06-.1a.61.61,0,0,1,.07-.1l.12-.21c.08-.13.15-.26.22-.4l0-.05,0-.07.15-.29c.07-.14.13-.28.19-.42v0l.18-.43s0,0,0-.06l.06-.18a1.8,1.8,0,0,0,.08-.21.56.56,0,0,1,0-.12l.06-.22a1,1,0,0,0,.05-.16l0-.12c0-.1.05-.19.07-.29s0-.1,0-.15a.19.19,0,0,0,0-.08,4.54,4.54,0,0,0,.09-.51s0-.06,0-.08v0c0-.21,0-.41,0-.61v-.16C23.9,19.3,23.9,19.15,23.89,19Z"/><path class="cls-2" d="M7.75,40l-.37-.31-.19-.18c-.12-.11-.23-.23-.33-.34l-.17-.19-.34-.42-.12-.15c-.14-.2-.27-.41-.4-.62,0,0,0-.09-.08-.14s-.19-.34-.28-.52l-.12-.24c-.07-.16-.14-.31-.2-.47s-.08-.18-.11-.27l-.18-.51a2.41,2.41,0,0,1-.08-.25c-.07-.22-.13-.44-.19-.67l0-.13c-.07-.27-.12-.54-.18-.82a2.17,2.17,0,0,0,0-.25l-.09-.62,0-.31c0-.2,0-.39,0-.59l0-.33c0-.21,0-.43,0-.65a2.62,2.62,0,0,0,0-.28c0-.32,0-.63,0-.95v-.09c0-.3,0-.59.06-.89l0-.33c0-.22,0-.45.07-.67s0-.25,0-.38.06-.43.1-.65l.06-.37c0-.24.09-.49.14-.74l.06-.27c.11-.54.25-1.09.4-1.64a1.46,1.46,0,0,1,.05-.2c.13-.45.27-.91.42-1.37,0-.1.07-.2.1-.31.14-.39.28-.8.43-1.2a.42.42,0,0,0,0-.1c.16-.41.33-.82.5-1.23L6.79,19c.14-.31.28-.62.43-.93l.14-.3c.19-.4.39-.8.6-1.19s.32-.6.49-.89L8.81,15c.18-.31.37-.61.56-.92l.12-.19c.25-.38.49-.75.75-1.11l.18-.26c.27-.38.54-.75.82-1.11l.06-.08c.35-.46.72-.9,1.09-1.33l.14-.16c.23-.27.46-.52.7-.78l0,0c.24-.26.5-.52.75-.77l.15-.15c.34-.33.68-.65,1-1l.11-.1c.35-.31.71-.61,1.08-.89L16.59,6q.53-.41,1.08-.78l.19-.13c.38-.25.76-.5,1.15-.72s.62-.34.92-.5l.26-.12c.25-.12.5-.24.75-.34l.19-.08c.27-.11.53-.22.8-.31L22,3c.23-.08.45-.15.68-.21l.37-.1.29-.07.39-.07.28,0,.14,0a7.19,7.19,0,0,1,.91-.09h1l.2,0,.64.07.18,0c.25,0,.5.1.73.17l.13,0a5.71,5.71,0,0,1,.58.21l.2.08.53.26.18.1L25.36,1,25.28.94l-.1,0L24.64.63l-.1-.05-.1,0L23.87.34l-.1,0h0C23.5.23,23.26.18,23,.13H23l-.13,0L22.19,0l-.13,0H21a7.19,7.19,0,0,0-.91.09h-.14l-.29,0-.38.07L19,.32l-.29.07-.08,0-.67.2-.12,0L17,1,17,1l-.13.07c-.25.1-.5.22-.76.34l-.25.12c-.31.16-.62.32-.93.5s-.76.47-1.14.72l-.2.13q-.54.38-1.08.78l-.21.17c-.36.28-.72.58-1.08.89l-.1.09q-.51.46-1,1l-.1.09-.05,0c-.26.26-.51.51-.76.78l0,0-.69.77-.06.07-.09.1c-.37.43-.73.87-1.09,1.33h0l0,.07c-.28.36-.56.73-.83,1.11l-.1.15-.08.1c-.25.37-.5.74-.74,1.12l0,0-.09.15c-.19.3-.38.61-.56.92l-.1.17c-.09.14-.18.29-.26.44s-.31.57-.46.85l0,.05c-.21.39-.41.79-.6,1.18a.93.93,0,0,1,0,.1l-.09.2c-.15.32-.3.63-.43.94,0,.07-.07.14-.09.2l-.06.14c-.18.41-.34.82-.5,1.23v0l0,.08c-.15.4-.3.81-.43,1.21l-.06.17a.5.5,0,0,0,0,.13c-.16.46-.3.92-.42,1.37l0,.08,0,.12C.83,21.88.7,22.43.58,23c0,0,0,0,0,0a2.23,2.23,0,0,0,0,.23L.38,24l-.06.37c0,.22-.07.44-.1.65a1.2,1.2,0,0,1,0,.2c0,.06,0,.12,0,.17,0,.23,0,.46-.08.68l0,.33c0,.3,0,.59,0,.88a.34.34,0,0,1,0,.1c0,.32,0,.63,0,.95,0,.09,0,.19,0,.28s0,.43,0,.65,0,.22,0,.33,0,.39.05.59,0,.21,0,.31l.09.62c0,.08,0,.17,0,.25,0,.28.11.55.17.82,0,.05,0,.09,0,.13.05.23.12.45.18.66l.09.26a5.17,5.17,0,0,0,.18.51c0,.09.07.18.1.26l.21.48.11.24c.09.18.19.35.29.52l.08.14a6.41,6.41,0,0,0,.4.61l.12.16.33.42a1.54,1.54,0,0,1,.17.19l.33.34.19.18c.12.11.25.21.38.31l.18.15c.19.14.38.27.59.4l4.11,2.39c-.2-.12-.4-.26-.59-.4Z"/><path class="cls-3" d="M29.59,3.45C35.44,7,35.47,18,29.66,28.3L19.13,46.84,8.52,40.51C2.67,37,2.64,26,8.45,15.66A30.11,30.11,0,0,1,19,4.4C23,2.1,26.81,1.76,29.59,3.45ZM23.1,22.85c1.28-2.94,1-5.74-.63-6.66a3.39,3.39,0,0,0-3.41.34,10.77,10.77,0,0,0-4.74,7.23c-.44,2.86.78,4.76,2.91,4.54a4.76,4.76,0,0,0,1.85-.64,10.41,10.41,0,0,0,4-4.81"/></g></g></svg>