<svg xmlns="http://www.w3.org/2000/svg" xmlns:xlink="http://www.w3.org/1999/xlink" viewBox="0 0 88.27 151.91"><defs><style>.cls-1{isolation:isolate;}.cls-2{fill:url(#未命名的渐变_3);}.cls-3{fill:url(#未命名的渐变_92);}.cls-4{fill:url(#未命名的渐变_92-2);}.cls-5{fill:url(#未命名的渐变_2);}.cls-6{fill:url(#未命名的渐变_2-2);}</style><linearGradient id="未命名的渐变_3" x1="0.28" y1="26.8" x2="88.27" y2="26.8" gradientUnits="userSpaceOnUse"><stop offset="0" stop-color="#31e0e4"/><stop offset="1" stop-color="#0057c0"/></linearGradient><linearGradient id="未命名的渐变_92" x1="47.2" y1="50.73" x2="76.04" y2="109.34" gradientUnits="userSpaceOnUse"><stop offset="0" stop-color="#31e0e4"/><stop offset="1" stop-color="#0057c0" stop-opacity="0"/></linearGradient><linearGradient id="未命名的渐变_92-2" x1="37.9" y1="47.32" x2="14.64" y2="109.64" xlink:href="#未命名的渐变_92"/><linearGradient id="未命名的渐变_2" x1="35.05" y1="24.21" x2="66.45" y2="-8.84" gradientUnits="userSpaceOnUse"><stop offset="0" stop-color="#0feef4"/><stop offset="1" stop-color="#69ffff"/></linearGradient><linearGradient id="未命名的渐变_2-2" x1="50.48" y1="8.36" x2="43.51" y2="15.33" xlink:href="#未命名的渐变_2"/></defs><title>资源 51</title><g id="图层_2" data-name="图层 2"><g id="图层_3" data-name="图层 3"><g class="cls-1"><polygon class="cls-2" points="88.27 26.8 44.42 52.28 0.28 26.8 44.13 1.31 88.27 26.8"/><polygon class="cls-3" points="88.27 26.8 87.99 126.43 44.14 151.91 44.42 52.28 88.27 26.8"/><polygon class="cls-4" points="44.42 52.28 44.14 151.91 0 126.43 0.28 26.8 44.42 52.28"/></g><path class="cls-5" d="M58.12,16,42.88.72A2.71,2.71,0,0,0,39,.88l-10.95,11a2.72,2.72,0,0,0-.16,3.84L43.17,30.91A2.73,2.73,0,0,0,47,30.75l11-11A2.71,2.71,0,0,0,58.12,16Z"/><path class="cls-6" d="M40.85,15.84,39,.88A2.71,2.71,0,0,1,42.88.72L58.12,16A2.71,2.71,0,0,1,58,19.79L43,18A2.12,2.12,0,0,1,40.85,15.84Z"/></g></g></svg>