<svg xmlns="http://www.w3.org/2000/svg" xmlns:xlink="http://www.w3.org/1999/xlink" viewBox="0 0 102.72 117.37"><defs><style>.cls-1{opacity:0.1;}.cls-2{fill:url(#未命名的渐变_3);}.cls-3{opacity:0.3;}.cls-4{fill:url(#未命名的渐变_3-2);}.cls-5{opacity:0.5;}.cls-6{fill:url(#未命名的渐变_3-3);}.cls-7{opacity:0.7;}.cls-8{fill:url(#未命名的渐变_3-4);}.cls-9{isolation:isolate;}.cls-10{fill:url(#未命名的渐变_153);}.cls-11{fill:url(#未命名的渐变_3-5);}.cls-12{fill:url(#未命名的渐变_151);}.cls-13{fill:url(#未命名的渐变_112);}.cls-14{fill:url(#未命名的渐变_112-2);}.cls-15{fill:url(#未命名的渐变_17);}.cls-16{fill:url(#未命名的渐变_151-2);}.cls-17{fill:url(#未命名的渐变_3-6);}.cls-18{fill:url(#未命名的渐变_17-2);}</style><linearGradient id="未命名的渐变_3" x1="0.21" y1="87.69" x2="102.72" y2="87.69" gradientUnits="userSpaceOnUse"><stop offset="0" stop-color="#31e0e4"/><stop offset="1" stop-color="#0057c0"/></linearGradient><linearGradient id="未命名的渐变_3-2" x1="0.21" y1="75.11" x2="102.72" y2="75.11" xlink:href="#未命名的渐变_3"/><linearGradient id="未命名的渐变_3-3" x1="0.21" y1="62.53" x2="102.72" y2="62.53" xlink:href="#未命名的渐变_3"/><linearGradient id="未命名的渐变_3-4" x1="0.21" y1="49.95" x2="102.72" y2="49.95" xlink:href="#未命名的渐变_3"/><linearGradient id="未命名的渐变_153" x1="0.21" y1="33.24" x2="102.72" y2="33.24" gradientUnits="userSpaceOnUse"><stop offset="0" stop-color="#08ffb3"/><stop offset="1" stop-color="#0df"/></linearGradient><linearGradient id="未命名的渐变_3-5" x1="0" y1="49.23" x2="102.72" y2="49.23" xlink:href="#未命名的渐变_3"/><linearGradient id="未命名的渐变_151" x1="37.77" y1="33.67" x2="81.12" y2="33.67" gradientUnits="userSpaceOnUse"><stop offset="0" stop-color="#2c446e"/><stop offset="1" stop-color="#00143d"/></linearGradient><linearGradient id="未命名的渐变_112" x1="42.08" y1="32.42" x2="73.04" y2="32.42" gradientUnits="userSpaceOnUse"><stop offset="0" stop-color="#59729c"/><stop offset="1" stop-color="#213866"/></linearGradient><linearGradient id="未命名的渐变_112-2" x1="59.03" y1="37.4" x2="71.4" y2="37.4" xlink:href="#未命名的渐变_112"/><linearGradient id="未命名的渐变_17" x1="37.77" y1="39.45" x2="81.12" y2="39.45" gradientUnits="userSpaceOnUse"><stop offset="0" stop-color="#1c2b45"/><stop offset="1" stop-color="#1a253d"/></linearGradient><linearGradient id="未命名的渐变_151-2" x1="37.52" y1="18.45" x2="64.19" y2="18.45" xlink:href="#未命名的渐变_151"/><linearGradient id="未命名的渐变_3-6" x1="38.55" y1="18.45" x2="63.16" y2="18.45" xlink:href="#未命名的渐变_3"/><linearGradient id="未命名的渐变_17-2" x1="36.67" y1="18.11" x2="63.4" y2="18.11" xlink:href="#未命名的渐变_17"/></defs><title>资源 52</title><g id="图层_2" data-name="图层 2"><g id="图层_3" data-name="图层 3"><g class="cls-1"><path class="cls-2" d="M98.18,81.39c6,3.48,6.06,9.11.07,12.59L62.48,114.77c-6,3.47-15.71,3.47-21.73,0L4.75,94c-6-3.47-6-9.11-.07-12.59L40.44,60.61c6-3.48,15.72-3.48,21.74,0Z"/></g><g class="cls-3"><path class="cls-4" d="M98.18,68.81c6,3.48,6.06,9.11.07,12.59L62.48,102.19c-6,3.47-15.71,3.47-21.73,0L4.75,81.4c-6-3.47-6-9.11-.07-12.59L40.44,48c6-3.48,15.72-3.48,21.74,0Z"/></g><g class="cls-5"><path class="cls-6" d="M98.18,56.23c6,3.48,6.06,9.11.07,12.59L62.48,89.61c-6,3.47-15.71,3.47-21.73,0l-36-20.79c-6-3.47-6-9.11-.07-12.59L40.44,35.45c6-3.48,15.72-3.48,21.74,0Z"/></g><g class="cls-7"><path class="cls-8" d="M98.18,43.65c6,3.48,6.06,9.11.07,12.59L62.48,77c-6,3.47-15.71,3.47-21.73,0l-36-20.79c-6-3.47-6-9.11-.07-12.59L40.44,22.87c6-3.48,15.72-3.48,21.74,0Z"/></g><g class="cls-9"><path class="cls-10" d="M98.18,27c6,3.47,6.06,9.11.07,12.59L62.48,60.32c-6,3.48-15.71,3.48-21.73,0l-36-20.78c-6-3.48-6-9.12-.07-12.59L40.44,6.16c6-3.48,15.72-3.47,21.74,0Z"/><path class="cls-11" d="M102.68,33.74c0,.16,0,.32-.06.48a2.79,2.79,0,0,1-.1.39,3.47,3.47,0,0,1-.13.46,3.08,3.08,0,0,1-.16.38c-.07.16-.14.32-.22.47s-.14.23-.21.35a6.18,6.18,0,0,1-.36.53,3.76,3.76,0,0,1-.25.31,7,7,0,0,1-.65.7l-.25.25c-.15.14-.31.26-.47.39l-.43.34c-.18.13-.37.25-.56.37s-.37.26-.58.38L62.48,60.32a13.87,13.87,0,0,1-1.44.73l-.44.19c-.4.17-.8.32-1.21.46l-.44.15-.8.23-.6.16c-.28.07-.56.12-.85.18l-.58.12c-.57.1-1.16.18-1.75.24l-.54,0-1,.07H51.28l-.7,0-.79,0-.7-.06-.77-.09-.69-.1-.82-.14-.63-.13-1-.23L44.7,62c-.57-.17-1.12-.35-1.65-.56-.27-.1-.52-.21-.78-.33l-.4-.17c-.38-.18-.76-.38-1.12-.59l-36-20.78C2.1,38,.61,36.06.28,34.06a5.07,5.07,0,0,1-.07-.86h0L0,35.53c0,2.3,1.51,4.59,4.54,6.34l36,20.79c.37.21.74.4,1.13.59l.39.17c.24.1.46.21.7.3l.09,0c.53.21,1.08.39,1.64.55l.14,0,.39.1,1,.23.26.06.38.07.82.14.32.06.37,0,.76.08.37,0,.34,0,.78,0,.39,0h.32q.42,0,.84,0h.42l.25,0c.34,0,.69,0,1-.07.14,0,.28,0,.41,0h.13c.59-.07,1.17-.15,1.75-.25H56l.49-.11c.29,0,.57-.11.85-.18l.61-.16.79-.22.17,0,.27-.11q.62-.21,1.2-.45l.44-.19c.5-.23,1-.47,1.45-.73L98,41.87l.19-.11c.14-.08.26-.18.39-.26l.55-.37c.16-.11.29-.23.44-.34l.47-.39.09-.08c.06-.06.1-.12.16-.17a7,7,0,0,0,.65-.7l.15-.16s.06-.1.1-.15.25-.36.36-.54.11-.15.15-.22a.67.67,0,0,0,.06-.12c.08-.16.15-.32.22-.48a2.39,2.39,0,0,0,.13-.28.32.32,0,0,0,0-.09c0-.16.09-.31.13-.46s.07-.21.09-.31a.25.25,0,0,0,0-.08c0-.17,0-.33.06-.49s0-.21,0-.31v-.14l.22-2.33C102.72,33.44,102.69,33.59,102.68,33.74Z"/></g><g class="cls-9"><path class="cls-12" d="M38.84,34.15c-1.42.82-1.42,2.15,0,3l14.62,8.5a5.66,5.66,0,0,0,5.1,0L80.05,33.19c1.41-.82,1.42-2.14,0-3L65.45,21.74a5.61,5.61,0,0,0-5.11,0Z"/><path class="cls-13" d="M72.67,27.85l-7.91-4.6a.77.77,0,0,0-.75,0L42.45,35.7a.74.74,0,0,0,0,1.29l7.91,4.59a.7.7,0,0,0,.74,0L72.66,29.14A.75.75,0,0,0,72.67,27.85Z"/><path class="cls-14" d="M71.2,35.47l-3-1.76a.41.41,0,0,0-.4,0l-8.55,4.94a.39.39,0,0,0,0,.67l3,1.76a.39.39,0,0,0,.39,0l8.56-4.94A.39.39,0,0,0,71.2,35.47Z"/><path class="cls-15" d="M81.12,31.7a1.82,1.82,0,0,1-1.07,1.49L58.54,45.61a4,4,0,0,1-.55.26l-.09,0c-.16.05-.32.11-.5.15l-.1,0a3.7,3.7,0,0,1-.58.1h-.09c-.2,0-.4,0-.6,0h-.09l-.61,0h-.11l-.44-.08L54.42,46l-.27-.08a5.07,5.07,0,0,1-.71-.31l-14.62-8.5L38.6,37a2.48,2.48,0,0,1-.26-.19,2,2,0,0,1-.28-.31.21.21,0,0,1,0-.06,1.54,1.54,0,0,1-.17-.34l0,0a1.51,1.51,0,0,1-.06-.37v1a1.49,1.49,0,0,0,0,.21.5.5,0,0,0,0,.13s0,0,0,0a0,0,0,0,0,0,0,1.89,1.89,0,0,0,.09.21l.07.1,0,.06a.21.21,0,0,0,0,.06,2.4,2.4,0,0,0,.22.24h0a1.64,1.64,0,0,0,.25.19,1.18,1.18,0,0,0,.18.13l0,0,14.62,8.5a5.07,5.07,0,0,0,.71.31l.08,0,.19,0c.12,0,.24.07.37.09a.5.5,0,0,0,.13,0l.31,0h.15l.4,0h.37l.35,0,.13,0h.22l.36-.06.09,0,.11,0,.18-.05.32-.1a.32.32,0,0,1,.09,0h0l.52-.25,21.5-12.42a1.82,1.82,0,0,0,1.07-1.49Z"/></g><g class="cls-9"><path class="cls-16" d="M40.07,13.26a5.63,5.63,0,0,0-2.55,4.42l0,16.91c0,1.62,1.15,2.28,2.57,1.46l21.5-12.42a5.57,5.57,0,0,0,2.55-4.42l0-16.9C64.14.68,63,0,61.58.84Z"/><path class="cls-17" d="M40.65,13.81a4.66,4.66,0,0,0-2.1,3.65l.05,16.72c0,1,.73,1.45,1.62.94l20.84-12a4.6,4.6,0,0,0,2.1-3.64l0-16.72c0-1-.73-1.45-1.63-.94Z"/><path class="cls-18" d="M62.1.6a2.08,2.08,0,0,1,.47-.1h0a1.59,1.59,0,0,1,.44,0h0a1.57,1.57,0,0,1,.38.14L62.55.17a.67.67,0,0,0-.21-.09l-.17,0h0L62,0h-.48l-.11,0-.1,0-.08,0h0l-.11,0L61,.2l-.1,0-.11.06-.08,0L39.22,12.77h0l-.11.07-.11.07-.11.08-.11.09,0,0h0l-.06,0-.11.1-.11.1-.11.11-.08.08h0l0,0-.09.11-.1.12-.1.12-.12.15h0l-.16.23-.19.3,0,0v0a1.4,1.4,0,0,0-.09.17,1.09,1.09,0,0,0-.08.15.83.83,0,0,0-.07.13l-.06.13v0h0a.36.36,0,0,1,0,.09.61.61,0,0,1-.05.12c0,.05,0,.09,0,.13a.69.69,0,0,0,0,.13.65.65,0,0,0,0,.13v0h0l0,.11,0,.13,0,.14,0,.13a.5.5,0,0,1,0,.12h0s0,.09,0,.13,0,.08,0,.12,0,.09,0,.13,0,.08,0,.12v.12l0,16.91h0v.13s0,.08,0,.12,0,.08,0,.12,0,.08,0,.12,0,0,0,.06h0s0,0,0,.06l0,.13a5625559146396.79,5625559146396.79,0,0,0,.1.26h0l.09.17a.58.58,0,0,0,.1.12l.07.09a1,1,0,0,0,.28.23l.84.49h0A1.49,1.49,0,0,1,38,36L38,35.91a1.28,1.28,0,0,1-.19-.3h0a2.07,2.07,0,0,1-.15-.46h0a2.39,2.39,0,0,1,0-.55l0-16.91a3.31,3.31,0,0,1,0-.62h0a5.27,5.27,0,0,1,.14-.64h0a4.62,4.62,0,0,1,.23-.62h0q.13-.3.3-.6l0,0a5.57,5.57,0,0,1,.37-.57h0c.14-.18.28-.36.43-.52h0c.15-.16.31-.3.47-.44h0a5.16,5.16,0,0,1,.51-.35L61.58.84a2.52,2.52,0,0,1,.51-.23Z"/></g></g></g></svg>