<svg xmlns="http://www.w3.org/2000/svg" xmlns:xlink="http://www.w3.org/1999/xlink" viewBox="0 0 58.65 118.64"><defs><style>.cls-1{fill:#373f49;}.cls-2{fill:#efd0bb;}.cls-3{fill:#ffe5cf;}.cls-4{fill:#f3f8ff;}.cls-5{fill:url(#未命名的渐变_130);}.cls-6{fill:none;stroke:#d6b49d;stroke-linecap:round;stroke-miterlimit:10;}.cls-7{fill:url(#未命名的渐变_130-2);}.cls-8{fill:url(#未命名的渐变_130-3);}</style><linearGradient id="未命名的渐变_130" x1="25.45" y1="30.05" x2="46.44" y2="30.05" gradientUnits="userSpaceOnUse"><stop offset="0" stop-color="#6736d9"/><stop offset="1" stop-color="#a06ffd"/></linearGradient><linearGradient id="未命名的渐变_130-2" x1="25.92" y1="116.46" x2="39.87" y2="116.46" xlink:href="#未命名的渐变_130"/><linearGradient id="未命名的渐变_130-3" x1="49.58" y1="111.72" x2="58.65" y2="111.72" xlink:href="#未命名的渐变_130"/></defs><title>资源 53</title><g id="图层_2" data-name="图层 2"><g id="图层_3" data-name="图层 3"><path class="cls-1" d="M33.83.05a7.73,7.73,0,0,1,8.7,6.55c.39,2.34,1.37,6.05,3.32,7.62s6.06,5.08,4.1,8.4-1.85,5.18.69,8.11-.39,9.77-5.28,10.94C39.77,43,31,40.6,27.68,38.64S24,31.8,25.53,29.26s2.61-5,1-7.23-.19-5.08,1.57-7.42,1.37-3.32.19-5.28S27.77.64,33.83.05Z"/><path class="cls-2" d="M27.19,40.5l4.1,73.87s-4,1.27-5.37,3.42H39.79l3.72-76.57Z"/><path class="cls-3" d="M28.65,39.43l5,41.81,16.5,30.62s-1.18,4.49-.06,6.78l8.59-12.35L48.2,81.24,45.36,40.31Z"/><path class="cls-2" d="M29.36,18c-2.66,4-6.72,14.17-6.72,14.17S8,32.74,4.56,34A11.73,11.73,0,0,0,.2,37a.72.72,0,0,0,.53,1.22H26.1l4.5-7.78Z"/><ellipse class="cls-3" cx="33.73" cy="7.28" rx="4.98" ry="6.06"/><path class="cls-4" d="M26.8,43.24,24,66.59s16.61,3.91,25.41-.2c-2.45-21.2-2-18.22-2.93-22.08C44.57,36.24,26.8,43.24,26.8,43.24Z"/><path class="cls-5" d="M34.42,15.49a11.34,11.34,0,0,0-5.28,2.15S25.92,24,25.53,26.53s.91,7.4,1,8.21c.1,1.27.2,8.4.2,8.4s11.72,2.93,19.74.78c-.2-1.17-1.08-19.83-2.64-25.89C43.36,16.34,38.62,15,34.42,15.49Z"/><path class="cls-3" d="M32.76,9.33,32.37,16s.78.78,3.12.78A4.25,4.25,0,0,0,38.42,16L37.25,8.16Z"/><path class="cls-1" d="M31.68,3.76C30.51,7.67,29,6.11,28.75,9.63c-.09,1.6-1-5.48,1-7s3.32-1,3.32-1Z"/><path class="cls-1" d="M30.51,1.81c1,2.54,4.69,5.67,4.69,5.67s1.37-1.76,2.54-.59c.69.69.2,2.15-.59,2.74a6.51,6.51,0,0,0,1.37,2.93s3.32-6.26.2-9.77S30.51,1.81,30.51,1.81Z"/><path class="cls-4" d="M36.63,7l-.36,5.64,3.52.2.35-5.64a.6.6,0,0,0-.57-.65l-2.3-.13A.62.62,0,0,0,36.63,7Z"/><path class="cls-2" d="M40.06,18.68a2.67,2.67,0,0,1,4.4-.31,3.53,3.53,0,0,1,.61,3.08c-.69,2.64-4.37,8.72-5.86,10.55-1.76,2.15-7-.2-4.89-3.71C35.68,26.06,38.46,21.38,40.06,18.68Z"/><path class="cls-2" d="M40.18,29.66c-2.24,2.24-6.3-.22-6.3-.22s1.81-18.35,2.21-19.63c.34-1.07,1.16-.67.95.61,0-1.28,1.38-1.48,1,.08.39-1.36,1.37-1.17,1.23.12.34-1.29,1.12-.9.92.28C40.09,11.44,40.48,24.87,40.18,29.66Z"/><path class="cls-6" d="M40.3,18.35c0,3-.09,6.81-.13,8.64"/><path class="cls-7" d="M29.4,115.14a8.55,8.55,0,0,0-3.48,2.65H39.79l.08-1.61C36.45,118.11,30.68,116.79,29.4,115.14Z"/><path class="cls-8" d="M58.65,106.29l-.59-1.5c-1.06,3.36-5.76,9-8.33,9.16a9,9,0,0,0,.33,4.69Z"/></g></g></svg>