<svg xmlns="http://www.w3.org/2000/svg" xmlns:xlink="http://www.w3.org/1999/xlink" viewBox="0 0 247.65 178.19"><defs><style>.cls-1{fill:url(#linear-gradient);}.cls-2{opacity:0.5;}.cls-3{fill:url(#linear-gradient-2);}.cls-4{fill:url(#linear-gradient-3);}</style><linearGradient id="linear-gradient" y1="53.58" x2="184.33" y2="53.58" gradientUnits="userSpaceOnUse"><stop offset="0" stop-color="#4c82ff"/><stop offset="1" stop-color="#2af9de"/></linearGradient><linearGradient id="linear-gradient-2" x1="10.55" y1="109.4" x2="247.65" y2="109.4" xlink:href="#linear-gradient"/><linearGradient id="linear-gradient-3" x1="240.2" y1="103.85" x2="244.76" y2="103.85" xlink:href="#linear-gradient"/></defs><title>资源 42</title><g id="图层_2" data-name="图层 2"><g id="图层_3" data-name="图层 3"><path class="cls-1" d="M92.46,107.17a12.19,12.19,0,0,1-6-1.46L2.65,57.33C.94,56.35,0,55,0,53.57s.92-2.76,2.61-3.74L85.85,1.46a12.19,12.19,0,0,1,6-1.46,12.32,12.32,0,0,1,6,1.45l83.79,48.38c1.71,1,2.64,2.32,2.65,3.76s-.93,2.76-2.61,3.74L98.47,105.71A12.12,12.12,0,0,1,92.46,107.17ZM91.87.93a11.22,11.22,0,0,0-5.55,1.32L3.07,50.63A3.67,3.67,0,0,0,.92,53.57c0,1.1.78,2.15,2.19,3L86.9,104.91a12.31,12.31,0,0,0,11.11,0l83.25-48.38a3.69,3.69,0,0,0,2.15-2.95c0-1.1-.78-2.15-2.19-3L97.43,2.25A11.34,11.34,0,0,0,91.87.93Z"/><g class="cls-2"><path class="cls-3" d="M129.49,178.19a15.55,15.55,0,0,1-7.64-1.82L13.82,114c-2.11-1.22-3.27-2.86-3.27-4.61s1.14-3.37,3.22-4.58L121.1,42.43a16.86,16.86,0,0,1,15.24,0l108,62.37c2.11,1.22,3.27,2.86,3.28,4.61s-1.15,3.38-3.23,4.59L137.09,176.37A15.37,15.37,0,0,1,129.49,178.19Zm-.78-137A14.78,14.78,0,0,0,121.42,43L14.09,105.35c-1.88,1.09-2.91,2.53-2.91,4s1.06,3,3,4.06l108,62.37a16,16,0,0,0,14.61,0L244.1,113.45c1.88-1.09,2.92-2.53,2.91-4s-1-3-2.95-4.07L136,43A14.93,14.93,0,0,0,128.71,41.22Z"/><path class="cls-4" d="M244.09,102.91a1,1,0,0,1,0,1.87,3.58,3.58,0,0,1-3.22,0,1,1,0,0,1,0-1.87A3.58,3.58,0,0,1,244.09,102.91Z"/></g></g></g></svg>