<svg xmlns="http://www.w3.org/2000/svg" xmlns:xlink="http://www.w3.org/1999/xlink" viewBox="0 0 343.58 199.35"><defs><style>.cls-1{fill:url(#linear-gradient);}.cls-2{fill:url(#linear-gradient-2);}</style><linearGradient id="linear-gradient" y1="99.68" x2="343.58" y2="99.68" gradientUnits="userSpaceOnUse"><stop offset="0" stop-color="#4c82ff"/><stop offset="1" stop-color="#2af9de"/></linearGradient><linearGradient id="linear-gradient-2" x1="332.79" y1="91.63" x2="339.39" y2="91.63" xlink:href="#linear-gradient"/></defs><title>资源 81</title><g id="图层_2" data-name="图层 2"><g id="图层_3" data-name="图层 3"><path class="cls-1" d="M172.35,199.35a22.47,22.47,0,0,1-11.06-2.63L4.74,106.34C1.69,104.57,0,102.2,0,99.66S1.66,94.77,4.67,93L160.2,2.63a24.51,24.51,0,0,1,22.09,0L338.84,93c3.05,1.77,4.74,4.14,4.74,6.69s-1.66,4.88-4.67,6.64L183.38,196.72A22.3,22.3,0,0,1,172.35,199.35ZM171.23.88a21.41,21.41,0,0,0-10.57,2.55L5.13,93.81C2.41,95.39.92,97.47.92,99.66S2.44,104,5.2,105.54l156.55,90.38a23.26,23.26,0,0,0,21.16,0l155.53-90.39c2.73-1.58,4.22-3.65,4.22-5.84s-1.52-4.3-4.28-5.89L181.83,3.43A21.59,21.59,0,0,0,171.23.88Z"/><path class="cls-2" d="M338.42,90.28c1.29.74,1.3,2,0,2.7a5.11,5.11,0,0,1-4.66,0c-1.3-.75-1.3-2,0-2.7A5.13,5.13,0,0,1,338.42,90.28Z"/></g></g></svg>