<svg xmlns="http://www.w3.org/2000/svg" xmlns:xlink="http://www.w3.org/1999/xlink" viewBox="0 0 68.8 71.37"><defs><style>.cls-1{fill:url(#未命名的渐变_8);}.cls-2{fill:url(#未命名的渐变_8-2);}.cls-3{fill:url(#未命名的渐变_8-3);}.cls-4{fill:url(#未命名的渐变_3);}</style><linearGradient id="未命名的渐变_8" x1="31.24" y1="41.23" x2="42.53" y2="41.23" gradientUnits="userSpaceOnUse"><stop offset="0" stop-color="#28a5e6"/><stop offset="1" stop-color="#011f9e"/></linearGradient><linearGradient id="未命名的渐变_8-2" x1="5.35" y1="23.8" x2="66.43" y2="23.8" xlink:href="#未命名的渐变_8"/><linearGradient id="未命名的渐变_8-3" x1="0" y1="57.02" x2="23.35" y2="57.02" xlink:href="#未命名的渐变_8"/><linearGradient id="未命名的渐变_3" x1="2.8" y1="36.5" x2="68.8" y2="36.5" gradientUnits="userSpaceOnUse"><stop offset="0" stop-color="#31e0e4"/><stop offset="1" stop-color="#0057c0"/></linearGradient></defs><title>资源 93</title><g id="图层_2" data-name="图层 2"><g id="图层_3" data-name="图层 3"><path class="cls-1" d="M39.73,39.41l0,0-.24-.12h-.05l-.08,0-.13,0-.14,0-.09,0h0l-.3,0s0,0,0,0h-.38l-.15,0H38l-.13,0-.2,0-.1,0-.11,0a2.42,2.42,0,0,0-.35.12l-.12,0-.07,0c-.2.09-.4.19-.61.31l-2.71,1.56a3.23,3.23,0,0,1-.6.28l-.11,0a2.09,2.09,0,0,1-.53.11h-.05a2.21,2.21,0,0,1-.52,0h0a1.91,1.91,0,0,1-.47-.18l2.81,1.63h0l.17.08.17.06.11,0h.07l.2,0h.45a1.5,1.5,0,0,0,.29-.06l.12,0,.12,0,.14,0a3.94,3.94,0,0,0,.46-.23l2.7-1.56a6,6,0,0,1,.62-.31l.19-.07a2.3,2.3,0,0,1,.34-.12l.22-.06.2,0,.26,0h.53l.36,0,.08,0,.27.08.08,0a1.87,1.87,0,0,1,.32.15h0Z"/><path class="cls-2" d="M61.59,2.27l.4-.16a4.3,4.3,0,0,1,.57-.2l.36-.1.33-.07.43-.07.25,0a4.61,4.61,0,0,1,.52,0h.12a3.79,3.79,0,0,1,.6.07l.14,0,.45.13.14,0a5.12,5.12,0,0,1,.53.25L63.63.55l-.05,0-.41-.2-.08,0L63,.24,62.75.17,62.51.12l-.14,0-.08,0L61.8,0h-.54l-.13,0-.25,0-.22,0-.21.05-.33.07-.18,0-.18.06c-.19.06-.38.12-.58.2L59,.55l-.2.09-.19.09c-.25.11-.49.24-.75.38L13.44,26.75c-.26.15-.51.31-.77.49l-.25.18-.51.38-.27.23-.46.4-.28.26-.17.16-.17.18c-.19.19-.37.38-.54.58l-.18.18L9.71,30l-.32.38c-.07.09-.14.17-.2.26L9,30.81l-.23.31-.15.21c-.09.12-.17.25-.25.37l-.16.23-.06.1c-.15.23-.29.45-.42.69l0,.05s-.05.09-.08.14-.19.32-.27.49-.08.16-.13.24l-.12.24-.1.21c-.1.19-.18.39-.27.58l0,.1v0l-.3.73,0,.13c0,.09-.07.18-.1.27l-.13.36L6,36.58c0,.11-.07.22-.1.33l-.06.21c0,.13-.06.25-.1.37s-.07.28-.1.42l0,.14c0,.1,0,.2-.05.3s-.08.44-.12.65a1.13,1.13,0,0,1,0,.18c0,.14,0,.27,0,.41a2.64,2.64,0,0,0,0,.28c0,.31,0,.61,0,.9,0,2.56.91,4.36,2.37,5.21l2.8,1.63C9.06,46.76,8.16,45,8.15,42.4c0-.29,0-.6,0-.9l0-.28c0-.2,0-.39.07-.59s.07-.43.11-.65,0-.29.09-.44.06-.28.1-.42l.15-.58c0-.11.07-.22.1-.33s.14-.44.22-.65.06-.18.1-.27c.11-.3.23-.6.36-.89l0-.1c.12-.27.25-.53.38-.79l.12-.24c.12-.25.26-.49.39-.74a.64.64,0,0,0,.08-.14l.51-.83.16-.23c.13-.2.27-.39.4-.58l.23-.31L12.2,32c.1-.13.2-.26.31-.38l.31-.35.54-.58.35-.34.27-.26.46-.4.28-.23c.16-.13.34-.26.51-.38l.24-.18c.26-.18.52-.34.78-.49L60.65,2.74c.25-.14.5-.27.74-.38Z"/><path class="cls-3" d="M22.41,44.63,19.6,43a2.25,2.25,0,0,1,.95,2.08,4.84,4.84,0,0,1-.06.75.43.43,0,0,1,0,.11,6,6,0,0,1-.16.71l0,.07a7.87,7.87,0,0,1-.29.76v0c-.12.26-.25.51-.39.76v0a8.18,8.18,0,0,1-.45.69l0,.06c-.15.2-.31.39-.47.57l-.11.12-.41.38-.19.16a4.83,4.83,0,0,1-.61.43L4.86,57.88a7.21,7.21,0,0,0-.76.51l-.13.1a7.49,7.49,0,0,0-.68.6l-.06,0-.1.11-.33.35-.1.11a.39.39,0,0,0-.08.1,2.11,2.11,0,0,0-.19.23l-.13.15-.09.13-.14.18L2,60.63l-.15.22L1.74,61l0,.06-.26.41v0l-.05.09a2.69,2.69,0,0,0-.16.29c0,.05-.05.1-.08.14l-.07.15L1,62.29l-.15.34,0,.06v0l-.18.44,0,.08a1,1,0,0,0,0,.16,2,2,0,0,0-.08.22,1.09,1.09,0,0,0,0,.17,1.59,1.59,0,0,0-.07.2l0,.13a1.41,1.41,0,0,0-.06.22l-.06.25a.29.29,0,0,0,0,.09l0,.17c0,.13,0,.26-.07.39a.36.36,0,0,1,0,.11v.1a6.18,6.18,0,0,0-.06.85,3.42,3.42,0,0,0,1.42,3.13l2.8,1.63A3.44,3.44,0,0,1,2.8,67.92a8.29,8.29,0,0,1,.06-.85c0-.07,0-.14,0-.21s.05-.26.07-.39,0-.17,0-.26L3.06,66c0-.12.06-.23.1-.35l.06-.2c0-.13.08-.26.13-.39l.06-.16q.09-.27.21-.54l0-.06c.07-.16.14-.31.22-.47L4,63.64l.23-.44a.22.22,0,0,0,.05-.08c.1-.17.2-.34.31-.5l.09-.14.24-.35L5,62c.07-.1.15-.19.22-.28l.19-.23a2,2,0,0,1,.19-.22l.32-.34.16-.16a7.92,7.92,0,0,1,.69-.61L6.9,60a7.21,7.21,0,0,1,.76-.51l12.45-7.19a4.93,4.93,0,0,0,.62-.43l.18-.16c.1-.09.2-.16.29-.25l.12-.13.11-.12.13-.13c.09-.11.18-.21.26-.32a.83.83,0,0,0,.08-.12L22,50.6l.09-.12.19-.28.16-.27v0l0,0c0-.08.08-.16.13-.24s.09-.18.14-.27.07-.17.11-.25v0a1.48,1.48,0,0,0,.12-.29c0-.1.08-.2.11-.3l.05-.15,0-.07,0-.11c0-.13.07-.25.1-.38l0-.22a.52.52,0,0,0,0-.11.52.52,0,0,0,0-.11,4.68,4.68,0,0,0,0-.64,3.14,3.14,0,0,0-.25-1.3A1.77,1.77,0,0,0,22.41,44.63Z"/><path class="cls-4" d="M60.65,2.74c4.49-2.59,8.13-.51,8.15,4.65s-3.61,11.43-8.1,14L36.33,35.48a7.11,7.11,0,0,0-3.23,5.61c0,2.06,1.46,2.89,3.26,1.85l2.7-1.56c2.7-1.56,4.88-.31,4.89,2.79a10.69,10.69,0,0,1-4.86,8.41L7.69,70.7C5,72.26,2.81,71,2.8,67.92a10.7,10.7,0,0,1,4.86-8.41l12.45-7.19a7.12,7.12,0,0,0,3.24-5.61c0-2.06-1.46-2.89-3.26-1.86L16.3,47c-4.48,2.59-8.13.51-8.15-4.64s3.61-11.43,8.1-14Z"/></g></g></svg>