<svg xmlns="http://www.w3.org/2000/svg" xmlns:xlink="http://www.w3.org/1999/xlink" viewBox="0 0 234.28 254.55"><defs><style>.cls-1{fill:none;}.cls-2{isolation:isolate;}.cls-3{clip-path:url(#clip-path);}.cls-4{fill:#858585;}.cls-5{fill:url(#未命名的渐变_2);}.cls-6{fill:url(#未命名的渐变_2-2);}.cls-7{fill:#69ffff;}.cls-8{fill:url(#未命名的渐变_14);}.cls-9{fill:url(#未命名的渐变_2-3);}.cls-10{fill:url(#未命名的渐变_2-4);}.cls-11{clip-path:url(#clip-path-2);}.cls-12{fill:url(#未命名的渐变_2-5);}.cls-13{fill:#0feef4;}.cls-14{fill:url(#未命名的渐变_2-6);}.cls-15{fill:url(#未命名的渐变_30);}</style><clipPath id="clip-path"><path class="cls-1" d="M79.86,218.26l56.39-32.76a1.71,1.71,0,0,1,.27-.14,9.33,9.33,0,0,0,1-.5L81.14,217.63c-.33.18-.66.35-1,.5Z"/></clipPath><linearGradient id="未命名的渐变_2" x1="83.52" y1="176.92" x2="91.33" y2="194.5" gradientUnits="userSpaceOnUse"><stop offset="0" stop-color="#0feef4"/><stop offset="1" stop-color="#69ffff"/></linearGradient><linearGradient id="未命名的渐变_2-2" x1="75.63" y1="57.67" x2="101.3" y2="99.53" xlink:href="#未命名的渐变_2"/><linearGradient id="未命名的渐变_14" x1="79.6" y1="41.5" x2="85.46" y2="51.27" gradientUnits="userSpaceOnUse"><stop offset="0" stop-color="#69ffff"/><stop offset="1" stop-color="#0feef4"/></linearGradient><linearGradient id="未命名的渐变_2-3" x1="162.4" y1="198.62" x2="161.56" y2="251.92" xlink:href="#未命名的渐变_2"/><linearGradient id="未命名的渐变_2-4" x1="164.88" y1="148.03" x2="170.18" y2="157.8" xlink:href="#未命名的渐变_2"/><clipPath id="clip-path-2"><path class="cls-1" d="M145.2,172.88l56.38-32.77c3.48-2,8.3-1.74,13.62,1.33.34.2.69.41,1,.63,9.81,6.26,17.69,20.05,18,31.54.19,6.51-2,11.07-5.58,13.16l-56.38,32.77c3.6-2.09,5.77-6.66,5.57-13.16-.35-11.49-8.22-25.28-18-31.54-.35-.22-.69-.43-1-.63C153.5,171.14,148.68,170.86,145.2,172.88Z"/></clipPath><linearGradient id="未命名的渐变_2-5" x1="181.99" y1="152.73" x2="203.19" y2="200.73" xlink:href="#未命名的渐变_2"/><linearGradient id="未命名的渐变_2-6" x1="163.16" y1="102.5" x2="152.83" y2="80.73" xlink:href="#未命名的渐变_2"/><linearGradient id="未命名的渐变_30" x1="8.73" y1="56.75" x2="132.63" y2="239.27" gradientUnits="userSpaceOnUse"><stop offset="0" stop-color="#31e0ff"/><stop offset="1" stop-color="#00b7ff"/></linearGradient></defs><title>资源 33</title><g id="图层_2" data-name="图层 2"><g id="图层_3" data-name="图层 3"><g class="cls-2"><g class="cls-2"><g class="cls-3"><g class="cls-2"><path class="cls-4" d="M79.86,218.26l56.39-32.76a1.71,1.71,0,0,1,.27-.14,9.33,9.33,0,0,0,1-.5L81.14,217.63c-.33.18-.66.35-1,.5l-.27.13"/></g></g></g><path class="cls-5" d="M113.07,176.07c0-.08,0-.16,0-.24s0-.11,0-.16v-.09l0-.25a2.34,2.34,0,0,0,0-.26s0,0,0-.08v-.05s0-.09,0-.13l-.06-.27a1.22,1.22,0,0,0-.06-.26h0c0-.09,0-.18-.07-.27s0-.19-.08-.28,0-.07,0-.11l0,0,0-.11-.09-.26a2.77,2.77,0,0,0-.1-.26v0l0,0a1.34,1.34,0,0,0-.07-.18c0-.08-.07-.16-.1-.25l-.12-.24h0l-.13-.26c0-.1-.1-.2-.15-.3l0-.08-.07-.14-.13-.23c-.07-.12-.14-.24-.22-.36-.27-.43-.53-.86-.79-1.3l-.09-.16c-.25-.44-.5-.88-.74-1.32l-.42-.81-.2-.38-.57-1.19-.11-.24c-.15-.33-.3-.67-.44-1,0-.1-.09-.19-.13-.29-.16-.4-.33-.8-.48-1.2l-.08-.21c-.13-.34-.26-.68-.38-1a3.38,3.38,0,0,0-.11-.34c-.14-.39-.27-.79-.39-1.18l0-.06c-.12-.41-.24-.82-.35-1.23l-.09-.35c-.09-.32-.16-.63-.24-.94,0-.12-.05-.23-.07-.34-.1-.41-.18-.82-.26-1.22,0-.06,0-.11,0-.16-.07-.36-.13-.72-.18-1.07,0-.11,0-.22-.05-.34,0-.36-.09-.72-.13-1.08,0,0,0-.09,0-.13,0-.4-.07-.79-.09-1.19,0-.1,0-.2,0-.3,0-.33,0-.65,0-1v-.25c0-.41,0-.82,0-1.23,0-.64.09-1.26.17-1.85l0-.22c.08-.54.19-1.07.31-1.58l.06-.23c.13-.5.27-1,.44-1.44,0,0,0,0,0-.08.17-.45.37-.88.57-1.3.1-.2.22-.39.33-.58s.28-.5.43-.73.19-.27.29-.39a7.8,7.8,0,0,1,.56-.7,3.73,3.73,0,0,1,.32-.36c.21-.22.43-.42.66-.62l.31-.27a9.41,9.41,0,0,1,1.06-.72L54,171a11.06,11.06,0,0,0-1.06.73l-.31.27a7.69,7.69,0,0,0-.66.62l-.33.35c-.19.22-.38.46-.56.7l-.28.39c0,.07-.1.13-.14.2s-.19.36-.29.53-.23.39-.33.59l-.09.16c-.17.36-.33.73-.47,1.11v0l0,.08c-.1.3-.21.6-.3.92s-.09.34-.13.52,0,.15-.07.23a1.46,1.46,0,0,1,0,.2c-.07.3-.13.61-.18.92,0,.15,0,.31-.07.46l0,.22c0,.08,0,.16,0,.24,0,.29-.07.59-.09.89s0,.47-.05.72a1.21,1.21,0,0,1,0,.19c0,.31,0,.62,0,.93v.11a2.09,2.09,0,0,0,0,.25v.56c0,.14,0,.27,0,.4s0,.21,0,.31a1.7,1.7,0,0,0,0,.22c0,.3,0,.61.07.93v0s0,.08,0,.13c0,.25,0,.51.08.77,0,.1,0,.21,0,.31s0,.22.05.33a2.91,2.91,0,0,0,0,.31c0,.25.09.51.13.76l0,.16v.05c.06.33.13.67.2,1,0,.06,0,.12,0,.18s.05.22.08.33.07.33.11.49l.12.45c0,.12.06.24.1.36a1.6,1.6,0,0,0,0,.21c.1.34.19.67.3,1h0l0,0c.09.31.19.63.3.94,0,.08.06.16.08.25l.12.33c0,.13.09.26.13.39s.16.42.25.64a1.8,1.8,0,0,0,.08.21l0,.09c.12.3.24.61.37.92,0,.06,0,.12.08.19l.12.28c.06.15.12.29.19.44s.17.38.26.57a2.56,2.56,0,0,0,.11.24,1.17,1.17,0,0,0,.05.11c.15.33.31.65.47,1a.31.31,0,0,0,0,.1c.06.13.13.26.2.39l.33.64.09.16c.24.45.48.89.74,1.33l.08.14v0c.26.44.52.87.79,1.3.12.19.23.39.34.59a1,1,0,0,1,.08.14c.12.21.22.42.32.63h0c.1.22.2.45.29.68v0c.09.22.17.44.24.67l0,.05c.07.22.13.45.19.67h0c.06.22.1.44.14.66v0c0,.21.06.43.08.64v0c0,.22,0,.43,0,.64a5.3,5.3,0,0,1,0,.57v0c0,.17,0,.33-.07.49l0,.06a3,3,0,0,1-.11.43.31.31,0,0,1,0,.08c0,.12-.09.25-.15.37v0a3.41,3.41,0,0,1-.21.38,2.56,2.56,0,0,1-.36.44l-.09.09a2.87,2.87,0,0,1-.44.34l56.38-32.77a2.81,2.81,0,0,0,.44-.33l.1-.1a2.19,2.19,0,0,0,.35-.44h0a4,4,0,0,0,.2-.35h0s0,0,0,0l.1-.24s0-.09,0-.13l0-.08a.25.25,0,0,1,0-.07,2,2,0,0,0,.07-.26s0-.07,0-.1v-.06s0-.06,0-.09,0-.17,0-.25,0-.09,0-.14v-.11c0-.08,0-.16,0-.24v-.5Z"/><path class="cls-6" d="M80.71,116.69a6.85,6.85,0,0,0,.71-.37L137.8,83.56c-.23.13-.47.25-.71.37l-.23.1-.52.21-.21.07a9.32,9.32,0,0,1-1.18.32l-.21,0c-.27,0-.54.09-.82.12l-.22,0c-.3,0-.6,0-.9,0h-.11c-.25,0-.51,0-.76,0l-.39,0-.44,0-.45-.07-.38-.06-.54-.12-.29-.06c-.27-.07-.55-.14-.83-.23l-.14,0-.7-.24-.27-.1-.57-.22-.31-.14-.56-.24-.3-.15-.81-.4-.76-.42c-.64-.38-1.28-.79-1.91-1.22l-.12-.08c-.58-.41-1.16-.85-1.73-1.31l-.19-.16c-.56-.45-1.1-.92-1.63-1.42l-.19-.18c-.54-.5-1.07-1-1.59-1.58l-.13-.14c-.55-.59-1.1-1.2-1.62-1.83l0,0c-.53-.65-1.06-1.32-1.56-2h0c-.46-.63-.9-1.27-1.33-1.91l-.77-1.23c-.21-.35-.43-.69-.63-1l-.28-.5c-.34-.59-.66-1.18-1-1.78,0-.07-.07-.13-.1-.2q-.55-1.09-1-2.22a.54.54,0,0,0,0-.11c-.31-.73-.61-1.47-.89-2.21a.88.88,0,0,0,0-.15c-.28-.76-.53-1.52-.77-2.28l0-.13c-.22-.74-.42-1.47-.59-2.2,0-.07,0-.14,0-.21-.17-.76-.32-1.51-.44-2.26v0q-.18-1.12-.27-2.25c0-.06,0-.12,0-.18-.06-.75-.09-1.48-.09-2.21s0-1.43.1-2.1a1.1,1.1,0,0,1,0-.18c.06-.62.15-1.21.26-1.78,0-.08,0-.16,0-.23.12-.55.25-1.08.41-1.59,0-.1.06-.19.1-.29a13.53,13.53,0,0,1,.53-1.35l.06-.16a11.43,11.43,0,0,1,.77-1.38,2.43,2.43,0,0,1,.14-.2,9.48,9.48,0,0,1,.72-.95c.09-.11.2-.22.3-.33a7.71,7.71,0,0,1,.71-.69l.31-.27a9.17,9.17,0,0,1,1.11-.77L54.31,69.69a8.52,8.52,0,0,0-1.11.78,3.88,3.88,0,0,0-.31.26,9.49,9.49,0,0,0-.72.7c-.1.11-.2.21-.3.33a10.27,10.27,0,0,0-.72.95,2.31,2.31,0,0,1-.14.19l0,0a11.31,11.31,0,0,0-.71,1.29s0,0,0,.05a1,1,0,0,1-.07.15c-.13.29-.26.59-.38.9l-.15.46-.09.29-.09.27c-.09.31-.18.63-.25,1,0,.11,0,.23-.07.34s0,.16,0,.23-.05.24-.07.36c-.05.3-.1.61-.14.92,0,.16,0,.34,0,.51a1,1,0,0,1,0,.17,1.79,1.79,0,0,1,0,.23l-.06.9c0,.3,0,.61,0,.92v0c0,.29,0,.58,0,.87s0,.61,0,.92l0,.43c0,.06,0,.12,0,.18s0,.22,0,.32c0,.32.07.63.11.94s.08.64.13,1v.07c0,.3.1.6.16.9s.13.67.2,1l.09.36a1.94,1.94,0,0,0,.05.2c0,.15.06.3.1.44.08.34.17.68.26,1s.15.49.22.74c0,0,0,.09,0,.14l0,.13c.1.33.21.66.32,1s.22.65.34,1a1.34,1.34,0,0,0,.07.18.58.58,0,0,0,0,.14c.08.21.15.41.23.61s.25.63.37.93.19.45.29.67l0,.12.06.13c.13.31.27.61.42.92s.32.68.49,1c0,0,0,.1.07.16l.11.19c.13.27.27.54.41.8l.55,1c.1.16.19.33.28.5l.11.19c.17.29.36.56.53.84s.5.83.77,1.23l.12.2c.39.58.79,1.15,1.21,1.71v0c.28.37.56.75.85,1.11s.47.59.71.88l0,0v0c.24.29.49.58.74.86s.49.56.74.83l.12.13.14.14.52.55.81.8.25.23.2.18.39.37.85.74.38.31.19.16.29.23c.27.22.55.43.84.64l.61.43.11.09.11.07.81.54.81.49.19.11.62.35.14.07c.21.12.42.22.63.33l.17.08.31.14.27.13.28.12.32.13.16.08.41.15.27.1.08,0,.62.2.14,0h0l.78.22h0l.29.07.48.1h.06l.39.07.37.06h.08l.43,0,.33,0h.06l.76,0h.11c.31,0,.61,0,.9,0h.08l.15,0c.27,0,.55-.07.81-.12l.15,0,.06,0a9.47,9.47,0,0,0,1.19-.32.29.29,0,0,1,.1,0l.11,0a5.49,5.49,0,0,0,.51-.21Z"/><path class="cls-7" d="M69.79,1.78l-.42-.23c-.18-.09-.35-.19-.53-.27l-.34-.17-.08,0L68.31,1,67.79.81l-.52-.2-.09,0-.08,0L66.75.44,66.21.29,66,.23l-.12,0-.16,0L65.11.08l-.35,0h-.23l-.61,0h-.68c-.25,0-.5.06-.75.11h0l-.16,0a5.59,5.59,0,0,0-.73.2l-.06,0a5.32,5.32,0,0,0-1,.46L4.15,33.64a6.51,6.51,0,0,1,1-.46c.25-.09.52-.16.79-.23l.16,0a7.56,7.56,0,0,1,1-.12h.2a8.26,8.26,0,0,1,1,0h.12A8.61,8.61,0,0,1,9.46,33l.11,0c.38.09.76.19,1.15.32l.08,0c.4.14.81.3,1.23.49l.08,0c.43.2.86.42,1.29.67L51.93,56.79,108.31,24Z"/><path class="cls-8" d="M113.48,32.74c0-.09,0-.17,0-.25a2,2,0,0,0,0-.25,2.28,2.28,0,0,0,0-.26c0-.08,0-.17,0-.26h0c0-.09,0-.17,0-.25a2.56,2.56,0,0,0,0-.27l-.06-.27c0-.09,0-.18-.08-.27l-.06-.22v0l0,0a2,2,0,0,0-.08-.26l-.09-.27-.1-.25a1.86,1.86,0,0,0-.1-.25c0-.07-.06-.14-.08-.2v0l0,0a2.72,2.72,0,0,0-.11-.25l-.13-.27c0-.11-.11-.21-.16-.31l-.19-.35,0,0,0-.05c-.12-.22-.26-.43-.4-.64s-.21-.31-.32-.46h0c-.08-.1-.15-.2-.23-.29l-.2-.25-.2-.24-.2-.22,0,0v0s-.1-.11-.16-.16a2.28,2.28,0,0,0-.22-.22l-.22-.21-.23-.2-.12-.1,0,0-.08-.07L109,24.5l-.23-.16-.22-.15-.22-.13,0,0L51.93,56.79a8.69,8.69,0,0,1,1,.72l0,0a9.75,9.75,0,0,1,.94.89h0a11,11,0,0,1,.87,1h0c.27.37.53.76.76,1.15l0,0a11.5,11.5,0,0,1,.62,1.21v0a10.24,10.24,0,0,1,.47,1.27h0A8.7,8.7,0,0,1,57,64.47h0a7.76,7.76,0,0,1,.11,1.26,4.93,4.93,0,0,1,0,.55v0c0,.16,0,.32-.07.47l0,.06c0,.15-.06.29-.1.43l0,.07a3.62,3.62,0,0,1-.13.35l0,.08a3.72,3.72,0,0,1-.19.34s0,0,0,0h0a2.93,2.93,0,0,1-.34.43l-.1.1a2.81,2.81,0,0,1-.44.33L112,36.28a2,2,0,0,0,.44-.33.47.47,0,0,0,.1-.1,2.44,2.44,0,0,0,.35-.43h0a.08.08,0,0,1,0,0,3.07,3.07,0,0,0,.17-.31v0l0-.08c0-.06,0-.12.08-.19a.88.88,0,0,1,0-.15.24.24,0,0,1,0-.08s0,0,0-.05,0-.17.07-.26a.36.36,0,0,1,0-.11V34s0,0,0-.07l0-.25s0-.1,0-.15v-.1a1.93,1.93,0,0,0,0-.24,2,2,0,0,0,0-.25h0Z"/><path class="cls-9" d="M191.63,167.85c0-.18.05-.34.08-.5v-.06c0-.16.07-.31.11-.45l0-.08c0-.12.08-.24.13-.36s0-.05,0-.07a2.37,2.37,0,0,1,.19-.35.08.08,0,0,1,0,0h0a2.63,2.63,0,0,1,.36-.45l.1-.1a3.68,3.68,0,0,1,.44-.34l-56.38,32.77a2.07,2.07,0,0,0-.44.34l-.11.1a3.13,3.13,0,0,0-.36.44h0l0,.05a2.4,2.4,0,0,0-.17.32l0,0,0,.07-.09.21a.88.88,0,0,1-.05.15s0,.05,0,.08a.08.08,0,0,0,0,0,2.29,2.29,0,0,0-.07.28l0,.11v.06s0,.06,0,.09a2,2,0,0,0,0,.26s0,.1,0,.15v0a.11.11,0,0,0,0,.05c0,.09,0,.17,0,.26v.26h0l-.13,44.09a13.11,13.11,0,0,1-.07,1.42.57.57,0,0,1,0,.13c0,.42-.1.82-.17,1.21,0,0,0,.1,0,.15a9.14,9.14,0,0,1-.28,1.09l-.06.19c-.11.32-.23.63-.36.92,0,0,0,.07,0,.11a9.67,9.67,0,0,1-.53.95l-.07.1a6.94,6.94,0,0,1-.51.67l-.2.22c-.16.17-.32.33-.49.48l-.21.18a6.28,6.28,0,0,1-.75.52l56.38-32.77a5.57,5.57,0,0,0,.75-.52l.22-.18c.16-.15.33-.31.48-.47l.2-.22c.18-.21.35-.44.51-.67a.76.76,0,0,1,.08-.11v0a8.51,8.51,0,0,0,.5-.89v0a.42.42,0,0,0,0-.1c.09-.2.18-.4.26-.6l.11-.33.06-.19.06-.17c.06-.22.12-.44.17-.66s0-.17.05-.25l0-.16a1.89,1.89,0,0,1,.05-.23l.09-.62c0-.12,0-.24,0-.36a.49.49,0,0,1,0-.12c0-.05,0-.1,0-.15,0-.2,0-.41,0-.61s0-.42,0-.63v0l.12-44.09a5.49,5.49,0,0,1,0-.58Z"/><path class="cls-10" d="M200.56,140.79a3,3,0,0,1-.41.18,2.38,2.38,0,0,1-.38.11h0a2.6,2.6,0,0,1-.39,0h-.53a2,2,0,0,1-.42-.07h0a2.64,2.64,0,0,1-.46-.13h0l-.49-.2,0,0c-.17-.07-.33-.16-.5-.25a9.6,9.6,0,0,1-1-.72l0,0a8.8,8.8,0,0,1-.95-.89h0a11,11,0,0,1-.87-1h0c-.27-.37-.52-.76-.76-1.16l0,0a11.42,11.42,0,0,1-.61-1.21v0a11.36,11.36,0,0,1-.47-1.27h0a10.27,10.27,0,0,1-.3-1.28h0a7.73,7.73,0,0,1-.1-1.26l-56.39,32.77a1.69,1.69,0,0,0,0,.23,2,2,0,0,0,0,.25,2,2,0,0,0,0,.25l0,.26,0,.26h0a1.87,1.87,0,0,0,0,.25,2.56,2.56,0,0,0,.05.27,2.68,2.68,0,0,0,.07.27,2.68,2.68,0,0,0,.07.27l.06.22v.06c0,.09,0,.18.08.26s.06.18.1.27l.09.25c0,.09.07.17.1.25l.09.2h0l0,0a2.72,2.72,0,0,0,.11.25l.13.27.16.31.2.35,0,0,0,.05c.13.22.26.43.4.64s.21.31.32.46h0l.22.29.2.25.2.24.21.22,0,0,0,0,.15.16a2.28,2.28,0,0,0,.22.22l.23.21.23.2.11.1,0,0,.09.07.22.17.23.16.22.15.22.13.05,0,.16.09.21.11.12.06,0,0,0,0,.2.09.21.07h.05l.16.05.21.06.08,0H142l.09,0,.23,0h.74l.28,0h0l.35-.1h0a2.09,2.09,0,0,0,.4-.19Z"/><g class="cls-2"><g class="cls-11"><path class="cls-12" d="M234.27,173.63v0c0-.29,0-.59,0-.89s0-.61-.08-.92-.06-.62-.1-.93-.09-.63-.13-.94-.11-.65-.17-1-.13-.66-.2-1-.15-.67-.24-1-.17-.67-.26-1l-.3-1c-.1-.33-.21-.66-.32-1s-.22-.65-.34-1-.23-.63-.35-.94-.25-.62-.38-.94l-.39-.92c-.14-.31-.28-.62-.43-.92s-.32-.68-.49-1-.39-.77-.59-1.16c-.32-.59-.65-1.18-1-1.76-.47-.79-1-1.56-1.47-2.32-.38-.57-.77-1.13-1.18-1.67-.26-.37-.54-.73-.82-1.08s-.5-.63-.76-.94-.48-.58-.73-.85-.49-.56-.75-.84l-.77-.81-.81-.8-.83-.77-.85-.74c-.28-.24-.56-.46-.84-.69l-.84-.64-.81-.57-.78-.52,0,0-.82-.5-.18-.11-.61-.34-.78-.4-.78-.37-.76-.32-.77-.29-.77-.25-.78-.22-.8-.18-.82-.13-.85-.09-.91,0c-.33,0-.65,0-1,.05a9.66,9.66,0,0,0-2.43.51,10.38,10.38,0,0,0-1.59.73L145.2,172.88a8.82,8.82,0,0,1,1.59-.73,9.64,9.64,0,0,1,1.33-.36c.36-.07.72-.12,1.09-.16s.65,0,1,0,.6,0,.9,0l.86.09c.27,0,.54.08.82.13l.8.18.78.21.77.26c.25.09.51.18.76.29l.77.32c.26.11.51.24.77.36l.78.41.61.34.19.11c.27.16.54.32.81.5l0,0,.78.51.81.58.84.64.84.69.84.73c.28.26.56.51.83.78s.55.53.82.8l.77.81.75.83c.24.28.49.56.73.85l.76.95c.28.35.55.71.82,1.07.41.55.8,1.11,1.18,1.68.51.76,1,1.53,1.46,2.32.35.58.67,1.17,1,1.76.21.38.41.77.6,1.16s.33.67.49,1,.29.62.42.93.27.61.4.92.25.62.37.94.24.62.36.94.23.65.34,1,.22.66.32,1,.2.68.29,1,.19.68.27,1,.16.67.23,1,.14.66.2,1,.12.64.17,1,.1.63.14.94.07.62.1.93,0,.61.07.92,0,.59,0,.89h0c0,.32,0,.63,0,.94s0,.6,0,.9l-.06.92-.09.9c0,.32-.09.63-.14.94s-.12.62-.19.93-.16.65-.25,1-.22.7-.35,1-.3.76-.47,1.12a12.44,12.44,0,0,1-.72,1.3,9.72,9.72,0,0,1-3.3,3.21l56.38-32.77a9.62,9.62,0,0,0,3.3-3.21,10.9,10.9,0,0,0,.73-1.3c.17-.36.32-.73.47-1.11s.24-.68.34-1,.18-.63.25-1,.13-.61.19-.93.1-.62.14-.94.07-.59.09-.89.05-.62.06-.93,0-.6,0-.9S234.28,173.94,234.27,173.63Z"/></g></g><polygon class="cls-13" points="135.45 119.98 191.83 87.22 191.71 131.48 135.32 164.25 135.45 119.98"/><path class="cls-7" d="M140.34,42.52l-.16-.09-.21-.11-.14-.07h0l0,0-.21-.09-.21-.08h-.07l-.14-.05-.21,0-.1,0h-.11l-.23,0h-.74l-.3,0h-.07a2.46,2.46,0,0,0-.29.09h0a2,2,0,0,0-.4.18h0L80.28,74.93a1.76,1.76,0,0,1,.39-.19,3,3,0,0,1,.32-.09l.06,0,.39,0H82l.43.07h0a4,4,0,0,1,.46.13h0a4.94,4.94,0,0,1,.49.19l0,0q.26.12.51.27l38.53,22.24,56.39-32.76Z"/><path class="cls-14" d="M125.05,99.3l.13.11c.38.31.74.63,1.11,1l.12.11q.56.53,1.08,1.08l.09.1c.38.4.74.81,1.1,1.24l0,0q.54.66,1.05,1.35l0,0c.3.41.58.83.87,1.25s.35.56.52.84.3.47.43.7l.2.35c.22.4.44.8.65,1.21,0,0,0,.08.07.13.25.5.49,1,.71,1.5l0,.09c.22.49.42,1,.61,1.5l0,.09c.19.52.37,1,.52,1.55l0,.1c.15.49.28,1,.4,1.49l0,.14c.12.51.22,1,.3,1.54h0c.09.52.15,1,.19,1.53a.53.53,0,0,0,0,.13c0,.5.06,1,.06,1.5l56.38-32.76c0-.2,0-.4,0-.59s0-.42,0-.63a2.83,2.83,0,0,0,0-.29.49.49,0,0,0,0-.12,1.5,1.5,0,0,0,0-.22c0-.22,0-.43-.07-.64s-.06-.44-.09-.66h0v0c0-.21-.06-.42-.1-.62s-.09-.46-.14-.68l-.06-.24,0-.14c0-.1,0-.2-.07-.3l-.18-.69-.15-.5s0-.06,0-.1l0-.09c-.07-.23-.14-.45-.22-.67s-.15-.45-.23-.67c0,0,0-.08,0-.12a.36.36,0,0,1,0-.09c0-.14-.1-.28-.16-.42s-.17-.43-.25-.64-.13-.29-.19-.44l0-.08a.42.42,0,0,0,0-.1l-.28-.63c-.11-.22-.22-.45-.34-.68l-.05-.1-.06-.13-.29-.55c-.12-.22-.24-.44-.37-.66l-.19-.34s-.05-.1-.08-.14-.24-.37-.35-.56l-.53-.85-.09-.14q-.37-.56-.78-1.11l0,0h0l-.58-.75c-.15-.2-.31-.4-.47-.59l0,0h0l-.51-.58c-.16-.19-.33-.38-.5-.56L184,68.9l-.09-.09-.36-.38-.55-.54-.17-.16-.13-.12-.27-.25c-.19-.18-.39-.34-.58-.51l-.26-.21-.13-.1-.19-.16-.57-.44-.42-.29-.07-.06a.18.18,0,0,1-.07,0l-.56-.36-.55-.34-.12-.07L122.49,97.53c.44.26.87.53,1.3.83l.08.06C124.27,98.69,124.66,99,125.05,99.3Z"/><path class="cls-15" d="M122.49,97.53c7.18,4.15,13,14.2,13,22.45l-.13,44.27a11.37,11.37,0,0,0,5.17,8.94c1.49.86,2.91.94,3.9.22,3.52-2.58,8.68-2.52,14.42.8.35.2.69.41,1,.63,9.81,6.26,17.68,20,18,31.54.39,12.79-8.37,18.08-19.19,11.83-5.75-3.32-10.9-9.21-14.39-15.84a10.81,10.81,0,0,0-3.88-4.27c-3-1.61-5.19-.09-5.2,3.14l-.13,44.09c0,8.25-5.86,11.58-13,7.43L83.52,230.52a11.36,11.36,0,0,1-5.16-8.94c0-1.71.65-3,1.77-3.45,4-1.72,6.58-6.18,6.6-12.78,0-12.15-8.51-26.94-19.08-33-.26-.15-.51-.29-.77-.42-9.81-5.23-17.86-.78-18.41,10.19-.34,6.89,2.22,14.77,6.46,21.5a10.77,10.77,0,0,1,1.76,5.5c0,3.29-2.34,4.61-5.2,3L13,189.78c-7.18-4.14-13-14.2-13-22.45L.36,42c0-8.26,5.86-11.59,13-7.44L51.93,56.79a11.39,11.39,0,0,1,5.17,8.95c0,1.71-.66,3-1.78,3.45-4,1.71-6.58,6.17-6.6,12.77,0,12.16,8.52,27,19.09,33.06.25.15.51.29.76.42,9.81,5.23,17.86.77,18.41-10.19.35-6.89-2.23-14.78-6.46-21.51a10.66,10.66,0,0,1-1.75-5.49c0-3.29,2.33-4.61,5.19-3Z"/></g></g></g></svg>