<svg xmlns="http://www.w3.org/2000/svg" xmlns:xlink="http://www.w3.org/1999/xlink" viewBox="0 0 101.47 221.1"><defs><style>.cls-1{fill:#487eff;}.cls-2{fill:#edf2f9;}.cls-3{fill:#e5e5e5;}.cls-4{fill:#f3f8ff;}.cls-5{fill:#efd0bb;}.cls-6{fill:#ffe5cf;}.cls-7{fill:url(#未命名的渐变_12);}.cls-8{fill:url(#未命名的渐变_78);}.cls-9{fill:url(#未命名的渐变_188);}.cls-10{fill:url(#未命名的渐变_183);}.cls-11{fill:#d6b49d;}.cls-12{fill:#373f49;}.cls-13{fill:#fdfefe;}.cls-14{fill:url(#未命名的渐变_130);}.cls-15{fill:url(#未命名的渐变_130-2);}</style><linearGradient id="未命名的渐变_12" x1="49.19" y1="92.14" x2="53.77" y2="53.43" gradientUnits="userSpaceOnUse"><stop offset="0" stop-color="#562db5"/><stop offset="1" stop-color="#220c57"/></linearGradient><linearGradient id="未命名的渐变_78" x1="35.21" y1="92.41" x2="50.43" y2="52.01" gradientUnits="userSpaceOnUse"><stop offset="0" stop-color="#6736d9"/><stop offset="1" stop-color="#2f1179"/></linearGradient><linearGradient id="未命名的渐变_188" x1="67.86" y1="31.91" x2="101.47" y2="31.91" gradientUnits="userSpaceOnUse"><stop offset="0" stop-color="#d02565"/><stop offset="1" stop-color="#b82542"/></linearGradient><linearGradient id="未命名的渐变_183" x1="67.02" y1="31.07" x2="100.63" y2="31.07" gradientUnits="userSpaceOnUse"><stop offset="0" stop-color="#ff4a74"/><stop offset="1" stop-color="#e62c47"/></linearGradient><linearGradient id="未命名的渐变_130" x1="43.54" y1="4.79" x2="54.5" y2="4.79" gradientUnits="userSpaceOnUse"><stop offset="0" stop-color="#6736d9"/><stop offset="1" stop-color="#a06ffd"/></linearGradient><linearGradient id="未命名的渐变_130-2" x1="42.27" y1="4.21" x2="51.83" y2="4.21" xlink:href="#未命名的渐变_130"/></defs><title>资源 34</title><g id="图层_2" data-name="图层 2"><g id="图层_3" data-name="图层 3"><polygon class="cls-1" points="64.76 94.88 39.61 80.09 40.6 76.41 65.75 91.2 64.76 94.88"/><polygon class="cls-1" points="56.71 120.55 33.5 106.89 34.16 104.44 57.38 118.09 56.71 120.55"/><polygon class="cls-1" points="51.08 148.34 24.65 132.79 25.31 130.34 51.74 145.89 51.08 148.34"/><polygon class="cls-1" points="45.13 175.95 16.11 158.88 16.78 156.43 45.79 173.5 45.13 175.95"/><polygon class="cls-1" points="39.5 203.75 7.26 184.78 7.92 182.33 40.16 201.29 39.5 203.75"/><polygon class="cls-1" points="2.58 200.04 43.48 82.36 40.9 80.85 0 198.52 2.58 200.04"/><polygon class="cls-1" points="38.37 221.1 63.47 94.12 60.89 92.61 35.79 219.58 38.37 221.1"/><path class="cls-2" d="M54,108.63s9.8,3.57,9.8,4.64v1.24H46l-.36-5.7Z"/><path class="cls-3" d="M47.37,114.51h16.4v-1.24a.27.27,0,0,0-.07-.18H47.37Z"/><path class="cls-4" d="M37.3,115.5l.35,2.31s8.74,7.13,10.35,7.13,5.52-1.78,6.77-2.13c1.61-1.79-7-8.74-7.31-10.17S37.3,115.5,37.3,115.5Z"/><path class="cls-5" d="M55.57,91s-1.16,13.1-1.6,17.65c-4.55,4.37-8.47.27-8.47.27L46,90.09Z"/><path class="cls-6" d="M48.71,92,48,114.07s-3.57,7.31-10.7,1.43V92Z"/><path class="cls-7" d="M58.69,51.13c0,8.74-2.4,40.21-2.4,40.21S48.53,93.92,45.5,93c-3.27-1,1.69-43.24,1.69-43.24Z"/><path class="cls-8" d="M54.86,48.54S49.69,92.23,49.51,94c-2.14,1.25-13.55.36-13.55.36V50.86Z"/><polygon class="cls-5" points="66.45 29.82 68.95 31.96 76.79 34.1 73.58 40.16 60.34 34.36 61.63 29.64 66.45 29.82"/><path class="cls-2" d="M54.24,19,66.45,29.82s-5.17,3-4.46,6.24c-2.32-1.24-7.13-5.7-7.13-5.7Z"/><path class="cls-9" d="M101.36,27.64A3.46,3.46,0,0,0,95,26.81a1,1,0,0,1-.62.46h0a.94.94,0,0,1-1.11-.73l-1.45-6.81A2.35,2.35,0,0,0,89,17.92l-6.81,1.45a.94.94,0,0,0-.73,1.11h0a1,1,0,0,0,.46.62,3.46,3.46,0,1,1-4.45.94.91.91,0,0,0,.16-.75h0a.93.93,0,0,0-1.11-.72L69.73,22a2.35,2.35,0,0,0-1.82,2.78L72,44.1a2.35,2.35,0,0,0,2.79,1.81l6.81-1.45a.94.94,0,0,0,.73-1.11h0a1,1,0,0,0-.46-.62A3.46,3.46,0,1,1,87,39a3.42,3.42,0,0,1-.62,2.79.93.93,0,0,0-.16.76h0a.94.94,0,0,0,1.11.72l6.81-1.45A2.36,2.36,0,0,0,95.91,39l-1.45-6.78a1,1,0,0,1,.68-1.13.92.92,0,0,1,.79.16,3.46,3.46,0,0,0,5.43-3.63Z"/><path class="cls-10" d="M100.52,26.8A3.46,3.46,0,0,0,94.14,26a.91.91,0,0,1-.62.46h0a.93.93,0,0,1-1.11-.72L91,18.88a2.34,2.34,0,0,0-2.78-1.81l-6.82,1.45a.93.93,0,0,0-.72,1.11h0a.94.94,0,0,0,.46.62,3.47,3.47,0,1,1-4.46.95,1,1,0,0,0,.17-.76h0a1,1,0,0,0-1.11-.72l-6.82,1.45A2.35,2.35,0,0,0,67.07,24l4.1,19.29A2.34,2.34,0,0,0,74,45.06l6.82-1.44a.94.94,0,0,0,.72-1.11h0a1,1,0,0,0-.46-.63A3.42,3.42,0,0,1,79.3,39.4a3.46,3.46,0,1,1,6.19,1.54,1,1,0,0,0-.17.75h0a.93.93,0,0,0,1.11.72L93.25,41a2.35,2.35,0,0,0,1.81-2.79l-1.44-6.79a1,1,0,0,1,.68-1.13.94.94,0,0,1,.79.16,3.46,3.46,0,0,0,5.43-3.62Z"/><path class="cls-4" d="M44.61,15.65c-4.83,0-8.38,2.14-9.45,4.28s-1.78,31-1.43,33.34c4.64,1.25,24.25.89,25.85-2.14-.53-5.71-.95-28.29-4.45-31.38C52.1,17.07,49.6,15.65,44.61,15.65Z"/><path class="cls-6" d="M45.39,28.3l2.87,4.2s20,3.21,21.76,3,5.43-1.7,6-.63c.4.8-2,1.34-2,1.34s2.85.59,4.46.71c1.15.09,1.07,1.25-.18,1.25,1.69.27,1.07,1.61-.09,1.34,1.6.18,1.07,1.78-.18,1.43,1.25.35.89,1.42-.27,1.16a55,55,0,0,0-7.58-1c-2,0-23.17-1.6-24.6-2s-8.2-7.66-8.2-7.66Z"/><path class="cls-11" d="M78.22,38.29h0s-1.92-.23-3.18-.4a.09.09,0,0,1-.07-.1.09.09,0,0,1,.1-.08c1.26.17,3.15.4,3.17.4a.1.1,0,0,1,.08.1A.09.09,0,0,1,78.22,38.29Z"/><path class="cls-11" d="M78.13,39.63h0s-2.25-.32-3.39-.51a.08.08,0,0,1-.07-.1.08.08,0,0,1,.1-.07c1.14.18,3.36.5,3.38.5a.1.1,0,0,1,.08.1A.09.09,0,0,1,78.13,39.63Z"/><path class="cls-11" d="M78,41.06h0s-2.16-.35-3.39-.53a.1.1,0,0,1-.08-.1.11.11,0,0,1,.1-.08c1.24.18,3.37.53,3.39.54A.09.09,0,0,1,78,41,.11.11,0,0,1,78,41.06Z"/><path class="cls-5" d="M44.16,9.22,42.29,16a6.7,6.7,0,0,0,4.37,3.3c2.49.54,3.48-.52,3.48-.52V11.19Z"/><ellipse class="cls-6" cx="48.62" cy="7.67" rx="4.99" ry="6.11"/><polygon class="cls-12" points="43.09 8.43 43.56 11.38 44.07 11.37 44.88 7.36 43.09 8.43"/><path class="cls-13" d="M36.23,18.5c-2.68,2.32-2.85,6.42-2.23,10.07.8,4.67,2.23,9.72,2.23,9.72A11,11,0,0,1,46,29.2C43.54,25.81,38.07,16.91,36.23,18.5Z"/><path class="cls-14" d="M43.54,8.16c4.81-.89,11-5.44,11-6.33S51,1.92,51,1.92Z"/><path class="cls-15" d="M51.83,1.83C50.4-.31,45.59-1,43.09,2.19c-1.86,2.38,0,6.24,0,6.24S49.3,4.74,51.83,1.83Z"/><path class="cls-6" d="M44.79,8.52c-1.07-.72-1.93-.28-1.43,1.07a1.49,1.49,0,0,0,2,.89Z"/></g></g></svg>