<svg xmlns="http://www.w3.org/2000/svg" xmlns:xlink="http://www.w3.org/1999/xlink" viewBox="0 0 60.89 86.5"><defs><style>.cls-1{fill:#ffe5cf;}.cls-2{fill:url(#未命名的渐变_130);}.cls-3{fill:url(#未命名的渐变_130-2);}.cls-4{fill:url(#未命名的渐变_130-3);}.cls-5{fill:#efd0bb;}.cls-6{fill:url(#未命名的渐变_130-4);}.cls-7{fill:#373f49;}.cls-8{fill:#d6b49d;}</style><linearGradient id="未命名的渐变_130" x1="156.68" y1="84.46" x2="167.9" y2="84.46" gradientTransform="matrix(-1, 0, 0, 1, 209, 0)" gradientUnits="userSpaceOnUse"><stop offset="0" stop-color="#6736d9"/><stop offset="1" stop-color="#a06ffd"/></linearGradient><linearGradient id="未命名的渐变_130-2" x1="186.25" y1="83.26" x2="197.98" y2="83.26" xlink:href="#未命名的渐变_130"/><linearGradient id="未命名的渐变_130-3" x1="160.42" y1="38.44" x2="183.49" y2="39.58" xlink:href="#未命名的渐变_130"/><linearGradient id="未命名的渐变_130-4" x1="157.46" y1="20.59" x2="194.09" y2="20.59" xlink:href="#未命名的渐变_130"/></defs><title>资源 35</title><g id="图层_2" data-name="图层 2"><g id="图层_3" data-name="图层 3"><path class="cls-1" d="M47.17,53.93l5.15,30.39s-7.8,1.56-11.22,2.18a15.27,15.27,0,0,1,2.49-4L37.82,56.1Z"/><path class="cls-1" d="M32.84,58.91,22.24,82.6,11,85.1c.62-1.87,4.2-5.46,4.2-5.46l8.66-24.32Z"/><path class="cls-2" d="M42.56,83.8c-1,2.29,7.89.52,9.43-1.38h0l.33,1.9s-7.8,1.56-11.22,2.18A11.36,11.36,0,0,1,42.56,83.8Z"/><path class="cls-3" d="M22.75,81.42l-.51,1.18L11,85.1a13,13,0,0,1,2.31-3.41C11.13,84.37,19.28,82.76,22.75,81.42Z"/><path class="cls-4" d="M50.29,15.9c3.43,5.61,5.92,7.79,6.24,20s4.36,18.08,4.36,18.08S43.12,62,36.58,61.41a54.82,54.82,0,0,1-13.83-3.76l12-33.34Z"/><path class="cls-5" d="M15.75,11C14.17,16.52,11,28.88,11,28.88L4.71,39.54s-2.6,2.92-4,3.54-.49,2.13,1.75.73C.81,46.63.74,46.94.16,48.08s.62,1.43,1.14.59c-.59,1.14.18,2,1.07.89-.58,1.14.49,2,1.15.59-.29,1.21.78,2.1,1.44.65S17.1,31.94,17.1,31.94,21.35,19.8,23,13.76C23.74,11.1,16,10.17,15.75,11Z"/><path class="cls-6" d="M20.31,6.08c4.42-.47,10,.47,15.64,2.65s15.59,6.86,15.59,6.86S46.86,29,40.32,32.11s-10.91,3.11-10.91,3.11,0-7.79-1.56-8.72-5.61-1.06-7.33-4.21c-1.87-3.43-5.61-9.67-5.61-9.67Z"/><circle class="cls-7" cx="13.67" cy="2.03" r="2.03"/><circle class="cls-7" cx="17.17" cy="1.64" r="1.48"/><path class="cls-1" d="M15.85,12.31a47.67,47.67,0,0,1,5.76.78c2.94.59,3-7,.94-6.86s-8.26.16-8.26.16Z"/><ellipse class="cls-1" cx="11.79" cy="9.97" rx="5.18" ry="6.28" transform="translate(-3.6 11.26) rotate(-45)"/><path class="cls-7" d="M6.5,12c3.78-.39,6.85-3.74,6.85-3.74a4.63,4.63,0,0,0,3.12-1.87,6.22,6.22,0,0,0-9-1.56C4,7.64,6.5,12,6.5,12Z"/><path class="cls-1" d="M12.89,9c-.32-3.74,2.8-1.88,2,.93S12.89,9,12.89,9Z"/><path class="cls-1" d="M28.63,7.64c-2.18.62-2.81,2.18-2.5,7.48s.94,16.21.94,16.21L26,48.32s-1.09,3.27-2.34,4.2,0,2.19,1.87.32c-.93,3.11-.93,3.42-1.25,4.67s.94,1.25,1.25.31c-.31,1.25.62,1.87,1.25.63-.31,1.24.93,1.87,1.24.31,0,1.24,1.25,1.87,1.56.31s2.81-8.11,2.81-9.66,1.56-17.77,1.56-17.77-.32-18.08-.63-20.26S31,7,28.63,7.64Z"/><path class="cls-8" d="M3.53,50.34a.16.16,0,0,0,.14-.08C4.75,48.26,6,46.08,6,46.05a.15.15,0,0,0-.27-.15S4.48,48.11,3.4,50.11a.15.15,0,0,0,.06.21A.1.1,0,0,0,3.53,50.34Z"/><path class="cls-8" d="M2.44,49.56a.15.15,0,0,0,.15-.1,41.2,41.2,0,0,1,2.17-4,.16.16,0,0,0,0-.21.17.17,0,0,0-.22.05A41.29,41.29,0,0,0,2.3,49.36a.14.14,0,0,0,.09.19Z"/><path class="cls-8" d="M28.14,59a.16.16,0,0,0,.15-.11c.61-2.19,1.34-4.59,1.35-4.62a.15.15,0,0,0-.1-.19.16.16,0,0,0-.2.1S28.6,56.61,28,58.8a.16.16,0,0,0,.1.2Z"/><path class="cls-8" d="M26.9,58.48a.15.15,0,0,0,.15-.14,42.56,42.56,0,0,1,1.24-4.4.15.15,0,0,0-.1-.19.16.16,0,0,0-.2.09,39.65,39.65,0,0,0-1.25,4.47.16.16,0,0,0,.14.17Z"/><path class="cls-8" d="M25.55,58.15A.15.15,0,0,0,25.7,58a41.56,41.56,0,0,1,1.23-4.4.15.15,0,0,0-.1-.2.15.15,0,0,0-.19.1A39,39,0,0,0,25.39,58a.16.16,0,0,0,.14.17Z"/></g></g></svg>