<?xml version="1.0" encoding="utf-8"?>
<!-- Generator: Adobe Illustrator 24.0.3, SVG Export Plug-In . SVG Version: 6.00 Build 0)  -->
<svg version="1.1" id="图层_1" xmlns="http://www.w3.org/2000/svg" xmlns:xlink="http://www.w3.org/1999/xlink" x="0px" y="0px"
	 viewBox="0 0 499.1 305.4" style="enable-background:new 0 0 499.1 305.4;" xml:space="preserve">
<style type="text/css">
	.st0{fill:url(#SVGID_1_);}
	.st1{fill:url(#SVGID_2_);}
	.st2{clip-path:url(#SVGID_4_);}
	.st3{fill:#858585;}
	.st4{fill:url(#SVGID_5_);}
	.st5{fill:url(#SVGID_6_);}
	.st6{fill:url(#SVGID_7_);}
	.st7{fill:url(#SVGID_8_);}
	.st8{fill:url(#SVGID_9_);}
</style>
<title>资源 36</title>
<g id="图层_2_1_">
	<g id="图层_3">
		<g>
			
				<linearGradient id="SVGID_1_" gradientUnits="userSpaceOnUse" x1="17.84" y1="237.0448" x2="89.85" y2="237.0448" gradientTransform="matrix(1 0 0 -1 0 305.8898)">
				<stop  offset="0" style="stop-color:#000102"/>
				<stop  offset="1" style="stop-color:#070916"/>
			</linearGradient>
			<path class="st0" d="M85.6,74.4c-0.3-0.2-0.7-0.4-1.1-0.6l-0.4-0.2l-0.6-0.3h-0.1c-0.5-0.2-1-0.4-1.6-0.5l0,0l-0.4-0.1
				c-0.3-0.1-0.7-0.2-1-0.2h-0.1c-0.2-0.1-0.4-0.1-0.7-0.1L79,72.2h-0.1L78,72.1h-0.4l0,0C77,72,76.6,72,76.1,72h-0.3
				c-0.4,0-0.7,0-1.1,0h-0.1h-1.7h-1.3h-2.7l-1.8-0.1h-0.9c-0.8-0.1-1.7-0.1-2.5-0.2h-0.2c-0.9-0.1-1.8-0.2-2.7-0.3L60,71.3
				l-1.8-0.2L57,70.9l-1.4-0.2l-1.2-0.2l-1.4-0.3l-1.8-0.4l-0.9-0.2c-0.9-0.2-1.8-0.5-2.7-0.7l0,0c-1-0.3-2-0.6-2.9-0.9l-0.9-0.3
				c-0.7-0.2-1.4-0.5-2-0.7l-1.1-0.4l-0.8-0.3c-0.5-0.2-0.9-0.4-1.4-0.6l-0.8-0.4c-0.5-0.2-1-0.4-1.4-0.7c-0.2-0.1-0.5-0.2-0.7-0.3
				c-0.7-0.4-1.4-0.7-2-1.1s-1.3-0.8-2-1.2C22.4,56,17.9,48.6,17.9,41.2l0,16.3c0,7.4,4.5,14.8,13.6,20.7c0.7,0.4,1.3,0.8,2,1.2
				c0.7,0.4,1.3,0.8,2,1.1c0.2,0.1,0.5,0.2,0.7,0.3l1.4,0.7l0.8,0.4l1.4,0.6l0.9,0.4l0.5,0.2l0.5,0.2c0.7,0.3,1.3,0.5,2,0.7
				c0.3,0.1,0.6,0.2,0.9,0.3c1,0.3,1.9,0.6,2.9,0.9l0,0c0.9,0.2,1.8,0.5,2.6,0.7l0.9,0.2c0.6,0.1,1.2,0.3,1.8,0.4l0.2,0.1l1.2,0.2
				l1.2,0.2l1.5,0.2l1.2,0.2h0.2l1.6,0.2l0.9,0.1c0.9,0.1,1.8,0.2,2.7,0.3h0.1c0.9,0.1,1.7,0.1,2.6,0.2H67l1.6,0.1H70
				c0.5,0,1,0,1.4,0h1.3H74h0.4H76c0.5,0,1,0,1.5,0.1h0.4c0.3,0,0.7,0.1,1,0.1l0.7,0.1l0.8,0.1l1,0.2l0.4,0.1
				c0.5,0.2,1.1,0.3,1.6,0.5l0.8,0.3l0.4,0.2c0.4,0.2,0.7,0.4,1.1,0.6c2.8,1.6,4.2,3.8,4.2,5.9V80.2C89.8,78.1,88.4,76,85.6,74.4z"
				/>
			
				<linearGradient id="SVGID_2_" gradientUnits="userSpaceOnUse" x1="282.53" y1="222.7348" x2="354.16" y2="222.7348" gradientTransform="matrix(1 0 0 -1 0 305.8898)">
				<stop  offset="0" style="stop-color:#000102"/>
				<stop  offset="1" style="stop-color:#070916"/>
			</linearGradient>
			<path class="st1" d="M354.2,55.7c0,0.1,0,0.3,0,0.4s0,0.3,0,0.5L354,57c0,0.1-0.1,0.3-0.1,0.4c0,0.1-0.1,0.2-0.1,0.3
				c-0.1,0.2-0.1,0.3-0.2,0.4c-0.1,0.1-0.1,0.2-0.2,0.3c-0.1,0.2-0.2,0.3-0.3,0.5c-0.1,0.2-0.2,0.3-0.4,0.5c0,0-0.1,0.1-0.1,0.1
				c-0.2,0.2-0.4,0.4-0.6,0.6l-0.4,0.4l-0.4,0.3l-0.5,0.3c-0.2,0.1-0.4,0.2-0.5,0.3c-0.4,0.3-0.9,0.5-1.4,0.7l-0.4,0.2
				c-0.4,0.2-0.7,0.3-1.1,0.4l-0.5,0.2l-0.6,0.2l-0.7,0.2l-0.7,0.1l-0.7,0.1c-0.4,0.1-0.8,0.1-1.2,0.2l-0.5,0.1
				c-0.3,0-0.6,0-0.9,0.1h-0.7H339h-1.3h-3.5h-1.3h-0.6h-0.7L330,64l-1.3,0.1c-0.5,0-1,0.1-1.6,0.1h-0.7c-0.2,0-0.3,0.1-0.5,0.1
				c-0.8,0.1-1.5,0.2-2.3,0.3l-0.9,0.1c-1,0.1-2.1,0.3-3.1,0.5h-0.1c-0.6,0.1-1.2,0.2-1.8,0.4l-0.7,0.1c-0.9,0.2-1.7,0.4-2.5,0.6
				l-0.6,0.2c-0.6,0.2-1.3,0.3-1.9,0.5l-0.9,0.3l-1.4,0.4h-0.1c-0.9,0.3-1.9,0.6-2.8,1l-0.7,0.3c-0.7,0.3-1.4,0.5-2,0.8l-0.9,0.4
				c-0.6,0.3-1.2,0.6-1.9,0.9l-0.8,0.4c-0.9,0.4-1.7,0.9-2.5,1.4l-0.6,0.4l-0.6,0.4c-0.3,0.2-0.6,0.4-1,0.6l-0.9,0.6l-0.9,0.6
				l-0.8,0.6l-0.8,0.7l-0.7,0.6l-0.8,0.7l-0.3,0.3c-0.1,0.1-0.2,0.2-0.3,0.3c-0.4,0.4-0.8,0.8-1.2,1.2l-0.4,0.4
				c-0.5,0.5-0.9,1.1-1.4,1.6l-0.1,0.1c-0.1,0.1-0.2,0.3-0.3,0.4c-0.3,0.3-0.5,0.7-0.8,1c-0.1,0.2-0.2,0.4-0.4,0.6s-0.4,0.6-0.6,0.9
				l-0.2,0.3c-0.1,0.1-0.1,0.3-0.2,0.4c-0.1,0.3-0.3,0.5-0.4,0.8s-0.2,0.4-0.3,0.7s-0.2,0.5-0.3,0.8s-0.1,0.2-0.1,0.4
				s-0.1,0.2-0.1,0.3s-0.2,0.5-0.2,0.8s-0.1,0.5-0.2,0.7s-0.1,0.5-0.2,0.8s-0.1,0.3-0.1,0.4c0,0.1,0,0.2,0,0.3
				c0,0.3-0.1,0.5-0.1,0.8l-0.1,0.7c0,0.3,0,0.5,0,0.8s0,0.3,0,0.5v0.5l0,16.3c0-0.3,0-0.6,0-0.9s0-0.5,0.1-0.8s0-0.5,0.1-0.7
				s0.1-0.5,0.1-0.8s0.1-0.5,0.1-0.7s0.1-0.5,0.2-0.8l0.2-0.7c0.1-0.3,0.2-0.5,0.2-0.8s0.2-0.4,0.3-0.7s0.2-0.5,0.3-0.8l0.3-0.7
				l0.4-0.8l0.4-0.6c0.2-0.3,0.4-0.6,0.6-0.9s0.2-0.4,0.4-0.6s0.5-0.7,0.8-1l0.3-0.4c0.4-0.5,0.9-1.1,1.4-1.6l0.4-0.4
				c0.4-0.4,0.8-0.8,1.2-1.2l0.6-0.5c0.2-0.2,0.5-0.4,0.8-0.7l0.7-0.6l0.8-0.7l0.8-0.6L295,91l0.9-0.6l1-0.6l1.2-0.8
				c0.8-0.5,1.6-0.9,2.5-1.4l0.8-0.4c0.6-0.3,1.2-0.6,1.9-0.9l0.9-0.4c0.7-0.3,1.4-0.6,2-0.8l0.7-0.3c0.9-0.3,1.9-0.7,2.8-1l1.5-0.5
				l0.9-0.3c0.6-0.2,1.3-0.3,1.9-0.5l0.6-0.2c0.8-0.2,1.7-0.4,2.5-0.6l0.7-0.1c0.6-0.1,1.3-0.3,1.9-0.4c1-0.2,2-0.3,3.1-0.5l0.9-0.1
				l2.3-0.3l1.2-0.1l1.6-0.1l1.3-0.1l1.6-0.1h1.3c0.4,0,0.9,0,1.3,0h1.4h1.3h2h1.8h0.6c0.3,0,0.6,0,0.9-0.1h0.1l0.4-0.1
				c0.4,0,0.8-0.1,1.2-0.2h0.3l0.4-0.1l0.7-0.1l0.7-0.2l0.6-0.2l0.3-0.1l0.3-0.1c0.4-0.1,0.7-0.3,1.1-0.4l0.4-0.2
				c0.5-0.2,0.9-0.4,1.4-0.7l0.2-0.1l0.4-0.2c0.2-0.1,0.4-0.2,0.5-0.3s0.3-0.2,0.4-0.3s0.3-0.2,0.4-0.4l0.1-0.1
				c0.2-0.2,0.4-0.3,0.5-0.5l0.1-0.1c0.1-0.1,0.2-0.2,0.3-0.3c0,0,0.1-0.1,0.1-0.2s0.2-0.3,0.3-0.5s0.1-0.1,0.1-0.2v-0.1
				c0.1-0.2,0.1-0.3,0.2-0.4s0.1-0.2,0.1-0.3v-0.1c0-0.1,0.1-0.3,0.1-0.4s0.1-0.2,0.1-0.3c0,0,0-0.1,0-0.1c0-0.1,0-0.3,0-0.4
				c0-0.1,0-0.2,0-0.3V72l0,0L354.2,55.7z"/>
			<g>
				<g>
					<defs>
						<path id="SVGID_3_" d="M388.6,94.7l0,16.3c0-0.7,0-1.5-0.1-2.2c0-0.2,0-0.4,0-0.6l0-16.3c0,0.2,0,0.4,0,0.6
							C388.5,93.3,388.6,94,388.6,94.7z"/>
					</defs>
					<clipPath id="SVGID_4_">
						<use xlink:href="#SVGID_3_"  style="overflow:visible;"/>
					</clipPath>
					<g class="st2">
						<g>
							<path class="st3" d="M388.6,94.7l0,16.3c0-0.7,0-1.5-0.1-2.2c0-0.2,0-0.4,0-0.6l0-16.3c0,0.2,0,0.4,0,0.6
								C388.5,93.3,388.6,94,388.6,94.7"/>
						</g>
					</g>
				</g>
			</g>
			
				<linearGradient id="SVGID_5_" gradientUnits="userSpaceOnUse" x1="110.56" y1="118.3848" x2="216.5434" y2="118.3848" gradientTransform="matrix(1 0 0 -1 0 305.8898)">
				<stop  offset="0" style="stop-color:#000102"/>
				<stop  offset="1" style="stop-color:#070916"/>
			</linearGradient>
			<path class="st4" d="M201,172.8c-0.5-0.3-1-0.6-1.5-0.9c-0.9-0.5-1.8-0.9-2.7-1.3l-0.6-0.3c-0.9-0.4-1.8-0.8-2.7-1.2h-0.1
				l-0.3-0.1c-0.8-0.3-1.6-0.6-2.5-0.9l-0.7-0.2c-0.9-0.3-1.9-0.6-2.8-0.9H187l-0.4-0.1c-0.7-0.2-1.4-0.4-2.1-0.6l-0.9-0.2l-1.8-0.4
				l-0.5-0.1l-0.5-0.1l-1.5-0.3l-1-0.2l-1.6-0.3l-0.7-0.1H176c-0.6-0.1-1.1-0.1-1.7-0.2l-0.8-0.1c-0.8-0.1-1.6-0.2-2.5-0.2l0,0
				c-0.8-0.1-1.7-0.1-2.5-0.2h-0.8L166,164h-3.6c-0.5,0-1.1,0-1.6,0h-0.5h-0.5l-1.9,0.1l-0.9,0.1c-0.8,0.1-1.6,0.1-2.4,0.2h-0.3l0,0
				c-1,0.1-2,0.2-3,0.4l-0.8,0.1c-0.9,0.1-1.7,0.3-2.6,0.4l-0.4,0.1h-0.1l-1.9,0.4l-0.5,0.1c-0.8,0.2-1.6,0.4-2.4,0.5l-0.6,0.2
				l-1.7,0.4l-0.9,0.3l-1.4,0.4l-0.2,0.1l-0.6,0.2l-1.6,0.5l-0.9,0.3l-1.5,0.6l-0.8,0.3l-1.5,0.7l-0.7,0.3c-0.7,0.3-1.4,0.7-2.1,1
				c-0.7,0.3-1.3,0.7-1.9,1l-0.4,0.3l-0.5,0.3l-0.7,0.4c-0.3,0.2-0.6,0.4-0.9,0.6l-1,0.7c-0.3,0.2-0.6,0.4-0.8,0.6l-0.9,0.7
				c-0.2,0.2-0.5,0.4-0.8,0.6l-0.8,0.7c-0.2,0.2-0.5,0.4-0.7,0.6l-0.1,0.1l-0.3,0.3c-0.4,0.4-0.8,0.8-1.2,1.1l-0.5,0.6
				c-0.3,0.4-0.7,0.8-0.9,1.1l-0.3,0.3l-0.2,0.2c-0.2,0.3-0.4,0.6-0.6,0.9l-0.5,0.6c-0.2,0.3-0.4,0.6-0.6,0.9s-0.2,0.3-0.3,0.5
				l-0.1,0.1l-0.4,0.7c-0.1,0.3-0.3,0.5-0.4,0.8s-0.2,0.5-0.3,0.7s-0.2,0.4-0.3,0.6c0,0,0,0.1,0,0.1c-0.1,0.2-0.2,0.5-0.2,0.7
				s-0.2,0.6-0.2,0.8s-0.1,0.5-0.2,0.7s-0.1,0.4-0.2,0.6s0,0.1,0,0.2c0,0.2-0.1,0.5-0.1,0.7s-0.1,0.5-0.1,0.8s0,0.5,0,0.7
				s0,0.4,0,0.6s0,0.3,0,0.5v16.3c0-0.3,0-0.7,0-1s0-0.5,0.1-0.7s0.1-0.5,0.1-0.8s0.1-0.5,0.1-0.7s0.1-0.6,0.2-0.8s0.1-0.5,0.2-0.7
				s0.2-0.5,0.3-0.8s0.1-0.5,0.2-0.7s0.2-0.5,0.3-0.8s0.2-0.5,0.3-0.8l0.4-0.8c0.1-0.2,0.2-0.5,0.4-0.7s0.3-0.4,0.4-0.6
				s0.4-0.6,0.6-0.9s0.3-0.4,0.4-0.6s0.4-0.6,0.6-0.9l0.5-0.6c0.3-0.4,0.6-0.8,1-1.1l0.5-0.6c0.4-0.4,0.8-0.8,1.2-1.2
				c0.2-0.1,0.3-0.3,0.5-0.5l0.7-0.6c0.3-0.2,0.6-0.5,0.8-0.7l0.7-0.6l0.9-0.7l0.8-0.6l1-0.7l0.9-0.6c0.4-0.2,0.8-0.5,1.2-0.7
				l0.4-0.3c0.6-0.4,1.2-0.7,1.9-1s1.4-0.7,2.1-1.1l0.7-0.3c0.5-0.2,1-0.4,1.5-0.7l0.8-0.4c0.5-0.2,1-0.4,1.5-0.6l0.9-0.3l1.6-0.5
				l0.8-0.3l1.4-0.4l0.9-0.2c0.6-0.2,1.1-0.3,1.7-0.4l0.6-0.2c0.8-0.2,1.6-0.4,2.4-0.5l0.6-0.1l1.9-0.4l0.5-0.1
				c0.9-0.1,1.7-0.3,2.6-0.4l0.8-0.1c1-0.1,2-0.3,3-0.4h0.3l2.4-0.2h0.9l1.9-0.1h1h1.6h1h1.6h0.9l1.7,0.1h0.8c0.8,0,1.7,0.1,2.5,0.2
				l0,0c0.8,0.1,1.7,0.1,2.5,0.2l0.8,0.1c0.6,0.1,1.1,0.1,1.6,0.2l0.9,0.1l1.6,0.2l1,0.2l1.5,0.3l1,0.2l1.8,0.4l0.9,0.2
				c0.7,0.2,1.4,0.4,2.1,0.6l0.4,0.1c1,0.3,1.9,0.6,2.8,0.9l0.7,0.2c0.8,0.3,1.6,0.6,2.4,0.9l0.4,0.1c0.9,0.4,1.8,0.8,2.7,1.2
				l0.6,0.3c0.9,0.4,1.8,0.9,2.6,1.3c0.5,0.3,1,0.6,1.5,0.9c10.4,6,15.7,13.9,15.6,21.9v-16.3C216.6,186.8,211.4,178.8,201,172.8z"
				/>
			
				<linearGradient id="SVGID_6_" gradientUnits="userSpaceOnUse" x1="275.0536" y1="14.8205" x2="498.8736" y2="148.7705" gradientTransform="matrix(1 0 0 -1 0 305.8898)">
				<stop  offset="0" style="stop-color:#000102"/>
				<stop  offset="1" style="stop-color:#070916"/>
			</linearGradient>
			<path class="st5" d="M499.1,145.3c0,0.2,0,0.4,0,0.6l-0.1,0.5c0,0.2,0,0.4-0.1,0.5s-0.1,0.3-0.1,0.5s-0.1,0.4-0.1,0.5
				s-0.1,0.3-0.1,0.5s-0.1,0.3-0.2,0.5s-0.1,0.3-0.2,0.5s-0.1,0.4-0.2,0.6s-0.1,0.3-0.2,0.4s-0.2,0.4-0.3,0.5l-0.2,0.4
				c-0.1,0.2-0.2,0.4-0.4,0.6l-0.2,0.4c-0.2,0.2-0.3,0.5-0.5,0.7l-0.2,0.3c-0.3,0.4-0.6,0.7-0.9,1.1l-0.3,0.3l-0.8,0.8l-0.4,0.4
				l-0.5,0.5l-0.5,0.4l-0.6,0.4l-0.5,0.4l-0.6,0.4l-0.6,0.4l-0.7,0.4l-0.8,0.5L275.8,283l0,16.3l212.9-123.7l0.4-0.3l0.4-0.2
				l0.6-0.4l0.6-0.4l0.6-0.4c0.2-0.1,0.4-0.3,0.5-0.4l0.6-0.4l0.5-0.4l0.5-0.5l0.2-0.2l0.2-0.2c0.3-0.3,0.6-0.5,0.8-0.8
				c0.1-0.1,0.2-0.2,0.3-0.3c0.3-0.4,0.6-0.7,0.9-1.1l0,0l0.2-0.3c0.2-0.2,0.4-0.5,0.5-0.7c0.1-0.1,0.2-0.3,0.2-0.4s0.3-0.4,0.4-0.6
				l0.1-0.2c0-0.1,0.1-0.2,0.1-0.3s0.2-0.4,0.3-0.6l0.2-0.4c0.1-0.2,0.2-0.4,0.2-0.6l0.1-0.2c0-0.1,0-0.1,0.1-0.2s0.1-0.4,0.2-0.5
				s0.1-0.3,0.1-0.5s0.1-0.4,0.1-0.5s0-0.2,0.1-0.3c0-0.1,0-0.1,0-0.2c0-0.2,0.1-0.4,0.1-0.5l0.1-0.5c0-0.2,0-0.4,0-0.5s0-0.2,0-0.3
				s0-0.2,0-0.3v-16.3C499.1,144.9,499.1,145.1,499.1,145.3z"/>
			
				<linearGradient id="SVGID_7_" gradientUnits="userSpaceOnUse" x1="4.480781e-02" y1="161.3348" x2="499.1314" y2="161.3348" gradientTransform="matrix(1 0 0 -1 0 305.8898)">
				<stop  offset="0" style="stop-color:#1C2B45"/>
				<stop  offset="1" style="stop-color:#1A253D"/>
			</linearGradient>
			<path class="st6" d="M488.5,129.8c14.1,8.1,14.2,21.4,0.2,29.5L275.8,283c-14,8.1-36.8,8.1-50.9,0l-75.7-43.7
				c-5.6-3.2-5.6-8.5-0.1-11.8c3.4-1.8,7.2-2.6,11-2.4c14.7,0.6,29.8-2.4,41-8.9c20.6-12,20.5-31.4-0.2-43.4c-0.5-0.3-1-0.6-1.5-0.9
				c-20-10.7-51.2-10.8-71.3-0.3c-12.7,6.6-18.4,15.9-17.3,24.9c0.3,2.4-1.2,4.7-4.1,6.4c-5.6,3.2-14.7,3.2-20.3,0l-75.6-43.7
				c-14.1-8.1-14.2-21.4-0.2-29.5l75.2-43.7c5.6-3.2,5.6-8.5-0.1-11.7c-3.4-1.8-7.3-2.6-11.1-2.4c-14.7,0.5-29.8-2.4-41.1-9
				c-0.7-0.4-1.3-0.8-2-1.2C13.2,50.1,13.3,32,31.7,20.5c20.5-12.9,55.2-13.2,76.4-0.9c11.3,6.5,16.5,15.2,15.5,23.8
				c-0.3,2.4,1.3,4.7,4.2,6.4c6.1,3.3,15.1,3,20.6-0.2l74.9-43.5c14-8.1,36.8-8.1,50.9,0l75.7,43.7c5.6,3.2,5.6,8.5,0.1,11.8
				c-3.4,1.8-7.2,2.7-11,2.5c-14.7-0.6-29.8,2.4-41,8.9c-20.6,12-20.5,31.4,0.2,43.4c0.5,0.3,1,0.6,1.5,0.8
				c20,10.7,51.2,10.8,71.3,0.3c12.7-6.6,18.4-15.9,17.4-24.9c-0.3-2.4,1.2-4.7,4.1-6.4c5.6-3.2,14.7-3.2,20.3,0L488.5,129.8z"/>
			
				<linearGradient id="SVGID_8_" gradientUnits="userSpaceOnUse" x1="2.3864" y1="152.4886" x2="362.9364" y2="-52.9114" gradientTransform="matrix(1 0 0 -1 0 305.8898)">
				<stop  offset="0" style="stop-color:#000102"/>
				<stop  offset="1" style="stop-color:#070916"/>
			</linearGradient>
			<path class="st7" d="M110.7,198c0,0.1-0.1,0.3-0.1,0.4s-0.1,0.3-0.1,0.4c0,0.1-0.1,0.2-0.2,0.4c-0.1,0.1-0.1,0.3-0.2,0.4
				s-0.1,0.2-0.2,0.3s-0.2,0.3-0.3,0.5l-0.2,0.3c-0.2,0.2-0.4,0.4-0.6,0.7l-0.3,0.2c-0.1,0.1-0.3,0.2-0.4,0.4l-0.4,0.3
				c-0.2,0.1-0.3,0.2-0.5,0.4s-0.3,0.2-0.5,0.3c-0.4,0.2-0.9,0.5-1.3,0.7l-0.4,0.2c-0.4,0.1-0.7,0.3-1.1,0.4l-0.4,0.1
				c-0.2,0.1-0.5,0.1-0.7,0.2l-0.6,0.2l-0.8,0.2l-0.6,0.1c-0.5,0.1-1.1,0.2-1.6,0.2h-0.5l-1,0.1h-0.6h-0.8h-0.7h-0.7l-0.7-0.1
				l-0.7-0.1l-0.6-0.1L92,205c-0.2,0-0.4-0.1-0.6-0.1s-0.6-0.1-0.9-0.2l-0.5-0.1c-0.5-0.1-1-0.3-1.5-0.5c-0.2-0.1-0.5-0.2-0.7-0.3
				l-0.4-0.2c-0.4-0.2-0.7-0.4-1-0.6l-75.7-43.7c-4.9-2.8-8.1-6.2-9.6-9.9c-0.7-1.6-1-3.3-1-5l0,0v16.3c0,5.4,3.5,10.8,10.6,14.9
				l75.7,43.7c0.3,0.2,0.7,0.4,1,0.6l0.4,0.2l0.7,0.3h0.1c0.5,0.2,1,0.4,1.5,0.5h0.1l0.4,0.1l0.9,0.2l0.2,0.1l0.4,0.1l0.8,0.1
				l0.3,0.1h0.3l0.7,0.1h0.3h0.3h0.7h0.4c0.1,0,0.2,0,0.3,0c0.3,0,0.5,0,0.8,0h0.4h0.2c0.3,0,0.7,0,1-0.1h0.4h0.1
				c0.6,0,1.1-0.1,1.6-0.2h0.1l0.5-0.1l0.8-0.2l0.6-0.1l0.7-0.2l0.2-0.1l0.3-0.1c0.4-0.1,0.8-0.3,1.1-0.4c0.1-0.1,0.3-0.1,0.4-0.2
				c0.5-0.2,0.9-0.4,1.3-0.7l0.2-0.1c0.1-0.1,0.2-0.1,0.3-0.2l0.5-0.3l0.4-0.3l0.4-0.4l0.1-0.1c0.1-0.1,0.1-0.1,0.2-0.2
				c0.2-0.2,0.4-0.4,0.6-0.6l0.1-0.1c0,0,0.1-0.1,0.1-0.1c0.1-0.2,0.2-0.3,0.3-0.5s0.1-0.1,0.2-0.2c0,0,0-0.1,0-0.1
				c0.1-0.1,0.1-0.3,0.2-0.4s0.1-0.2,0.1-0.3c0,0,0,0,0-0.1c0-0.1,0.1-0.3,0.1-0.4s0.1-0.2,0.1-0.3c0,0,0,0,0-0.1c0-0.1,0-0.3,0-0.4
				s0-0.2,0-0.3v-0.1V197c0,0.2,0,0.3,0,0.5C110.7,197.8,110.7,197.9,110.7,198z"/>
			
				<linearGradient id="SVGID_9_" gradientUnits="userSpaceOnUse" x1="3.9159" y1="155.1776" x2="364.4759" y2="-50.2224" gradientTransform="matrix(1 0 0 -1 0 305.8898)">
				<stop  offset="0" style="stop-color:#000102"/>
				<stop  offset="1" style="stop-color:#070916"/>
			</linearGradient>
			<path class="st8" d="M273.4,284.3l-0.7,0.3c-0.8,0.4-1.5,0.7-2.3,1l-0.3,0.1c-0.9,0.3-1.7,0.6-2.6,0.9c-0.6,0.2-1.2,0.4-1.9,0.5
				c-0.5,0.1-0.9,0.3-1.4,0.4c-0.6,0.2-1.3,0.3-2,0.4c-0.5,0.1-1,0.2-1.5,0.3l-0.6,0.1c-0.8,0.1-1.6,0.2-2.5,0.4l-0.7,0.1
				c-1,0.1-1.9,0.2-2.9,0.2h-0.5c-0.7,0-1.3,0-2,0.1s-1.3,0-2,0l-1.6,0c-0.6,0-1.2,0-1.8-0.1s-1.1-0.1-1.7-0.1s-1.2-0.1-1.8-0.2
				s-1.1-0.1-1.6-0.2s-1.3-0.2-1.9-0.3s-1.3-0.2-2-0.4l-0.5-0.1c-0.9-0.2-1.8-0.5-2.7-0.7l-0.8-0.2c-0.7-0.2-1.5-0.5-2.2-0.7
				l-0.6-0.2c-0.6-0.2-1.3-0.5-1.9-0.8l-0.9-0.4c-0.9-0.4-1.8-0.9-2.6-1.4l-75.6-43.7c-1.5-0.8-2.8-2-3.6-3.5
				c-0.4-0.7-0.6-1.6-0.6-2.4l-0.1,16.3c0,2.1,1.4,4.3,4.2,5.9l75.7,43.7c0.9,0.5,1.7,0.9,2.6,1.4c0.3,0.1,0.6,0.3,0.9,0.4
				c0.5,0.2,1.1,0.5,1.6,0.7l0.3,0.1l0.6,0.2c0.7,0.3,1.4,0.5,2.2,0.8l0.8,0.2l0.5,0.2c0.7,0.2,1.5,0.4,2.2,0.6l0.5,0.1
				c0.4,0.1,0.7,0.2,1.1,0.2l0.9,0.2c0.6,0.1,1.3,0.2,1.9,0.3c0.3,0,0.5,0.1,0.8,0.1l0.8,0.1l1.8,0.2c0.3,0,0.6,0.1,0.9,0.1
				s0.5,0,0.8,0l1.8,0.1c0.3,0,0.6,0,0.9,0h0.7c0.7,0,1.3,0,2,0h1l1,0h0.5c0.8,0,1.6-0.1,2.5-0.2l0.5-0.1l0.7-0.1
				c0.8-0.1,1.7-0.2,2.5-0.4l0.6-0.1l0.3,0c0.4-0.1,0.8-0.2,1.2-0.2c0.7-0.1,1.3-0.3,2-0.4l1.4-0.4c0.6-0.2,1.2-0.3,1.9-0.5l0.4-0.1
				c0.7-0.2,1.5-0.5,2.2-0.8l0.3-0.1c0.8-0.3,1.5-0.6,2.3-1l0.7-0.3c0.8-0.4,1.6-0.8,2.4-1.3l0-16.3
				C275,283.4,274.2,283.9,273.4,284.3z"/>
		</g>
	</g>
</g>
</svg>
