<svg xmlns="http://www.w3.org/2000/svg" xmlns:xlink="http://www.w3.org/1999/xlink" viewBox="0 0 37.79 52.06"><defs><style>.cls-1{fill:url(#未命名的渐变_159);}.cls-2{fill:url(#未命名的渐变_159-2);}.cls-3{fill:url(#未命名的渐变_153);}</style><linearGradient id="未命名的渐变_159" x1="51.67" y1="2.37" x2="39.6" y2="45.09" gradientTransform="matrix(-1, 0, 0, 1, 63.22, 0)" gradientUnits="userSpaceOnUse"><stop offset="0" stop-color="#009587"/><stop offset="1" stop-color="#0286a7"/></linearGradient><linearGradient id="未命名的渐变_159-2" x1="46.01" y1="0.77" x2="33.94" y2="43.5" xlink:href="#未命名的渐变_159"/><linearGradient id="未命名的渐变_153" x1="30" y1="27.36" x2="63.22" y2="27.36" gradientTransform="matrix(-1, 0, 0, 1, 63.22, 0)" gradientUnits="userSpaceOnUse"><stop offset="0" stop-color="#08ffb3"/><stop offset="1" stop-color="#0df"/></linearGradient></defs><title>资源 37</title><g id="图层_2" data-name="图层 2"><g id="图层_3" data-name="图层 3"><path class="cls-1" d="M11.23,21.12c0-.06,0-.11,0-.17s0-.4.07-.6a.14.14,0,0,0,0-.06c0-.17.08-.33.12-.49a.88.88,0,0,0,.05-.15c.05-.14.11-.27.17-.4l.05-.09a2.05,2.05,0,0,1,.26-.43l.08-.09a3.33,3.33,0,0,1,.25-.28l.11-.09a2.14,2.14,0,0,1,.39-.28l4.57-2.66a2.76,2.76,0,0,0-.39.28l-.1.09a2.27,2.27,0,0,0-.26.28l-.08.09c-.09.14-.18.28-.26.43s0,.07-.05.1a3.7,3.7,0,0,0-.16.4.53.53,0,0,0,0,.15c-.05.15-.09.31-.13.48s0,0,0,.07a5.59,5.59,0,0,0-.08.59.91.91,0,0,1,0,.17,4.17,4.17,0,0,0,0,.5v.17c0,.22,0,.45.06.68,0,0,0,.08,0,.11,0,.19.06.38.1.57l.06.26c0,.11,0,.21.08.32a2.81,2.81,0,0,0,.08.31c0,.08,0,.17.08.25l.12.36a1.59,1.59,0,0,1,.07.2c.07.18.14.37.22.55s.25.55.39.81c0,0,0,.05,0,.08.13.25.27.49.41.73a1,1,0,0,1,.08.11c.14.23.29.45.44.67a1.71,1.71,0,0,0,.11.14l.39.51.15.18.32.35.28.3c.18.17.35.34.54.5l.11.09a5.45,5.45,0,0,0,.47.37l.16.12a5.25,5.25,0,0,0,.58.38,6.91,6.91,0,0,0,.67.33l.2.08.38.13.22.07.22,0a2.2,2.2,0,0,0,.37.06,2.88,2.88,0,0,0,.41,0h.11a2.7,2.7,0,0,0,.41,0l.08,0a1.58,1.58,0,0,0,.31-.09l.09,0a2,2,0,0,0,.36-.17l-4.57,2.66,0,0-.27.13-.06,0-.09,0-.13.05-.19,0-.07,0h0a3.16,3.16,0,0,1-.32,0h-.36l-.22,0-.19,0-.17,0-.22-.05-.09,0-.13,0-.38-.13-.12,0-.08,0c-.22-.1-.45-.21-.67-.33L16,30.36l-.15-.12c-.16-.12-.32-.24-.47-.37l-.12-.09q-.24-.21-.48-.45l0-.06a3.83,3.83,0,0,1-.28-.29l-.25-.27-.07-.09L14,28.45l-.21-.27c-.07-.08-.12-.16-.18-.24l-.11-.14a.86.86,0,0,0-.07-.1c-.11-.15-.21-.31-.31-.46L13,27.13A.75.75,0,0,0,13,27l-.13-.22c-.09-.15-.17-.3-.25-.45l0-.05,0-.08c-.06-.11-.11-.22-.16-.32s-.15-.31-.22-.47v0c-.07-.16-.13-.32-.19-.48l0-.07c0-.07-.05-.14-.07-.2l-.09-.24,0-.12c0-.09,0-.17-.08-.25a1.21,1.21,0,0,1,0-.18s0-.09,0-.13,0-.22-.08-.33a1.24,1.24,0,0,0,0-.16.28.28,0,0,0,0-.09c0-.19-.07-.38-.1-.57,0,0,0-.06,0-.09v0c0-.23,0-.46,0-.68a1,1,0,0,1,0-.17C11.22,21.45,11.22,21.28,11.23,21.12Z"/><path class="cls-2" d="M29.17,44.41l.42-.35.21-.2.37-.38.19-.21c.12-.15.25-.3.37-.46l.13-.17c.15-.22.31-.45.45-.69l.08-.15c.11-.19.22-.38.32-.58s.08-.18.13-.27.15-.35.23-.52l.12-.3c.07-.19.13-.37.19-.56s.07-.19.1-.29.14-.48.2-.73c0,0,0-.1,0-.15.07-.3.14-.61.19-.92,0-.09,0-.18.05-.27s.07-.46.1-.69,0-.23,0-.35l.06-.65c0-.13,0-.25,0-.37l0-.72v-.32c0-.34,0-.69,0-1,0,0,0-.07,0-.1,0-.33,0-.65-.06-1l0-.36c0-.25-.05-.5-.08-.75L33,30.44c0-.24-.07-.48-.11-.72l-.06-.41c0-.27-.1-.55-.16-.82l-.06-.31c-.13-.6-.28-1.21-.45-1.82l-.06-.22c-.14-.5-.3-1-.46-1.53l-.12-.33c-.15-.45-.31-.89-.48-1.34,0,0,0-.08,0-.12-.18-.45-.36-.91-.56-1.36,0-.13-.11-.25-.16-.37Q30,20.57,29.76,20c-.05-.11-.1-.22-.16-.33q-.32-.66-.66-1.32c-.18-.33-.36-.66-.55-1L28,16.72l-.63-1c0-.08-.09-.15-.13-.22-.27-.42-.55-.83-.83-1.24l-.2-.28c-.3-.42-.6-.84-.92-1.24l-.06-.08c-.39-.51-.8-1-1.21-1.48-.05-.06-.11-.12-.16-.19-.25-.29-.51-.57-.77-.85l-.05,0c-.27-.3-.55-.58-.84-.86L22,9c-.37-.36-.75-.72-1.13-1l-.11-.11q-.6-.52-1.2-1l-.24-.18c-.39-.31-.79-.6-1.2-.88l-.21-.14c-.42-.28-.85-.55-1.28-.8s-.68-.38-1-.55l-.28-.14c-.28-.14-.56-.26-.84-.38l-.2-.09c-.3-.12-.6-.24-.89-.34l-.13,0-.75-.23L12.13,3l-.33-.08-.43-.09-.31-.05-.16,0a8.85,8.85,0,0,0-1-.1l-.17,0c-.32,0-.63,0-.94,0l-.22,0-.71.08-.21,0c-.27.05-.54.12-.81.19L6.69,3c-.22.06-.43.14-.64.22l-.22.1a6.45,6.45,0,0,0-.59.29L5,3.75,9.6,1.1l.09-.05L9.81,1A6.45,6.45,0,0,1,10.4.7l.11,0,.11,0c.21-.09.42-.16.64-.23l.11,0h0a7.91,7.91,0,0,1,.81-.19l.07,0h.14c.24,0,.47-.07.71-.09h.22a7.35,7.35,0,0,1,.94,0h.17c.33,0,.67.05,1,.1h.16l.31.06.43.08.33.08L17,.44l.09,0,.75.23.13,0,.89.34.06,0,.15.07.83.38.28.14c.35.17.69.36,1,.55s.85.52,1.27.8l.21.15c.41.27.81.56,1.21.87l.23.18q.6.48,1.2,1l.11.11c.38.34.76.69,1.14,1.06l.1.1.07.06c.28.28.56.57.83.86l.05,0c.26.28.52.57.77.86l.07.07.09.12c.41.47.82,1,1.21,1.47l0,0,.05.06c.31.41.61.82.91,1.24l.12.17a1.25,1.25,0,0,1,.08.12c.28.4.56.81.83,1.23l0,0a1,1,0,0,1,.1.17c.22.33.42.68.63,1a1.74,1.74,0,0,0,.11.18l.29.5.51.94,0,.06c.23.43.45.87.67,1.31a.54.54,0,0,0,0,.11,1.6,1.6,0,0,1,.1.23c.17.34.33.69.48,1l.1.22.06.15c.2.46.39.91.56,1.37v0l0,.09c.18.45.33.9.49,1.34l.06.19c0,.05,0,.1.05.15.17.51.32,1,.46,1.53l0,.08,0,.13c.17.62.32,1.22.45,1.82a.43.43,0,0,0,0,.05c0,.09,0,.17.05.26.06.28.11.55.16.82s0,.27.07.41.07.49.11.73l0,.22c0,.06,0,.13,0,.19,0,.25.06.5.08.75l0,.37c0,.33,0,.66.06,1a.34.34,0,0,1,0,.1c0,.36,0,.71,0,1.06,0,.1,0,.21,0,.31l0,.72c0,.13,0,.25,0,.37l-.06.65c0,.12,0,.24,0,.36s-.06.46-.1.68a2.7,2.7,0,0,0,0,.28c-.06.31-.12.61-.2.91l0,.15-.21.73-.09.29c-.07.19-.13.38-.2.56l-.12.3c-.07.18-.15.35-.23.52l-.13.27c-.1.2-.21.39-.32.58s-.05.11-.08.16c-.14.23-.29.46-.45.68l-.13.17c-.12.16-.24.32-.37.47l-.19.21-.37.37-.21.2a5,5,0,0,1-.42.36l-.19.15c-.22.16-.43.31-.66.45L28.31,45a7.66,7.66,0,0,0,.66-.45Z"/><path class="cls-3" d="M16.66,4.89A33.49,33.49,0,0,1,28.39,17.4c6.46,11.45,6.43,23.66-.08,27.62l-11.78,7L4.82,31.45C-1.64,20-1.6,7.8,4.9,3.83,8,2,12.23,2.33,16.66,4.89ZM12.11,25.4a11.6,11.6,0,0,0,4.47,5.34,5.35,5.35,0,0,0,2.05.71c2.38.25,3.73-1.87,3.25-5.05a12,12,0,0,0-5.27-8,3.79,3.79,0,0,0-3.8-.38c-1.82,1-2.12,4.13-.7,7.41"/></g></g></svg>