<svg xmlns="http://www.w3.org/2000/svg" xmlns:xlink="http://www.w3.org/1999/xlink" viewBox="0 0 61.74 121"><defs><style>.cls-1{fill:url(#未命名的渐变_70);}.cls-2{fill:url(#未命名的渐变_78);}.cls-3{fill:url(#未命名的渐变_75);}.cls-4{fill:url(#未命名的渐变_78-2);}.cls-5{fill:#efd0bb;}.cls-6{fill:url(#未命名的渐变_70-2);}.cls-7{fill:url(#未命名的渐变_78-3);}.cls-8{fill:url(#未命名的渐变_78-4);}.cls-9{fill:url(#未命名的渐变_80);}.cls-10{fill:url(#未命名的渐变_75-2);}.cls-11{fill:#ffe5cf;}.cls-12{fill:url(#未命名的渐变_78-5);}.cls-13{fill:url(#未命名的渐变_3);}.cls-14{fill:url(#未命名的渐变_3-2);}.cls-15{fill:url(#未命名的渐变_98);}.cls-16{fill:url(#未命名的渐变_3-3);}.cls-17{fill:#373f49;}.cls-18{fill:url(#未命名的渐变_75-3);}.cls-19{fill:url(#未命名的渐变_75-4);}.cls-20{fill:url(#未命名的渐变_78-6);}</style><linearGradient id="未命名的渐变_70" x1="37.08" y1="68.66" x2="86.79" y2="115.65" gradientUnits="userSpaceOnUse"><stop offset="0" stop-color="#9fa1c2"/><stop offset="1" stop-color="#e6e8f7"/></linearGradient><linearGradient id="未命名的渐变_78" x1="31.16" y1="117.87" x2="64.69" y2="120.28" gradientUnits="userSpaceOnUse"><stop offset="0" stop-color="#6736d9"/><stop offset="1" stop-color="#2f1179"/></linearGradient><linearGradient id="未命名的渐变_75" x1="33.05" y1="83.38" x2="53.62" y2="83.38" gradientUnits="userSpaceOnUse"><stop offset="0" stop-color="#e6e8f7"/><stop offset="1" stop-color="#b1b4d9"/></linearGradient><linearGradient id="未命名的渐变_78-2" x1="32.42" y1="119.04" x2="73.06" y2="122.06" xlink:href="#未命名的渐变_78"/><linearGradient id="未命名的渐变_70-2" x1="22.67" y1="39.61" x2="-3.77" y2="33.56" xlink:href="#未命名的渐变_70"/><linearGradient id="未命名的渐变_78-3" x1="40.91" y1="113.48" x2="-4.57" y2="55.17" xlink:href="#未命名的渐变_78"/><linearGradient id="未命名的渐变_78-4" x1="0.14" y1="86.13" x2="46.22" y2="84.46" xlink:href="#未命名的渐变_78"/><linearGradient id="未命名的渐变_80" x1="-10.83" y1="119.01" x2="16.66" y2="118.11" gradientUnits="userSpaceOnUse"><stop offset="0" stop-color="#e6e8f7"/><stop offset="1" stop-color="#9fa1c2"/></linearGradient><linearGradient id="未命名的渐变_75-2" x1="1.38" y1="117.8" x2="15.18" y2="117.8" xlink:href="#未命名的渐变_75"/><linearGradient id="未命名的渐变_78-5" x1="35.76" y1="36.13" x2="59.3" y2="36.13" xlink:href="#未命名的渐变_78"/><linearGradient id="未命名的渐变_3" x1="18.37" y1="82.47" x2="50.85" y2="87.44" gradientUnits="userSpaceOnUse"><stop offset="0" stop-color="#31e0e4"/><stop offset="1" stop-color="#0057c0"/></linearGradient><linearGradient id="未命名的渐变_3-2" x1="38.28" y1="83.11" x2="36.09" y2="65.89" xlink:href="#未命名的渐变_3"/><linearGradient id="未命名的渐变_98" x1="22.83" y1="83.31" x2="44.42" y2="83.31" gradientUnits="userSpaceOnUse"><stop offset="0" stop-color="#00e2f2"/><stop offset="1" stop-color="#00f2d0"/></linearGradient><linearGradient id="未命名的渐变_3-3" x1="30.51" y1="83.04" x2="35.8" y2="65.36" xlink:href="#未命名的渐变_3"/><linearGradient id="未命名的渐变_75-3" x1="0.48" y1="36.57" x2="26.82" y2="36.57" xlink:href="#未命名的渐变_75"/><linearGradient id="未命名的渐变_75-4" x1="14.5" y1="34.82" x2="36.26" y2="35.88" xlink:href="#未命名的渐变_75"/><linearGradient id="未命名的渐变_78-6" x1="30.34" y1="39.68" x2="45.79" y2="39.68" xlink:href="#未命名的渐变_78"/></defs><title>资源 38</title><g id="图层_2" data-name="图层 2"><g id="图层_3" data-name="图层 3"><path class="cls-1" d="M58,46.57,61.74,121H48.21a10.59,10.59,0,0,1,4.06-3.52L41.17,44.94Z"/><path class="cls-2" d="M61.64,119.11h0s-3.42,1.89-9.37-1.63A10.59,10.59,0,0,0,48.21,121H61.74Z"/><path class="cls-3" d="M53.62,47.38,47.67,84.19,46.58,121H33.05a10.59,10.59,0,0,1,4.06-3.52L35.76,84.19l1.08-38.44Z"/><path class="cls-4" d="M37.11,117.48A10.59,10.59,0,0,0,33.05,121H46.58l0-1.35C44.14,119.67,39.54,119.67,37.11,117.48Z"/><path class="cls-5" d="M24.39,21.17c3,6.83,4.33,40.35,4.33,40.35s-.27,3.91-1.08,4.56-3,.65-2.17,0a2.13,2.13,0,0,0,1-2.06,12.42,12.42,0,0,0-.91-3.12L17.35,30Z"/><path class="cls-6" d="M24.39,21.17l-5.8,7.24,3,17.65L25,59l3.55-1C28.11,49.22,26.77,26.64,24.39,21.17Z"/><path class="cls-7" d="M26.81,52.63l-5.94,64a25.37,25.37,0,0,1,4.87,2.44H11.94l.81-65.51Z"/><path class="cls-8" d="M16.81,52.52l-6.5,64.15a25.37,25.37,0,0,1,4.87,2.44H1.38L2.46,52.52Z"/><path class="cls-9" d="M12,117.71v1.4h13.8a25.37,25.37,0,0,0-4.87-2.44C17.33,117.79,13.91,118.14,12,117.71Z"/><path class="cls-10" d="M10.31,116.67l0-.17a16.08,16.08,0,0,1-8.93,1.41l0,1.2h13.8A25.37,25.37,0,0,0,10.31,116.67Z"/><ellipse class="cls-11" cx="41.64" cy="7.45" rx="5.89" ry="7.31"/><polygon class="cls-11" points="46.85 9.21 48.21 15.71 40.9 17.6 40.36 10.29 46.85 9.21"/><path class="cls-12" d="M37.65,18.42a26.57,26.57,0,0,1,9.47-2.71c4.61-.27,6.5,1.08,6.5,1.08s3.25,1.35,3.52,7.85S59.3,55,59.3,55a55.36,55.36,0,0,1-13.8,1.62,55.38,55.38,0,0,1-9.74-1.08Z"/><path class="cls-13" d="M44.55,74.85,43,95.12a2.52,2.52,0,0,1-3,2.28L24.74,94.22a1.57,1.57,0,0,1-1.17-1.06l-.27-.85Z"/><path class="cls-14" d="M36.37,62.27c.74.81,3.45,3.24,4.53,10l-1.35.27s-.82-7.58-3.79-9.2S34.4,65,34.4,65l.81,8.66-2.16-.27-.27-11.64Z"/><path class="cls-15" d="M28.58,70.87l14.16,1.71a1.9,1.9,0,0,1,1.65,2.18L41.47,94.14a1.92,1.92,0,0,1-2.25,1.59L24.39,92.94a1.91,1.91,0,0,1-1.52-2.25l3.61-18.3A1.9,1.9,0,0,1,28.58,70.87Z"/><path class="cls-16" d="M28.72,74.72l3.52-11.91s2.43-2.44,4.06-.55,1.35,1.55,1.89,2.27-1.08,10.73-1.35,11.81-2.17,2.16-1.9-.27,2.74-10.36,1.37-11.68-3.26.6-3.26.6-1.9,8.37-2.44,10S28.18,76.88,28.72,74.72Z"/><path class="cls-17" d="M38.87.69C36.81,1.75,35.76,6,35.76,6s4.06,7.31,10,6.77c2.41-.22,2.44-3.79,2.17-7A6.28,6.28,0,0,0,38.87.69Z"/><path class="cls-18" d="M2.19,19.5c4.33-2.17,6.53-3.24,17.33-.54a13.13,13.13,0,0,1,4.87,2.16l2.43,32.21s-7,2.71-12.45,2.44S1.92,53.06,1.92,53.06,3.55,44.13,3.28,39C3.09,35.38-2.14,21.66,2.19,19.5Z"/><path class="cls-5" d="M1.64,19.88c2.63-1.76,6.24,1,7.59,4.49s5.68,13.26,5.68,13.26S27.09,44.4,29,45.21a17.63,17.63,0,0,1,3.79,2.44s-.27,4.06-.54,4.06H31.15s-.54,1.08-1.35,1.08S9.5,43.86,9.5,43.86,4.06,35.42,2.19,32.22-1.34,21.88,1.64,19.88Z"/><path class="cls-11" d="M33,46.15s-2.91-1.75-5.34-1.48c-1.5.17-1.63,1.9.4,1.76,1.08-.07,3.12,0,3.12,0l1.48,1.08Z"/><rect class="cls-11" x="25.2" y="49" width="1.35" height="2.71" rx="0.61" transform="translate(24.24 -6.24) rotate(25.54)"/><rect class="cls-11" x="26.28" y="49.54" width="1.35" height="2.71" rx="0.61" transform="translate(24.58 -6.65) rotate(25.54)"/><rect class="cls-11" x="27.36" y="50.08" width="1.35" height="2.71" rx="0.61" transform="translate(24.92 -7.06) rotate(25.54)"/><rect class="cls-11" x="28.45" y="50.63" width="1.35" height="2.71" rx="0.61" transform="translate(25.26 -7.48) rotate(25.54)"/><path class="cls-11" d="M38,9.6c.35-3.06,1.56-.51,1.5.87a21.43,21.43,0,0,1-.2,2.22Z"/><path class="cls-19" d="M26.22,43.81c-4.2-2.23-11.31-6.18-11.31-6.18s-4.33-9.74-5.68-13.26-5-6.25-7.59-4.49c-3,2-1.34,9.09.55,12.34S9.5,43.86,9.5,43.86s8.13,3.72,14.11,6.36C24.78,48.73,25.75,45.53,26.22,43.81Z"/><path class="cls-5" d="M31.43,59.29a12.9,12.9,0,0,0-1.09,4.33l3.79,2.43,3-1.62,1.08-7.85Z"/><path class="cls-20" d="M37.65,18.42c-2.55,1.69-2.16,10.55-3,18.94L30.34,59.83l7.85,1.89L43.88,39S46,26.54,45.77,22.75,40.9,16.25,37.65,18.42Z"/><path class="cls-17" d="M18.88,5.48a11.45,11.45,0,0,1,.33,4.37L17.39,6.12Z"/><ellipse class="cls-11" cx="14.57" cy="9.85" rx="5.75" ry="4.63" transform="translate(3.31 23.36) rotate(-84.24)"/><path class="cls-11" d="M10.85,10.57a45.53,45.53,0,0,1-1.21,8.11c-.53,1.61,6.8,4.25,6.8,1.7l0-7.51Z"/><path class="cls-17" d="M10.19,13.07A14.24,14.24,0,0,1,8.66,7.4a7,7,0,0,1,2.13-4.69s3.41-1.27,5.32-.63,1.71,2.13,3,1.91.63,3-1.5,3-5.53-.42-6-.42S10.58,8,10.36,9.32a14.79,14.79,0,0,0-.07,3Z"/><path class="cls-11" d="M10.67,9c-1.31-1.5-1.5-.18-1.5.57a1.29,1.29,0,0,0,1.31,1.32C11.24,10.84,10.67,9,10.67,9Z"/></g></g></svg>