<svg xmlns="http://www.w3.org/2000/svg" xmlns:xlink="http://www.w3.org/1999/xlink" viewBox="0 0 94.01 133.39"><defs><style>.cls-1{fill:url(#未命名的渐变_84);}.cls-2{fill:url(#未命名的渐变_50);}.cls-3{fill:url(#未命名的渐变_8);}.cls-4{fill:url(#未命名的渐变_3);}.cls-5{fill:#353535;}.cls-6{fill:url(#未命名的渐变_3-2);}.cls-7{fill:#94b2b2;}.cls-8{fill:url(#未命名的渐变_89);}</style><linearGradient id="未命名的渐变_84" x1="49.61" y1="114.15" x2="57.47" y2="114.15" gradientUnits="userSpaceOnUse"><stop offset="0" stop-color="#0f51b9"/><stop offset="1" stop-color="#148bce"/></linearGradient><linearGradient id="未命名的渐变_50" x1="36.47" y1="113.85" x2="49.65" y2="113.85" gradientUnits="userSpaceOnUse"><stop offset="0" stop-color="#002083"/><stop offset="1" stop-color="#0f51b9"/></linearGradient><linearGradient id="未命名的渐变_8" x1="34.14" y1="121.53" x2="59.8" y2="121.53" gradientUnits="userSpaceOnUse"><stop offset="0" stop-color="#28a5e6"/><stop offset="1" stop-color="#011f9e"/></linearGradient><linearGradient id="未命名的渐变_3" x1="34.18" y1="109.67" x2="59.8" y2="109.67" gradientUnits="userSpaceOnUse"><stop offset="0" stop-color="#31e0e4"/><stop offset="1" stop-color="#0057c0"/></linearGradient><linearGradient id="未命名的渐变_3-2" x1="0" y1="50.88" x2="94.01" y2="50.88" xlink:href="#未命名的渐变_3"/><linearGradient id="未命名的渐变_89" x1="30.54" y1="50.88" x2="63.47" y2="50.88" gradientUnits="userSpaceOnUse"><stop offset="0" stop-color="#31e0e4"/><stop offset="1" stop-color="#17a0d3"/></linearGradient></defs><title>资源 39</title><g id="图层_2" data-name="图层 2"><g id="图层_3" data-name="图层 3"><path class="cls-1" d="M57.47,125a1.21,1.21,0,0,0-.06-.38s0,0,0,0a1.29,1.29,0,0,0-.18-.35l0-.06a2.24,2.24,0,0,0-.3-.33,1.74,1.74,0,0,0-.26-.19,2,2,0,0,0-.23-.17l-6.74-3.91,0-16.3,6.73,3.91,0,0c.07,0,.12.09.18.13s.19.13.27.2l0,0a1.34,1.34,0,0,1,.23.25.21.21,0,0,1,0,.06.21.21,0,0,1,0,.06.36.36,0,0,1,.07.1,1,1,0,0,1,.1.21,0,0,0,0,1,0,0,.08.08,0,0,1,0,0,.74.74,0,0,1,0,.14,1.52,1.52,0,0,1,0,.21v0h0Z"/><path class="cls-2" d="M49.61,103.29a4.8,4.8,0,0,0-.73-.33l-.09,0-.2-.05a2.22,2.22,0,0,0-.37-.09l-.13,0-.32,0-.11,0h0a3,3,0,0,0-.42,0h-.38l-.36,0h-.23l-.13,0-.37.06-.1,0-.11,0-.18,0L45,103l-.09,0h0a4.49,4.49,0,0,0-.54.26l-6.78,3.91a1.85,1.85,0,0,0-1.09,1.54l0,16.3a1.87,1.87,0,0,1,1.1-1.53l6.78-3.92a5,5,0,0,1,.57-.27l.09,0a4.44,4.44,0,0,1,.52-.15l.1,0c.2,0,.4-.08.6-.1h.09c.21,0,.42,0,.62,0h.1a4.44,4.44,0,0,1,.63,0h.11l.45.08.37.09.28.09a4,4,0,0,1,.73.32Z"/><path class="cls-3" d="M59.71,110.19s0,0,0,.06a1.8,1.8,0,0,1-.23.46l-.06.08a2.2,2.2,0,0,1-.39.43c-.1.09-.22.17-.34.26s-.19.15-.31.22l-7.84,4.55a6.07,6.07,0,0,1-1,.43l-.37.11-.5.13-.6.1-.15,0c-.27,0-.55,0-.83,0H47a7.52,7.52,0,0,1-.82,0H46a7,7,0,0,1-.8-.14l-.14,0c-.23-.06-.46-.13-.68-.21l-.12,0a4.82,4.82,0,0,1-.76-.36l-7.89-4.55a2.5,2.5,0,0,1-1.46-2l0,16.3a2.47,2.47,0,0,0,1.45,2l7.9,4.56a6.67,6.67,0,0,0,.71.34h0l.12,0c.15.05.29.11.44.15l.25.06.14,0,.12,0,.49.08.18,0,.12,0,.18,0,.49,0h.51l.55,0h.06l.14,0a3,3,0,0,0,.43-.06l.18,0,.49-.12.26-.07.11-.05a5.35,5.35,0,0,0,1-.42L58.31,128l.06,0a1.6,1.6,0,0,0,.25-.18,3.12,3.12,0,0,0,.35-.25l0,0a2.42,2.42,0,0,0,.31-.33.56.56,0,0,0,0-.08.22.22,0,0,0,0-.08,1,1,0,0,0,.09-.13,2.43,2.43,0,0,0,.14-.28.09.09,0,0,1,0,0s0,0,0,0l.06-.18a2.85,2.85,0,0,0,0-.29v0l0-16.3A2.1,2.1,0,0,1,59.71,110.19Z"/><path class="cls-4" d="M58.34,107.65l-7.89-4.56a7.75,7.75,0,0,0-7,0l-7.84,4.56c-1.92,1.12-1.91,2.93,0,4l7.89,4.55a7.69,7.69,0,0,0,7,0l7.84-4.55C60.28,110.58,60.27,108.77,58.34,107.65Zm-2,3.54-6.74,3.92a5.8,5.8,0,0,1-5.26,0l-6.78-3.92c-1.46-.84-1.46-2.2,0-3l6.74-3.92a5.8,5.8,0,0,1,5.26,0l6.78,3.91C57.83,109,57.84,110.35,56.39,111.19Z"/><path class="cls-5" d="M33.79,97.31Z"/><path class="cls-6" d="M92.53,32.38A40.46,40.46,0,0,0,87,19.84c-.3-.44-.64-.94-1-1.44v0l-.16-.21-.17-.25a30.59,30.59,0,0,0-2.89-3.43l-.13-.13c-.22-.23-.43-.46-.64-.66l-.8-.78-.74-.7c-.49-.45-1-.88-1.45-1.26s-1-.81-1.46-1.16a.18.18,0,0,0-.07-.05c-.11-.08-.22-.18-.33-.25L77,9.41c-.64-.47-1.29-.93-2-1.38l-.54-.36c-1-.64-2-1.24-3.14-1.82l-.13-.07Q70,5.14,68.67,4.55l-.73-.32-.15-.06a25.12,25.12,0,0,0-2.6-1l-.09,0c-.38-.14-.78-.27-1.18-.4l-.64-.21L63,2.4l-.2-.07-.11,0-.06,0L61.78,2l-.87-.23-.29-.08-.48-.13-.06,0h0l0,0-.11,0-.37-.09c-.7-.17-1.42-.33-2-.44L56.82.89c-.49-.09-1-.19-1.47-.26h-.1L55,.58h-.15L54.33.5,53.81.43l-.35,0L52.75.3l-.26,0h-.11A21.5,21.5,0,0,0,50,.09h0a53.51,53.51,0,0,0-7.2.07h-.16l-.51,0L40.41.4l-.12,0H40L38.47.67l-.26,0-.5.08-.11,0-.17,0L37,.93,36.56,1l-.31.06c-1.46.29-2.67.59-3.57.85h0l-.09,0-.84.25-.64.19-.41.14-.59.18h0l-.07,0-.07,0-.21.08L29.16,3l-.53.2-1,.35-.23.1-.11,0,0,0-.13.06L26.61,4c-.41.17-.82.34-1.21.52l-.57.26-.14.07-.09,0L24.45,5l0,0h0l-.31.15-.7.35c-.31.16-.61.31-.89.47l-.2.1-.9.51-.63.36-.1.06-.78.47-.63.41-.1.06-.06,0-.31.2-.08.05h0a1.37,1.37,0,0,0-.2.13c-1.05.7-1.83,1.28-2.3,1.66l-.3.24-.38.3-.93.77-.15.13-.7.61-.16.15-.48.44,0,0-.05,0-.74.71c-.52.51-1,1-1.45,1.52s-.69.77-1,1.13l-.43.52c-.29.34-.57.69-.8,1A39.71,39.71,0,0,0,.71,35.71v.06C.49,36.94.32,38.15.21,39.39c0,.14,0,.29,0,.43s0,.36-.05.52C.07,41,0,41.65,0,42.27c0,.43,0,.79,0,1.06v1c0,.21,0,.42,0,.63s0,.14,0,.21c0,.37,0,.74.05,1.07,0,0,0,.12,0,.17s0,.38,0,.58L.21,48.2v.11l0,.23a1.64,1.64,0,0,0,0,.22l0,.32q.09.84.21,1.68v.05c0,.12.06.41.12.82a1.62,1.62,0,0,0,0,.19c.06.36.12.72.19,1.08s.13.64.2,1L1.32,55c.06.26.13.52.19.78a58.3,58.3,0,0,0,6.82,16A71.37,71.37,0,0,0,31.82,96.06l.74.48.29.18.19.12.27.17.11.08h0l.09,0,.17.11.05,0h0l.42.25h0l0,0,.22.13.09,0,.19.11L35,98l.21.11.18.11.13.07.11.07.21.11.06,0,.33.18.27.14h0l.09,0,0,0h.05l.08.05.34.18.34.17h0l.26.13h0l.09,0,.23.11.11,0,0,0,.1,0,.1,0,0,0,.11,0,.1,0,.05,0,.11.05.1,0,.05,0,.1,0,0,0,.09,0,.54.23.11,0,0,0,.68.25.24.07.11,0h0l.06,0,.22.07.62.17.14,0,.12,0,.3.08.5.1h0l.23,0,.08,0,.13,0,.43.07.37,0,.21,0h.13l.34,0,.14,0h.13l.27,0,.23,0h0l.26,0h2.49l.21,0h.2l.24,0,.22,0h.06l.2,0,.25,0,.37,0,.39-.05h0c.21,0,.42-.08.63-.12a2.84,2.84,0,0,0,.31-.06l.58-.13.19,0,.47-.12.15-.05h0l.09,0,.27-.08.1,0h0l.14,0,.22-.07.22-.08H54l.16-.06.21-.08.2-.08.21-.09.21-.09.05,0h0l.13-.06h0l1-.48-.35.15.67-.31h0l.26-.13h0l.29-.15.1-.05.36-.19,0,0h0l.06,0,0,0,.31-.17.12-.07.27-.15.43-.25.6-.35h0l.3-.18.34-.21.1-.06h0l.08-.05.09-.06.2-.12.16-.1.28-.18.51-.33.06,0h0l.11-.08.07,0,.12-.08h0l.12-.08.82-.55.14-.1.24-.17.48-.34.14-.09,0,0,0,0,.79-.56L65.2,94l1-.72h0l0,0,0,0,.06,0h0l.13-.1.64-.5c.48-.38,1-.75,1.4-1.12l.22-.18c.55-.46,1.07-.9,1.55-1.32l.6-.53.38-.35h0c.67-.6,1.33-1.22,2-1.86l.06,0,1.38-1.36.27-.28,1.26-1.31.32-.35c.62-.67,1.23-1.35,1.83-2,.3-.34.59-.68.88-1s.45-.55.67-.82.62-.77.92-1.16.43-.56.64-.84.58-.77.86-1.16l.22-.29.42-.6.11-.16.28-.39.07-.12.33-.48.19-.28c.06-.08.11-.16.16-.24l.48-.73,0-.06c.09-.14.19-.29.29-.46l.18-.29c.09-.13.17-.27.26-.42s.19-.3.28-.46l.24-.4c.12-.19.23-.39.35-.59l.25-.43q.18-.32.36-.66c.1-.16.19-.33.28-.5l.1-.18h0l.26-.5.32-.61.3-.6.32-.62a1,1,0,0,1,.08-.18l.09-.18c.06-.12.12-.27.19-.41l.15-.34,0-.07c.09-.19.18-.38.26-.57l.29-.62.07-.18.08-.18,0-.13c.11-.25.21-.5.31-.75l.38-.94.09-.22.32-.85c.12-.34.25-.7.37-1.06,0-.11.07-.22.11-.33s.13-.38.19-.56.21-.63.31-1l.09-.28c0-.09,0-.17.07-.26.18-.6.35-1.21.47-1.74a1.94,1.94,0,0,1,0-.2c.06-.28.13-.57.2-.87s.13-.52.19-.78l0-.21a1.3,1.3,0,0,0,0-.21,1.46,1.46,0,0,0,0-.2l.11-.64c.06-.29.12-.58.17-.87l.06-.35c0-.07,0-.14,0-.21s.06-.35.09-.58c.07-.42.18-1.17.29-2.32h0v0s0-.07,0-.1l0-.26V48c.06-.63.1-1.28.13-1.93v0A42.33,42.33,0,0,0,92.53,32.38Z"/><polygon class="cls-7" points="42.38 97.31 42.37 97.31 42.37 97.3 42.38 97.31"/><path class="cls-8" d="M63,32.38a92.94,92.94,0,0,0-2-12.54c-.11-.44-.23-.94-.35-1.44v0a1.6,1.6,0,0,1,0-.21l-.06-.25c-.3-1.16-.69-2.48-1-3.43l0-.13c-.08-.23-.15-.46-.22-.66L59,12.92c-.09-.25-.17-.49-.25-.7-.18-.45-.35-.88-.51-1.26s-.35-.81-.51-1.16l0-.05c0-.08-.08-.18-.11-.25l0-.09Q57.17,8.7,56.81,8l-.19-.36c-.35-.64-.72-1.24-1.1-1.82l-.05-.07c-.28-.43-.58-.84-.88-1.23l-.25-.32-.06-.06a7.6,7.6,0,0,0-.91-1l0,0c-.13-.14-.27-.27-.41-.4l-.22-.21-.11-.1-.07-.07,0,0,0,0L52.18,2a3.55,3.55,0,0,0-.31-.23.39.39,0,0,0-.1-.08l-.16-.13,0,0h0v0l0,0-.13-.09A6.67,6.67,0,0,0,50.67,1L50.44.89C50.27.8,50.09.7,49.93.63h0l-.09,0h0L49.57.5,49.39.43l-.13,0L49,.3l-.09,0h0a2.84,2.84,0,0,0-.82-.18h0a6.61,6.61,0,0,0-2.52.07h0l-.18,0L44.69.4l0,0h-.09L44,.67l-.09,0L43.75.8l0,0-.06,0L43.5.93,43.35,1l-.11.06A9.41,9.41,0,0,0,42,1.92h0l0,0-.29.25-.23.19-.14.14-.21.18h0l0,0,0,0-.07.08L40.75,3l-.18.2-.34.35-.08.1,0,0v0l-.05.06L39.86,4c-.14.17-.29.34-.42.52l-.2.26-.05.07,0,0L39.1,5V5h0L39,5.15c-.08.12-.16.24-.25.35L38.42,6a.61.61,0,0,1-.07.1L38,6.58c-.08.12-.15.24-.22.36l0,.06-.27.47-.22.41,0,.06,0,0c0,.07-.07.13-.1.2l0,.05h0a.54.54,0,0,0-.07.13c-.37.7-.64,1.28-.81,1.66l-.1.24c0,.1-.09.2-.13.3l-.33.77a.5.5,0,0,0,0,.13l-.25.61-.05.15c-.06.15-.12.3-.17.44v0l0,0c-.09.24-.18.48-.26.71-.18.51-.36,1-.51,1.52s-.24.77-.34,1.13c-.05.16-.1.34-.15.52-.1.34-.2.69-.28,1a87.72,87.72,0,0,0-2.77,18.08v.06c-.07,1.17-.13,2.38-.17,3.62,0,.14,0,.29,0,.43s0,.36,0,.52c0,.62,0,1.31,0,1.93,0,.43,0,.79,0,1.06V45a1.48,1.48,0,0,0,0,.21c0,.37,0,.74,0,1.07,0,0,0,.12,0,.17s0,.38,0,.58l0,1.18v.56l0,.32c0,.56,0,1.12.07,1.68v.05c0,.12,0,.41.05.82,0,.06,0,.12,0,.19,0,.36,0,.72.07,1.08s0,.64.07,1,0,.73.08,1.09.05.52.07.78a132.55,132.55,0,0,0,2.39,16c1.83,9.09,4.6,17.65,8.23,24.27l.25.48s.07.12.11.18l.06.12.1.17,0,.08h0l0,0,.06.11,0,0h0c0,.08.1.17.15.25h0v0l.08.13,0,0,.06.11.08.14.07.11.07.11,0,.07,0,.07a1,1,0,0,0,.08.11l0,0a1.74,1.74,0,0,1,.11.18l.1.14h0l0,0,0,0h0l0,.05.12.18.12.17h0l.09.13h0l0,0a1,1,0,0,0,.08.11l0,0v0l0,0,0,0,0,0,0,0,0,0,0,0,0,.05,0,0,0,0,0,0v0s0,0,0,0l.18.23,0,0,0,0a2.83,2.83,0,0,0,.24.25.27.27,0,0,0,.08.07l0,0h0l0,0,.08.07.21.17.05,0,0,0,.1.08.18.1h0l.08,0,0,0,0,0,.15.07.13,0,.08,0h0l.12,0,0,0h0l.1,0,.08,0h0l.09,0h.88l.07,0h.07l.08,0,.08,0h0l.07,0,.09,0,.13,0,.13-.05h0l.22-.12.11-.06.2-.13.07,0L49,101l.05-.05h0l0,0,.1-.08,0,0h0l0,0,.08-.07.07-.08h0l.06-.06.07-.08.07-.08.08-.09.07-.09,0,0h0l.05-.06h0l.36-.48-.12.15a3.55,3.55,0,0,0,.23-.31h0l.1-.13h0l.1-.15,0-.05.12-.19,0,0h0l0,0v0a1.63,1.63,0,0,0,.11-.17l0-.07.1-.15.15-.25.21-.35h0l.1-.18a1.13,1.13,0,0,0,.12-.21l0-.06h0l0-.05,0-.06.07-.12.06-.1.1-.18.18-.33,0,0h0l0-.08,0,0,0-.08h0l0-.08c.09-.18.2-.39.29-.55l0-.1c0-.06,0-.12.08-.17s.12-.23.17-.34l0-.09v0l.27-.56.15-.31.33-.72h0v0l0,0h0l.05-.1c.07-.17.15-.33.22-.5l.49-1.12.08-.18L55.14,90l.21-.53.14-.35h0c.24-.6.47-1.22.7-1.86l0,0,.48-1.36c0-.09.07-.19.1-.28.15-.43.29-.87.44-1.31,0-.12.08-.24.11-.35.22-.67.43-1.35.64-2,.11-.34.21-.68.31-1l.24-.82c.1-.39.21-.77.32-1.16s.15-.56.22-.84l.3-1.16c0-.1.06-.2.08-.29l.15-.6,0-.16.09-.39,0-.12c0-.16.08-.32.11-.48a2.86,2.86,0,0,0,.07-.28l.06-.24c0-.19.1-.44.17-.73v-.06c0-.14.06-.29.1-.46l.06-.29c0-.13.06-.27.1-.42s.06-.3.09-.46l.09-.4.12-.59.09-.43.12-.66c0-.16.07-.33.1-.5a1.49,1.49,0,0,1,0-.18h0l.09-.5c0-.2.07-.4.11-.61s.07-.4.11-.6.07-.43.11-.62a1,1,0,0,1,0-.18l0-.18c0-.12,0-.27.06-.41l.06-.34v-.07l.09-.57.1-.62,0-.18,0-.18,0-.13c0-.25.07-.5.11-.75s.09-.64.13-.94l0-.22c0-.26.08-.55.11-.85s.09-.7.13-1.06c0-.11,0-.22,0-.33s.05-.38.07-.56.07-.63.11-1l0-.28a2.28,2.28,0,0,0,0-.26c.07-.6.13-1.21.17-1.74,0-.06,0-.13,0-.2,0-.28,0-.57.08-.87l.06-.78,0-.21v-.21l0-.2,0-.64c0-.29,0-.58.05-.87l0-.35c0-.07,0-.14,0-.21s0-.35,0-.58c0-.42.07-1.17.1-2.32h0v-.12a2.35,2.35,0,0,1,0-.26V48c0-.63,0-1.28,0-1.93v0A118.27,118.27,0,0,0,63,32.38Z"/></g></g></svg>