<svg xmlns="http://www.w3.org/2000/svg" xmlns:xlink="http://www.w3.org/1999/xlink" viewBox="0 0 91.09 174.83"><defs><style>.cls-1{isolation:isolate;}.cls-2{fill:url(#未命名的渐变_90);}.cls-3{fill:url(#未命名的渐变_95);}.cls-4{fill:url(#未命名的渐变_92);}.cls-5{fill:url(#未命名的渐变_92-2);}.cls-6{fill:url(#未命名的渐变_92-3);}.cls-7{fill:url(#未命名的渐变_153);}.cls-8{fill:url(#未命名的渐变_90-2);}</style><linearGradient id="未命名的渐变_90" x1="32.89" y1="15.91" x2="32.89" y2="137.02" gradientUnits="userSpaceOnUse"><stop offset="0" stop-color="#31e0e4"/><stop offset="1" stop-color="#0057c0" stop-opacity="0"/></linearGradient><linearGradient id="未命名的渐变_95" x1="63.5" y1="15.91" x2="63.5" y2="137.02" gradientUnits="userSpaceOnUse"><stop offset="0" stop-color="#31e0e4"/><stop offset="1" stop-color="#0057c0" stop-opacity="0"/></linearGradient><linearGradient id="未命名的渐变_92" x1="8.39" y1="42.88" x2="8.39" y2="124.87" gradientUnits="userSpaceOnUse"><stop offset="0" stop-color="#31e0e4"/><stop offset="1" stop-color="#0057c0" stop-opacity="0"/></linearGradient><linearGradient id="未命名的渐变_92-2" x1="83.13" y1="42.88" x2="83.13" y2="124.87" xlink:href="#未命名的渐变_92"/><linearGradient id="未命名的渐变_92-3" x1="43.8" y1="42.88" x2="43.8" y2="124.87" xlink:href="#未命名的渐变_92"/><linearGradient id="未命名的渐变_153" x1="0.35" y1="26.28" x2="91.09" y2="26.28" gradientUnits="userSpaceOnUse"><stop offset="0" stop-color="#08ffb3"/><stop offset="1" stop-color="#0df"/></linearGradient><linearGradient id="未命名的渐变_90-2" x1="13.25" y1="15.91" x2="13.25" y2="137.02" xlink:href="#未命名的渐变_90"/></defs><title>资源 40</title><g id="图层_2" data-name="图层 2"><g id="图层_3" data-name="图层 3"><g class="cls-1"><path class="cls-2" d="M37.13,13.47c-.11-.08-.23-.15-.35-.22a10.62,10.62,0,0,0-1.27-.61l-.13-.06-.11,0c-.34-.13-.69-.25-1.05-.35h0c-.32-.09-.65-.17-1-.24h0l-.52-.09-.41-.07h0a9,9,0,0,0-.91-.1h0l-1-.05H29.31a5,5,0,0,1-.55,0h0a3.92,3.92,0,0,1-.51-.07h0a2.9,2.9,0,0,1-.42-.12l-.07,0a2.68,2.68,0,0,1-.42-.19,1.32,1.32,0,0,1-.77-1.08l-.34,122.28a1.26,1.26,0,0,0,.77,1.07,2.69,2.69,0,0,0,.38.19h0l.08,0,.2.07.21.05h.06l.26,0,.23,0h1.17c.14,0,.28,0,.42,0,.33,0,.66,0,1,0h0c.31,0,.63.06.93.11l.42.07.54.1a10,10,0,0,1,1,.23q.54.16,1.05.36l.24.1a12.36,12.36,0,0,1,1.27.6l.36.22a4.63,4.63,0,0,1,2.47,3.76l.35-122.28A4.62,4.62,0,0,0,37.13,13.47Z"/><path class="cls-3" d="M75.52,36.91a2.91,2.91,0,0,1-.51.22l-.2.06-.26.07-.32.05h-.07l-.44,0h-.07c-.15,0-.29,0-.43,0h-.07a3.07,3.07,0,0,1-.42-.07l-.07,0a1.89,1.89,0,0,1-.36-.11l-.07,0a2.09,2.09,0,0,1-.4-.19,1.49,1.49,0,0,1-.72-.78.88.88,0,0,1,0-.16V35.4c0-1.45-.94-2.89-2.84-4A10.24,10.24,0,0,0,67,30.8l-.1-.05-.07,0c-.34-.13-.68-.25-1-.35l-.06,0-.27-.07-.61-.15-.13,0-.29-.05-.5-.09-.16,0-.3,0L63,29.86l-.17,0-.3,0-.47,0H60.85l-.23,0-.6,0h-.23l-.16,0a9.26,9.26,0,0,0-.92.13l-.16,0h0a13.35,13.35,0,0,0-1.71.42h-.08c-.36.12-.7.25-1,.4l-.26.12a8,8,0,0,0-.77.4l-.15.07-.16.1c-.2.13-.39.26-.57.4l-.17.14-.32.26v0a4.71,4.71,0,0,0-.53.57l0,.05-.09.13-.23.34-.07.11s0,.07-.05.1-.1.21-.14.31,0,.09-.07.14,0,.05,0,.08l-.09.31c0,.05,0,.1,0,.15a.2.2,0,0,0,0,.07c0,.11,0,.22,0,.33a.88.88,0,0,1,0,.16v.09l-.34,122.27a1.94,1.94,0,0,1,0-.24,1.87,1.87,0,0,1,0-.34l.06-.22c0-.1,0-.2.08-.3l.09-.22a1.77,1.77,0,0,1,.15-.31,1.13,1.13,0,0,1,.12-.21,3.5,3.5,0,0,1,.23-.35l.13-.18a6.89,6.89,0,0,1,.53-.57l.33-.27.17-.15a6.51,6.51,0,0,1,.58-.39,3.14,3.14,0,0,1,.31-.18c.24-.14.5-.27.77-.4l.26-.12a10.46,10.46,0,0,1,1-.39l.08,0a13.36,13.36,0,0,1,1.71-.43l.19,0,.93-.13.38,0,.6,0h1.4l.48,0,.47,0,.46.06a3.4,3.4,0,0,1,.46.06l.5.08.42.09a6,6,0,0,1,.61.15l.33.08c.36.11.71.22,1,.35l.17.07a11.84,11.84,0,0,1,1.29.62,5,5,0,0,1,2.82,3.71v.7a1.32,1.32,0,0,0,.77,1.08,2.12,2.12,0,0,0,.37.18h0l.07,0,.23.08.13,0,.07,0h.07l.26.05h.78l.29,0h.1l.23,0,.1,0,.26-.06.14,0,0,0a3.42,3.42,0,0,0,.51-.23Z"/><path class="cls-4" d="M16,36.88,2.28,29a3.25,3.25,0,0,1-1.93-2.7L0,148.54a3.29,3.29,0,0,0,1.93,2.7l13.71,7.91a1.37,1.37,0,0,1,.8,1.12L16.79,38A1.37,1.37,0,0,0,16,36.88Z"/><path class="cls-5" d="M91.07,26.49a1.49,1.49,0,0,1,0,.21c0,.05,0,.11,0,.16a1.17,1.17,0,0,1-.06.2l-.06.16a1.24,1.24,0,0,1-.1.2l-.09.15-.15.23-.11.13a3.84,3.84,0,0,1-.28.3l-.1.11-.21.16-.18.15-.23.15-.25.16L75.52,36.91l-.35,122.27,13.67-7.94.08-.05.17-.11a1.88,1.88,0,0,0,.23-.16l.19-.14.2-.17,0,0,.07-.08a3.83,3.83,0,0,0,.28-.29s0-.05.06-.07a.25.25,0,0,1,0-.07,1.88,1.88,0,0,0,.16-.23l.06-.09s0,0,0-.05a2,2,0,0,0,.1-.21.54.54,0,0,0,0-.11l0,0a1.33,1.33,0,0,0,0-.19s0-.09,0-.13v0a1.52,1.52,0,0,0,0-.21s0-.09,0-.13v-.06L91.09,26.3A1.23,1.23,0,0,1,91.07,26.49Z"/><path class="cls-6" d="M64.86,42.75a1.34,1.34,0,0,1-.12.24l0,0a1.51,1.51,0,0,1-.21.23,1.18,1.18,0,0,1-.18.13l-.16.12L50.49,51.45a7.62,7.62,0,0,1-.91.44l-.26.09-.61.19c-.22.06-.43.12-.66.16a6.86,6.86,0,0,1-.79.14l-.2,0c-.36,0-.73,0-1.1.06h-.17a9.82,9.82,0,0,1-1.09-.06l-.16,0a9.38,9.38,0,0,1-1.06-.18l-.18,0c-.31-.07-.61-.17-.91-.27l-.16-.06a6.55,6.55,0,0,1-1-.47L27.48,43.51a2.64,2.64,0,0,0-.38-.18h0l-.07,0-.23-.08-.13,0-.07,0h-.07l-.26,0h-.78l-.29,0h0l-.08,0a.83.83,0,0,0-.22,0l-.09,0-.27.06-.14,0-.05,0a4.09,4.09,0,0,0-.52.23l0,0-.12.09a1.24,1.24,0,0,0-.18.14h0a1.25,1.25,0,0,0-.16.17l0,0a.08.08,0,0,0,0,0l-.06.08a1,1,0,0,0-.07.15h0v0l0,.1a.77.77,0,0,0,0,.15v0l-.34,122.28a.9.9,0,0,1,0-.28v0a.85.85,0,0,1,.13-.25l0,0a1.33,1.33,0,0,1,.2-.22c0-.05.12-.09.18-.14a1.53,1.53,0,0,0,.16-.11,2.61,2.61,0,0,1,.51-.22l.2-.06.26-.07.32-.05h.07l.44,0h.07l.44,0h.06a3.07,3.07,0,0,1,.42.07l.07,0a2.26,2.26,0,0,1,.37.11l.06,0a2.87,2.87,0,0,1,.4.18l13.76,7.95a6.79,6.79,0,0,0,.94.45l.05,0,.17.05c.19.07.37.14.57.2l.33.08.19,0,.16,0c.22,0,.43.09.65.12l.24,0,.16,0,.24,0c.22,0,.43,0,.65,0h.67c.24,0,.48,0,.73-.05h.08l.19,0,.56-.07.24-.06.65-.17.35-.08.26-.1.26-.1a7.64,7.64,0,0,0,.91-.43l13.67-7.95h0l.13-.1c.06,0,.13-.09.18-.14h0a.85.85,0,0,0,.16-.17l0,0,0-.05,0-.07a1,1,0,0,0,.07-.15v0l0-.09a.77.77,0,0,0,0-.15v0l.34-122.27a.84.84,0,0,1,0,.27Z"/><path class="cls-7" d="M89.16,23.6c2.56,1.48,2.58,3.88,0,5.36L75.52,36.91a4.1,4.1,0,0,1-3.69,0,1.26,1.26,0,0,1-.76-1.16c.17-1.55-.77-3.14-2.82-4.32-3.87-2.23-10.17-2.18-13.9.16C51,33.68,51,37,54.31,39.09c.12.08.24.16.37.23a14.1,14.1,0,0,0,7.44,1.61,3.89,3.89,0,0,1,2,.44,1.13,1.13,0,0,1,0,2.14L50.49,51.45a10.21,10.21,0,0,1-9.26,0L27.48,43.51a4.09,4.09,0,0,0-3.7,0A1.25,1.25,0,0,0,23,44.68c.2,1.64-.86,3.32-3.16,4.52a15.25,15.25,0,0,1-13-.05L6.63,49c-3.77-2.18-3.79-5.71,0-7.89A14.1,14.1,0,0,1,14,39.48,3.82,3.82,0,0,0,16.12,39c.95-.61.87-1.55-.14-2.12L2.28,29c-2.57-1.48-2.58-3.88,0-5.36l13.67-7.94a4.09,4.09,0,0,1,3.7,0,1.22,1.22,0,0,1,.75,1.16c-.16,1.55.78,3.14,2.83,4.32,3.87,2.24,10.17,2.18,13.9-.16,3.34-2.1,3.36-5.38,0-7.51-.11-.08-.23-.15-.35-.22a14.31,14.31,0,0,0-7.47-1.62,3.84,3.84,0,0,1-2-.44,1.13,1.13,0,0,1,0-2.13L40.94,1.11a10.23,10.23,0,0,1,9.27,0Z"/><path class="cls-8" d="M23.06,45.08c0,.11,0,.23,0,.35a2.42,2.42,0,0,1,0,.25c0,.1-.05.21-.08.32s0,.15-.07.23a1.75,1.75,0,0,1-.13.28c0,.09-.07.18-.12.27s-.09.12-.13.19a3.75,3.75,0,0,1-.24.36c0,.05-.09.1-.13.16s-.26.29-.41.44l-.26.23-.27.23-.34.24-.31.21c-.2.12-.41.25-.63.36a10.49,10.49,0,0,1-1.32.57l-.24.09c-.23.08-.49.13-.73.2s-.67.19-1,.25-.93.17-1.4.22h-.05c-.52.05-1,.07-1.58.07h-.26c-.51,0-1,0-1.51-.09l-.25,0c-.5-.06-1-.14-1.48-.24L9.8,50.2a11.26,11.26,0,0,1-1.17-.34c-.13,0-.27-.08-.39-.13a10.67,10.67,0,0,1-1.33-.58L6.63,49a6,6,0,0,1-2.45-2.37A3.56,3.56,0,0,1,3.79,45L3.44,167.29c0,1.44.95,2.88,2.85,4l.28.15a10,10,0,0,0,1.1.51l.22.08.39.13c.18.06.36.13.54.18l.64.16.23.05.14,0c.31.06.63.12,1,.16l.38.05.26,0,.3,0c.32,0,.64,0,1,0h1c.36,0,.73,0,1.08-.08h.06c.4,0,.8-.1,1.19-.17l.21,0c.35-.07.69-.16,1-.26a5.11,5.11,0,0,0,.53-.13l.19-.07.25-.09a11.13,11.13,0,0,0,1.32-.56l.5-.29.12-.08.31-.21.34-.24.27-.22.18-.15.08-.09a5.62,5.62,0,0,0,.41-.44l.11-.11,0,0c.09-.12.17-.25.25-.37s.08-.11.11-.17v0c.05-.09.08-.17.12-.26s.09-.18.13-.26v0a1.55,1.55,0,0,0,.07-.23c0-.09.06-.19.08-.28s0,0,0,0l0-.25,0-.26v-.09h0Z"/></g></g></g></svg>