<svg xmlns="http://www.w3.org/2000/svg" xmlns:xlink="http://www.w3.org/1999/xlink" viewBox="0 0 90.84 85.17"><defs><style>.cls-1{fill:url(#未命名的渐变_92);}.cls-2{fill:url(#未命名的渐变_92-2);}.cls-3{fill:url(#未命名的渐变_92-3);}.cls-4{fill:url(#未命名的渐变_92-4);}.cls-5{fill:url(#未命名的渐变_92-5);}.cls-6{fill:url(#未命名的渐变_92-6);}.cls-7{fill:url(#未命名的渐变_153);}</style><linearGradient id="未命名的渐变_92" x1="80.85" y1="11.2" x2="80.85" y2="46.38" gradientUnits="userSpaceOnUse"><stop offset="0" stop-color="#31e0e4"/><stop offset="1" stop-color="#0057c0" stop-opacity="0"/></linearGradient><linearGradient id="未命名的渐变_92-2" x1="32.76" y1="11.2" x2="32.76" y2="34.83" xlink:href="#未命名的渐变_92"/><linearGradient id="未命名的渐变_92-3" x1="63.38" y1="30.36" x2="63.38" y2="64.6" xlink:href="#未命名的渐变_92"/><linearGradient id="未命名的渐变_92-4" x1="75.14" y1="33.13" x2="87.42" y2="56.2" xlink:href="#未命名的渐变_92"/><linearGradient id="未命名的渐变_92-5" x1="30.34" y1="40.35" x2="18.43" y2="63.79" xlink:href="#未命名的渐变_92"/><linearGradient id="未命名的渐变_92-6" x1="48" y1="47.73" x2="57.67" y2="72.66" xlink:href="#未命名的渐变_92"/><linearGradient id="未命名的渐变_153" x1="0.09" y1="26.28" x2="90.84" y2="26.28" gradientUnits="userSpaceOnUse"><stop offset="0" stop-color="#08ffb3"/><stop offset="1" stop-color="#0df"/></linearGradient></defs><title>资源 41</title><g id="图层_2" data-name="图层 2"><g id="图层_3" data-name="图层 3"><path class="cls-1" d="M87.37,7.82c0,.1,0,.2,0,.3l-.06.25c0,.1,0,.19-.09.29a1.6,1.6,0,0,1-.1.23,2,2,0,0,1-.14.3,1.59,1.59,0,0,1-.13.22c-.07.11-.14.22-.22.33l-.16.2a5.49,5.49,0,0,1-.41.44l-.16.16-.29.24-.27.21-.35.23-.37.24a9,9,0,0,1-.93.47l-.31.13c-.23.1-.47.19-.71.27l-.3.1a15.64,15.64,0,0,1-1.57.38l-.32.06-.79.11-.37,0-.6,0-.44,0H76.82l-.23,0h-.06l-.33.05-.1,0-.22.06-.16,0-.08,0a2.55,2.55,0,0,0-.44.2l-.09,0,0,0a1.46,1.46,0,0,0-.28.21h0l0,0a.81.81,0,0,0-.12.14l0,.06,0,.05,0,0a1.47,1.47,0,0,0-.06.14.08.08,0,0,0,0,0l0,0a.19.19,0,0,1,0,.07.76.76,0,0,0,0,.15v0l-.1,32.61a1,1,0,0,1,0-.24.08.08,0,0,0,0,0,1.2,1.2,0,0,1,.11-.23l0,0a1.06,1.06,0,0,1,.17-.2l0,0c.09-.07.18-.15.29-.22l.14-.07a2.53,2.53,0,0,1,.44-.19l.24-.08.22,0a3.5,3.5,0,0,1,.45-.07h0a5,5,0,0,1,.55,0h.63c.16,0,.32,0,.47,0h.11l.34,0,.6,0h.13l.24,0,.79-.11.2,0,.12,0A12.7,12.7,0,0,0,82.24,45l.12,0,.18-.06c.25-.09.49-.18.72-.28l.31-.12c.32-.15.63-.3.93-.47l.12-.07.24-.17.35-.23.27-.21a3.61,3.61,0,0,0,.3-.25l.06,0a1.09,1.09,0,0,0,.1-.11,5.42,5.42,0,0,0,.41-.43l.09-.1.06-.1a2.54,2.54,0,0,0,.23-.34l.1-.14,0-.07c0-.1.1-.2.14-.3a1.42,1.42,0,0,0,.08-.18s0,0,0,0,.06-.2.08-.29a1.52,1.52,0,0,0,.06-.2v-.05c0-.1,0-.2,0-.3a1.36,1.36,0,0,0,0-.2v-.08l.1-32.61A2.66,2.66,0,0,1,87.37,7.82Z"/><path class="cls-2" d="M36.88,13.47l-.37-.23a10.57,10.57,0,0,0-1.27-.6l-.13-.07-.11,0c-.33-.13-.67-.25-1-.35h0c-.32-.09-.65-.16-1-.23h0l-.55-.1L32,11.78h0l-.94-.1h-.19l-.75,0H29.05a5.06,5.06,0,0,1-.55,0h0a3.92,3.92,0,0,1-.51-.07h0l-.41-.12-.08,0a2.22,2.22,0,0,1-.41-.19,1.83,1.83,0,0,1-.58-.5,1,1,0,0,1-.19-.57l-.09,32.6a1.27,1.27,0,0,0,.76,1.07c.12.07.25.13.38.19h0l.08,0,.2.07.2.05h.07l.26,0,.23,0h0l.25,0H30c.26,0,.52,0,.79,0H31c.33,0,.65.06,1,.1l.37.07.59.1c.33.07.66.15,1,.24h0c.35.1.69.22,1,.34l.24.1a9.79,9.79,0,0,1,1.26.61l.38.23a4.61,4.61,0,0,1,2.47,3.75l.09-32.61A4.63,4.63,0,0,0,36.88,13.47Z"/><path class="cls-3" d="M64.6,62.78l.47.12a3.18,3.18,0,0,1,.33.09,10.57,10.57,0,0,1,1,.35l.17.07A10.21,10.21,0,0,1,67.9,64a5.55,5.55,0,0,1,2.67,2.91,3.07,3.07,0,0,1,.15.78v.73a1.29,1.29,0,0,0,.77,1.07,2.53,2.53,0,0,0,.37.18h0l.06,0,.23.08.13,0,.07,0,.07,0,.26,0h.77l.29,0h.12l.21,0,.1,0,.26-.06.14,0,.06,0a3.42,3.42,0,0,0,.51-.23l.1-32.61a3,3,0,0,1-.52.23l-.2.06a2,2,0,0,1-.26.06,1.55,1.55,0,0,1-.31.06H73.9l-.44,0h-.07c-.14,0-.29,0-.43,0H72.9a2.63,2.63,0,0,1-.42-.07H72.4L72,37.12l-.06,0a2.43,2.43,0,0,1-.4-.18,1.42,1.42,0,0,1-.75-.94v-.58c0-1.43-.94-2.87-2.85-4a10.11,10.11,0,0,0-1.28-.62l-.11-.05-.07,0c-.33-.13-.68-.25-1-.35l-.06,0-.28-.07-.6-.15-.13,0-.29-.05-.5-.09-.16,0-.3,0-.47-.05-.17,0h-.3l-.48,0h-1.4l-.6,0-.22,0-.16,0c-.32,0-.63.08-.93.13l-.16,0h0a14.11,14.11,0,0,0-1.73.43h-.07c-.35.11-.7.25-1,.39l-.26.12c-.27.13-.53.26-.78.4l-.15.08-.15.09c-.2.13-.39.26-.57.4l-.17.14-.31.26v0a4,4,0,0,0-.53.57l-.06.05-.08.13-.23.34-.07.11s0,.07-.05.1-.1.21-.15.32l-.06.13a.31.31,0,0,0,0,.08,1.81,1.81,0,0,0-.09.31.75.75,0,0,0,0,.16v.06c0,.11,0,.22,0,.33a1,1,0,0,0,0,.16v.09L51.48,68c0-.09,0-.17,0-.25s0-.22,0-.33a2.25,2.25,0,0,0,.05-.22l.09-.31.09-.22a2.2,2.2,0,0,1,.15-.31A2.12,2.12,0,0,1,52,66.1a3.64,3.64,0,0,1,.24-.35l.13-.18a6.89,6.89,0,0,1,.53-.57l.33-.27.17-.14c.18-.14.37-.27.57-.4l.3-.17c.25-.14.51-.28.77-.4l.27-.12a10.49,10.49,0,0,1,1-.4l.07,0a15.62,15.62,0,0,1,1.73-.43,1.13,1.13,0,0,0,.18,0l.93-.13.39,0,.6,0,.43,0h1l.48,0,.47,0,.47.05.45.06.3.05Z"/><path class="cls-4" d="M90.82,26.49c0,.07,0,.14,0,.21a1,1,0,0,1,0,.16,1.46,1.46,0,0,1,0,.2c0,.05,0,.1-.07.16l-.09.2-.09.15-.16.23a1.47,1.47,0,0,0-.1.13l-.28.3-.11.1-.2.17-.18.14-.24.16-.24.16L75.27,36.9l-.1,32.61,13.67-7.94.08,0,.17-.11.24-.16.18-.15a1.56,1.56,0,0,0,.2-.16l0,0,.07-.08a4,4,0,0,0,.28-.3l.06-.06a.25.25,0,0,1,0-.07,1.88,1.88,0,0,0,.16-.23l.06-.09s0,0,0,0a2,2,0,0,0,.1-.21.54.54,0,0,0,0-.11l0-.05c0-.06,0-.13,0-.19l0-.13v0a1.62,1.62,0,0,0,0-.2c0-.05,0-.09,0-.14V58.9l.1-32.6A1.37,1.37,0,0,1,90.82,26.49Z"/><path class="cls-5" d="M45,52.53c-.18,0-.36,0-.54,0l-.16,0a8.85,8.85,0,0,1-1.05-.18l-.19,0a8.54,8.54,0,0,1-.9-.27L42,51.92a6.43,6.43,0,0,1-1-.47L2,29A4.46,4.46,0,0,1,.57,27.7a2.5,2.5,0,0,1-.48-1.43L0,58.87a3.28,3.28,0,0,0,1.93,2.7l39,22.49a7.53,7.53,0,0,0,.95.45l.05,0,.16,0,.58.2.33.08.19,0,.16,0,.65.11.24,0h.16l.24,0,.39,0Z"/><path class="cls-6" d="M49.32,51.88l-.25.1-.62.19a6.37,6.37,0,0,1-.66.16l-.79.14-.19,0-1.1.06h-.18l-.55,0V85.15l.25,0h.38a2.8,2.8,0,0,0,.29,0c.24,0,.49,0,.73,0h.08l.2,0,.55-.07.24-.06c.23,0,.44-.1.66-.17l.34-.08.27-.1.26-.1a7.64,7.64,0,0,0,.91-.43l13.67-7.94.09-32.61L50.24,51.45A8.63,8.63,0,0,1,49.32,51.88Z"/><path class="cls-7" d="M84.55,3.57c3.78,2.18,3.79,5.71,0,7.89a14.1,14.1,0,0,1-7.45,1.62,3.76,3.76,0,0,0-2.08.49c-1,.6-.86,1.54.14,2.12L88.9,23.6c2.57,1.48,2.58,3.88,0,5.36L75.27,36.9a4.07,4.07,0,0,1-3.69,0,1.25,1.25,0,0,1-.76-1.17c.17-1.55-.77-3.14-2.83-4.32-3.86-2.23-10.17-2.18-13.9.16-3.33,2.1-3.36,5.39,0,7.51a3.13,3.13,0,0,0,.36.22,14.2,14.2,0,0,0,7.46,1.63,3.82,3.82,0,0,1,2,.43,1.13,1.13,0,0,1,0,2.14L50.24,51.45a10.21,10.21,0,0,1-9.26,0L2,29C-.54,27.48-.55,25.08,2,23.6l13.66-7.94a4.07,4.07,0,0,1,3.69,0,1.28,1.28,0,0,1,.77,1.16c-.18,1.55.76,3.14,2.82,4.32,3.86,2.23,10.17,2.18,13.89-.16,3.34-2.1,3.36-5.38.05-7.51l-.37-.23a14.17,14.17,0,0,0-7.46-1.61,3.78,3.78,0,0,1-2-.44,1.13,1.13,0,0,1,0-2.14L40.7,1.11a10.19,10.19,0,0,1,9.25,0L63.71,9.05a4.07,4.07,0,0,0,3.69,0,1.28,1.28,0,0,0,.75-1.16C68,6.24,69,4.56,71.3,3.36a15.29,15.29,0,0,1,13,.05Z"/></g></g></svg>