<svg xmlns="http://www.w3.org/2000/svg" width="136" height="46" viewBox="0 0 136 46">
    <g fill="#FFF" fill-rule="evenodd">
        <path d="M0 29.838c.062-.251.102-.51.19-.752.419-1.16 1.468-1.82 2.837-1.878 1.46-.062 2.853-.385 4.068-1.261 1.074-.776 1.698-1.863 2.115-3.088.58-1.708 1.091-3.44 1.74-5.126.52-1.348 1.119-2.655 1.946-3.847 1.502-2.164 3.592-3.454 6.112-4.092.89-.225 1.785-.434 2.716-.416 1.246.024 2.312.732 2.664 1.8.625 1.898-.741 3.658-2.504 3.752-2.747.145-4.52 1.642-5.568 4.11-.613 1.446-.984 2.965-1.397 4.472-.363 1.322-.72 2.647-1.354 3.874-1.14 2.207-2.903 3.688-5.233 4.518-1.31.467-2.662.728-4.043.851-.415.037-.831.07-1.246.106-1.464.125-2.832-.997-2.992-2.454-.007-.057 0-.118-.051-.161v-.408z"/>
        <path d="M0 20.279c.097-.53.19-1.06.292-1.588.658-3.399 1.814-6.606 3.746-9.498 1.895-2.835 4.337-5.075 7.369-6.661 2.12-1.11 4.367-1.814 6.726-2.198 1.14-.187 2.287-.27 3.436-.33 1.698-.088 3.075 1.302 2.962 3.005-.1 1.488-1.28 2.52-2.537 2.585-1.85.095-3.68.3-5.453.87-2.154.694-4.076 1.778-5.718 3.35-2.084 1.997-3.41 4.442-4.291 7.155-.431 1.327-.707 2.69-.933 4.062-.219 1.321-1.349 2.341-2.789 2.324-1.447-.018-2.525-1-2.753-2.367-.008-.048-.01-.096-.057-.126v-.583zM0 39.047c.059-.211.106-.426.178-.632.373-1.077 1.398-1.79 2.53-1.882 3.094-.25 6.118-.8 8.897-2.287 2.421-1.296 4.158-3.237 5.34-5.695.912-1.896 1.46-3.904 1.824-5.968.076-.428.134-.86.233-1.283.301-1.276 1.492-2.162 2.835-2.128 1.277.032 2.4 1.013 2.655 2.286.11.551.008 1.082-.081 1.613-.325 1.927-.775 3.823-1.44 5.664-1.103 3.048-2.735 5.754-5.147 7.95-1.733 1.578-3.716 2.75-5.898 3.598-1.981.77-4.032 1.261-6.133 1.57-.94.138-1.881.262-2.828.314-1.45.078-2.664-.94-2.907-2.318-.014-.075.005-.158-.058-.22v-.582zM48.941 16.386L48.937 10.949 50.579 10.949 50.579 19.197 48.79 19.197 45.275 13.883 45.234 19.197 43.586 19.197 43.636 10.949 45.322 10.949zM93.093 14.792v3.08s-.054.248-.174.335c-.807.59-1.723.91-2.698 1.063-1.011.158-2.006.078-2.964-.319-1.374-.568-2.083-1.652-2.328-3.066-.18-1.045-.068-2.068.45-3.014.638-1.16 1.637-1.802 2.94-1.978.902-.123 1.8-.113 2.672.177.973.324 1.63.971 1.934 1.966.04.13.044.193-.106.218-.485.084-.97.174-1.454.263-.125.023-.164-.055-.207-.15-.343-.767-.966-1.093-1.775-1.133-.616-.03-1.195.074-1.712.43-.684.472-.918 1.177-.987 1.953-.05.553-.001 1.104.163 1.639.38 1.235 1.464 1.765 2.608 1.672.606-.05 1.164-.266 1.684-.582.14-.084.189-.109.189-.109v-1.029H89.28v-1.416h3.812zM43.245 31.775h-1.427l-1.484-5.3.006 5.3h-1.36v-6.886h2.202l1.335 4.676 1.376-4.676h2.173v6.886h-1.364l.003-5.3c-.015-.002-1.46 5.3-1.46 5.3M68.559 10.829c.567-.015 1.199.063 1.793.328.848.378 1.323 1.039 1.443 1.96.016.115.006.177-.136.18-.485.013-.97.037-1.455.058-.106.005-.176-.009-.207-.14-.137-.598-.52-.92-1.128-1.002-.55-.073-1.081-.05-1.582.211-.23.119-.378.29-.378.57 0 .28.147.457.37.58.445.246.94.347 1.427.464.591.14 1.185.273 1.75.5 1.044.42 1.574 1.146 1.589 2.167.015 1.06-.506 1.906-1.54 2.298-1.313.498-2.659.51-3.964-.037-.959-.4-1.416-1.216-1.61-2.2-.034-.17.022-.25.2-.264.444-.036.887-.078 1.33-.127.199-.023.185.13.214.238.158.603.488 1.068 1.112 1.226.76.193 1.527.24 2.167-.33.564-.503.434-1.199-.27-1.478-.702-.278-1.456-.377-2.177-.59-.566-.169-1.13-.347-1.576-.764-1.125-1.053-.884-2.74.493-3.443.574-.293 1.16-.409 2.135-.405M35.467 10.83c.909-.006 1.72.098 2.422.6.587.417.892 1.003.965 1.716.01.096-.002.145-.11.149-.505.018-1.01.039-1.513.062-.108.004-.145-.039-.17-.145-.145-.593-.524-.92-1.134-.999-.55-.072-1.085-.054-1.581.214-.518.279-.519.86-.002 1.15.442.249.94.344 1.427.462.6.144 1.204.278 1.778.514 1.05.432 1.562 1.169 1.561 2.245 0 .988-.582 1.872-1.575 2.225-1.29.459-2.607.486-3.89-.037-.983-.401-1.462-1.215-1.65-2.23-.035-.185.03-.24.195-.254.444-.038.889-.075 1.332-.127.226-.027.19.156.22.262.161.593.495 1.024 1.1 1.206.552.166 1.108.154 1.657-.015.336-.103.6-.314.759-.635.224-.453.073-.876-.404-1.112-.428-.211-.899-.29-1.357-.403-.553-.137-1.11-.262-1.64-.475-.725-.293-1.29-.758-1.504-1.542-.302-1.108.334-2.189 1.5-2.593.547-.189 1.111-.255 1.614-.239M129.156 10.947L135.693 10.949 135.693 12.349 130.907 12.338 130.907 14.198 135.351 14.187 135.351 15.562 130.907 15.553 130.907 17.837 135.869 17.837 135.869 19.195 129.156 19.196zM31.968 29.564c.413-.045.818-.083 1.22-.135.162-.021.22.055.255.191.223.888.892 1.153 1.696 1.119.32-.013.635-.062.909-.256.262-.187.43-.427.407-.756-.022-.335-.26-.503-.547-.61-.535-.2-1.101-.287-1.649-.442-.316-.089-.63-.185-.924-.332-.736-.366-1.143-.935-1.103-1.782.03-.65.553-1.313 1.27-1.55.946-.315 1.909-.319 2.853 0 .76.256 1.205.813 1.348 1.605.032.178 0 .26-.213.255-.339-.007-.68.02-1.018.046-.144.011-.224-.013-.274-.169-.185-.576-.514-.809-1.119-.815-.319-.003-.638-.022-.945.108-.25.106-.485.22-.501.534-.017.329.207.479.47.59.527.224 1.093.312 1.643.457.373.098.747.201 1.093.375.728.366 1.105.973 1.089 1.779-.017.785-.376 1.422-1.101 1.749-1.166.526-2.378.538-3.55.032-.835-.361-1.201-1.105-1.309-1.993M99.084 27.449c1.002-1.124 2.69-.901 3.12.105.054-.06.105-.114.154-.17.564-.649 1.48-.867 2.278-.545.488.198.744.574.806 1.083.119.997.055 3.862.055 3.862h-.883s.006-2.02.002-2.903c-.001-.223-.013-.447-.04-.668-.063-.511-.383-.794-.893-.806-.764-.018-1.32.5-1.331 1.266-.014.932-.01 3.11-.01 3.11h-.889s.014-2.458-.019-3.4c-.031-.931-.76-1.11-1.429-.88-.507.176-.731.565-.805 1.074-.083.571-.049 3.207-.049 3.207h-.881l-.005-4.982h.82s-.048 0 0 .647M67.168 26.113L64.931 26.113 64.942 31.775 63.467 31.775 63.48 26.113 61.294 26.113 61.294 24.89 67.168 24.89zM73.673 25.733L73.685 31.775 72.695 31.775 72.709 25.733 70.28 25.733 70.28 24.89 76.154 24.89 76.154 25.733zM108.664 25.22L108.668 27.281 108.331 27.281 108.336 25.22 107.507 25.22 107.507 24.932 109.51 24.932 109.51 25.22zM47.118 38.985c.473.3.357.571.134.876-.145.199-.232.44-.357.686.293.017.55-.036.79-.11.332-.102.632-.162.9.168.013-.73.055-1.432-.004-2.134-.005-.058-.023-.115-.026-.172-.003-.044-.02-.104.042-.123.072-.02.105.033.127.088.057.144.12.286.161.434.044.155.098.207.263.123.432-.22.864-.436 1.262-.714.163-.114.3-.245.365-.433.024 0 .046-.007.057.001.564.428.565.431-.086.7-.516.213-1.016.47-1.556.627-.102.03-.177.07-.178.214-.002.408-.03.815-.051 1.223-.007.13-.004.213.18.19.814-.098 1.639-.118 2.435-.352.255-.075.382.155.552.328-.446.044-.892.105-1.339.127-.253.012-.345.076-.341.352.017 1.39.01 2.778.01 4.167 0 .162.003.327-.07.482-.31-.23-.432-.62-.363-.963.06-.302.088-.615.09-.923.003-.923-.018-1.846-.018-2.768 0-.184-.038-.263-.241-.23-.239.04-.481.057-.723.07-.237.013-.213.196-.222.338-.037.61-.116 1.212-.236 1.812-.213 1.067-.785 1.9-1.623 2.569-.04.033-.078.098-.144.041-.086-.074-.007-.12.037-.163.305-.3.603-.604.847-.958.403-.584.518-1.267.63-1.94.093-.563.122-1.137.17-1.706.008-.087.078-.247-.112-.23-.688.064-1.375.14-2.083.24.289.178.264.372.153.636-.123.292-.043.35.265.304.306-.045.61-.09.907-.183.206-.065.348.11.47.231.093.094-.037.103-.112.11-.415.04-.829.088-1.244.12-.222.018-.328.07-.328.343 0 .921.066 1.845-.047 2.764-.015.119-.015.26-.137.296-.111.032-.171-.103-.244-.176l-.951-.964c.076-.091.13-.036.187-.003.193.11.39.215.58.331.174.108.25.08.268-.137.061-.717.023-1.436.042-2.154.005-.19-.085-.217-.228-.182-.329.08-.673.081-.993.203-.269.103-.417-.121-.615-.258.452-.061.903-.133 1.357-.18.482-.052.483-.042.473-.526-.012-.58-.04-.602-.599-.5-.35.065-.703.124-1.055.183-.225.038-.332-.145-.546-.285.31-.038.555-.073.8-.097.261-.026.522-.051.783-.059.165-.005.199-.062.154-.213-.112-.372-.289-.711-.525-1.042.222.022.819.505.833.67.016.193-.167.321-.196.51.263.062.514-.046.77-.047.084 0 .105-.068.127-.136.128-.407.234-.817.25-1.246.008-.177-.019-.248-.242-.211-.629.104-1.269.13-1.891.286-.195.048-.307-.148-.501-.285.486-.056.912-.098 1.337-.154.669-.089 1.35-.088 2-.313.23-.079.337.153.563.288l-1.144.14M92.98 30.323c.24-.04.48-.073.714-.122.116-.025.152.028.19.12.3.739.86 1.037 1.663.89.259-.048.51-.106.706-.305.369-.375.286-.842-.21-1.009-.484-.162-.986-.27-1.477-.412-.24-.07-.484-.143-.71-.247-.415-.19-.675-.51-.718-.98-.048-.511.156-.91.572-1.194.744-.506 2.203-.477 2.934.043.287.204.413.503.509.822.031.106-.004.162-.124.167-.087.003-.171.04-.258.045-.24.015-.51.116-.581-.277-.028-.156-.189-.272-.344-.338-.496-.211-1-.203-1.495-.006-.218.087-.379.266-.374.51.004.26.185.432.419.505.46.144.93.259 1.394.39.213.06.423.135.635.198.542.163.902.498.955 1.078.05.548-.201.973-.638 1.29-.271.196-.582.308-.91.353-.58.078-1.16.085-1.721-.116-.657-.235-.997-.732-1.131-1.405M85.21 31.091c-.345.38-.697.656-1.164.746-.517.1-1.02.069-1.504-.152-.612-.28-.809-.814-.82-1.425-.019-1.077-.01-3.459-.01-3.459h.88s-.004 2.359.008 3.213c.01.642.23.987.726 1.119.768.205 1.7-.182 1.779-1.154.079-.96.035-3.178.035-3.178h.894v4.982h-.815v-.524s-.005-.106-.01-.168M88.09 27.491c.044-.061.09-.122.132-.185.456-.691 1.046-.736 1.749-.415.05.023.165.101.165.101l-.308.804s-.276-.194-.418-.222c-.54-.106-.998.155-1.154.683-.082.279-.131.564-.13.859.005.806.006 2.667.006 2.667h-.882l-.005-4.982h.779v.673l.066.017M73.17 40.37c-.458.205-.894.41-1.336.597-.163.069-.188.14-.113.299.178.374.335.758.515 1.173.352-.333.732-.602.904-1.056.02-.053.012-.122.096-.117.058.003.08.044.095.094.006.018.018.034.027.051.2.392.198.39-.167.628-.228.147-.445.311-.678.45-.144.086-.18.159-.087.313.14.23.263.473.375.719.326.718.855 1.155 1.658 1.231.075.008.21-.032.204.098-.006.16-.15.077-.228.083-.359.026-.718.03-1.076.058-.176.014-.268-.027-.346-.204-.506-1.138-1.028-2.268-1.546-3.4-.036-.077-.032-.225-.176-.166-.103.043-.241.056-.248.236-.039 1.133-.06 2.267-.05 3.452.322-.223.61-.427.902-.624.063-.042.125-.166.215-.066.1.111-.052.143-.098.188-.394.388-.814.753-1.122 1.218-.08.119-.132.083-.225.023-.209-.133-.444-.234-.143-.516.105-.1.112-.266.109-.412-.025-1.34.125-2.678.027-4.018-.005-.068-.026-.135.07-.162.104-.03.11.061.133.112.065.137.08.383.189.393.146.012.314-.118.457-.21.408-.266.89-.442 1.134-.913.05-.096.109-.04.157.017l.372.43M66.59 40.075c.4-.058.747-.037 1.087-.09.715-.11 1.443-.126 2.14-.358.251-.083.379.187.632.323l-1.83.193c.546.398-.06.763.062 1.158.229-.04.462-.075.694-.12.073-.015.149-.044.21-.087.08-.056.107-.224.236-.166.12.052.217.16.319.248.053.046.049.103-.006.15-.315.267-.29.663-.36 1.013-.163.824-.338 1.644-.584 2.447-.084.272-.22.515-.374.75-.075.113-.134.11-.206-.011-.193-.324-.395-.643-.595-.963-.035-.056-.102-.109-.027-.174.082-.072.118.025.164.06.114.09.233.179.33.286.186.205.284.12.357-.089.26-.739.443-1.497.579-2.268.04-.228.076-.457.114-.686.026-.153.023-.26-.193-.2-.213.06-.434.094-.653.124-.165.022-.16.159-.186.258-.167.635-.374 1.255-.649 1.853-.305.666-.78 1.198-1.3 1.697-.05.046-.098.149-.185.05-.082-.094.022-.142.066-.188.622-.656 1.088-1.411 1.393-2.257.302-.839.472-1.71.548-2.6.017-.196-.05-.254-.24-.216-.246.05-.506.054-.74.134-.327.111-.525-.068-.802-.27M57.311 38.819c.57-.1 1.097-.155 1.608-.295.322-.088.366-.082.648.224-.298.042-.58.096-.864.118-.145.011-.208.065-.234.197-.054.275-.11.549-.173.821-.035.152.039.166.155.144.256-.05.522-.071.763-.16.304-.111.51-.003.747.223-.544.064-1.048.131-1.555.176-.165.015-.249.086-.284.23-.044.179.127.172.214.218.196.103.406.179.607.272.508.235.546.306.496.918-.334-.283-.654-.557-.976-.828-.082-.068-.178-.118-.259-.187-.123-.104-.192-.09-.288.053-.33.49-.678.969-1.201 1.283-.324.195-.656.372-.998.528-.049.023-.116.108-.166.024-.062-.103.05-.127.109-.164.23-.142.468-.273.694-.422.672-.443 1.181-1.018 1.468-1.815-.525.024-1.016.113-1.507.2-.353.061-.351.072-.676-.214l.722-.092c.46-.057.92-.12 1.382-.167.13-.013.182-.053.202-.186.038-.247.098-.49.154-.735.038-.165-.009-.243-.184-.189-.205.064-.404.118-.604-.024-.117-.082-.145.055-.193.11-.237.269-.462.548-.703.814-.043.048-.088.197-.189.097-.086-.085.04-.151.086-.207.442-.533.8-1.113 1.052-1.76.088-.226.185-.447.165-.698-.006-.067-.015-.153.064-.175.08-.022.104.07.148.118.22.233.354.445.057.75-.201.207-.311.503-.487.8M110.265 27.28L109.923 27.28 109.924 24.927 110.469 24.927 111.121 26.912 111.815 24.927 112.319 24.927 112.322 27.28 112.044 27.28 111.974 27.28 111.974 25.39 111.341 27.28 110.904 27.28 110.265 25.39z"/>
        <path d="M71.092 39.416c.708-.104 1.377-.153 2.01-.367.36-.122.555.03.798.301-.325.038-.609.068-.891.104-.624.08-1.247.163-1.87.242-.137.017-.225.083-.295.203-.151.259-.312.513-.478.762-.053.08-.085.251-.213.18-.139-.077.004-.192.049-.267.42-.714.69-1.486.902-2.28.075-.284.106-.572.053-.864-.01-.056-.03-.107.044-.145.081-.042.103.023.138.06.14.147.312.279.407.452.12.22-.151.333-.214.512-.122.354-.275.698-.44 1.107M43.75 44.715c.03-.145.137-.186.212-.253.533-.483 1.022-1 1.31-1.674.023-.052.028-.125.103-.12.068.005.079.073.102.127.045.106.097.209.145.314.035.076.036.134-.047.195-.544.402-.984.93-1.557 1.296-.075.048-.13.141-.269.115M68.327 37.65c.072-.002.1.056.135.098.236.282.475.562.705.848.139.172.025.676-.168.782-.077.042-.097-.004-.117-.068-.159-.525-.33-1.046-.6-1.527-.039-.07-.018-.106.045-.133M45.647 37.315c.385.147.709.374.989.662.068.07-.059.526-.148.583-.067.043-.12.005-.136-.05-.14-.452-.446-.801-.705-1.195M47.969 43.457c0 .039.003.059 0 .077-.02.099.018.244-.094.277-.103.03-.14-.112-.196-.182-.22-.27-.468-.511-.72-.749-.047-.043-.165-.083-.09-.174.051-.063.117.017.17.044.248.126.492.26.74.385.145.072.23.17.19.322M39.044 41.43c-.012.112-.056.169-.18.18-.588.052-1.176.107-1.764.172-.173.02-.216-.04-.208-.202.012-.262.003-.525.003-.787 0-.253.006-.505-.002-.757-.006-.14.027-.213.184-.226.656-.055 1.312-.117 1.967-.186.139-.015.197.005.179.159-.064.548-.122 1.097-.18 1.646m-2.617.36c-.142.132-.457.084-.696.104-.376.03-.754.044-1.13.08-.145.015-.21 0-.212-.168-.01-.503-.034-1.007-.06-1.51-.008-.141.018-.196.179-.208.578-.043 1.156-.098 1.732-.172.227-.029.259.057.247.248-.014.232-.003.466-.003.698 0 .068.004.136-.001.204-.018.248.109.572-.056.724m3.437-2.583c-.07-.05-.142-.104-.201-.167-.138-.149-.237-.119-.339.044-.076.12-.157.235-.331.25-.637.057-1.273.121-1.907.198-.152.018-.188-.022-.185-.161.008-.398-.095-.834.034-1.186.216-.59-.19-.745-.514-.993-.008-.006-.017-.01-.025-.017-.044-.033-.086-.088-.149-.039-.064.05-.02.105.003.155.31.69.225 1.424.239 2.147.002.114-.023.18-.155.19-.454.035-.919.028-1.358.133-.533.126-.836-.038-.995-.541-.017-.055-.036-.152-.125-.124-.108.034-.054.136-.045.202.04.267.12.532.132.8.03.636.201 1.285.034 1.908-.127.472.156.695.383.987.037-.175.053-.345.054-.515.001-.114.032-.182.158-.192.58-.048 1.159-.1 1.738-.148.083-.007.157.001.156.116-.01.844.11 1.7-.069 2.526-.075.35-.02.587.143.851l.18.295h.06c.057-.116.06-.24.067-.365.06-1.078.033-2.156.041-3.234.002-.167.018-.25.223-.265.812-.058 1.623-.139 2.433-.214.07-.007.171.035.2-.067.023-.08-.059-.119-.113-.15-.165-.096-.208-.222-.176-.41.056-.334.093-.672.119-1.01.02-.28.082-.536.304-.728.119-.102.11-.187-.014-.276M122.272 14.452v-2.11l1.404.002v.01c.389 0 .777-.008 1.166.001.609.015 1.032.415 1.05.98.02.605-.354.988-.99 1.062-.814.094-2.63.055-2.63.055m5.724 4.123c-.773-1.066-1.327-2.321-2.607-3 .278-.072.513-.12.74-.193 1.046-.332 1.611-1.124 1.572-2.234-.034-.962-.657-1.84-1.7-2.043-.515-.1-1.035-.147-1.559-.15-1.213-.005-3.95-.007-3.95-.007l.001 8.249h1.79l-.005-3.45s1.38-.052 1.851.501c.151.177.3.357.436.545.538.736 1.606 2.213 1.606 2.213l.163.186 2.068-.001s-.27-.43-.406-.616M56.092 27.823v-1.758l1.17.001v.008c.324 0 .647-.006.97.002.508.012.862.345.877.816.016.504-.296.823-.825.885-.679.078-2.192.046-2.192.046m4.77 3.435c-.645-.888-1.106-1.934-2.173-2.5.232-.06.427-.1.617-.16.87-.277 1.342-.937 1.309-1.862-.028-.801-.547-1.533-1.416-1.702-.43-.084-.863-.123-1.299-.125-1.01-.004-3.29-.006-3.29-.006v6.873h1.49l-.003-2.874s1.15-.044 1.542.417c.126.147.25.297.364.454.448.613 1.337 1.844 1.337 1.844l.137.155 1.722-.001s-.225-.359-.337-.513M58.58 14.96c.003.85-.1 1.58-.614 2.167-.701.8-1.606.98-2.591.691-.963-.281-1.465-1-1.63-1.962-.127-.744-.101-1.486.17-2.202.322-.85 1.132-1.409 2.041-1.419.33-.003.657-.006.978.094.923.288 1.401.948 1.58 1.862.057.287.08.576.066.77m1.748-.864c-.21-1.182-.792-2.113-1.847-2.712-1.014-.577-2.115-.648-3.241-.493-1.567.216-2.621 1.08-3.137 2.57-.295.851-.308 1.74-.16 2.616.233 1.378.982 2.382 2.296 2.917.912.371 1.866.427 2.828.274.881-.14 1.662-.503 2.283-1.166.797-.852 1.056-1.89 1.047-3.02-.006-.33-.011-.66-.07-.986M117.503 15.047c.004.76-.096 1.5-.623 2.092-.698.785-1.592.963-2.568.682-.965-.278-1.472-.992-1.638-1.952-.13-.744-.11-1.486.165-2.204.333-.87 1.129-1.407 2.06-1.434.786-.023 1.48.158 2.01.773.417.485.543 1.078.593 1.694.009.115 0 .233 0 .349m1.752-.943c-.238-1.345-.948-2.337-2.204-2.899-.93-.416-1.913-.451-2.907-.312-1.468.206-2.495 1.001-3.047 2.372-.351.874-.368 1.796-.236 2.719.195 1.366.898 2.377 2.165 2.95.887.402 1.826.478 2.787.356.953-.121 1.79-.477 2.458-1.183.802-.847 1.061-1.887 1.052-3.018-.002-.33-.01-.659-.068-.985M96.76 15.95l1.204-3.104 1.23 3.104H96.76zm2.174-4.997l-1.872-.004-3.414 8.248h1.847l.703-1.89h3.573l.79 1.89h1.889l-3.516-8.244zM49.222 29.07l1.003-2.586 1.025 2.587h-2.028zm1.811-4.164l-1.56-.003-2.845 6.873h1.54l.585-1.574h2.977l.659 1.573h1.574l-2.93-6.869zM79.21 30.834c-.826.758-2.168.394-2.498-.675-.17-.549-.177-1.107-.013-1.66.22-.748.776-1.13 1.6-1.109.642.017 1.203.502 1.377 1.18.06.239.062.48.067.721.012.58-.083 1.13-.533 1.543m1.37-2.343c-.244-1.03-.942-1.637-2.135-1.776-1.086-.127-2.293.378-2.643 1.641-.107.39-.116.784-.1 1.18.061 1.471.987 2.354 2.46 2.35 1.112-.002 2.005-.536 2.314-1.422.225-.642.263-1.308.105-1.973M61.102 42.725c-.066.499-.09 1.003-.137 1.505-.012.124-.028.254-.075.367-.07.17-.16.356-.371.113-.082-.094-.182-.105-.31-.072-.585.147-1.19.147-1.783.232-.157.022-.216-.039-.197-.19.004-.03 0-.059 0-.088-.01-.724-.01-.722.723-.763.28-.016.56-.04.84-.064.266-.023.53-.052.838-.083-.2-.207-.334-.366-.65-.276-.53.15-1.09.148-1.638.214-.105.012-.145-.022-.147-.12l-.003-.057c-.066-.72-.03-.744.705-.786.657-.038 1.313-.11 1.969-.173.192-.018.267.012.236.241m.49-.686c-.096-.103-.2-.282-.358-.055-.073.104-.155.19-.3.204-.818.075-1.637.151-2.454.24-.268.029-.443-.028-.493-.322-.012-.071-.018-.177-.114-.202-.1.005-.09.06-.083.123.022.212.038.424.056.637.06.707.072 1.42.008 2.12-.029.306-.033.547.142.788.043.06.066.173.15.155.106-.022.091-.14.079-.22-.044-.285.105-.367.357-.383.579-.037 1.16-.072 1.736-.138.313-.037.487.05.557.364.017.078.036.227.152.208.091-.014.098-.147.119-.24.158-.73.201-1.474.29-2.213.03-.253-.003-.536.236-.72.237-.18.005-.254-.08-.346M62.158 39.289c-.087.404-.145.816-.195 1.227-.017.143-.06.205-.205.217-.356.03-.712.066-1.066.109-.133.015-.177-.04-.176-.159v-.668h-.025c0-.106.006-.213 0-.32-.025-.41-.027-.414.378-.463.374-.046.749-.085 1.123-.125.136-.015.207-.006.166.182m.576-.278c.141-.131.102-.225-.035-.286-.137-.06-.242-.367-.437-.1-.096.13-.193.195-.352.208-.27.022-.545.035-.804.105-.453.121-.79.061-.933-.445-.015-.054-.044-.112-.123-.088-.092.027-.04.086-.033.138.038.268.097.536.106.805.02.551.148 1.1.044 1.653-.062.336.01.534.314.747.079-.133.08-.281.07-.422-.015-.196.067-.236.249-.244.542-.025 1.083-.073 1.625-.112.09-.006.19-.07.094-.128-.34-.208-.196-.499-.14-.751.084-.37.044-.79.355-1.08M40.387 19.196L42.087 19.196 42.087 10.949 40.387 10.949zM81.852 16.386L81.848 10.949 83.49 10.949 83.49 19.197 81.701 19.197 78.187 13.883 78.146 19.197 76.497 19.197 76.548 10.949 78.234 10.949zM73.299 19.196L74.999 19.196 74.999 10.949 73.299 10.949zM91.027 31.783L91.994 31.783 91.994 26.801 91.027 26.801zM91.027 25.903L91.994 25.903 91.994 24.932 91.027 24.932zM61.516 15.643L63.944 15.643 63.944 14.55 61.516 14.55zM107.063 14.628c-.657.104-2.14.064-2.14.064l.001-2.348s1.52-.055 2.202.064c.603.106.99.563.98 1.121-.012.57-.428 1-1.043 1.099m.599-3.622c-.296-.017-.653-.03-1.033-.038h-3.467l-.004 8.231h1.773l-.01-3.121h.244s1.512 0 2.27-.044c1.44-.086 2.401-1.005 2.486-2.442.083-1.394-.91-2.508-2.26-2.586"/>
    </g>
</svg>
